<svg width="1440" height="152" viewBox="0 0 1440 152" fill="none" xmlns="http://www.w3.org/2000/svg">
<g clip-path="url(#clip0_620_5492)">
<path style="mix-blend-mode:screen" d="M411.428 34.8544C405.688 43.8992 393.858 48.4013 382.518 46.7282C382.218 49.0705 381.398 51.4128 379.998 53.6233C374.158 62.8201 360.598 66.2778 349.708 61.3397C347.428 60.3055 345.468 58.9771 343.818 57.4562C337.038 63.4184 326.168 65.1219 317.118 61.0254C306.788 56.3408 302.598 45.7852 307.198 36.852C302.148 37.8051 296.688 37.2981 291.778 35.0673C280.888 30.1292 276.808 18.6712 282.648 9.47435C285.668 4.71876 290.758 1.51453 296.468 0.196354C293.088 -6.1512 293.098 -13.7054 297.298 -20.3166C304.468 -31.6022 321.118 -35.8407 334.488 -29.7872C338.338 -28.0431 341.488 -25.6298 343.858 -22.811C351.738 -32.2714 366.918 -35.4756 379.278 -29.8784C386.378 -26.654 391.098 -21.1683 392.908 -15.0439C396.618 -15.5103 400.518 -15.0337 404.078 -13.4215C412.848 -9.44664 416.138 -0.219357 411.428 7.19288C410.788 8.20687 410.028 9.11946 409.168 9.95092C415.388 16.9576 416.648 26.631 411.428 34.8544Z" fill="white"/>
<path style="mix-blend-mode:screen" d="M252.378 37.3691C245.888 47.5799 232.528 52.6802 219.708 50.7841C219.368 53.4306 218.438 56.0771 216.858 58.5715C210.258 68.9649 194.938 72.8687 182.638 67.2817C180.068 66.1156 177.848 64.6149 175.978 62.8911C168.318 69.6341 156.028 71.5505 145.818 66.9166C134.148 61.6236 129.408 49.689 134.608 39.61C128.898 40.6848 122.738 40.117 117.188 37.5921C104.888 32.0152 100.268 19.0666 106.868 8.67326C110.278 3.29913 116.028 -0.320793 122.478 -1.81136C118.658 -8.98024 118.678 -17.518 123.418 -24.9809C131.528 -37.7369 150.328 -42.5229 165.438 -35.6785C169.788 -33.7012 173.348 -30.9837 176.028 -27.7998C184.928 -38.4872 202.078 -42.1173 216.048 -35.7799C224.068 -32.1397 229.408 -25.9341 231.448 -19.0187C235.638 -19.5561 240.048 -19.0086 244.068 -17.1834C253.968 -12.6914 257.688 -2.26765 252.378 6.10788C251.658 7.25368 250.788 8.28795 249.828 9.22082C256.858 17.1299 258.278 28.0708 252.378 37.3589V37.3691Z" fill="white"/>
<path style="mix-blend-mode:screen" d="M480.108 10.6099C484.448 11.4312 488.308 13.8648 490.308 17.5456C493.718 23.7917 490.488 31.1837 483.098 34.0634C479.608 35.4221 475.808 35.5134 472.418 34.5907C471.748 38.1599 469.058 41.3844 464.878 43.0068C458.568 45.4606 451.168 43.3616 447.818 38.3323C446.608 39.6809 444.998 40.7963 443.048 41.5567C437.408 43.7571 430.848 42.155 427.388 38.0179C425.928 39.4578 424.078 40.6746 421.908 41.5162C413.848 44.6494 404.308 41.6784 400.588 34.8644C397.258 28.7501 399.748 21.6319 406.118 17.9714C405.058 17.1095 404.168 16.0651 403.508 14.8686C400.698 9.71759 403.368 3.61338 409.458 1.2508C413.668 -0.391857 418.408 0.175991 421.858 2.37634C422.908 -1.85198 426.228 -5.61389 431.228 -7.56074C435.298 -9.14256 439.718 -9.22366 443.638 -8.07785C444.688 -9.86247 446.438 -11.3632 448.748 -12.2656C453.828 -14.2429 459.778 -12.58 462.528 -8.56458C462.548 -8.56458 462.558 -8.57471 462.578 -8.58485C469.968 -11.4646 478.718 -8.72683 482.118 -2.49081C484.558 1.991 483.578 7.0508 480.098 10.62L480.108 10.6099Z" fill="white"/>
<path style="mix-blend-mode:screen" d="M511.058 5.85448C519.648 7.46671 527.288 12.3034 531.248 19.5737C537.988 31.9443 531.598 46.5762 516.968 52.2748C510.048 54.972 502.538 55.1545 495.828 53.3192C494.498 60.3765 489.168 66.7748 480.908 69.9891C468.418 74.8562 453.748 70.6989 447.128 60.7314C444.728 63.3982 441.548 65.6188 437.688 67.1195C426.518 71.4695 413.518 68.3059 406.668 60.1129C403.778 62.9723 400.118 65.3653 395.808 67.0485C379.848 73.2643 360.948 67.3629 353.598 53.887C346.998 41.7901 351.938 27.6856 364.558 20.4254C362.458 18.722 360.688 16.6534 359.398 14.2807C353.838 4.09013 359.118 -7.99658 371.188 -12.6913C379.518 -15.9361 388.898 -14.8207 395.748 -10.4707C397.828 -18.8361 404.408 -26.2889 414.298 -30.142C422.348 -33.2752 431.108 -33.4273 438.878 -31.1763C440.968 -34.705 444.418 -37.6861 448.998 -39.4707C459.058 -43.3847 470.848 -40.0994 476.278 -32.1497C476.308 -32.17 476.338 -32.1801 476.368 -32.1903C490.988 -37.8889 508.318 -32.4843 515.058 -20.1238C519.898 -11.2515 517.938 -1.22316 511.068 5.84432L511.058 5.85448Z" fill="white"/>
<path style="mix-blend-mode:screen" d="M395.138 31.7415C391.758 33.232 388.068 33.6883 384.558 33.2624C383.378 36.3652 380.808 39.0929 377.118 40.7254C371.488 43.2198 364.848 42.439 360.258 39.1943C358.868 41.1918 356.818 42.8953 354.208 44.0512C346.748 47.3467 337.539 44.9131 333.629 38.6061C332.879 37.3995 332.378 36.132 332.118 34.8442C325.969 36.4261 319.149 34.1446 316.059 29.1558C315.049 27.5233 314.558 25.7894 314.518 24.0656C311.368 23.1428 308.609 21.2467 306.939 18.5495C303.459 12.932 306.029 5.98623 312.679 3.04567C315.429 1.82889 318.448 1.50439 321.288 1.90998C322.118 -4.00156 326.279 -9.4872 332.999 -12.4582C342.439 -16.6257 353.798 -14.4862 360.318 -7.80399C361.778 -9.5886 363.758 -11.1197 366.198 -12.1945C374.198 -15.7333 384.078 -13.1173 388.258 -6.36412C390.318 -3.03824 390.608 0.683075 389.428 4.01909C394.828 4.6579 399.788 7.39565 402.508 11.7862C406.988 19.0159 403.678 27.939 395.129 31.7212L395.138 31.7415Z" fill="white"/>
<path style="mix-blend-mode:screen" d="M103.698 54.9414C95.5083 58.5715 86.5483 59.6666 78.0383 58.6323C75.1683 66.1561 68.9483 72.7774 59.9983 76.732C46.3283 82.7753 30.2483 80.8893 19.1083 73.0106C15.7383 77.8474 10.7483 81.9946 4.41829 84.7932C-13.6817 92.7935 -36.0317 86.882 -45.5017 71.5911C-47.3117 68.6505 -48.5317 65.5781 -49.1617 62.4753C-64.0817 66.3183 -80.6117 60.782 -88.1117 48.675C-90.5617 44.7204 -91.7417 40.5023 -91.8517 36.3246C-99.4917 34.0736 -106.182 29.4904 -110.232 22.9502C-118.682 9.31205 -112.442 -7.53025 -96.3017 -14.6687C-89.6317 -17.6194 -82.3117 -18.4103 -75.4217 -17.4166C-73.4017 -31.7645 -63.3217 -45.0579 -47.0217 -52.2673C-24.1217 -62.3869 3.44829 -57.175 19.2483 -40.9817C22.7883 -45.3215 27.5883 -49.0124 33.5083 -51.6285C52.9083 -60.2068 76.8783 -53.8694 87.0283 -37.4733C92.0283 -29.3918 92.7283 -20.3775 89.8583 -12.296C102.948 -10.7446 114.998 -4.09284 121.598 6.55401C132.458 24.096 124.448 45.7446 103.688 54.9211L103.698 54.9414Z" fill="white"/>
<path style="mix-blend-mode:screen" d="M55.0683 16.8866C55.0683 22.6156 51.0683 27.5436 45.2983 29.8251C45.3883 30.545 45.4383 31.2751 45.4383 32.0051C45.4383 43.5037 34.4083 52.8223 20.7983 52.8223C12.8383 52.8223 5.75832 49.6282 1.24832 44.6698C-2.05168 46.8296 -6.18168 48.1174 -10.6817 48.1174C-21.4517 48.1174 -30.1917 40.7356 -30.1917 31.63C-30.1917 30.4436 -30.0417 29.2877 -29.7617 28.1824C-29.9017 28.1824 -30.0417 28.1824 -30.1917 28.1824C-38.0817 28.1824 -44.4717 22.7779 -44.4717 16.116C-44.4717 10.7114 -40.2717 6.13834 -34.4817 4.60722C-35.3917 2.77191 -35.9017 0.75407 -35.9017 -1.35502C-35.9017 -9.8725 -27.7317 -16.7777 -17.6417 -16.7777C-17.1717 -16.7777 -16.7017 -16.7574 -16.2417 -16.727C-13.2817 -19.8704 -8.72168 -21.8984 -3.60168 -21.8984C1.92832 -21.8984 6.80832 -19.5459 9.71832 -15.9564C11.5483 -16.4735 13.5083 -16.7777 15.5583 -16.7777C21.6283 -16.7777 26.9783 -14.263 30.3083 -10.42C32.0583 -10.9777 33.9483 -11.2921 35.9383 -11.2921C44.8483 -11.2921 52.0783 -5.18786 52.0783 2.34605C52.0783 4.17123 51.6483 5.90513 50.8783 7.49709C53.4783 10.0118 55.0583 13.287 55.0583 16.8866H55.0683Z" fill="white"/>
<path style="mix-blend-mode:screen" d="M489.958 19.2592C489.958 34.4994 479.308 47.6103 463.988 53.6637C464.228 55.57 464.358 57.5068 464.358 59.4739C464.358 90.0557 435.018 114.848 398.828 114.848C377.648 114.848 358.828 106.34 346.848 93.1585C338.078 98.8977 327.078 102.335 315.128 102.335C286.478 102.335 263.248 82.7145 263.248 58.4903C263.248 55.3368 263.648 52.2746 264.398 49.3138C264.018 49.334 263.638 49.334 263.248 49.334C242.278 49.334 225.278 34.9658 225.278 17.2515C225.278 2.88332 236.448 -9.27437 251.848 -13.3607C249.428 -18.238 248.088 -23.602 248.088 -29.2195C248.088 -51.8719 269.828 -70.2453 296.648 -70.2453C297.898 -70.2453 299.148 -70.2048 300.378 -70.1237C308.248 -78.4992 320.368 -83.8835 333.988 -83.8835C348.708 -83.8835 361.678 -77.6272 369.418 -68.0754C374.288 -69.4646 379.508 -70.2453 384.948 -70.2453C401.078 -70.2453 415.328 -63.5632 424.168 -53.332C428.828 -54.8023 433.858 -55.6439 439.138 -55.6439C462.838 -55.6439 482.058 -39.3999 482.058 -19.3737C482.058 -14.5167 480.898 -9.90305 478.858 -5.66458C485.758 1.01759 489.968 9.72774 489.968 19.2896L489.958 19.2592Z" fill="white"/>
<path style="mix-blend-mode:screen" d="M480.929 13.0131C479.829 14.0169 478.509 14.8585 477.039 15.4872C479.779 17.4949 481.718 20.2529 482.398 23.3861C482.578 24.2075 482.669 25.039 482.669 25.9008C482.669 33.5057 475.379 39.6708 466.379 39.6708C462.769 39.6708 459.439 38.6771 456.739 37.004C454.219 41.8508 448.489 45.2375 441.819 45.2375C433.819 45.2375 427.189 40.3704 425.799 33.9519C422.879 35.8683 419.219 37.0243 415.239 37.0243C405.709 37.0243 397.979 30.4942 397.979 22.433C397.979 15.3858 403.889 9.50469 411.759 8.14595C410.649 6.34106 410.009 4.28264 410.009 2.10257C410.009 -5.13729 416.959 -11.0083 425.529 -11.0083C429.379 -11.0083 432.899 -9.82189 435.609 -7.8649C438.309 -11.7079 443.279 -14.2834 448.949 -14.2834C455.979 -14.2834 461.909 -10.339 463.819 -4.92435C465.869 -5.95861 468.269 -6.54673 470.829 -6.54673C478.439 -6.54673 484.609 -1.33483 484.609 5.09384C484.609 8.14594 483.219 10.9344 480.929 13.0131Z" fill="white"/>
<path style="mix-blend-mode:screen" d="M81.6683 11.2488C79.7783 12.9726 77.5083 14.4226 74.9983 15.4974C79.6983 18.945 83.0283 23.6803 84.1983 29.0646C84.5083 30.4639 84.6583 31.9037 84.6583 33.374C84.6583 46.4342 72.1383 57.01 56.6883 57.01C50.4883 57.01 44.7683 55.3065 40.1283 52.4268C35.8083 60.7516 25.9683 66.5618 14.5083 66.5618C0.778286 66.5618 -10.6117 58.2065 -12.9917 47.1845C-18.0117 50.4698 -24.2817 52.4471 -31.1217 52.4471C-47.4917 52.4471 -60.7617 41.2324 -60.7617 27.4016C-60.7617 15.3048 -50.6117 5.20548 -37.1117 2.87331C-39.0217 -0.229485 -40.1117 -3.74803 -40.1117 -7.49978C-40.1117 -19.9312 -28.1817 -30.0102 -13.4717 -30.0102C-6.86172 -30.0102 -0.811722 -27.9823 3.83828 -24.6158C8.47828 -31.2067 16.9983 -35.6277 26.7483 -35.6277C38.8083 -35.6277 48.9983 -28.8543 52.2783 -19.5561C55.7983 -21.3305 59.9183 -22.3445 64.3183 -22.3445C77.3783 -22.3445 87.9683 -13.391 87.9683 -2.34871C87.9683 2.90374 85.5783 7.66946 81.6583 11.2488H81.6683Z" fill="white"/>
<path style="mix-blend-mode:screen" d="M316.048 33.4246C317.208 50.3987 301.858 64.9494 281.758 65.9431C273.488 66.3487 265.708 64.3511 259.338 60.7211C253.958 72.2095 241.108 80.6358 225.558 81.3962C214.888 81.9134 204.988 78.7497 197.588 73.1931C193.048 80.2099 184.468 85.1683 174.328 85.655C165.218 86.1011 156.878 82.8361 151.318 77.4316C145.868 80.9197 139.178 83.1302 131.838 83.4851C112.098 84.4483 95.1784 71.7025 94.0384 55.0225C93.8284 51.9602 94.1684 48.9892 94.9884 46.1501C94.1784 45.0144 93.4884 43.828 92.8684 42.6011C73.5484 43.1081 57.1484 30.5347 56.0284 14.1284C54.8884 -2.55167 69.9684 -16.859 89.7084 -17.8122C91.8484 -17.9136 93.9484 -17.8324 96.0084 -17.6296C99.6784 -26.0761 108.988 -32.3122 120.298 -32.8699C125.268 -33.1132 130.018 -32.2209 134.178 -30.4667C137.878 -43.6891 151.508 -53.8796 168.388 -54.701C184.078 -55.4615 198.068 -47.9276 204.378 -36.6115C210.218 -40.5559 217.518 -43.0706 225.538 -43.466C241.128 -44.2265 255.018 -36.794 261.388 -25.5894C263.228 -26.0255 265.148 -26.3195 267.138 -26.4209C281.948 -27.1408 294.648 -17.5891 295.498 -5.06635C295.778 -0.929276 294.708 3.00497 292.648 6.45252C305.638 10.6504 315.198 20.9424 316.058 33.4347L316.048 33.4246Z" fill="white"/>
<path style="mix-blend-mode:screen" d="M195.728 29.7947C196.648 43.3416 184.398 54.9517 168.368 55.7426C161.768 56.0671 155.568 54.4751 150.478 51.5751C146.188 60.7416 135.928 67.4643 123.518 68.0727C114.998 68.4884 107.098 65.9534 101.198 61.5223C97.5779 67.1195 90.7278 71.0741 82.6378 71.4695C75.3679 71.8244 68.7179 69.2185 64.2779 64.909C59.9279 67.6874 54.5879 69.4517 48.7279 69.7356C32.9779 70.5063 19.4679 60.336 18.5679 47.0223C18.3979 44.5786 18.6779 42.2059 19.3279 39.9346C18.6779 39.0321 18.1279 38.079 17.6379 37.1055C2.21786 37.5111 -10.8721 27.4828 -11.7621 14.3821C-12.6721 1.07864 -0.642141 -10.3389 15.1179 -11.1095C16.8279 -11.1906 18.5079 -11.1298 20.1479 -10.9574C23.0779 -17.7004 30.5079 -22.6791 39.5279 -23.1151C43.4979 -23.3077 47.2879 -22.5979 50.6079 -21.1986C53.5579 -31.7542 64.4379 -39.8763 77.9079 -40.5354C90.4279 -41.1437 101.598 -35.1308 106.628 -26.0962C111.288 -29.2497 117.108 -31.2472 123.508 -31.5616C135.948 -32.17 147.038 -26.2382 152.118 -17.2948C153.588 -17.6497 155.118 -17.8728 156.708 -17.9539C168.528 -18.5319 178.658 -10.9067 179.338 -0.918915C179.568 2.38668 178.708 5.5199 177.068 8.2678C187.428 11.614 195.068 19.8272 195.748 29.7947H195.728Z" fill="white"/>
<path style="mix-blend-mode:screen" d="M290.219 17.0285C289.149 17.566 288.029 17.9513 286.879 18.1946C288.669 23.2848 286.259 28.9327 280.629 31.7922C277.069 33.5971 272.959 33.9114 269.279 32.9684C268.789 37.288 265.969 41.3541 261.239 43.7572C253.309 47.7827 243.029 45.6128 238.259 38.9104C238.039 38.6062 237.849 38.302 237.659 37.9876C237.379 38.1499 237.109 38.3121 236.819 38.4642C229.339 42.2565 219.649 40.2184 215.159 33.9013C213.429 31.4677 212.739 28.7603 212.949 26.124C208.629 26.2558 204.359 24.4611 201.969 21.1149C198.479 16.2072 200.359 9.84951 206.169 6.89882C208.199 5.87469 210.439 5.39812 212.639 5.4184C211.419 2.28519 212.869 -1.25364 216.359 -3.02812C217.139 -3.42357 217.959 -3.69735 218.799 -3.85959C219.719 -7.04351 222.079 -9.93335 225.679 -11.7585C225.699 -11.7687 225.729 -11.7788 225.749 -11.7889C226.459 -12.4683 227.299 -13.0767 228.269 -13.5634C233.259 -16.0984 239.679 -14.8208 242.859 -10.7648C243.269 -10.4911 243.659 -10.1869 244.039 -9.87252C244.489 -10.2376 244.979 -10.5722 245.529 -10.8561C249.089 -12.661 253.589 -12.0019 256.249 -9.46693C257.369 -10.7141 258.779 -11.8092 260.459 -12.661C267.589 -16.2809 276.849 -14.334 281.139 -8.30083C282.529 -6.35397 283.209 -4.21447 283.279 -2.09524C287.639 -2.2879 291.989 -0.503273 294.399 2.88344C297.869 7.76071 295.999 14.0981 290.219 17.0285Z" fill="white"/>
<path style="mix-blend-mode:screen" d="M239.458 17.8803C237.808 18.7219 236.068 19.3201 234.288 19.6851C237.058 27.5638 233.328 36.3247 224.608 40.7558C219.098 43.5544 212.728 44.0411 207.028 42.581C206.268 49.2631 201.898 55.5701 194.568 59.2914C182.288 65.5275 166.358 62.161 158.988 51.7879C158.648 51.3215 158.348 50.8348 158.058 50.3582C157.628 50.6117 157.208 50.8652 156.758 51.0984C145.178 56.9795 130.168 53.8058 123.208 44.0309C120.528 40.2691 119.458 36.0712 119.788 31.9949C113.098 32.2079 106.478 29.4295 102.788 24.2278C97.388 16.633 100.298 6.77711 109.288 2.21417C112.428 0.622211 115.898 -0.118008 119.308 -0.077446C117.408 -4.9243 119.668 -10.4099 125.058 -13.1477C126.258 -13.7561 127.538 -14.182 128.838 -14.4456C130.258 -19.3837 133.918 -23.8554 139.488 -26.6844C139.518 -26.7047 139.558 -26.7149 139.598 -26.7351C140.708 -27.7897 142.008 -28.7225 143.508 -29.483C151.238 -33.4072 161.178 -31.44 166.098 -25.1533C166.728 -24.7275 167.338 -24.261 167.918 -23.7743C168.618 -24.3421 169.368 -24.8694 170.228 -25.3054C175.748 -28.104 182.708 -27.0799 186.828 -23.1558C188.568 -25.0823 190.748 -26.7858 193.358 -28.104C204.408 -33.7113 218.748 -30.6897 225.388 -21.361C227.538 -18.3393 228.598 -15.0337 228.698 -11.7484C235.458 -12.0526 242.188 -9.27429 245.918 -4.03198C251.288 3.53235 248.398 13.3376 239.448 17.8701L239.458 17.8803Z" fill="white"/>
<path style="mix-blend-mode:screen" d="M168.838 15.7812C171.008 21.2872 167.488 27.2393 160.978 29.0746C159.868 29.3889 158.738 29.5511 157.618 29.6018C158.568 36.7403 153.538 43.7064 145.158 46.069C137.288 48.2896 128.898 45.7546 124.338 40.3197C118.208 41.4452 111.928 38.5148 109.898 33.3637C109.868 33.2928 109.838 33.2218 109.818 33.1508C109.048 33.5158 108.228 33.8302 107.368 34.0735C100.068 36.1319 92.1781 32.806 89.7381 26.6309C89.3881 25.7487 89.1781 24.8564 89.0781 23.9742C83.5581 23.2442 78.7081 19.9994 76.8181 15.2235C74.1281 8.39939 78.4881 1.0176 86.5681 -1.26387C89.4281 -2.06492 92.3581 -2.11562 95.0881 -1.54779C95.6281 -7.60128 100.368 -13.087 107.608 -15.1352C115.128 -17.2545 123.128 -15.044 127.808 -10.0856C129.548 -12.002 131.948 -13.5128 134.868 -14.3342C141.488 -16.1999 148.568 -13.8981 152.118 -9.102C158.068 -8.67612 163.428 -5.32998 165.428 -0.239769C166.898 3.47142 166.258 7.33471 164.098 10.4679C166.248 11.7151 167.968 13.5403 168.858 15.8015L168.838 15.7812Z" fill="white"/>
<path style="mix-blend-mode:screen" d="M389.609 16.3087C395.439 31.0926 385.999 47.0629 368.509 51.9909C365.519 52.8325 362.489 53.2786 359.499 53.3902C362.049 72.5342 348.559 91.2321 326.069 97.5695C304.949 103.532 282.429 96.7381 270.199 82.1367C253.749 85.1584 236.899 77.2797 231.449 63.4793C231.379 63.2867 231.299 63.094 231.229 62.9014C229.179 63.8849 226.969 64.7164 224.639 65.3654C205.049 70.8916 183.869 61.9482 177.329 45.4C176.399 43.0374 175.819 40.6545 175.559 38.2818C160.759 36.3349 147.729 27.6248 142.659 14.7979C135.429 -3.51472 147.139 -23.3178 168.809 -29.4322C176.479 -31.592 184.349 -31.7137 191.659 -30.2028C193.099 -46.4469 205.819 -61.1598 225.259 -66.6455C245.449 -72.3339 266.909 -66.392 279.459 -53.1087C284.119 -58.2497 290.579 -62.3158 298.399 -64.5161C316.169 -69.5353 335.159 -63.3399 344.669 -50.4825C360.619 -49.3367 375.009 -40.363 380.389 -26.7147C384.329 -16.7574 382.629 -6.38428 376.809 2.00138C382.589 5.35767 387.199 10.2451 389.589 16.2986L389.609 16.3087Z" fill="white"/>
<path style="mix-blend-mode:screen" d="M137.239 20.6992C137.239 29.6121 128.689 36.8317 118.149 36.8317C117.309 36.8317 116.489 36.781 115.679 36.6898C114.069 41.6279 109.449 45.7142 103.139 47.0527C95.1986 48.7359 87.1586 45.5114 83.5186 39.6404C82.1686 40.3198 80.6886 40.8471 79.0886 41.1918C70.2486 43.0677 61.2786 38.5251 59.0586 31.0621L59.0386 30.981C58.5186 31.1534 57.9786 31.2953 57.4286 31.4069C49.7986 33.0191 42.0686 29.1051 40.1586 22.6663C38.2486 16.2275 42.8786 9.68731 50.4986 8.07507C50.5786 8.05479 50.6686 8.04463 50.7486 8.02435C50.3086 7.26386 49.9786 6.4324 49.7686 5.56037C48.4686 0.0138664 52.7286 -5.37039 59.2986 -6.47564C61.4486 -6.84067 63.5786 -6.68858 65.5186 -6.13089C67.2386 -10.8966 71.7886 -14.8106 77.9286 -16.1085C84.9286 -17.5889 91.9986 -15.2669 96.0686 -10.6837C97.1786 -11.1602 98.3586 -11.5354 99.6086 -11.7991C108.749 -13.7358 118.019 -9.04104 120.309 -1.3246C120.919 0.713509 120.969 2.76177 120.549 4.70863C129.959 5.71247 137.229 12.4859 137.229 20.7093L137.239 20.6992Z" fill="white"/>
<path style="mix-blend-mode:screen" d="M448.538 34.0837C448.538 65.7607 418.158 91.4348 380.668 91.4348C377.688 91.4348 374.768 91.2624 371.898 90.9481C366.168 108.51 349.738 123.031 327.328 127.776C299.088 133.759 270.528 122.28 257.558 101.433C252.768 103.846 247.488 105.722 241.798 106.939C210.368 113.601 178.488 97.468 170.598 70.9117L170.518 70.6177C168.668 71.2159 166.758 71.7229 164.778 72.1488C137.668 77.8981 110.168 63.9761 103.368 41.06C96.5779 18.154 113.038 -5.07642 140.148 -10.8257C140.438 -10.8967 140.738 -10.9474 141.028 -11.0082C139.468 -13.7257 138.288 -16.6662 137.558 -19.769C132.918 -39.4911 148.088 -58.6351 171.428 -62.5593C179.078 -63.847 186.658 -63.3096 193.548 -61.3425C199.668 -78.2862 215.838 -92.1879 237.658 -96.8117C262.528 -102.084 287.658 -93.8103 302.158 -77.5156C306.098 -79.1886 310.298 -80.5474 314.748 -81.4904C347.248 -88.3754 380.188 -71.7054 388.348 -44.2467C390.498 -36.9865 390.678 -29.7061 389.218 -22.7907C422.658 -19.2316 448.528 4.8708 448.528 34.0939L448.538 34.0837Z" fill="white"/>
<g style="mix-blend-mode:screen">
<path d="M920.428 44.9943C914.688 54.0391 902.858 58.5412 891.518 56.8681C891.218 59.2104 890.398 61.5527 888.998 63.7632C883.158 72.96 869.598 76.4177 858.708 71.4796C856.428 70.4454 854.468 69.117 852.818 67.5961C846.038 73.5583 835.168 75.2618 826.118 71.1653C815.788 66.4807 811.598 55.9251 816.198 46.9919C811.148 47.945 805.688 47.438 800.778 45.2072C789.888 40.2691 785.808 28.8111 791.648 19.6142C794.668 14.8587 799.758 11.6544 805.468 10.3362C802.088 3.98869 802.098 -3.56548 806.298 -10.1767C813.468 -21.4623 830.118 -25.7008 843.488 -19.6473C847.338 -17.9032 850.488 -15.4899 852.858 -12.6711C860.738 -22.1316 875.918 -25.3357 888.278 -19.7385C895.378 -16.5141 900.098 -11.0284 901.908 -4.90396C905.618 -5.37039 909.518 -4.89381 913.078 -3.28157C921.848 0.693253 925.138 9.92054 920.428 17.3328C919.788 18.3468 919.028 19.2593 918.168 20.0908C924.388 27.0975 925.648 36.7709 920.428 44.9943Z" fill="white"/>
</g>
<g style="mix-blend-mode:screen">
<path d="M761.378 47.509C754.888 57.7198 741.528 62.8201 728.708 60.924C728.368 63.5705 727.438 66.217 725.858 68.7114C719.258 79.1047 703.938 83.0086 691.638 77.4215C689.068 76.2555 686.848 74.7548 684.978 73.031C677.318 79.774 665.028 81.6904 654.818 77.0565C643.148 71.7635 638.408 59.8289 643.608 49.7499C637.898 50.8247 631.738 50.2569 626.188 47.732C613.888 42.1551 609.268 29.2065 615.868 18.8132C619.278 13.439 625.028 9.8191 631.478 8.32854C627.658 1.15965 627.678 -7.37811 632.418 -14.841C640.528 -27.597 659.328 -32.383 674.438 -25.5386C678.788 -23.5613 682.348 -20.8438 685.028 -17.6599C693.928 -28.3473 711.078 -31.9774 725.048 -25.64C733.068 -21.9998 738.408 -15.7942 740.448 -8.87881C744.638 -9.41622 749.048 -8.86867 753.068 -7.0435C762.968 -2.55154 766.688 7.87225 761.378 16.2478C760.658 17.3936 759.788 18.4278 758.828 19.3607C765.858 27.2698 767.278 38.2107 761.378 47.4988V47.509Z" fill="white"/>
</g>
<g style="mix-blend-mode:screen">
<path d="M989.108 20.7498C993.448 21.5711 997.308 24.0047 999.308 27.6855C1002.72 33.9316 999.488 41.3236 992.098 44.2033C988.608 45.562 984.808 45.6533 981.418 44.7306C980.748 48.2998 978.058 51.5243 973.878 53.1466C967.568 55.6005 960.168 53.5015 956.818 48.4722C955.608 49.8208 953.998 50.9361 952.048 51.6966C946.408 53.897 939.848 52.2949 936.388 48.1578C934.928 49.5977 933.078 50.8145 930.908 51.6561C922.848 54.7893 913.308 51.8183 909.588 45.0043C906.258 38.89 908.748 31.7718 915.118 28.1113C914.058 27.2494 913.168 26.205 912.508 25.0085C909.698 19.8575 912.368 13.7533 918.458 11.3907C922.668 9.74804 927.408 10.3159 930.858 12.5162C931.908 8.28791 935.228 4.526 940.228 2.57915C944.298 0.997334 948.718 0.916233 952.638 2.06204C953.688 0.277424 955.438 -1.22328 957.748 -2.12573C962.828 -4.103 968.778 -2.44007 971.528 1.57531C971.548 1.57531 971.558 1.56519 971.578 1.55505C978.968 -1.32467 987.718 1.41307 991.118 7.64908C993.558 12.1309 992.578 17.1907 989.098 20.7599L989.108 20.7498Z" fill="white"/>
</g>
<g style="mix-blend-mode:screen">
<path d="M1020.06 15.9941C1028.65 17.6064 1036.29 22.4431 1040.25 29.7134C1046.99 42.084 1040.6 56.7158 1025.97 62.4144C1019.05 65.1116 1011.54 65.2941 1004.83 63.4588C1003.5 70.5161 998.168 76.9144 989.908 80.1287C977.418 84.9959 962.748 80.8385 956.128 70.871C953.728 73.5378 950.548 75.7585 946.688 77.2592C935.518 81.6092 922.518 78.4455 915.668 70.2525C912.778 73.1119 909.118 75.505 904.808 77.1882C888.848 83.4039 869.948 77.5025 862.598 64.0266C855.998 51.9298 860.938 37.8252 873.558 30.5651C871.458 28.8616 869.688 26.7931 868.398 24.4203C862.838 14.2298 868.118 2.14307 880.188 -2.55169C888.518 -5.79645 897.898 -4.68106 904.748 -0.331055C906.828 -8.69644 913.408 -16.1492 923.298 -20.0024C931.348 -23.1356 940.108 -23.2877 947.878 -21.0366C949.968 -24.5653 953.418 -27.5464 957.998 -29.3311C968.058 -33.245 979.848 -29.9597 985.278 -22.0101C985.308 -22.0304 985.338 -22.0405 985.368 -22.0506C999.988 -27.7492 1017.32 -22.3447 1024.06 -9.98419C1028.9 -1.11182 1026.94 8.91649 1020.07 15.984L1020.06 15.9941Z" fill="white"/>
</g>
<g style="mix-blend-mode:screen">
<path d="M904.138 41.8813C900.758 43.3719 897.068 43.8282 893.558 43.4023C892.378 46.5051 889.808 49.2327 886.118 50.8653C880.488 53.3597 873.848 52.5789 869.258 49.3341C867.868 51.3317 865.818 53.0352 863.208 54.1911C855.748 57.4866 846.539 55.053 842.629 48.746C841.879 47.5394 841.378 46.2719 841.118 44.9841C834.969 46.566 828.149 44.2845 825.059 39.2957C824.049 37.6632 823.558 35.9292 823.518 34.2055C820.368 33.2827 817.609 31.3866 815.939 28.6894C812.459 23.0719 815.029 16.1261 821.679 13.1856C824.429 11.9688 827.448 11.6443 830.288 12.0499C831.118 6.13833 835.279 0.652683 841.999 -2.31829C851.439 -6.48577 862.798 -4.34627 869.318 2.3359C870.778 0.551281 872.758 -0.979824 875.198 -2.05465C883.198 -5.59346 893.078 -2.97738 897.258 3.77577C899.318 7.10164 899.608 10.823 898.428 14.159C903.828 14.7978 908.788 17.5355 911.508 21.9261C915.988 29.1558 912.678 38.0789 904.129 41.8611L904.138 41.8813Z" fill="white"/>
</g>
<g style="mix-blend-mode:screen">
<path d="M612.698 65.0813C604.508 68.7114 595.548 69.8065 587.038 68.7722C584.168 76.296 577.948 82.9173 568.998 86.8719C555.328 92.9152 539.248 91.0292 528.108 83.1505C524.738 87.9872 519.748 92.1344 513.418 94.933C495.318 102.933 472.968 97.0219 463.498 81.731C461.688 78.7904 460.468 75.718 459.838 72.6152C444.918 76.4582 428.388 70.9219 420.888 58.8149C418.438 54.8603 417.258 50.6422 417.148 46.4645C409.508 44.2135 402.818 39.6303 398.768 33.0901C390.318 19.452 396.558 2.60966 412.698 -4.5288C419.368 -7.4795 426.688 -8.27043 433.578 -7.27673C435.598 -21.6246 445.678 -34.918 461.978 -42.1274C484.878 -52.247 512.448 -47.0351 528.248 -30.8418C531.788 -35.1816 536.588 -38.8725 542.508 -41.4886C561.908 -50.0669 585.878 -43.7295 596.028 -27.3334C601.028 -19.2519 601.728 -10.2375 598.858 -2.15608C611.948 -0.604683 623.998 6.04706 630.598 16.6939C641.458 34.2359 633.448 55.8845 612.688 65.061L612.698 65.0813Z" fill="white"/>
</g>
<g style="mix-blend-mode:screen">
<path d="M564.068 27.0265C564.068 32.7555 560.068 37.6835 554.298 39.965C554.388 40.6849 554.438 41.415 554.438 42.145C554.438 53.6436 543.408 62.9622 529.798 62.9622C521.838 62.9622 514.758 59.7681 510.248 54.8097C506.948 56.9695 502.818 58.2573 498.318 58.2573C487.548 58.2573 478.808 50.8755 478.808 41.7699C478.808 40.5835 478.958 39.4276 479.238 38.3223C479.098 38.3223 478.958 38.3223 478.808 38.3223C470.918 38.3223 464.528 32.9178 464.528 26.2559C464.528 20.8513 468.728 16.2782 474.518 14.7471C473.608 12.9118 473.098 10.894 473.098 8.78488C473.098 0.267395 481.268 -6.63784 491.358 -6.63784C491.828 -6.63784 492.298 -6.61754 492.758 -6.58712C495.718 -9.73048 500.278 -11.7585 505.398 -11.7585C510.928 -11.7585 515.808 -9.40602 518.718 -5.81651C520.548 -6.33365 522.508 -6.63784 524.558 -6.63784C530.628 -6.63784 535.978 -4.12313 539.308 -0.280128C541.058 -0.837818 542.948 -1.15217 544.938 -1.15217C553.848 -1.15217 561.078 4.95204 561.078 12.486C561.078 14.3111 560.648 16.045 559.878 17.637C562.478 20.1517 564.058 23.4269 564.058 27.0265H564.068Z" fill="white"/>
</g>
<g style="mix-blend-mode:screen">
<path d="M998.958 29.3991C998.958 44.6393 988.308 57.7501 972.988 63.8036C973.228 65.7099 973.358 67.6467 973.358 69.6138C973.358 100.196 944.018 124.988 907.828 124.988C886.648 124.988 867.828 116.48 855.848 103.298C847.078 109.038 836.078 112.475 824.128 112.475C795.478 112.475 772.248 92.8543 772.248 68.6302C772.248 65.4767 772.648 62.4145 773.398 59.4536C773.018 59.4739 772.638 59.4739 772.248 59.4739C751.278 59.4739 734.278 45.1057 734.278 27.3914C734.278 13.0232 745.448 0.865524 760.848 -3.22084C758.428 -8.09811 757.088 -13.4621 757.088 -19.0796C757.088 -41.732 778.828 -60.1054 805.648 -60.1054C806.898 -60.1054 808.148 -60.0649 809.378 -59.9838C817.248 -68.3593 829.368 -73.7436 842.988 -73.7436C857.708 -73.7436 870.678 -67.4873 878.418 -57.9355C883.288 -59.3247 888.508 -60.1054 893.948 -60.1054C910.078 -60.1054 924.328 -53.4233 933.168 -43.1922C937.828 -44.6624 942.858 -45.504 948.138 -45.504C971.838 -45.504 991.058 -29.26 991.058 -9.23376C991.058 -4.37679 989.898 0.236847 987.858 4.47531C994.758 11.1575 998.968 19.8676 998.968 29.4295L998.958 29.3991Z" fill="white"/>
</g>
<g style="mix-blend-mode:screen">
<path d="M989.929 23.153C988.829 24.1568 987.509 24.9984 986.039 25.6271C988.779 27.6348 990.718 30.3928 991.398 33.526C991.578 34.3474 991.669 35.1788 991.669 36.0407C991.669 43.6456 984.379 49.8107 975.379 49.8107C971.769 49.8107 968.439 48.817 965.739 47.1439C963.219 51.9907 957.489 55.3774 950.819 55.3774C942.819 55.3774 936.189 50.5103 934.799 44.0918C931.879 46.0082 928.219 47.1641 924.239 47.1641C914.709 47.1641 906.979 40.6341 906.979 32.5729C906.979 25.5257 912.889 19.6446 920.759 18.2858C919.649 16.4809 919.009 14.4225 919.009 12.2425C919.009 5.0026 925.959 -0.86837 934.529 -0.86837C938.379 -0.86837 941.899 0.318001 944.609 2.27499C947.309 -1.56801 952.279 -4.14355 957.949 -4.14355C964.979 -4.14355 970.909 -0.199139 972.819 5.21555C974.869 4.18128 977.269 3.59316 979.829 3.59316C987.439 3.59316 993.609 8.80506 993.609 15.2337C993.609 18.2858 992.219 21.0743 989.929 23.153Z" fill="white"/>
</g>
<g style="mix-blend-mode:screen">
<path d="M1079.93 53.5726C1078.83 54.5765 1077.51 55.4181 1076.04 56.0468C1078.78 58.0545 1080.72 60.8125 1081.4 63.9457C1081.58 64.767 1081.67 65.5985 1081.67 66.4604C1081.67 74.0653 1074.38 80.2303 1065.38 80.2303C1061.77 80.2303 1058.44 79.2366 1055.74 77.5636C1053.22 82.4104 1047.49 85.7971 1040.82 85.7971C1032.82 85.7971 1026.19 80.93 1024.8 74.5114C1021.88 76.4279 1018.22 77.5838 1014.24 77.5838C1004.71 77.5838 996.979 71.0538 996.979 62.9926C996.979 55.9454 1002.89 50.0643 1010.76 48.7055C1009.65 46.9006 1009.01 44.8422 1009.01 42.6621C1009.01 35.4223 1015.96 29.5513 1024.53 29.5513C1028.38 29.5513 1031.9 30.7377 1034.61 32.6947C1037.31 28.8517 1042.28 26.2761 1047.95 26.2761C1054.98 26.2761 1060.91 30.2205 1062.82 35.6352C1064.87 34.601 1067.27 34.0128 1069.83 34.0128C1077.44 34.0128 1083.61 39.2247 1083.61 45.6534C1083.61 48.7055 1082.22 51.494 1079.93 53.5726Z" fill="white"/>
</g>
<g style="mix-blend-mode:screen">
<path d="M1149.93 53.5726C1148.83 54.5765 1147.51 55.4181 1146.04 56.0468C1148.78 58.0545 1150.72 60.8125 1151.4 63.9457C1151.58 64.767 1151.67 65.5985 1151.67 66.4604C1151.67 74.0653 1144.38 80.2303 1135.38 80.2303C1131.77 80.2303 1128.44 79.2366 1125.74 77.5636C1123.22 82.4104 1117.49 85.7971 1110.82 85.7971C1102.82 85.7971 1096.19 80.93 1094.8 74.5114C1091.88 76.4279 1088.22 77.5838 1084.24 77.5838C1074.71 77.5838 1066.98 71.0538 1066.98 62.9926C1066.98 55.9454 1072.89 50.0643 1080.76 48.7055C1079.65 46.9006 1079.01 44.8422 1079.01 42.6621C1079.01 35.4223 1085.96 29.5513 1094.53 29.5513C1098.38 29.5513 1101.9 30.7377 1104.61 32.6947C1107.31 28.8517 1112.28 26.2761 1117.95 26.2761C1124.98 26.2761 1130.91 30.2205 1132.82 35.6352C1134.87 34.601 1137.27 34.0128 1139.83 34.0128C1147.44 34.0128 1153.61 39.2247 1153.61 45.6534C1153.61 48.7055 1152.22 51.494 1149.93 53.5726Z" fill="white"/>
</g>
<g style="mix-blend-mode:screen">
<path d="M590.668 21.3887C588.778 23.1125 586.508 24.5625 583.998 25.6373C588.698 29.0849 592.028 33.8202 593.198 39.2045C593.508 40.6038 593.658 42.0436 593.658 43.5139C593.658 56.574 581.138 67.1499 565.688 67.1499C559.488 67.1499 553.768 65.4464 549.128 62.5667C544.808 70.8915 534.968 76.7017 523.508 76.7017C509.778 76.7017 498.388 68.3464 496.008 57.3244C490.988 60.6097 484.718 62.587 477.878 62.587C461.508 62.587 448.238 51.3723 448.238 37.5415C448.238 25.4447 458.388 15.3454 471.888 13.0132C469.978 9.91041 468.888 6.39186 468.888 2.64011C468.888 -9.79135 480.818 -19.8704 495.528 -19.8704C502.138 -19.8704 508.188 -17.8424 512.838 -14.4759C517.478 -21.0668 525.998 -25.4878 535.748 -25.4878C547.808 -25.4878 557.998 -18.7144 561.278 -9.41616C564.798 -11.1906 568.918 -12.2046 573.318 -12.2046C586.378 -12.2046 596.968 -3.25113 596.968 7.79118C596.968 13.0436 594.578 17.8093 590.658 21.3887H590.668Z" fill="white"/>
</g>
<g style="mix-blend-mode:screen">
<path d="M825.048 43.5645C826.208 60.5386 810.858 75.0893 790.758 76.083C782.488 76.4886 774.708 74.491 768.338 70.861C762.958 82.3494 750.108 90.7756 734.558 91.5361C723.888 92.0533 713.988 88.8896 706.588 83.333C702.048 90.3498 693.468 95.3082 683.328 95.7949C674.218 96.241 665.878 92.976 660.318 87.5714C654.868 91.0596 648.178 93.27 640.838 93.6249C621.098 94.5882 604.178 81.8424 603.038 65.1623C602.828 62.1001 603.168 59.1291 603.988 56.29C603.178 55.1543 602.488 53.9679 601.868 52.741C582.548 53.248 566.148 40.6746 565.028 24.2683C563.888 7.58823 578.968 -6.71912 598.708 -7.67226C600.848 -7.77366 602.948 -7.69255 605.008 -7.48975C608.678 -15.9363 617.988 -22.1723 629.298 -22.73C634.268 -22.9733 639.018 -22.081 643.178 -20.3268C646.878 -33.5492 660.508 -43.7397 677.388 -44.5611C693.078 -45.3216 707.068 -37.7877 713.378 -26.4716C719.218 -30.416 726.518 -32.9307 734.538 -33.3261C750.128 -34.0866 764.018 -26.6541 770.388 -15.4495C772.228 -15.8856 774.148 -16.1796 776.138 -16.281C790.948 -17.001 803.648 -7.44918 804.498 5.07355C804.778 9.21062 803.708 13.1449 801.648 16.5924C814.638 20.7903 824.198 31.0823 825.058 43.5746L825.048 43.5645Z" fill="white"/>
</g>
<g style="mix-blend-mode:screen">
<path d="M704.728 39.9346C705.648 53.4815 693.398 65.0916 677.368 65.8825C670.768 66.207 664.568 64.615 659.478 61.715C655.188 70.8815 644.928 77.6042 632.518 78.2126C623.998 78.6283 616.098 76.0933 610.198 71.6622C606.578 77.2594 599.728 81.214 591.638 81.6094C584.368 81.9643 577.718 79.3584 573.278 75.0489C568.928 77.8273 563.588 79.5916 557.728 79.8755C541.978 80.6461 528.468 70.4759 527.568 57.1622C527.398 54.7185 527.678 52.3458 528.328 50.0745C527.678 49.172 527.128 48.2189 526.638 47.2454C511.218 47.651 498.128 37.6227 497.238 24.522C496.328 11.2185 508.358 -0.198975 524.118 -0.969604C525.828 -1.05072 527.508 -0.989891 529.148 -0.817513C532.078 -7.56052 539.508 -12.5392 548.528 -12.9752C552.498 -13.1678 556.288 -12.458 559.608 -11.0587C562.558 -21.6143 573.438 -29.7364 586.908 -30.3955C599.428 -31.0039 610.598 -24.9909 615.628 -15.9563C620.288 -19.1098 626.108 -21.1073 632.508 -21.4217C644.948 -22.0301 656.038 -16.0983 661.118 -7.15492C662.588 -7.50982 664.118 -7.73289 665.708 -7.81401C677.528 -8.39198 687.658 -0.766785 688.338 9.22098C688.568 12.5266 687.708 15.6598 686.068 18.4077C696.428 21.7538 704.068 29.9671 704.748 39.9346H704.728Z" fill="white"/>
</g>
<g style="mix-blend-mode:screen">
<path d="M799.219 27.1684C798.149 27.7059 797.029 28.0912 795.879 28.3345C797.669 33.4247 795.259 39.0726 789.629 41.9321C786.069 43.737 781.959 44.0513 778.279 43.1083C777.789 47.4279 774.969 51.494 770.239 53.8971C762.309 57.9226 752.029 55.7527 747.259 49.0502C747.039 48.746 746.849 48.4419 746.659 48.1275C746.379 48.2898 746.109 48.452 745.819 48.6041C738.339 52.3964 728.649 50.3583 724.159 44.0412C722.429 41.6076 721.739 38.9002 721.949 36.2639C717.629 36.3957 713.359 34.601 710.969 31.2548C707.479 26.3471 709.359 19.9894 715.169 17.0387C717.199 16.0146 719.439 15.538 721.639 15.5583C720.419 12.4251 721.869 8.88625 725.359 7.11177C726.139 6.71632 726.959 6.44254 727.799 6.2803C728.719 3.09638 731.079 0.206547 734.679 -1.61863C734.699 -1.62877 734.729 -1.63891 734.749 -1.64905C735.459 -2.32842 736.299 -2.93681 737.269 -3.42352C742.259 -5.95849 748.679 -4.68089 751.859 -0.624943C752.269 -0.351166 752.659 -0.0469666 753.039 0.267368C753.489 -0.0976639 753.979 -0.432281 754.529 -0.716198C758.089 -2.5211 762.589 -1.86201 765.249 0.672958C766.369 -0.574245 767.779 -1.66935 769.459 -2.52109C776.589 -6.14102 785.849 -4.19415 790.139 1.83907C791.529 3.78592 792.209 5.92543 792.279 8.04465C796.639 7.852 800.989 9.63662 803.399 13.0233C806.869 17.9006 804.999 24.238 799.219 27.1684Z" fill="white"/>
</g>
<g style="mix-blend-mode:screen">
<path d="M748.458 28.0201C746.808 28.8618 745.068 29.46 743.288 29.825C746.058 37.7037 742.328 46.4645 733.608 50.8957C728.098 53.6943 721.728 54.181 716.028 52.7208C715.268 59.403 710.898 65.71 703.568 69.4313C691.288 75.6673 675.358 72.3009 667.988 61.9278C667.648 61.4614 667.348 60.9747 667.058 60.4981C666.628 60.7516 666.208 61.0051 665.758 61.2383C654.178 67.1194 639.168 63.9457 632.208 54.1708C629.528 50.4089 628.458 46.2111 628.788 42.1348C622.098 42.3478 615.478 39.5694 611.788 34.3677C606.388 26.7729 609.298 16.917 618.288 12.3541C621.428 10.7621 624.898 10.0219 628.308 10.0624C626.408 5.21559 628.668 -0.27005 634.058 -3.00781C635.258 -3.6162 636.538 -4.04208 637.838 -4.30572C639.258 -9.24383 642.918 -13.7155 648.488 -16.5445C648.518 -16.5648 648.558 -16.575 648.598 -16.5953C649.708 -17.6498 651.008 -18.5827 652.508 -19.3431C660.238 -23.2673 670.178 -21.3001 675.098 -15.0134C675.728 -14.5876 676.338 -14.1211 676.918 -13.6344C677.618 -14.2022 678.368 -14.7295 679.228 -15.1655C684.748 -17.9641 691.708 -16.94 695.828 -13.0159C697.568 -14.9425 699.748 -16.6459 702.358 -17.9641C713.408 -23.5714 727.748 -20.5498 734.388 -11.2211C736.538 -8.19943 737.598 -4.89385 737.698 -1.60854C744.458 -1.91273 751.188 0.865601 754.918 6.10791C760.288 13.6722 757.398 23.4775 748.448 28.01L748.458 28.0201Z" fill="white"/>
</g>
<g style="mix-blend-mode:screen">
<path d="M677.838 25.9211C680.008 31.427 676.488 37.3791 669.978 39.2145C668.868 39.5288 667.738 39.691 666.618 39.7417C667.568 46.8802 662.538 53.8463 654.158 56.2089C646.288 58.4295 637.898 55.8945 633.338 50.4596C627.208 51.5851 620.928 48.6547 618.898 43.5036C618.868 43.4327 618.838 43.3617 618.818 43.2907C618.048 43.6557 617.228 43.9701 616.368 44.2134C609.068 46.2718 601.178 42.9459 598.738 36.7707C598.388 35.8886 598.178 34.9963 598.078 34.1141C592.558 33.384 587.708 30.1393 585.818 25.3634C583.128 18.5393 587.488 11.1575 595.568 8.87601C598.428 8.07497 601.358 8.02427 604.088 8.5921C604.628 2.5386 609.368 -2.94709 616.608 -4.99534C624.128 -7.11457 632.128 -4.90407 636.808 0.0543213C638.548 -1.86211 640.948 -3.37295 643.868 -4.19428C650.488 -6.06002 657.568 -3.75826 661.118 1.03789C667.068 1.46376 672.428 4.80991 674.428 9.90012C675.898 13.6113 675.258 17.4746 673.098 20.6078C675.248 21.855 676.968 23.6802 677.858 25.9414L677.838 25.9211Z" fill="white"/>
</g>
<g style="mix-blend-mode:screen">
<path d="M898.609 26.4486C904.439 41.2325 894.999 57.2028 877.509 62.1308C874.519 62.9724 871.489 63.4185 868.499 63.5301C871.049 82.6741 857.559 101.372 835.069 107.709C813.949 113.672 791.429 106.878 779.199 92.2766C762.749 95.2982 745.899 87.4196 740.449 73.6192C740.379 73.4266 740.299 73.2339 740.229 73.0413C738.179 74.0248 735.969 74.8563 733.639 75.5052C714.049 81.0315 692.869 72.0881 686.329 55.5399C685.399 53.1773 684.819 50.7944 684.559 48.4217C669.759 46.4748 656.729 37.7647 651.659 24.9378C644.429 6.62517 656.139 -13.178 677.809 -19.2923C685.479 -21.4521 693.349 -21.5738 700.659 -20.0629C702.099 -36.307 714.819 -51.0199 734.259 -56.5056C754.449 -62.194 775.909 -56.2521 788.459 -42.9689C793.119 -48.1098 799.579 -52.1759 807.399 -54.3762C825.169 -59.3954 844.159 -53.2 853.669 -40.3426C869.619 -39.1968 884.009 -30.2231 889.389 -16.5748C893.329 -6.61748 891.629 3.75561 885.809 12.1413C891.589 15.4976 896.199 20.385 898.589 26.4385L898.609 26.4486Z" fill="white"/>
</g>
<g style="mix-blend-mode:screen">
<path d="M646.239 30.8391C646.239 39.752 637.689 46.9716 627.149 46.9716C626.309 46.9716 625.489 46.9209 624.679 46.8296C623.069 51.7678 618.449 55.8541 612.139 57.1926C604.199 58.8758 596.159 55.6513 592.519 49.7803C591.169 50.4597 589.689 50.987 588.089 51.3317C579.249 53.2076 570.279 48.665 568.059 41.202L568.039 41.1209C567.519 41.2933 566.979 41.4352 566.429 41.5468C558.799 43.159 551.069 39.245 549.159 32.8062C547.249 26.3674 551.879 19.8272 559.499 18.215C559.579 18.1947 559.669 18.1845 559.749 18.1642C559.309 17.4038 558.979 16.5723 558.769 15.7003C557.469 10.1538 561.729 4.7695 568.299 3.66425C570.449 3.29922 572.579 3.45131 574.519 4.00901C576.239 -0.756729 580.789 -4.67071 586.929 -5.96861C593.929 -7.44904 600.999 -5.127 605.069 -0.543781C606.179 -1.02036 607.359 -1.39553 608.609 -1.65917C617.749 -3.59589 627.019 1.09885 629.309 8.81529C629.919 10.8534 629.969 12.9017 629.549 14.8485C638.959 15.8524 646.229 22.6258 646.229 30.8492L646.239 30.8391Z" fill="white"/>
</g>
<g style="mix-blend-mode:screen">
<path d="M957.538 44.2236C957.538 75.9006 927.158 101.575 889.668 101.575C886.688 101.575 883.768 101.402 880.898 101.088C875.168 118.65 858.738 133.17 836.328 137.916C808.088 143.898 779.528 132.42 766.558 111.573C761.768 113.986 756.488 115.862 750.798 117.079C719.368 123.74 687.488 107.608 679.598 81.0516L679.518 80.7576C677.668 81.3558 675.758 81.8628 673.778 82.2887C646.668 88.038 619.168 74.1159 612.368 51.1999C605.578 28.2939 622.038 5.06348 649.148 -0.685822C649.438 -0.756805 649.738 -0.807495 650.028 -0.868332C648.468 -3.58582 647.288 -6.52635 646.558 -9.62915C641.918 -29.3512 657.088 -48.4953 680.428 -52.4194C688.078 -53.7071 695.658 -53.1697 702.548 -51.2026C708.668 -68.1463 724.838 -82.048 746.658 -86.6718C771.528 -91.9446 796.658 -83.6704 811.158 -67.3757C815.098 -69.0488 819.298 -70.4075 823.748 -71.3505C856.248 -78.2355 889.188 -61.5655 897.348 -34.1068C899.498 -26.8466 899.678 -19.5662 898.218 -12.6508C931.658 -9.09175 957.528 15.0107 957.528 44.2338L957.538 44.2236Z" fill="white"/>
</g>
<path style="mix-blend-mode:screen" d="M1480.43 4.43497C1474.69 13.4797 1462.86 17.9818 1451.52 16.3088C1451.22 18.6511 1450.4 20.9934 1449 23.2039C1443.16 32.4007 1429.6 35.8584 1418.71 30.9203C1416.43 29.886 1414.47 28.5577 1412.82 27.0367C1406.04 32.999 1395.17 34.7025 1386.12 30.606C1375.79 25.9213 1371.6 15.3657 1376.2 6.43253C1371.15 7.38567 1365.69 6.87868 1360.78 4.64791C1349.89 -0.290195 1345.81 -11.7482 1351.65 -20.9451C1354.67 -25.7007 1359.76 -28.9049 1365.47 -30.2231C1362.09 -36.5706 1362.1 -44.1248 1366.3 -50.736C1373.47 -62.0217 1390.12 -66.2601 1403.49 -60.2066C1407.34 -58.4626 1410.49 -56.0493 1412.86 -53.2304C1420.74 -62.6909 1435.92 -65.8951 1448.28 -60.2979C1455.38 -57.0734 1460.1 -51.5878 1461.91 -45.4633C1465.62 -45.9297 1469.52 -45.4531 1473.08 -43.8409C1481.85 -39.8661 1485.14 -30.6388 1480.43 -23.2266C1479.79 -22.2126 1479.03 -21.3 1478.17 -20.4685C1484.39 -13.4619 1485.65 -3.78846 1480.43 4.43497Z" fill="white"/>
<path style="mix-blend-mode:screen" d="M1321.38 6.94963C1314.89 17.1605 1301.53 22.2608 1288.71 20.3647C1288.37 23.0112 1287.44 25.6577 1285.86 28.1521C1279.26 38.5454 1263.94 42.4493 1251.64 36.8622C1249.07 35.6961 1246.85 34.1954 1244.98 32.4717C1237.32 39.2147 1225.03 41.1311 1214.82 36.4972C1203.15 31.2042 1198.41 19.2696 1203.61 9.19053C1197.9 10.2654 1191.74 9.69753 1186.19 7.17271C1173.89 1.59579 1169.27 -11.3528 1175.87 -21.7462C1179.28 -27.1203 1185.03 -30.7402 1191.48 -32.2308C1187.66 -39.3997 1187.68 -47.9374 1192.42 -55.4004C1200.53 -68.1563 1219.33 -72.9423 1234.44 -66.0979C1238.79 -64.1206 1242.35 -61.4032 1245.03 -58.2193C1253.93 -68.9067 1271.08 -72.5367 1285.05 -66.1993C1293.07 -62.5591 1298.41 -56.3535 1300.45 -49.4381C1304.64 -49.9755 1309.05 -49.428 1313.07 -47.6028C1322.97 -43.1109 1326.69 -32.6871 1321.38 -24.3116C1320.66 -23.1658 1319.79 -22.1315 1318.83 -21.1986C1325.86 -13.2895 1327.28 -2.34863 1321.38 6.93948V6.94963Z" fill="white"/>
<path style="mix-blend-mode:screen" d="M1580.06 -24.565C1588.65 -22.9527 1596.29 -18.116 1600.25 -10.8457C1606.99 1.52489 1600.6 16.1567 1585.97 21.8553C1579.05 24.5525 1571.54 24.735 1564.83 22.8997C1563.5 29.9571 1558.17 36.3553 1549.91 39.5697C1537.42 44.4368 1522.75 40.2794 1516.13 30.312C1513.73 32.9787 1510.55 35.1994 1506.69 36.7001C1495.52 41.0501 1482.52 37.8864 1475.67 29.6934C1472.78 32.5529 1469.12 34.9459 1464.81 36.6291C1448.85 42.8448 1429.95 36.9434 1422.6 23.4676C1416 11.3707 1420.94 -2.73385 1433.56 -9.99399C1431.46 -11.6975 1429.69 -13.766 1428.4 -16.1387C1422.84 -26.3293 1428.12 -38.416 1440.19 -43.1108C1448.52 -46.3555 1457.9 -45.2402 1464.75 -40.8902C1466.83 -49.2555 1473.41 -56.7083 1483.3 -60.5615C1491.35 -63.6947 1500.11 -63.8468 1507.88 -61.5957C1509.97 -65.1244 1513.42 -68.1055 1518 -69.8902C1528.06 -73.8041 1539.85 -70.5188 1545.28 -62.5692C1545.31 -62.5895 1545.34 -62.5996 1545.37 -62.6097C1559.99 -68.3083 1577.32 -62.9038 1584.06 -50.5433C1588.9 -41.6709 1586.94 -31.6426 1580.07 -24.5751L1580.06 -24.565Z" fill="white"/>
<path style="mix-blend-mode:screen" d="M1464.14 1.32202C1460.76 2.81258 1457.07 3.26887 1453.56 2.843C1452.38 5.9458 1449.81 8.67342 1446.12 10.3059C1440.49 12.8003 1433.85 12.0196 1429.26 8.77482C1427.87 10.7724 1425.82 12.4759 1423.21 13.6318C1415.75 16.9273 1406.54 14.4937 1402.63 8.18671C1401.88 6.98006 1401.38 5.71258 1401.12 4.42481C1394.97 6.00663 1388.15 3.72516 1385.06 -1.26365C1384.05 -2.89617 1383.56 -4.63009 1383.52 -6.35386C1380.37 -7.27659 1377.61 -9.17273 1375.94 -11.8699C1372.46 -17.4874 1375.03 -24.4332 1381.68 -27.3738C1384.43 -28.5906 1387.45 -28.9151 1390.29 -28.5095C1391.12 -34.421 1395.28 -39.9067 1402 -42.8776C1411.44 -47.0451 1422.8 -44.9056 1429.32 -38.2234C1430.78 -40.0081 1432.76 -41.5392 1435.2 -42.614C1443.2 -46.1528 1453.08 -43.5367 1457.26 -36.7836C1459.32 -33.4577 1459.61 -29.7364 1458.43 -26.4004C1463.83 -25.7615 1468.79 -23.0238 1471.51 -18.6332C1475.99 -11.4035 1472.68 -2.48043 1464.13 1.30173L1464.14 1.32202Z" fill="white"/>
<path style="mix-blend-mode:screen" d="M1172.7 24.522C1164.51 28.152 1155.55 29.2472 1147.04 28.2129C1144.17 35.7367 1137.95 42.358 1129 46.3125C1115.33 52.3559 1099.25 50.4699 1088.11 42.5912C1084.74 47.4279 1079.75 51.5751 1073.42 54.3737C1055.32 62.3741 1032.97 56.4625 1023.5 41.1716C1021.69 38.2311 1020.47 35.1587 1019.84 32.0559C1004.92 35.8989 988.388 30.3625 980.888 18.2555C978.438 14.301 977.258 10.0828 977.148 5.90519C969.508 3.65414 962.818 -0.929077 958.768 -7.46928C950.318 -21.1074 956.558 -37.9497 972.698 -45.0882C979.368 -48.0389 986.688 -48.8298 993.578 -47.8361C995.598 -62.184 1005.68 -75.4774 1021.98 -82.6868C1044.88 -92.8064 1072.45 -87.5945 1088.25 -71.4011C1091.79 -75.741 1096.59 -79.4319 1102.51 -82.048C1121.91 -90.6263 1145.88 -84.2889 1156.03 -67.8927C1161.03 -59.8113 1161.73 -50.7969 1158.86 -42.7154C1171.95 -41.164 1184 -34.5123 1190.6 -23.8654C1201.46 -6.32348 1193.45 15.3251 1172.69 24.5017L1172.7 24.522Z" fill="white"/>
<path style="mix-blend-mode:screen" d="M1124.07 -13.5328C1124.07 -7.8038 1120.07 -2.87583 1114.3 -0.594362C1114.39 0.125566 1114.44 0.855631 1114.44 1.5857C1114.44 13.0843 1103.41 22.4028 1089.8 22.4028C1081.84 22.4028 1074.76 19.2088 1070.25 14.2504C1066.95 16.4102 1062.82 17.6979 1058.32 17.6979C1047.55 17.6979 1038.81 10.3161 1038.81 1.21053C1038.81 0.024168 1038.96 -1.13177 1039.24 -2.23701C1039.1 -2.23701 1038.96 -2.23701 1038.81 -2.23701C1030.92 -2.23701 1024.53 -7.64157 1024.53 -14.3035C1024.53 -19.708 1028.73 -24.2811 1034.52 -25.8122C1033.61 -27.6475 1033.1 -29.6654 1033.1 -31.7744C1033.1 -40.2919 1041.27 -47.1972 1051.36 -47.1972C1051.83 -47.1972 1052.3 -47.1769 1052.76 -47.1464C1055.72 -50.2898 1060.28 -52.3178 1065.4 -52.3178C1070.93 -52.3178 1075.81 -49.9653 1078.72 -46.3758C1080.55 -46.893 1082.51 -47.1972 1084.56 -47.1972C1090.63 -47.1972 1095.98 -44.6825 1099.31 -40.8395C1101.06 -41.3971 1102.95 -41.7115 1104.94 -41.7115C1113.85 -41.7115 1121.08 -35.6073 1121.08 -28.0734C1121.08 -26.2482 1120.65 -24.5143 1119.88 -22.9223C1122.48 -20.4077 1124.06 -17.1325 1124.06 -13.5328H1124.07Z" fill="white"/>
<path style="mix-blend-mode:screen" d="M1558.96 -11.1602C1558.96 4.07999 1548.31 17.1908 1532.99 23.2443C1533.23 25.1506 1533.36 27.0873 1533.36 29.0545C1533.36 59.6363 1504.02 84.4282 1467.83 84.4282C1446.65 84.4282 1427.83 75.9209 1415.85 62.7391C1407.08 68.4782 1396.08 71.9156 1384.13 71.9156C1355.48 71.9156 1332.25 52.295 1332.25 28.0709C1332.25 24.9174 1332.65 21.8552 1333.4 18.8943C1333.02 18.9146 1332.64 18.9146 1332.25 18.9146C1311.28 18.9146 1294.28 4.5464 1294.28 -13.1679C1294.28 -27.5361 1305.45 -39.6938 1320.85 -43.7802C1318.43 -48.6574 1317.09 -54.0214 1317.09 -59.6389C1317.09 -82.2913 1338.83 -100.665 1365.65 -100.665C1366.9 -100.665 1368.15 -100.624 1369.38 -100.543C1377.25 -108.919 1389.37 -114.303 1402.99 -114.303C1417.71 -114.303 1430.68 -108.047 1438.42 -98.4948C1443.29 -99.884 1448.51 -100.665 1453.95 -100.665C1470.08 -100.665 1484.33 -93.9826 1493.17 -83.7515C1497.83 -85.2218 1502.86 -86.0634 1508.14 -86.0634C1531.84 -86.0634 1551.06 -69.8193 1551.06 -49.7931C1551.06 -44.9361 1549.9 -40.3225 1547.86 -36.084C1554.76 -29.4018 1558.97 -20.6917 1558.97 -11.1298L1558.96 -11.1602Z" fill="white"/>
<path style="mix-blend-mode:screen" d="M1150.67 -19.1706C1148.78 -17.4468 1146.51 -15.9968 1144 -14.922C1148.7 -11.4745 1152.03 -6.73914 1153.2 -1.35487C1153.51 0.0444336 1153.66 1.48429 1153.66 2.95457C1153.66 16.0147 1141.14 26.5906 1125.69 26.5906C1119.49 26.5906 1113.77 24.8871 1109.13 22.0074C1104.81 30.3322 1094.97 36.1423 1083.51 36.1423C1069.78 36.1423 1058.39 27.7871 1056.01 16.7651C1050.99 20.0504 1044.72 22.0276 1037.88 22.0276C1021.51 22.0276 1008.24 10.813 1008.24 -3.0178C1008.24 -15.1147 1018.39 -25.214 1031.89 -27.5461C1029.98 -30.6489 1028.89 -34.1675 1028.89 -37.9192C1028.89 -50.3507 1040.82 -60.4297 1055.53 -60.4297C1062.14 -60.4297 1068.19 -58.4017 1072.84 -55.0353C1077.48 -61.6262 1086 -66.0472 1095.75 -66.0472C1107.81 -66.0472 1118 -59.2738 1121.28 -49.9755C1124.8 -51.75 1128.92 -52.764 1133.32 -52.764C1146.38 -52.764 1156.97 -43.8105 1156.97 -32.7682C1156.97 -27.5157 1154.58 -22.75 1150.66 -19.1706H1150.67Z" fill="white"/>
<path style="mix-blend-mode:screen" d="M1385.05 3.00514C1386.21 19.9793 1370.86 34.53 1350.76 35.5237C1342.49 35.9293 1334.71 33.9317 1328.34 30.3016C1322.96 41.7901 1310.11 50.2163 1294.56 50.9768C1283.89 51.4939 1273.99 48.3303 1266.59 42.7737C1262.05 49.7905 1253.47 54.7488 1243.33 55.2355C1234.22 55.6817 1225.88 52.4167 1220.32 47.0121C1214.87 50.5002 1208.18 52.7107 1200.84 53.0656C1181.1 54.0289 1164.18 41.2831 1163.04 24.603C1162.83 21.5408 1163.17 18.5698 1163.99 15.7307C1163.18 14.595 1162.49 13.4086 1161.87 12.1817C1142.55 12.6887 1126.15 0.115284 1125.03 -16.291C1123.89 -32.9711 1138.97 -47.2784 1158.71 -48.2316C1160.85 -48.333 1162.95 -48.2519 1165.01 -48.0491C1168.68 -56.4956 1177.99 -62.7316 1189.3 -63.2893C1194.27 -63.5326 1199.02 -62.6403 1203.18 -60.8861C1206.88 -74.1085 1220.51 -84.299 1237.39 -85.1204C1253.08 -85.8809 1267.07 -78.347 1273.38 -67.0309C1279.22 -70.9753 1286.52 -73.49 1294.54 -73.8854C1310.13 -74.6459 1324.02 -67.2134 1330.39 -56.0089C1332.23 -56.4449 1334.15 -56.7389 1336.14 -56.8403C1350.95 -57.5603 1363.65 -48.0085 1364.5 -35.4858C1364.78 -31.3487 1363.71 -27.4144 1361.65 -23.9669C1374.64 -19.769 1384.2 -9.47703 1385.06 3.01527L1385.05 3.00514Z" fill="white"/>
<path style="mix-blend-mode:screen" d="M1264.73 -0.624718C1265.65 12.9221 1253.4 24.5323 1237.37 25.3232C1230.77 25.6477 1224.57 24.0557 1219.48 21.1557C1215.19 30.3221 1204.93 37.0449 1192.52 37.6533C1184 38.069 1176.1 35.534 1170.2 31.1029C1166.58 36.7001 1159.73 40.6546 1151.64 41.0501C1144.37 41.405 1137.72 38.799 1133.28 34.4896C1128.93 37.2679 1123.59 39.0323 1117.73 39.3162C1101.98 40.0868 1088.47 29.9165 1087.57 16.6029C1087.4 14.1592 1087.68 11.7865 1088.33 9.51514C1087.68 8.61269 1087.13 7.65954 1086.64 6.68611C1071.22 7.09171 1058.13 -2.9366 1057.24 -16.0373C1056.33 -29.3408 1068.36 -40.7583 1084.12 -41.5289C1085.83 -41.61 1087.51 -41.5492 1089.15 -41.3768C1092.08 -48.1198 1099.51 -53.0985 1108.53 -53.5345C1112.5 -53.7272 1116.29 -53.0174 1119.61 -51.6181C1122.56 -62.1737 1133.44 -70.2957 1146.91 -70.9548C1159.43 -71.5632 1170.6 -65.5503 1175.63 -56.5156C1180.29 -59.6691 1186.11 -61.6667 1192.51 -61.981C1204.95 -62.5894 1216.04 -56.6576 1221.12 -47.7142C1222.59 -48.0691 1224.12 -48.2922 1225.71 -48.3733C1237.53 -48.9513 1247.66 -41.3261 1248.34 -31.3383C1248.57 -28.0328 1247.71 -24.8995 1246.07 -22.1516C1256.43 -18.8055 1264.07 -10.5922 1264.75 -0.624718H1264.73Z" fill="white"/>
<path style="mix-blend-mode:screen" d="M1359.22 -13.3909C1358.15 -12.8535 1357.03 -12.4682 1355.88 -12.2248C1357.67 -7.1346 1355.26 -1.4867 1349.63 1.37275C1346.07 3.17764 1341.96 3.49196 1338.28 2.54896C1337.79 6.86854 1334.97 10.9346 1330.24 13.3378C1322.31 17.3633 1312.03 15.1934 1307.26 8.49092C1307.04 8.18672 1306.85 7.88254 1306.66 7.5682C1306.38 7.73044 1306.11 7.89268 1305.82 8.04478C1298.34 11.8371 1288.65 9.79897 1284.16 3.48184C1282.43 1.04827 1281.74 -1.65908 1281.95 -4.29545C1277.63 -4.16363 1273.36 -5.95837 1270.97 -9.30453C1267.48 -14.2122 1269.36 -20.5699 1275.17 -23.5206C1277.2 -24.5447 1279.44 -25.0213 1281.64 -25.001C1280.42 -28.1342 1281.87 -31.6731 1285.36 -33.4476C1286.14 -33.843 1286.96 -34.1168 1287.8 -34.279C1288.72 -37.4629 1291.08 -40.3528 1294.68 -42.178C1294.7 -42.1881 1294.73 -42.1982 1294.75 -42.2084C1295.46 -42.8877 1296.3 -43.4961 1297.27 -43.9828C1302.26 -46.5178 1308.68 -45.2402 1311.86 -41.1843C1312.27 -40.9105 1312.66 -40.6063 1313.04 -40.292C1313.49 -40.657 1313.98 -40.9916 1314.53 -41.2755C1318.09 -43.0804 1322.59 -42.4213 1325.25 -39.8864C1326.37 -41.1336 1327.78 -42.2287 1329.46 -43.0804C1336.59 -46.7003 1345.85 -44.7535 1350.14 -38.7203C1351.53 -36.7734 1352.21 -34.6339 1352.28 -32.5147C1356.64 -32.7073 1360.99 -30.9227 1363.4 -27.536C1366.87 -22.6587 1365 -16.3213 1359.22 -13.3909Z" fill="white"/>
<path style="mix-blend-mode:screen" d="M1308.46 -12.5392C1306.81 -11.6976 1305.07 -11.0993 1303.29 -10.7343C1306.06 -2.85562 1302.33 5.90522 1293.61 10.3363C1288.1 13.1349 1281.73 13.6217 1276.03 12.1615C1275.27 18.8437 1270.9 25.1507 1263.57 28.872C1251.29 35.108 1235.36 31.7416 1227.99 21.3685C1227.65 20.9021 1227.35 20.4154 1227.06 19.9388C1226.63 20.1923 1226.21 20.4458 1225.76 20.679C1214.18 26.5601 1199.17 23.3863 1192.21 13.6115C1189.53 9.84962 1188.46 5.65172 1188.79 1.5755C1182.1 1.78844 1175.48 -0.989887 1171.79 -6.19164C1166.39 -13.7864 1169.3 -23.6423 1178.29 -28.2053C1181.43 -29.7972 1184.9 -30.5374 1188.31 -30.4969C1186.41 -35.3437 1188.67 -40.8294 1194.06 -43.5671C1195.26 -44.1755 1196.54 -44.6014 1197.84 -44.865C1199.26 -49.8032 1202.92 -54.2748 1208.49 -57.1039C1208.52 -57.1241 1208.56 -57.1343 1208.6 -57.1546C1209.71 -58.2091 1211.01 -59.142 1212.51 -59.9025C1220.24 -63.8266 1230.18 -61.8595 1235.1 -55.5728C1235.73 -55.1469 1236.34 -54.6804 1236.92 -54.1937C1237.62 -54.7616 1238.37 -55.2888 1239.23 -55.7249C1244.75 -58.5235 1251.71 -57.4993 1255.83 -53.5752C1257.57 -55.5018 1259.75 -57.2053 1262.36 -58.5234C1273.41 -64.1308 1287.75 -61.1091 1294.39 -51.7804C1296.54 -48.7588 1297.6 -45.4532 1297.7 -42.1679C1304.46 -42.4721 1311.19 -39.6937 1314.92 -34.4514C1320.29 -26.8871 1317.4 -17.0818 1308.45 -12.5493L1308.46 -12.5392Z" fill="white"/>
<path style="mix-blend-mode:screen" d="M1237.84 -14.6382C1240.01 -9.13228 1236.49 -3.18018 1229.98 -1.34486C1228.87 -1.03053 1227.74 -0.868286 1226.62 -0.817587C1227.57 6.32087 1222.54 13.287 1214.16 15.6496C1206.29 17.8702 1197.9 15.3352 1193.34 9.90024C1187.21 11.0258 1180.93 8.09536 1178.9 2.94431C1178.87 2.87333 1178.84 2.80234 1178.82 2.73136C1178.05 3.0964 1177.23 3.41074 1176.37 3.65409C1169.07 5.71249 1161.18 2.3866 1158.74 -3.78857C1158.39 -4.67074 1158.18 -5.56305 1158.08 -6.44521C1152.56 -7.17528 1147.71 -10.42 1145.82 -15.1959C1143.13 -22.02 1147.49 -29.4018 1155.57 -31.6833C1158.43 -32.4844 1161.36 -32.5351 1164.09 -31.9672C1164.63 -38.0207 1169.37 -43.5064 1176.61 -45.5547C1184.13 -47.6739 1192.13 -45.4634 1196.81 -40.505C1198.55 -42.4214 1200.95 -43.9323 1203.87 -44.7536C1210.49 -46.6193 1217.57 -44.3176 1221.12 -39.5214C1227.07 -39.0956 1232.43 -35.7494 1234.43 -30.6592C1235.9 -26.948 1235.26 -23.0847 1233.1 -19.9515C1235.25 -18.7043 1236.97 -16.8791 1237.86 -14.6179L1237.84 -14.6382Z" fill="white"/>
<path style="mix-blend-mode:screen" d="M1458.61 -14.1107C1464.44 0.673195 1455 16.6435 1437.51 21.5714C1434.52 22.4131 1431.49 22.8592 1428.5 22.9708C1431.05 42.1148 1417.56 60.8127 1395.07 67.1501C1373.95 73.1124 1351.43 66.3186 1339.2 51.7172C1322.75 54.7389 1305.9 46.8603 1300.45 33.0599C1300.38 32.8673 1300.3 32.6746 1300.23 32.4819C1298.18 33.4655 1295.97 34.297 1293.64 34.9459C1274.05 40.4721 1252.87 31.5288 1246.33 14.9805C1245.4 12.618 1244.82 10.2351 1244.56 7.86235C1229.76 5.9155 1216.73 -2.79465 1211.66 -15.6216C1204.43 -33.9342 1216.14 -53.7373 1237.81 -59.8516C1245.48 -62.0114 1253.35 -62.1331 1260.66 -60.6223C1262.1 -76.8663 1274.82 -91.5792 1294.26 -97.0649C1314.45 -102.753 1335.91 -96.8114 1348.46 -83.5282C1353.12 -88.6691 1359.58 -92.7352 1367.4 -94.9355C1385.17 -99.9548 1404.16 -93.7593 1413.67 -80.902C1429.62 -79.7562 1444.01 -70.7824 1449.39 -57.1341C1453.33 -47.1768 1451.63 -36.8037 1445.81 -28.4181C1451.59 -25.0618 1456.2 -20.1744 1458.59 -14.1209L1458.61 -14.1107Z" fill="white"/>
<path style="mix-blend-mode:screen" d="M1206.24 -9.72025C1206.24 -0.807314 1197.69 6.41227 1187.15 6.41227C1186.31 6.41227 1185.49 6.36157 1184.68 6.27032C1183.07 11.2084 1178.45 15.2948 1172.14 16.6333C1164.2 18.3165 1156.16 15.092 1152.52 9.221C1151.17 9.90037 1149.69 10.4276 1148.09 10.7724C1139.25 12.6483 1130.28 8.10563 1128.06 0.642689L1128.04 0.561567C1127.52 0.733944 1126.98 0.875902 1126.43 0.98744C1118.8 2.59968 1111.07 -1.3143 1109.16 -7.75312C1107.25 -14.1919 1111.88 -20.7321 1119.5 -22.3444C1119.58 -22.3647 1119.67 -22.3748 1119.75 -22.3951C1119.31 -23.1556 1118.98 -23.987 1118.77 -24.8591C1117.47 -30.4056 1121.73 -35.7898 1128.3 -36.8951C1130.45 -37.2601 1132.58 -37.108 1134.52 -36.5503C1136.24 -41.3161 1140.79 -45.2301 1146.93 -46.528C1153.93 -48.0084 1161 -45.6863 1165.07 -41.1031C1166.18 -41.5797 1167.36 -41.9549 1168.61 -42.2185C1177.75 -44.1552 1187.02 -39.4605 1189.31 -31.744C1189.92 -29.7059 1189.97 -27.6577 1189.55 -25.7108C1198.96 -24.707 1206.23 -17.9335 1206.23 -9.71012L1206.24 -9.72025Z" fill="white"/>
<path style="mix-blend-mode:screen" d="M1517.54 3.66431C1517.54 35.3412 1487.16 61.0154 1449.67 61.0154C1446.69 61.0154 1443.77 60.843 1440.9 60.5287C1435.17 78.0909 1418.74 92.6112 1396.33 97.3566C1368.09 103.339 1339.53 91.8608 1326.56 71.0133C1321.77 73.4266 1316.49 75.3024 1310.8 76.5192C1279.37 83.1811 1247.49 67.0486 1239.6 40.4923L1239.52 40.1982C1237.67 40.7965 1235.76 41.3035 1233.78 41.7294C1206.67 47.4787 1179.17 33.5566 1172.37 10.6405C1165.58 -12.2654 1182.04 -35.4958 1209.15 -41.2451C1209.44 -41.3161 1209.74 -41.3668 1210.03 -41.4276C1208.47 -44.1451 1207.29 -47.0857 1206.56 -50.1885C1201.92 -69.9105 1217.09 -89.0546 1240.43 -92.9787C1248.08 -94.2664 1255.66 -93.729 1262.55 -91.7619C1268.67 -108.706 1284.84 -122.607 1306.66 -127.231C1331.53 -132.504 1356.66 -124.23 1371.16 -107.935C1375.1 -109.608 1379.3 -110.967 1383.75 -111.91C1416.25 -118.795 1449.19 -102.125 1457.35 -74.6661C1459.5 -67.406 1459.68 -60.1255 1458.22 -53.2102C1491.66 -49.6511 1517.53 -25.5486 1517.53 3.67445L1517.54 3.66431Z" fill="white"/>
</g>
<defs>
<clipPath id="clip0_620_5492">
<rect width="1440" height="152" fill="white" transform="matrix(1 0 0 -1 0 152)"/>
</clipPath>
</defs>
</svg>
