<svg width="533" height="545" viewBox="0 0 533 545" fill="none" xmlns="http://www.w3.org/2000/svg">
<g clip-path="url(#clip0_271_170)">
<path d="M18.2999 268.05C-15.7001 203.05 1.67992 122.94 59.7799 78.2501C98.3099 48.6201 158.84 21.7701 253.6 7.09008C547.35 -38.4499 479.08 149.79 474.99 176.69C470.9 203.59 467.28 232.52 498.14 276.05C529 319.58 557.65 374.13 494.83 420.41C432.01 466.69 218.83 599.52 70.5499 519.05C-77.7301 438.58 60.4699 348.2 18.8299 269.05C18.6499 268.69 18.4699 268.36 18.2999 268.05Z" fill="#6DAEE8"/>
<path d="M498.1 276.05C472.33 239.69 470.57 213.52 473.1 190.21C435.62 163.41 409.1 167.21 409.1 167.21C409.1 167.21 452.23 258.21 419.6 261.21C419.6 261.21 530.4 329.39 531.27 367.59C531.27 367.59 531.7 363.91 532.12 357.59C532.53 329.22 515.67 300.85 498.1 276.05Z" fill="#C6492C"/>
<path d="M498.1 276.05C467.24 232.52 470.81 203.58 474.95 176.69C475.47 173.26 477.04 167.2 478.77 159.35C469.185 151.453 457.745 146.132 445.53 143.89C391.758 133.911 337.459 127.02 282.9 123.25L363.76 205.43C363.76 205.43 389.25 191.63 409.51 217.67C429.77 243.71 398.84 282.27 477.04 307.31C526.89 323.31 531.53 353.31 531.54 363.8C531.69 361.04 531.87 356.86 532 351.52C530.12 325.18 514.42 299.05 498.1 276.05Z" fill="#E56038"/>
<path d="M531.32 367.56C531.475 366.33 531.545 365.09 531.53 363.85C531.42 366.24 531.32 367.56 531.32 367.56Z" fill="#E56038"/>
<path d="M111.16 508.85C111.16 508.85 123.54 501.33 143.23 508.03C162.92 514.73 163.53 502.88 180.17 507.03C196.81 511.18 193.57 520.39 165.96 518.36C138.35 516.33 111.16 508.85 111.16 508.85Z" fill="white"/>
<path d="M295.71 149.56C296.26 129.64 298.03 66.8601 298.62 45.8001C298.62 33.5701 298.71 17.2501 298.74 1.62012L296.92 1.77011C296.08 17.3601 295.24 33.5901 294.59 45.7001C294 71.9501 291.85 133.43 291.66 158.96C293.9 271.87 296.2 404.27 300.89 522.08L303.46 521.22C302.74 404.91 296.17 263.51 295.71 149.56Z" fill="#84644E"/>
<path d="M110.59 47.7201C109.95 74.9801 107.89 134.06 107.7 158.96C110.05 276.76 112.44 415.78 117.56 537.3L119.56 537.79V536.34C119.37 417.34 112.22 268.49 111.74 149.56C112.3 129.64 114.06 66.9101 114.65 45.8201C113.29 46.4501 111.93 47.0501 110.59 47.7201Z" fill="#84644E"/>
<path d="M302.99 125.96C302.79 122.06 301.28 118.84 299.39 117.96V117.79H298.99C298.731 117.709 298.461 117.672 298.19 117.68C297.943 117.693 297.699 117.747 297.47 117.84C288.02 118.11 249.67 119.08 220.91 119.84C200.557 120.347 180.203 120.183 159.85 119.35C145.7 118.75 127.73 118.13 109.85 117.87C105.42 117.8 100.99 117.76 96.6299 117.74V141.66C148.23 131.66 286.82 134.44 298.63 134.66C298.786 134.67 298.943 134.67 299.1 134.66H299.22H299.44C301.63 134.18 303.22 130.44 302.99 125.96Z" fill="#F4BD95"/>
<path d="M97.2171 141.602C99.6274 141.479 101.308 136.031 100.97 129.435C100.632 122.838 98.4047 117.59 95.9944 117.714C93.5841 117.837 91.9038 123.285 92.2415 129.881C92.5791 136.478 94.8068 141.726 97.2171 141.602Z" fill="#84644E"/>
<path d="M307.4 241.98C307.21 238.07 305.69 234.85 303.8 233.93V233.76H303.42C303.159 233.671 302.885 233.631 302.61 233.64C302.366 233.654 302.126 233.708 301.9 233.8C292.44 234.07 254.1 235.04 225.34 235.8C204.98 236.307 184.627 236.143 164.28 235.31C146.63 234.57 123.02 233.79 101.04 233.7V257.62C152.64 247.62 291.23 250.41 303.04 250.62C303.196 250.635 303.354 250.635 303.51 250.62H303.63H303.84C306.04 250.2 307.63 246.46 307.4 241.98Z" fill="#F4BD95"/>
<path d="M101.621 257.615C104.031 257.492 105.712 252.044 105.374 245.448C105.036 238.851 102.809 233.603 100.398 233.727C97.9881 233.85 96.3079 239.298 96.6455 245.894C96.9832 252.491 99.2108 257.739 101.621 257.615Z" fill="#84644E"/>
<path d="M309.6 371.15C309.41 367.25 307.89 364.03 306 363.15V362.98H305.62C305.358 362.899 305.084 362.862 304.81 362.87C304.566 362.884 304.326 362.938 304.1 363.03C294.65 363.29 256.3 364.27 227.54 365.03C207.18 365.55 186.827 365.387 166.48 364.54C148.83 363.81 125.22 363.02 103.24 362.94V386.86C154.84 376.86 293.43 379.64 305.24 379.86C305.396 379.88 305.554 379.88 305.71 379.86H305.99C308.24 379.37 309.83 375.63 309.6 371.15Z" fill="#F4BD95"/>
<path d="M103.812 386.794C106.222 386.67 107.902 381.223 107.565 374.626C107.227 368.029 104.999 362.782 102.589 362.905C100.179 363.028 98.4983 368.476 98.836 375.073C99.1736 381.669 101.401 386.917 103.812 386.794Z" fill="#84644E"/>
<path d="M311.81 517.16C311.61 513.26 310.09 510.03 308.21 509.16V508.99H307.82C307.561 508.909 307.291 508.872 307.02 508.88C306.773 508.893 306.529 508.947 306.3 509.04C296.85 509.3 258.5 510.28 229.74 511.04C209.387 511.56 189.033 511.397 168.68 510.55C151.03 509.82 127.43 509.03 105.44 508.95V532.87C157.04 522.87 295.63 525.65 307.44 525.87C307.596 525.89 307.754 525.89 307.91 525.87H308.25C310.44 525.38 311.99 521.64 311.81 517.16Z" fill="#F4BD95"/>
<path d="M106.002 532.811C108.412 532.687 110.093 527.24 109.755 520.643C109.417 514.046 107.19 508.799 104.779 508.922C102.369 509.045 100.689 514.493 101.026 521.09C101.364 527.686 103.592 532.934 106.002 532.811Z" fill="#84644E"/>
<path d="M302.99 125.96C302.79 122.06 301.28 118.84 299.39 117.96V117.79H298.99C298.731 117.709 298.461 117.672 298.19 117.68C297.943 117.693 297.7 117.747 297.47 117.84C288.02 118.11 249.67 119.08 220.91 119.84C200.557 120.347 180.203 120.183 159.85 119.35C145.7 118.75 127.73 118.13 109.85 117.87H107.1C107.932 120.091 109.417 122.009 111.36 123.37C114.76 125.64 119.07 126.14 123.12 126.51C127.479 126.76 131.819 127.261 136.12 128.01C141.35 129.09 145.95 131.81 151.02 133.38C154.98 134.544 159.047 135.304 163.16 135.65C221.83 133.2 290.44 134.56 298.57 134.74C298.727 134.75 298.884 134.75 299.04 134.74H299.16H299.38C301.63 134.18 303.22 130.44 302.99 125.96Z" fill="#DDA680"/>
<path d="M307.4 241.98C307.21 238.07 305.69 234.85 303.8 233.93V233.76H303.42C303.159 233.671 302.885 233.631 302.61 233.64C302.366 233.654 302.126 233.708 301.9 233.8C293.4 234.04 261.53 234.85 234.27 235.54C235.91 240.373 237.467 245.23 238.94 250.11C271.83 250 298.15 250.52 303 250.63C303.156 250.645 303.314 250.645 303.47 250.63H303.59H303.8C306.04 250.2 307.63 246.46 307.4 241.98Z" fill="#DDA680"/>
<path d="M101.621 257.615C104.031 257.492 105.712 252.044 105.374 245.448C105.036 238.851 102.809 233.603 100.398 233.727C97.9881 233.85 96.3079 239.298 96.6455 245.894C96.9832 252.491 99.2108 257.739 101.621 257.615Z" fill="#84644E"/>
<path d="M309.6 371.15C309.41 367.25 307.89 364.03 306 363.15V362.98H305.62C305.358 362.898 305.084 362.861 304.81 362.87C304.566 362.884 304.326 362.938 304.1 363.03C297.81 363.2 278.73 363.7 258.19 364.22C258.19 365.22 258.28 366.22 258.31 367.22C258.46 371.22 258.47 375.32 258.52 379.37C282.98 379.44 301.25 379.81 305.2 379.89C305.356 379.91 305.514 379.91 305.67 379.89H305.99C308.24 379.37 309.83 375.63 309.6 371.15Z" fill="#DDA680"/>
<path d="M103.812 386.794C106.222 386.67 107.902 381.223 107.565 374.626C107.227 368.029 104.999 362.782 102.589 362.905C100.179 363.028 98.4983 368.476 98.836 375.073C99.1736 381.669 101.401 386.917 103.812 386.794Z" fill="#84644E"/>
<path d="M311.81 517.16C311.61 513.26 310.09 510.03 308.21 509.16V508.99H307.82C307.561 508.909 307.291 508.872 307.02 508.88C306.773 508.893 306.529 508.947 306.3 509.04C296.85 509.3 258.5 510.28 229.74 511.04C223.22 511.213 216.697 511.307 210.17 511.32C209.47 514.16 208.91 517.04 208.43 519.83C208.09 521.83 207.8 523.83 207.54 525.77C255.54 524.86 300.89 525.77 307.4 525.9C307.556 525.92 307.714 525.92 307.87 525.9H308.21C310.44 525.38 311.99 521.64 311.81 517.16Z" fill="#DDA680"/>
<path d="M106.002 532.811C108.412 532.687 110.093 527.24 109.755 520.643C109.417 514.046 107.19 508.799 104.779 508.922C102.369 509.045 100.689 514.493 101.026 521.09C101.364 527.686 103.592 532.934 106.002 532.811Z" fill="#DDA680"/>
<path d="M331.15 511.34C345.08 505.88 358.61 500 371.6 493.91C379.48 447.5 402.48 306.91 397.9 272.19C392.4 230.48 352.97 183.81 352.97 183.81L244.54 154.05C262.74 295.55 268.47 418.33 268.47 418.33C268.47 418.33 262.6 421.85 226.11 425.33C194.48 428.33 223.11 512.01 221.8 541.15C232.14 539.72 242.47 537.83 252.75 535.57C253.05 504.84 246.29 457.81 246.29 457.81C304.83 454.74 331.15 448.81 331.15 448.81V511.34Z" fill="white"/>
<path opacity="0.5" d="M396.07 323.13C390.18 323.6 384.18 323.25 378.3 323.88C371.21 324.64 364.12 325.95 357.12 327.34C353.67 328.02 350.26 328.8 346.85 329.63C345.14 330.05 342.85 330.14 341.85 331.63C341.816 332.564 341.903 333.498 342.11 334.41C343.25 339.41 347.34 343.23 351.11 346.48C355.32 350.09 359.96 353.25 363.83 357.26C367.28 360.83 369.91 365.26 369.03 370.39C367.8 377.54 360.81 380.69 356.37 385.58C353.63 388.58 352.72 392.66 352.31 396.58C351.881 401.061 352.22 405.582 353.31 409.95C355.48 418.95 360.02 427.24 364.55 435.29C366.91 439.163 369.043 443.17 370.94 447.29C372.663 451.504 373.797 455.936 374.31 460.46C374.87 465.161 375.03 469.901 374.79 474.63C381.29 435.45 391.46 370.49 396.07 323.13Z" fill="#E5E5E5"/>
<path d="M109.85 117.81C109.85 117.81 106.91 122.2 113.02 122.69C116.87 122.942 120.724 122.256 124.25 120.69C124.25 120.69 118.82 130.51 130.25 127.11C141.68 123.71 146.25 121.5 146.25 121.5L185.33 135.18L197.78 133.05L146.48 110.5L109.85 117.81Z" fill="#DBA47F"/>
<path d="M309.63 147.75C309.63 147.75 167.95 71.8401 113.63 117.55L128.97 118.29C128.97 118.29 122.64 127.96 130.2 127.07C137.76 126.18 145.14 118.57 145.14 118.57C145.14 118.57 247.14 153.14 280.78 184.88L309.63 147.75Z" fill="white"/>
<path d="M171.99 125.05C172.986 124.774 174.03 124.716 175.05 124.88C171.69 120.32 167.68 116.1 162.12 114.55C160.48 114.09 160.33 111.45 162.12 111.07C164.806 110.657 167.523 110.473 170.24 110.52C171.955 110.551 173.666 110.356 175.33 109.94C172.07 107.63 168.16 106.26 165.67 102.94C145.37 102.49 126.93 106.4 113.67 117.54L129.01 118.28C129.01 118.28 122.68 127.95 130.24 127.06C137.8 126.17 145.18 118.56 145.18 118.56C145.18 118.56 154.89 121.85 169.29 127.33C169.553 126.78 169.929 126.293 170.395 125.9C170.86 125.507 171.404 125.217 171.99 125.05Z" fill="#D9C9B9"/>
<path d="M269.99 235.4C269.99 235.4 253.81 249.7 259.75 281.69C265.69 313.68 257.67 303.02 266.59 334.38C275.51 365.74 311.06 390.57 322.74 355.58C334.42 320.59 316.34 291.73 333.57 271.66C350.8 251.59 315.67 181.18 269.99 235.4Z" fill="#D9C9B9"/>
<path opacity="0.5" d="M362.73 212.75C358.518 216.775 354.695 221.188 351.31 225.93C362.31 238.65 420.31 322.17 362.19 309.25L343.91 309.95L349.8 332.1C349.8 332.1 393.8 350.16 406.42 319.99C418.53 290.94 410.13 249.05 362.73 212.75Z" fill="#E5E5E5"/>
<path d="M361.99 200.73C361.99 200.73 403.73 240.78 420.7 279.16C431.7 303.93 419.6 333.1 395.13 341.03C378.102 346.716 359.778 347.266 342.44 342.61C337.952 341.422 334.017 338.711 331.31 334.94C327.36 329.37 325.68 321.06 341.95 314.31C341.95 314.31 340.95 294.76 346.07 293.52C353.9 291.64 353.42 310.59 353.42 310.59C353.42 310.59 421.57 330.12 388.54 276.99C355.51 223.86 344.85 208.99 344.85 208.99L361.99 200.73Z" fill="white"/>
<path opacity="0.5" d="M264.68 163.56C265.806 174.173 268.31 184.594 272.13 194.56C273.862 199.183 276.025 203.632 278.59 207.85C281.3 212.23 285.3 215.15 289.59 217.85C291.803 219.104 293.895 220.561 295.84 222.2C297.415 223.826 298.598 225.789 299.3 227.94C300.58 231.4 300.89 236.46 304.05 238.85L304.26 239.04C305.727 239.847 307.285 240.478 308.9 240.92C316.96 243.04 325.22 239.72 332.39 236.25C336.23 234.39 339.97 232.35 343.82 230.51C347.259 228.736 350.903 227.393 354.67 226.51C369.3 223.57 381.91 233.6 391.16 243.73C396.16 249.18 400.6 255.1 405.02 261.01C409.31 266.75 413.57 272.55 418.87 277.41C419.39 277.89 419.93 278.34 420.47 278.79C409.69 255.71 389.47 232.14 375.19 217.12C368.286 205.462 360.531 194.328 351.99 183.81L264.31 159.58C264.42 160.91 264.54 162.23 264.68 163.56Z" fill="#E5E5E5"/>
<path d="M285.28 234.05C285.28 234.05 244.48 172.45 271.74 130.12C299 87.7899 369.43 201.12 369.43 201.12C369.43 201.12 323.52 245.85 285.28 234.05Z" fill="#E56038"/>
<path d="M324.23 221.27C324.23 221.27 333.78 216.92 357.64 197.97C381.5 179.02 423.76 196.14 427.44 217.34C427.44 217.34 403.97 164.88 364.64 180.4C325.31 195.92 324.23 221.27 324.23 221.27Z" fill="#C6492C"/>
<path d="M312.313 238.501C313.315 232.363 307.483 226.302 299.285 224.963C291.088 223.623 283.629 227.513 282.626 233.65C281.623 239.787 287.456 245.849 295.654 247.188C303.851 248.528 311.31 244.638 312.313 238.501Z" fill="#5494D8"/>
<path d="M309.638 238.064C310.46 233.033 305.679 228.064 298.958 226.966C292.237 225.868 286.123 229.056 285.301 234.087C284.479 239.118 289.261 244.086 295.981 245.185C302.702 246.283 308.816 243.095 309.638 238.064Z" fill="#83B3DD"/>
<g opacity="0.75">
<path opacity="0.75" d="M292.82 241.34C292.736 241.34 292.653 241.319 292.579 241.281C292.504 241.242 292.44 241.186 292.391 241.118C292.342 241.05 292.31 240.971 292.298 240.888C292.285 240.804 292.293 240.72 292.32 240.64L294.05 230.04C294.052 229.957 294.074 229.875 294.113 229.802C294.152 229.728 294.208 229.665 294.276 229.616C294.344 229.568 294.422 229.536 294.504 229.522C294.586 229.509 294.67 229.515 294.75 229.54L298.93 230.23C300.278 230.346 301.545 230.922 302.52 231.86C303.182 232.906 303.438 234.158 303.239 235.38C303.04 236.602 302.4 237.708 301.44 238.49C300.216 239.061 298.834 239.202 297.52 238.89L296.33 238.7L295.92 241.23C295.918 241.313 295.896 241.395 295.857 241.468C295.818 241.542 295.762 241.605 295.694 241.654C295.626 241.702 295.548 241.734 295.466 241.747C295.384 241.761 295.3 241.755 295.22 241.73L292.82 241.34ZM297.96 235.88C298.345 235.981 298.754 235.938 299.11 235.76C299.257 235.636 299.377 235.484 299.463 235.312C299.549 235.14 299.599 234.952 299.61 234.76C299.656 234.579 299.664 234.391 299.635 234.207C299.606 234.023 299.54 233.847 299.44 233.69C299.165 233.399 298.79 233.223 298.39 233.2L297.26 233.01L296.82 235.68L297.96 235.88Z" fill="#5494D8"/>
</g>
<path d="M305.51 227.05L290.15 245.38C291.88 246.229 293.727 246.815 295.63 247.12C295.91 247.12 296.17 247.19 296.44 247.22L308.84 229.5C307.838 228.546 306.719 227.723 305.51 227.05Z" fill="url(#paint0_linear_271_170)"/>
<path d="M285.46 234.93C286.29 229.93 292.4 226.71 299.12 227.81C304.45 228.68 308.55 231.99 309.61 235.81C308.98 231.6 304.67 227.81 298.94 226.91C292.21 225.81 286.1 229 285.28 234.03C285.117 235.058 285.182 236.11 285.47 237.11C285.354 236.388 285.35 235.653 285.46 234.93Z" fill="#457BAD"/>
<path d="M287.79 241.05L293.41 230.38C293.41 230.38 287.41 236.28 285.8 238.08C286.276 239.183 286.95 240.19 287.79 241.05Z" fill="url(#paint1_linear_271_170)"/>
<path d="M285.62 114.43C282.841 124.141 279.479 133.675 275.55 142.98C272.488 150.267 269.906 157.746 267.82 165.37C264.43 177.67 268.49 187.68 272.97 199.61C275.82 207.2 277.81 215.26 282.23 223.07C284.43 226.96 297.29 228.88 304.06 229.07C313.56 229.31 357.19 197.07 364.64 180.43C372.09 163.79 381.82 85.5899 356.64 88.4299C331.46 91.2699 325.64 64.6499 304.51 84.1499C295.561 92.3243 289.027 102.798 285.62 114.43Z" fill="white"/>
<path d="M292.29 115.94C292.29 115.94 286.15 90.0901 285.8 82.1201C285.45 74.1501 301.99 44.3 301.99 44.3C301.99 44.3 310.99 83.69 306.83 96.55C304.165 104.394 299.073 111.185 292.29 115.94Z" fill="white"/>
<path d="M370.73 345.05C372.52 344.763 374.262 344.235 375.91 343.48C374.722 342.849 373.48 342.324 372.2 341.91C371.879 341.813 371.588 341.634 371.357 341.39C371.126 341.147 370.962 340.847 370.882 340.521C370.803 340.194 370.809 339.853 370.902 339.53C370.994 339.208 371.17 338.914 371.41 338.68C372.976 337.025 374.879 335.726 376.99 334.87C375.996 334.281 374.9 333.884 373.76 333.7C371.535 333.412 369.397 332.651 367.49 331.47C367.293 331.288 367.137 331.068 367.029 330.823C366.922 330.577 366.867 330.313 366.867 330.045C366.867 329.777 366.922 329.513 367.029 329.267C367.137 329.022 367.293 328.802 367.49 328.62C369.49 326.77 372.11 326.11 374.64 325.53C375.72 325.29 376.86 325.08 377.94 324.74C377.059 324.608 376.171 324.531 375.28 324.51C373.04 324.512 370.811 324.195 368.66 323.57C368.252 323.345 367.939 322.981 367.777 322.544C367.615 322.107 367.617 321.626 367.78 321.19C368.62 318.61 370.45 316.86 372.31 315.19C372.61 314.93 372.9 314.66 373.18 314.39C365.984 313.998 358.858 312.78 351.94 310.76C351.94 310.76 352.27 291.83 344.86 293.66C339.98 294.86 341.08 314.4 341.08 314.4C325.68 321.05 327.32 329.4 331.08 334.95C333.614 338.685 337.369 341.422 341.7 342.69C350.134 345.172 358.916 346.26 367.7 345.91C368.691 345.561 369.703 345.273 370.73 345.05Z" fill="#D9C9B9"/>
<path d="M353.15 123.25C353.15 123.25 361.33 102.15 365 96.4199C368.67 90.6899 397.2 71.6299 397.2 71.6299C397.2 71.6299 392.46 106.63 382.94 113.45C373.42 120.27 353.15 123.25 353.15 123.25Z" fill="white"/>
<path d="M305.54 180.99C304.055 181.32 302.51 181.26 301.055 180.815C299.6 180.369 298.286 179.555 297.24 178.45C291.63 172.52 281.32 160.5 282.29 153.33C283.62 143.53 345.53 155.04 341.44 165.1C338.27 172.88 315.62 178.74 305.54 180.99Z" fill="#453F3C"/>
<path d="M285.79 184.88C285.79 184.88 304.44 202.88 334.89 184.88C334.89 184.88 329.2 219.35 302.27 217.24C282.99 215.74 285.79 184.88 285.79 184.88Z" fill="#453F3C"/>
<path d="M362.06 110.22C362.06 110.22 366.32 100.91 372.94 96.2199C379.56 91.5299 391.68 83.8999 391.68 83.8999C391.68 83.8999 390.78 102.45 383.83 107.52C379.723 110.541 375.181 112.922 370.36 114.58C370.36 114.58 375.96 108.41 372.94 109.83C369.92 111.25 374.5 101.53 371.99 104.94C369.48 108.35 362.06 110.22 362.06 110.22Z" fill="#FFC4AB"/>
<path d="M337.1 154.05C344.213 154.05 349.98 144.639 349.98 133.03C349.98 121.421 344.213 112.01 337.1 112.01C329.987 112.01 324.22 121.421 324.22 133.03C324.22 144.639 329.987 154.05 337.1 154.05Z" fill="#D9C9B9"/>
<path d="M348.192 134.689C349.336 127.685 345.788 121.276 340.267 120.374C334.745 119.471 329.341 124.418 328.197 131.422C327.053 138.426 330.601 144.835 336.122 145.737C341.644 146.64 347.047 141.693 348.192 134.689Z" fill="white"/>
<path d="M327.12 132.35C327.12 132.35 331.32 117.52 340.4 119.35C349.48 121.18 346.84 138.35 346.84 138.35C346.84 138.35 347.7 122.05 340.3 120.64C333.17 119.28 327.12 132.35 327.12 132.35Z" fill="#453F3C"/>
<path d="M372.88 124.74C351.02 99.7999 288.88 100.65 288.88 100.65L274.35 145.86C305.07 138.74 368.83 165.4 368.83 165.4C372.013 152.092 373.376 138.414 372.88 124.74ZM313.26 128.05C311.94 136.13 306.55 141.98 301.26 141.11C295.97 140.24 292.67 132.97 293.99 124.89C295.31 116.81 300.71 110.96 306.04 111.83C311.37 112.7 314.59 119.96 313.26 128.05ZM346.76 134.6C345.44 142.69 340.05 148.53 334.76 147.66C329.47 146.79 326.17 139.53 327.49 131.45C328.81 123.37 334.21 117.51 339.54 118.39C344.87 119.27 348.09 126.52 346.76 134.6Z" fill="#E56038"/>
<path d="M372.88 124.74C370.319 121.879 367.386 119.374 364.16 117.29C364.701 119.185 365.122 121.112 365.42 123.06C366.238 128.268 366.282 133.569 365.55 138.79C364.46 146.37 360.81 153.59 354.46 158.07C353.859 158.497 353.234 158.891 352.59 159.25C362.38 162.7 368.84 165.4 368.84 165.4C372.02 152.092 373.379 138.414 372.88 124.74Z" fill="#C6492C"/>
<path d="M286.99 83.8701C286.99 83.8701 287.37 74.6401 299.36 53.1101C299.36 53.1101 307.93 76.8801 300.62 86.6201C300.62 86.6201 300.14 76.6201 299.55 81.0601C299.229 83.2906 299.035 85.5376 298.97 87.7901C298.97 87.7901 293.22 74.0101 294.29 80.1201C294.657 82.7136 295.212 85.277 295.95 87.7901L292.44 85.4501C292.44 85.4501 289.16 96.2301 286.99 83.8701Z" fill="#FFC4AB"/>
<path d="M294.99 95.9899C294.99 95.9899 306.22 85.8799 319.74 86.7399C319.74 86.7399 321.47 96.2399 320.45 97.1999C319.43 98.1599 294.99 95.9899 294.99 95.9899Z" fill="#453F3C"/>
<path d="M363.76 105.75C363.76 105.75 358.03 91.7499 345.47 86.6899C345.47 86.6899 339.79 94.4999 340.3 95.8099C340.81 97.1199 363.76 105.75 363.76 105.75Z" fill="#453F3C"/>
<path d="M348.24 183.81L349.87 183.57C350.037 183.54 350.196 183.479 350.34 183.39C350.477 183.33 350.592 183.228 350.67 183.1C350.714 183.048 350.745 182.987 350.761 182.921C350.776 182.855 350.776 182.786 350.76 182.72C350.767 182.583 350.724 182.448 350.64 182.34L350.43 182.1C350.241 181.942 350.024 181.82 349.79 181.74L349.39 181.64C349.125 181.595 348.855 181.595 348.59 181.64L346.96 181.88C346.793 181.903 346.633 181.96 346.49 182.05C346.353 182.111 346.238 182.212 346.16 182.34C346.116 182.392 346.085 182.453 346.069 182.519C346.054 182.585 346.054 182.654 346.07 182.72C346.059 182.861 346.102 183 346.19 183.11L346.4 183.34C346.589 183.499 346.806 183.621 347.04 183.7L347.44 183.8C347.705 183.845 347.975 183.845 348.24 183.8V183.81Z" fill="#453F3C"/>
<path d="M349.72 178.76C351.72 179.09 352.03 177.16 350.04 176.83C348.05 176.5 347.74 178.44 349.72 178.76Z" fill="#453F3C"/>
<path d="M357.31 180.68C359.31 181 359.61 179.07 357.62 178.75C355.63 178.43 355.32 180.35 357.31 180.68Z" fill="#453F3C"/>
<path d="M357.49 175.84C359.49 176.16 359.79 174.23 357.8 173.91C355.81 173.59 355.5 175.51 357.49 175.84Z" fill="#453F3C"/>
<path d="M358.63 171.71H358.91C359.178 171.755 359.452 171.755 359.72 171.71C359.961 171.702 360.199 171.647 360.42 171.55C360.619 171.488 360.794 171.366 360.92 171.2C361.061 171.085 361.15 170.92 361.17 170.74V170.38C361.088 170.126 360.936 169.9 360.73 169.73L360.35 169.46C360.039 169.288 359.701 169.173 359.35 169.12L359.07 169.07C358.802 169.025 358.528 169.025 358.26 169.07C358.016 169.079 357.775 169.134 357.55 169.23C357.355 169.293 357.184 169.416 357.06 169.58C356.917 169.693 356.823 169.859 356.8 170.04V170.4C356.878 170.656 357.031 170.882 357.24 171.05L357.62 171.32C357.931 171.492 358.269 171.607 358.62 171.66L358.63 171.71Z" fill="#453F3C"/>
<path d="M271.54 161.45C271.86 161.479 272.178 161.386 272.432 161.189C272.686 160.993 272.856 160.708 272.908 160.391C272.96 160.074 272.89 159.749 272.712 159.482C272.534 159.215 272.262 159.025 271.95 158.95C271.63 158.921 271.311 159.014 271.058 159.211C270.804 159.407 270.634 159.693 270.582 160.009C270.53 160.326 270.6 160.651 270.778 160.918C270.955 161.185 271.228 161.375 271.54 161.45Z" fill="#453F3C"/>
<path d="M278.26 165.27C278.469 165.217 278.684 165.194 278.9 165.2H278.56C278.783 165.207 279.005 165.241 279.22 165.3L278.9 165.21H278.99C279.146 165.283 279.318 165.318 279.49 165.31C279.657 165.328 279.825 165.304 279.98 165.24C280.132 165.181 280.268 165.089 280.38 164.97C280.512 164.87 280.612 164.735 280.67 164.58L280.77 164.26C280.813 164.038 280.788 163.808 280.7 163.6L280.55 163.31C280.422 163.132 280.25 162.99 280.05 162.9C279.728 162.781 279.392 162.704 279.05 162.67C278.716 162.641 278.379 162.657 278.05 162.72C277.885 162.732 277.727 162.787 277.59 162.88C277.437 162.941 277.305 163.045 277.21 163.18C277.092 163.3 277.015 163.454 276.99 163.62C276.92 163.777 276.899 163.951 276.93 164.12C276.945 164.283 276.992 164.442 277.07 164.586C277.147 164.73 277.252 164.857 277.38 164.96L277.66 165.14C277.867 165.231 278.094 165.269 278.32 165.25L278.26 165.27Z" fill="#453F3C"/>
<path d="M275.55 152.92L273.93 153.34C273.686 153.428 273.485 153.607 273.37 153.84C273.209 154.131 273.127 154.458 273.13 154.79C273.123 155.078 273.207 155.362 273.37 155.6C273.437 155.69 273.528 155.758 273.633 155.797C273.737 155.836 273.851 155.844 273.96 155.82L275.58 155.41C275.825 155.318 276.027 155.141 276.15 154.91C276.308 154.619 276.387 154.291 276.38 153.96C276.39 153.671 276.305 153.387 276.14 153.15C276.075 153.059 275.984 152.988 275.879 152.947C275.774 152.906 275.66 152.897 275.55 152.92Z" fill="#453F3C"/>
<path d="M269.84 169.52L270.13 169.92C270.338 170.178 270.627 170.357 270.95 170.43C271.114 170.47 271.286 170.47 271.45 170.43C271.613 170.405 271.768 170.34 271.9 170.24L272.13 170.02C272.276 169.846 272.373 169.635 272.41 169.41V169.05C272.381 168.833 272.299 168.627 272.17 168.45L271.89 168.05C271.803 167.911 271.678 167.8 271.53 167.73C271.395 167.623 271.232 167.557 271.06 167.54C270.897 167.491 270.723 167.491 270.56 167.54C270.399 167.563 270.247 167.629 270.12 167.73L269.88 167.95C269.74 168.128 269.647 168.337 269.61 168.56V168.9C269.631 169.117 269.71 169.325 269.84 169.5V169.52Z" fill="#453F3C"/>
<path d="M304.06 135.31C307.716 135.31 310.68 132.346 310.68 128.69C310.68 125.034 307.716 122.07 304.06 122.07C300.404 122.07 297.44 125.034 297.44 128.69C297.44 132.346 300.404 135.31 304.06 135.31Z" fill="#453F3C"/>
<path d="M338.47 141.93C342.126 141.93 345.09 138.966 345.09 135.31C345.09 131.654 342.126 128.69 338.47 128.69C334.814 128.69 331.85 131.654 331.85 135.31C331.85 138.966 334.814 141.93 338.47 141.93Z" fill="#453F3C"/>
<path d="M294.08 125.77C294.08 125.77 298.19 110.92 306.79 112.69C315.39 114.46 312.74 131.59 312.74 131.59C312.74 131.59 313.69 115.29 306.68 113.96C299.93 112.67 294.08 125.77 294.08 125.77Z" fill="#453F3C"/>
<path d="M290.41 209.93C290.41 209.93 298.22 201.61 305.87 207.59C305.87 207.59 310.72 204.66 313.56 207.68C315.257 209.476 316.537 211.623 317.31 213.97C317.31 213.97 299.19 224.56 290.41 209.93Z" fill="#F792C3"/>
<path d="M380.22 389.05L379.05 389.73C379.94 390.73 380.82 391.73 381.66 392.73C381.815 392.893 381.925 393.092 381.98 393.31C382.036 393.528 382.034 393.756 381.976 393.973C381.918 394.19 381.805 394.388 381.648 394.549C381.491 394.709 381.295 394.827 381.08 394.89C379.886 395.353 378.82 396.093 377.97 397.05C378.779 397.639 379.651 398.135 380.57 398.53C380.812 398.603 381.028 398.744 381.191 398.936C381.355 399.129 381.459 399.364 381.492 399.615C381.525 399.865 381.484 400.12 381.376 400.348C381.267 400.576 381.095 400.768 380.88 400.9C380.127 401.53 379.406 402.197 378.72 402.9C378.464 403.117 378.197 403.321 377.92 403.51C378.912 404.173 379.971 404.729 381.08 405.17C381.297 405.232 381.495 405.35 381.653 405.511C381.812 405.673 381.926 405.872 381.984 406.091C382.042 406.309 382.043 406.539 381.986 406.758C381.93 406.977 381.817 407.177 381.66 407.34C381.26 407.75 380.9 408.18 380.53 408.61C381.75 408.38 383.02 408.13 384.35 407.85C442.79 395.85 447.8 351 447.8 351C426.69 392.2 380.22 389.05 380.22 389.05Z" fill="#D9C9B9"/>
<path opacity="0.5" d="M246.21 457.82C241.99 458.07 237.75 458.13 233.55 458.23C236.93 463.44 238.46 469.87 239.55 475.87C240.74 482.57 241.25 489.36 241.93 496.12C242.93 505.94 243.66 515.75 244.01 525.61C244.13 529.003 244.223 532.397 244.29 535.79C246.957 535.263 249.623 534.707 252.29 534.12C252.51 506.84 247.37 466.51 246.21 457.82Z" fill="#E5E5E5"/>
<path opacity="0.5" d="M340.64 507.65C338.64 498.317 336.75 488.983 334.97 479.65C331.45 451.65 345.77 445.29 345.77 445.29L330.34 448.05C329.735 452.248 329.735 456.512 330.34 460.71V511.8C333.8 510.427 337.233 509.043 340.64 507.65Z" fill="#E5E5E5"/>
<path d="M440.59 167.21C445.673 168.108 450.669 169.446 455.52 171.21C462.101 173.641 468.42 176.73 474.38 180.43C474.57 179.18 474.75 177.93 474.95 176.69C475.08 175.84 475.27 174.83 475.51 173.69C474.09 173.12 472.64 172.61 471.18 172.12C461.308 168.873 450.982 167.216 440.59 167.21Z" fill="#C6492C"/>
<path opacity="0.5" d="M266.1 383.68C266.1 383.68 270.94 418.24 306.05 413.32L268.05 418.32L266.1 383.68Z" fill="#E5E5E5"/>
<path d="M120.73 239.48C116.44 238.07 116.49 231.91 120.68 230.24C127.03 227.7 138.76 223.59 144.19 225.48C151.84 228.14 150.62 225.48 159.99 226.04C169.36 226.6 181.16 232.55 180.75 241.04C180.34 249.53 173.75 250.51 170.69 243.5C167.63 236.49 158.61 242.26 151.36 243.5C144.11 244.74 141.94 244.14 121.36 239.62L120.73 239.48Z" fill="white"/>
<path d="M177.12 364.85C177.12 364.85 192.63 372.96 211.12 370.18C229.61 367.4 228.27 371.57 231.05 377.41C233.83 383.25 243.49 369.66 233.51 363.8C223.53 357.94 208.79 356.8 195.99 361.28C183.19 365.76 184.07 356.47 177.12 364.85Z" fill="white"/>
</g>
<defs>
<linearGradient id="paint0_linear_271_170" x1="293.384" y1="239.716" x2="319.697" y2="230.914" gradientUnits="userSpaceOnUse">
<stop stop-color="white" stop-opacity="0"/>
<stop offset="1" stop-color="white" stop-opacity="0.5"/>
</linearGradient>
<linearGradient id="paint1_linear_271_170" x1="3548.37" y1="5280.5" x2="3456.34" y2="5392.03" gradientUnits="userSpaceOnUse">
<stop stop-color="white" stop-opacity="0"/>
<stop offset="1" stop-color="white" stop-opacity="0.5"/>
</linearGradient>
<clipPath id="clip0_271_170">
<rect width="532.19" height="544.4" fill="white"/>
</clipPath>
</defs>
</svg>
