<svg width="593" height="547" viewBox="0 0 593 547" fill="none" xmlns="http://www.w3.org/2000/svg">
<g clip-path="url(#clip0_361_188)">
<path d="M35.65 321.88C63.71 281.4 72.92 225.79 59.65 175.18C59.34 173.98 59.02 172.78 58.65 171.57C37.38 93.9099 154.71 -15.8201 352.32 1.90992C549.93 19.6399 573.24 113.31 559.51 250.91C545.78 388.51 686.78 496.81 471.68 532.83C233.51 572.71 -112.4 535.46 35.65 321.88Z" fill="#6DAEE8"/>
<path d="M184.74 107.75L171.86 145.74L199.28 136.27L193.53 175L216.39 122.29L197.6 127.88L216.39 94.3301L184.74 107.75Z" fill="#4990D1"/>
<path d="M310.06 83.2C304.06 84.66 296.22 88.73 288.66 94.79C281.1 100.85 275.41 107.55 272.66 113.12L267.39 117.34L271.89 122.97C275.89 127.97 289.82 123.38 303.06 112.79C316.3 102.2 323.81 89.58 319.83 84.61L315.33 78.98L310.06 83.2Z" fill="#F2B02C"/>
<path d="M298.577 107.207C311.817 96.6147 319.325 83.9973 315.347 79.0249C311.369 74.0524 297.411 78.6079 284.171 89.1997C270.932 99.7916 263.424 112.409 267.401 117.381C271.379 122.354 285.337 117.798 298.577 107.207Z" fill="#FFD671"/>
<path d="M166.77 187.93C162.93 185.24 156.68 182.47 149.36 180.45C142.04 178.43 135.25 177.59 130.59 177.93L125.49 176.52L124.34 180.67C123.34 184.34 132.89 190.18 145.7 193.72C158.51 197.26 169.7 197.16 170.7 193.49L171.85 189.34L166.77 187.93Z" fill="#F2B02C"/>
<path d="M171.838 189.314C172.85 185.651 163.288 179.813 150.48 176.273C137.673 172.733 126.469 172.832 125.457 176.495C124.445 180.157 134.007 185.996 146.815 189.535C159.623 193.075 170.826 192.976 171.838 189.314Z" fill="#FFD671"/>
<path opacity="0.35" d="M176.17 287.44L103.87 334.51C103.87 334.51 87.69 285.21 117.22 237.11C130.56 215.38 92.39 192.11 94.66 168.28C94.66 168.28 180.83 48.2801 357.55 49.3501L390.28 83.1701L523.36 102.8L485.44 262.99C485.44 262.99 439.85 269.28 375.8 263.77C300.67 257.31 207.29 280.98 176.17 287.44Z" fill="white"/>
<path d="M101.65 325.31C101.97 322.65 102.65 320.05 102.89 317.39C103.26 313.5 103.23 309.58 103.23 305.68C103.23 301.78 103.39 297.68 103.77 293.68C104.15 289.68 104.13 285.8 104.62 281.88C105.56 274.41 108.18 267.05 111.27 260.23C114.27 253.57 118.42 247.48 120.72 240.49C123.02 233.5 123.8 226.06 121.84 218.95C120.11 212.7 115.92 207.39 112.12 202.27C108.005 196.829 104.451 190.986 101.51 184.83C98.68 178.83 96.51 172.28 96.73 165.59C95.36 167.32 94.67 168.28 94.67 168.28C92.4 192.09 130.57 215.38 117.23 237.11C95.42 272.61 98.51 308.77 101.65 325.31Z" fill="white"/>
<path d="M101.51 164.16C112.51 149.95 124.65 136.65 140.42 127.6C149.75 122.25 159.42 117.54 168.78 112.2C178.14 106.86 187.38 101.45 196.89 96.4599C206.4 91.4699 216.51 87.1899 226.51 83.0099C236.51 78.8299 246.45 74.8699 256.6 71.2899C266.725 67.668 277.04 64.6034 287.5 62.1099C295.41 60.2599 303.43 58.9299 311.4 57.3999C324.63 54.8599 338.21 52.6499 351.72 53.3999C355.535 53.5956 359.327 54.1243 363.05 54.9799L357.51 49.3099C180.83 48.3099 94.66 168.31 94.66 168.31C94.515 169.891 94.5351 171.483 94.72 173.06C96.98 170.07 99.24 167.1 101.51 164.16Z" fill="white"/>
<path d="M391.27 85.31C392.656 86.6721 394.293 87.7521 396.09 88.49C399.96 90.19 404.29 90.78 408.44 91.3C412.76 91.84 417.03 92.48 421.32 93.25C444.05 97.36 466.68 101.96 489.32 106.52C499.87 108.64 510.42 110.76 520.99 112.81L523.36 102.81L390.28 83.18L389.37 82.23C389.798 83.3699 390.443 84.4159 391.27 85.31Z" fill="white"/>
<path opacity="0.15" d="M483.51 96.9199C483.443 100.867 483.29 104.82 483.05 108.78C481.75 130.91 478.13 152.78 474.76 174.71C473.27 184.31 471.76 193.92 470.76 203.58C470.02 210.48 469.47 217.44 468.06 224.24C466.86 229.98 464.94 235.72 461.21 240.33C457.27 245.21 451.5 248 445.39 249.04C440.774 249.66 436.116 249.911 431.46 249.79C426.1 249.79 420.75 249.79 415.4 249.71C404.4 249.53 393.46 249.14 382.49 248.88C360.2 248.36 338.06 248.65 315.93 251.6C294.41 254.47 273.11 258.78 251.93 263.36C241.5 265.61 231.08 267.92 220.65 270.16C215.317 271.307 209.957 272.43 204.57 273.53C199.44 274.53 194.25 275.39 189.19 276.73C179.77 279.22 170.89 283.26 162.26 287.73C153.39 292.31 144.62 297.07 135.76 301.73C127.279 306.079 119.259 311.272 111.82 317.23C108.37 320.03 105.11 323.05 101.9 326.11C102.429 328.97 103.12 331.798 103.97 334.58L176.27 287.51C207.39 281.05 300.77 257.39 375.9 263.84C439.9 269.35 485.54 263.06 485.54 263.06L523.46 102.87L483.51 96.9199Z" fill="#589ACC"/>
<path opacity="0.15" d="M329.18 50.2501L358.25 84.9701C367.72 81.3101 390.25 83.17 390.25 83.17L357.51 49.3101C347.82 49.3101 338.37 49.6201 329.18 50.2501Z" fill="#589ACC"/>
<path d="M164.1 294.82C164.1 294.82 138.86 264.45 162.35 256.87C185.84 249.29 185.59 290.14 185.59 290.14L164.1 294.82Z" fill="#E5D6C7"/>
<path d="M393.61 258.84C393.61 258.84 404.4 229.2 422.96 234.49C441.52 239.78 426.27 265.99 426.27 265.99C426.27 265.99 396.27 285.46 393.61 258.84Z" fill="#E5D6C7"/>
<path opacity="0.15" d="M431.39 249.79C426.03 249.79 420.68 249.79 415.33 249.71C409.64 249.62 403.95 249.47 398.26 249.31C396.447 252.352 394.892 255.539 393.61 258.84C393.793 260.987 394.264 263.099 395.01 265.12C406.21 265.73 416.67 265.99 426.21 266.03H426.27C426.27 266.03 430.97 257.93 431.97 249.83L431.39 249.79Z" fill="#589ACC"/>
<path d="M419.29 260.92C415.46 259.001 411.762 256.83 408.22 254.42C405.974 253.074 403.949 251.387 402.22 249.42L398.22 249.32C396.407 252.362 394.852 255.549 393.57 258.85C393.753 260.997 394.224 263.109 394.97 265.13C406.17 265.74 416.63 266 426.17 266.04H426.23C426.23 266.04 426.55 265.48 427.04 264.53C424.41 263.45 421.83 262.2 419.29 260.92Z" fill="#BCA691"/>
<path opacity="0.15" d="M184.51 278.09C176.808 280.676 169.332 283.893 162.16 287.71L159.84 288.93C161.158 290.965 162.58 292.931 164.1 294.82L165.21 294.58L176.21 287.44C178.85 286.9 181.95 286.22 185.43 285.44C185.24 283.41 184.98 280.85 184.51 278.09Z" fill="#589ACC"/>
<path d="M184.51 278.09C182.32 278.79 180.15 279.57 178.01 280.41C176.295 281.118 174.802 282.275 173.69 283.76C173.51 283.99 173.33 284.21 173.14 284.43C171.36 286.25 169.342 287.821 167.14 289.1C165.487 290.167 163.79 291.167 162.05 292.1C163.27 293.8 164.12 294.82 164.12 294.82L165.23 294.58L176.23 287.44C178.87 286.9 181.97 286.22 185.45 285.44C185.24 283.41 184.98 280.85 184.51 278.09Z" fill="#BCA691"/>
<path d="M230.33 341.63L269.45 376.05C269.45 376.05 214.73 403.88 230.33 341.63Z" fill="white"/>
<path d="M241.42 371.39C240.12 369.39 239.05 366.62 241.36 364.97C241.565 364.856 241.801 364.811 242.033 364.842C242.265 364.872 242.482 364.977 242.65 365.14L242.85 365.26C242.932 365.15 243.034 365.055 243.15 364.98C243.15 364.89 243.23 364.79 243.26 364.72C243.382 364.441 243.558 364.189 243.78 363.98C244.9 363.03 246.05 363.98 246.92 364.77C249.656 367.133 252.747 369.05 256.08 370.45L234.95 351.85C229.86 372.15 237.45 376.21 245.25 375.78C243.753 374.524 242.461 373.043 241.42 371.39Z" fill="#FFC4AB"/>
<path d="M315.45 356.96L365.05 340.96C365.05 340.96 360.93 402.24 315.45 356.96Z" fill="white"/>
<path d="M334.82 371.45L335.91 353.67L329.91 368.85C331.487 369.824 333.128 370.693 334.82 371.45Z" fill="white"/>
<path d="M334.76 362.92C335.189 361.773 335.426 360.564 335.46 359.34C335.015 359.717 334.536 360.052 334.03 360.34C333.595 361.073 333.211 361.835 332.88 362.62C333.41 362.74 333.97 362.8 334.45 362.89L334.76 362.92Z" fill="#FFC4AB"/>
<path d="M332.73 355.89C332.356 356.266 331.944 356.601 331.5 356.89C331.4 357.15 331.32 357.42 331.24 357.68C331.25 357.863 331.25 358.047 331.24 358.23C331.23 358.525 331.2 358.819 331.15 359.11C331.612 358.999 332.064 358.849 332.5 358.66C332.77 358.21 333.06 357.77 333.35 357.34C333.64 356.91 334.13 356.23 334.56 355.69C334.406 355.614 334.27 355.504 334.164 355.369C334.057 355.234 333.983 355.076 333.945 354.908C333.908 354.74 333.909 354.566 333.948 354.399C333.986 354.231 334.062 354.074 334.17 353.94L333.17 354.24C333.036 354.362 332.909 354.493 332.79 354.63C332.926 354.815 332.995 355.041 332.984 355.271C332.973 355.5 332.883 355.719 332.73 355.89Z" fill="#FFC4AB"/>
<path d="M338.68 363.7L339.19 363.78C340.562 364.065 341.978 364.065 343.35 363.78C343.091 363.823 342.824 363.774 342.597 363.64C342.371 363.507 342.198 363.298 342.11 363.05C341.87 362.36 341.63 361.67 341.41 360.98C341.053 361.289 340.74 361.645 340.48 362.04C340.389 362.185 340.265 362.306 340.117 362.394C339.97 362.481 339.804 362.533 339.633 362.543C339.462 362.554 339.291 362.524 339.134 362.456C338.977 362.387 338.839 362.283 338.73 362.15C338.72 362.64 338.7 363.17 338.68 363.7Z" fill="#FFC4AB"/>
<path d="M338.14 352.67C338.354 352.878 338.488 353.154 338.52 353.45C338.61 355.527 339.032 357.576 339.77 359.52C340.354 358.901 341.058 358.407 341.84 358.07C343.24 357.49 344.78 357.29 346.22 356.85C346.376 356.808 346.54 356.801 346.699 356.831C346.858 356.861 347.008 356.927 347.138 357.023C347.267 357.119 347.374 357.244 347.449 357.387C347.524 357.53 347.565 357.688 347.57 357.85C347.51 358.564 347.272 359.251 346.88 359.85C346.35 360.7 346.24 360.94 346.77 361.85C347.108 362.294 347.302 362.832 347.325 363.39C347.349 363.948 347.2 364.499 346.9 364.97C345.67 366.85 342.9 367.63 340.9 368.26C340.35 368.43 339.8 368.62 339.25 368.8C339.092 368.933 338.896 369.013 338.69 369.03H338.48L338.29 369.09C357.29 375.96 359.29 345.8 359.29 345.8L338.14 352.67Z" fill="#FFC4AB"/>
<path d="M521.75 521.23C504.26 475.89 445.52 352.15 336.5 389.23C203.79 434.34 224.5 380.14 224.5 380.14C224.5 380.14 164.3 416.14 204.5 466.02C240.99 511.31 362.97 477.31 393.34 542.93C419.85 540.56 445.87 537.24 470.72 533.08C490.66 529.74 507.51 525.78 521.75 521.23Z" fill="#E56038"/>
<path d="M441.82 528.8C436.74 522.54 432.03 515.97 427.05 509.64C417.28 497.21 406.89 485.01 394.33 475.29C388.046 470.415 381.217 466.287 373.98 462.99C365.86 459.32 357.16 456.79 348.68 454.08C332.1 448.8 315.35 443.95 299.27 437.25C291.083 433.87 283.126 429.959 275.45 425.54C268.21 421.34 261.17 416.72 254.22 412.08C251.6 410.333 248.997 408.537 246.41 406.69C226.66 404.43 223.24 394.1 223.33 387L223.28 386.95C223.12 388.254 223.03 389.566 223.01 390.88C223.08 393.03 223.22 395.18 223.48 397.32C224.48 406.026 227.471 414.385 232.22 421.75C236.804 428.56 242.724 434.367 249.62 438.82C256.897 443.525 264.752 447.269 272.99 449.96C282.45 453.18 292.25 455.1 301.93 457.55C323.42 462.98 344.72 469.97 364.23 480.64C374.001 485.937 383.182 492.255 391.62 499.49C400.16 506.88 407.77 515.41 415.09 523.99C419.31 528.93 423.42 533.99 427.35 539.29C434.47 538.417 441.527 537.48 448.52 536.48C446.24 533.98 443.97 531.44 441.82 528.8Z" fill="#C6492C"/>
<path d="M397.44 249.22C393.75 237.49 389.56 241.01 386.29 247.46C382.137 255.834 381.198 265.44 383.65 274.46C386.17 284.04 389.39 296.56 389.39 298.19C389.39 300.87 352.51 394.75 352.51 394.75C345.02 352.25 323.51 319.36 316.15 303.94C311.07 293.33 287.6 303.32 278.79 306.65C274.64 308.21 265.52 310.17 264.5 314.48L255.89 355.86C239.8 365.25 236.09 396.58 236.09 396.58C208.6 365.74 188.91 302.22 188.91 302.22C188.91 302.22 190.91 283.44 185.56 273.38C180.21 263.32 176.17 287.46 176.17 287.46L164.1 294.84L197.62 375.97C220.21 430.64 211.73 501.35 203.8 541.67C250.66 547.07 301.6 548.14 352.1 545.67C358.1 454.98 426.27 266.05 426.27 266.05L401.51 262.73C400.93 260.61 399.74 256.55 397.44 249.22Z" fill="white"/>
<path opacity="0.5" d="M218.12 471.15C219.12 464.05 221.26 457.15 220.9 449.89C220.277 438.744 217.81 427.779 213.6 417.44C211.609 412.438 209.123 407.648 206.18 403.14C215.31 442.81 212.51 486.42 207.59 519.6C210.81 517.02 213.91 514.18 215.4 510.26C217.4 505.04 216.97 499.06 217.01 493.59C217.08 486.09 217.03 478.59 218.12 471.15Z" fill="#E5E5E5"/>
<path d="M176.87 320.56C176.881 320.208 176.993 319.867 177.193 319.577C177.393 319.287 177.672 319.061 177.997 318.926C178.322 318.791 178.679 318.752 179.026 318.815C179.372 318.878 179.693 319.039 179.95 319.28C181.507 320.504 182.993 321.816 184.4 323.21C184.2 322.097 184.089 320.97 184.07 319.84C184.072 319.524 184.157 319.213 184.316 318.94C184.475 318.666 184.703 318.44 184.977 318.282C185.251 318.124 185.562 318.041 185.878 318.04C186.195 318.04 186.506 318.123 186.78 318.28C188.077 319.19 189.307 320.193 190.46 321.28C190.65 319.81 190.77 318.28 190.97 316.86C191.13 315.64 192.61 315.36 193.53 315.75C190.53 307.5 188.91 302.22 188.91 302.22C188.91 302.22 190.91 283.44 185.56 273.38C180.21 263.32 176.17 287.46 176.17 287.46L164.1 294.84L176.86 325.72C176.81 323.98 176.76 322.31 176.87 320.56Z" fill="#D9C9B9"/>
<path d="M389.39 298.17C388.524 301.255 387.49 304.289 386.29 307.26C388.505 305.999 391.076 305.506 393.6 305.86C393.904 305.938 394.181 306.096 394.402 306.318C394.624 306.539 394.782 306.816 394.86 307.12C395.32 310.12 394.97 313.19 394.96 316.21C396.37 314.21 397.56 311.96 399.4 310.28C399.598 310.09 399.835 309.948 400.096 309.862C400.356 309.777 400.632 309.751 400.904 309.786C401.175 309.822 401.436 309.918 401.665 310.067C401.895 310.217 402.088 310.416 402.23 310.65C403.525 313.087 404.211 315.8 404.23 318.56L406.96 315.32C407.283 315.006 407.71 314.822 408.159 314.802C408.609 314.781 409.05 314.927 409.4 315.21C419.19 285.6 426.27 265.99 426.27 265.99L401.51 262.73C400.96 260.61 399.77 256.55 397.51 249.22C393.82 237.49 389.63 241.01 386.36 247.46C382.207 255.834 381.268 265.44 383.72 274.46C386.17 284.02 389.39 296.54 389.39 298.17Z" fill="#D9C9B9"/>
<path d="M295.73 328.92C294.527 329.825 293.13 330.437 291.649 330.707C290.169 330.978 288.645 330.9 287.2 330.48C279.51 328.23 264.88 323.22 262.48 317.2C259.2 308.96 319.48 291.55 320.42 301.2C321.14 308.61 303.67 322.86 295.73 328.92Z" fill="#453F3C"/>
<path d="M249.74 543.51C249.62 544.17 249.49 544.83 249.37 545.51C277.22 547.06 305.92 547.3 334.65 546.34C334.833 542.775 334.628 539.201 334.04 535.68C333.36 530.99 332.37 526.35 331.75 521.68C331.19 517.207 331.19 512.683 331.75 508.21C332.08 505.31 332.45 502.42 332.81 499.53C333.618 493.851 334.112 488.133 334.29 482.4C334.36 477.57 334.1 472.72 332.22 468.2C331.446 466.318 330.293 464.616 328.833 463.2C327.372 461.784 325.635 460.685 323.73 459.97C318.05 457.87 311.67 458.23 305.73 459.14C305.452 459.32 305.131 459.421 304.8 459.43L297.05 459.74C285.86 460.25 274.05 460.97 263.65 465.42C258.85 467.302 254.624 470.404 251.39 474.42C248.056 479.129 246.274 484.76 246.29 490.53C246.09 499.04 249.6 506.69 251.37 514.85C252.34 519.369 252.59 524.013 252.11 528.61C251.61 533.63 250.68 538.57 249.74 543.51Z" fill="#D9C9B9"/>
<path d="M323.44 334.47L325.07 334.23C325.239 334.209 325.4 334.147 325.54 334.05C325.676 333.993 325.792 333.895 325.87 333.77C325.913 333.718 325.944 333.656 325.959 333.591C325.975 333.525 325.975 333.456 325.96 333.39C325.967 333.25 325.924 333.112 325.84 333L325.63 332.77C325.44 332.613 325.223 332.491 324.99 332.41L324.58 332.31C324.316 332.26 324.044 332.26 323.78 332.31L322.16 332.55C321.988 332.573 321.824 332.635 321.68 332.73C321.544 332.787 321.428 332.885 321.35 333.01C321.273 333.121 321.24 333.257 321.26 333.39C321.252 333.532 321.299 333.671 321.39 333.78L321.6 334.02C321.786 334.181 322.004 334.301 322.24 334.37L322.64 334.48C322.905 334.525 323.175 334.525 323.44 334.48V334.47Z" fill="#453F3C"/>
<path d="M324.92 329.43C326.92 329.75 327.22 327.82 325.24 327.5C323.26 327.18 322.94 329.1 324.92 329.43Z" fill="#453F3C"/>
<path d="M324.28 324.86L324.52 325.01C324.748 325.156 324.998 325.264 325.26 325.33C325.487 325.416 325.728 325.457 325.97 325.45C326.175 325.464 326.38 325.419 326.56 325.32C326.733 325.265 326.879 325.147 326.97 324.99L327.09 324.65C327.115 324.384 327.063 324.117 326.94 323.88L326.68 323.49C326.459 323.209 326.188 322.971 325.88 322.79L325.64 322.64C325.415 322.487 325.164 322.376 324.9 322.31C324.673 322.224 324.432 322.183 324.19 322.19C323.985 322.181 323.782 322.226 323.6 322.32C323.423 322.378 323.274 322.499 323.18 322.66L323.07 322.99C323.045 323.256 323.097 323.523 323.22 323.76L323.47 324.16C323.699 324.437 323.973 324.673 324.28 324.86Z" fill="#453F3C"/>
<path d="M262.88 333.16C263.2 333.189 263.518 333.096 263.772 332.899C264.026 332.703 264.196 332.417 264.248 332.101C264.3 331.784 264.23 331.459 264.052 331.192C263.874 330.925 263.602 330.735 263.29 330.66C262.97 330.631 262.652 330.724 262.398 330.921C262.144 331.117 261.974 331.403 261.922 331.719C261.87 332.036 261.94 332.361 262.118 332.628C262.295 332.895 262.568 333.085 262.88 333.16Z" fill="#453F3C"/>
<path d="M269.61 336.98C269.82 336.931 270.035 336.908 270.25 336.91H269.91C270.131 336.916 270.349 336.953 270.56 337.02L270.24 336.92H270.33C270.485 336.996 270.657 337.03 270.83 337.02C270.994 337.034 271.16 337.011 271.314 336.952C271.468 336.893 271.607 336.8 271.72 336.68C271.851 336.577 271.954 336.443 272.02 336.29L272.11 335.97C272.151 335.749 272.13 335.52 272.05 335.31L271.89 335.02C271.762 334.842 271.589 334.701 271.39 334.61C271.068 334.49 270.732 334.412 270.39 334.38C270.058 334.335 269.722 334.335 269.39 334.38C269.227 334.398 269.069 334.453 268.93 334.54C268.782 334.612 268.651 334.715 268.547 334.843C268.444 334.971 268.369 335.12 268.33 335.28C268.26 335.437 268.24 335.611 268.27 335.78C268.308 336.107 268.469 336.407 268.72 336.62L269 336.8C269.211 336.892 269.441 336.93 269.67 336.91L269.61 336.98Z" fill="#453F3C"/>
<path opacity="0.5" d="M236.09 396.56C236.09 396.56 275 437.86 299.78 431.92C324.56 425.98 352.51 394.73 352.51 394.73C352.51 394.73 343.11 435.59 303.4 441.25C263.69 446.91 236.09 396.56 236.09 396.56Z" fill="#E5E5E5"/>
<path d="M266.9 324.64L265.27 325.05C265.025 325.138 264.825 325.317 264.71 325.55C264.541 325.855 264.458 326.201 264.47 326.55C264.463 326.839 264.547 327.122 264.71 327.36C264.776 327.451 264.867 327.52 264.972 327.559C265.077 327.598 265.191 327.605 265.3 327.58L266.92 327.17C267.168 327.085 267.373 326.905 267.49 326.67C267.647 326.378 267.73 326.052 267.73 325.72C267.73 325.431 267.643 325.149 267.48 324.91C267.417 324.819 267.327 324.75 267.224 324.711C267.12 324.671 267.008 324.664 266.9 324.69V324.64Z" fill="#453F3C"/>
<path d="M261.18 341.23L261.47 341.63C261.561 341.768 261.685 341.881 261.83 341.96C261.964 342.06 262.123 342.122 262.29 342.14C262.453 342.19 262.627 342.19 262.79 342.14C262.953 342.115 263.108 342.049 263.24 341.95L263.48 341.73C263.62 341.552 263.712 341.343 263.75 341.12V340.78C263.725 340.564 263.646 340.358 263.52 340.18L263.23 339.78C263.143 339.641 263.018 339.53 262.87 339.46C262.735 339.359 262.577 339.293 262.41 339.27C262.246 339.23 262.074 339.23 261.91 339.27C261.747 339.295 261.592 339.36 261.46 339.46L261.22 339.68C261.08 339.857 260.988 340.067 260.95 340.29V340.63C260.975 340.846 261.054 341.052 261.18 341.23Z" fill="#453F3C"/>
<path d="M322.91 363.54C322.91 363.54 304.27 381.54 273.82 363.54C273.82 363.54 279.5 398.01 306.44 395.9C325.75 394.4 322.91 363.54 322.91 363.54Z" fill="#453F3C"/>
<path d="M236.09 396.56C236.09 396.56 264.58 436.56 298.44 435.03C332.3 433.5 352.51 394.73 352.51 394.73C352.51 394.73 345 441.25 321.03 450.18C297.06 459.11 259.71 468.31 224.51 381.12L236.09 396.56Z" fill="#E56038"/>
<path d="M331 422.83C336.874 421.158 342.401 418.449 347.32 414.83C349.551 408.287 351.286 401.584 352.51 394.78C352.51 394.78 343.7 411.67 327.98 423.59C328.99 423.31 330 423.1 331 422.83Z" fill="#C6492C"/>
<path d="M299.11 434.98L298.44 435.03C264.58 436.55 236.09 396.56 236.09 396.56L224.51 381.12C228.374 390.807 232.802 400.26 237.77 409.43L240.91 411.72C245.09 414.72 249.14 417.91 253.36 420.88C257.659 423.95 262.126 426.777 266.74 429.35C271.28 431.83 276.17 433.26 281.05 434.88C281.346 434.972 281.614 435.138 281.828 435.362C282.043 435.586 282.197 435.861 282.276 436.161C282.355 436.461 282.356 436.776 282.28 437.077C282.204 437.378 282.052 437.654 281.84 437.88C279.25 440.57 278.98 444.81 279.03 448.37C279.03 449.78 279.16 451.2 279.32 452.61C289.18 456.41 298.52 456.18 306.91 454.43C305.237 447.612 302.611 441.065 299.11 434.98Z" fill="#C6492C"/>
<path d="M318.29 388.59C318.29 388.59 310.48 380.27 302.83 386.25C302.83 386.25 297.99 383.32 295.14 386.34C293.443 388.136 292.163 390.283 291.39 392.63C291.39 392.63 309.51 403.21 318.29 388.59Z" fill="#F792C3"/>
<path d="M302.61 466.99C315.02 466.99 325.08 459.46 325.08 450.17C325.08 440.881 315.02 433.35 302.61 433.35C290.2 433.35 280.14 440.881 280.14 450.17C280.14 459.46 290.2 466.99 302.61 466.99Z" fill="#5494D8"/>
<path d="M302.61 463.96C312.783 463.96 321.03 457.786 321.03 450.17C321.03 442.554 312.783 436.38 302.61 436.38C292.437 436.38 284.19 442.554 284.19 450.17C284.19 457.786 292.437 463.96 302.61 463.96Z" fill="#83B3DD"/>
<g opacity="0.75">
<path opacity="0.75" d="M297.07 459.11C296.947 459.126 296.821 459.114 296.703 459.074C296.585 459.034 296.478 458.968 296.39 458.88C296.302 458.792 296.236 458.685 296.196 458.567C296.156 458.449 296.144 458.323 296.16 458.2V442.2C296.143 442.077 296.155 441.952 296.195 441.834C296.235 441.716 296.302 441.61 296.39 441.522C296.478 441.435 296.586 441.37 296.704 441.331C296.822 441.292 296.947 441.282 297.07 441.3H303.4C305.415 441.157 307.419 441.696 309.09 442.83C310.357 443.857 310.99 445.523 310.99 447.83C310.99 450.137 310.357 451.803 309.09 452.83C307.823 453.857 305.927 454.37 303.4 454.37H301.61V458.21C301.626 458.333 301.614 458.459 301.574 458.577C301.534 458.695 301.468 458.802 301.38 458.89C301.292 458.978 301.185 459.044 301.067 459.084C300.949 459.124 300.823 459.136 300.7 459.12L297.07 459.11ZM303.32 449.82C303.914 449.877 304.509 449.713 304.99 449.36C305.179 449.15 305.321 448.902 305.407 448.633C305.493 448.365 305.521 448.08 305.49 447.8C305.52 447.521 305.491 447.239 305.405 446.972C305.319 446.705 305.177 446.459 304.99 446.25C304.509 445.897 303.914 445.733 303.32 445.79H301.61V449.79L303.32 449.82Z" fill="#5494D8"/>
</g>
<path d="M312.34 435.03L294.11 465.74C296.864 466.582 299.73 467.006 302.61 467C303.03 467 303.43 467 303.84 466.95L317.84 437.83C316.137 436.66 314.288 435.719 312.34 435.03Z" fill="url(#paint0_linear_361_188)"/>
<path d="M284.68 451.43C284.68 443.81 292.93 437.64 303.1 437.64C311.17 437.64 318.01 441.53 320.5 446.94C318.5 440.88 311.29 436.38 302.61 436.38C292.44 436.38 284.19 442.56 284.19 450.18C284.193 451.731 284.534 453.264 285.19 454.67C284.854 453.623 284.682 452.53 284.68 451.43Z" fill="#457BAD"/>
<path d="M289.58 459.92L295.31 442.84C295.31 442.84 287.94 452.96 285.94 456.01C286.9 457.528 288.134 458.854 289.58 459.92Z" fill="url(#paint1_linear_361_188)"/>
<path opacity="0.65" d="M117.22 237.11C130.56 215.38 92.3901 192.11 94.6601 168.28C94.6601 168.28 78.92 187.77 79.23 191.93C79.54 196.09 111.31 227.23 102.59 243.12C93.8701 259.01 62.0901 301.06 79.2201 343.42L103.87 334.51C103.87 334.51 87.6901 285.21 117.22 237.11Z" fill="white"/>
<path d="M208.51 272.7C208.4 272.7 208.86 259.7 206.51 255.85C204.16 252 195.3 252.55 187.63 241.51C179.96 230.47 177.63 229 178.19 222.21C178.502 216.313 178.475 210.404 178.11 204.51C178.11 204.51 177.6 223.1 182.62 230.18C187.64 237.26 192.05 246.69 198.84 249.35C203.103 251.053 207.159 253.233 210.93 255.85L208.51 272.7Z" fill="white"/>
<path d="M340.27 49.6499L354.86 60.3999L352.43 70.9199C352.43 70.9199 376.71 82.6499 375.5 95.1999C374.29 107.75 384.4 107.34 384.81 108.96C385.22 110.58 386.81 118.27 386.81 118.27C386.81 118.27 386.32 105.89 385.51 105.07C384.7 104.25 379.35 108.64 377.41 95.3499C375.47 82.0599 360.54 72.4899 360.54 72.4899L356.17 67.1599L356.65 57.4099L340.27 49.6499Z" fill="white"/>
<path d="M210.93 234.48L298.44 230.3L285.94 171.49L227.28 169.43L210.93 234.48Z" fill="white"/>
<path d="M285.94 171.49L312.58 230.3H298.44L285.94 171.49Z" fill="#453F3C"/>
<path d="M228.46 191.92L231.17 178.66L243.68 179.75L242.59 191.92H228.46Z" fill="#E56038"/>
<path d="M223.3 222.34L226.02 209.08L238.52 210.17L237.43 222.34H223.3Z" fill="#E56038"/>
<path d="M247.79 209.13L249.38 195.77H261.57L260.78 209.13H247.79Z" fill="#E56038"/>
<path d="M272.13 217.77L273.44 204.39L285.94 204.51L286.26 217.77H272.13Z" fill="#E56038"/>
<path d="M264.52 194.27L267.24 181.01L279.74 182.1L278.65 194.27H264.52Z" fill="#E56038"/>
<path d="M232.82 173.43H232.74C232.61 173.408 232.493 173.336 232.415 173.23C232.337 173.124 232.302 172.991 232.32 172.86L233.52 165.09C233.632 164.255 234.059 163.495 234.714 162.965C235.369 162.435 236.201 162.176 237.041 162.24C237.881 162.303 238.664 162.686 239.231 163.309C239.798 163.932 240.105 164.748 240.09 165.59V169.23C240.09 169.363 240.037 169.49 239.943 169.584C239.85 169.677 239.723 169.73 239.59 169.73C239.457 169.73 239.33 169.677 239.236 169.584C239.143 169.49 239.09 169.363 239.09 169.23V165.59C239.103 165.002 238.89 164.431 238.495 163.994C238.1 163.558 237.553 163.29 236.966 163.245C236.379 163.2 235.797 163.382 235.34 163.753C234.883 164.124 234.586 164.656 234.51 165.24L233.31 173.01C233.291 173.127 233.231 173.233 233.142 173.31C233.052 173.387 232.938 173.429 232.82 173.43Z" fill="#453F3C"/>
<path d="M252.26 174.14H252.18C252.115 174.13 252.053 174.108 251.997 174.074C251.941 174.04 251.893 173.995 251.855 173.942C251.816 173.888 251.789 173.828 251.775 173.764C251.76 173.701 251.759 173.634 251.77 173.57L252.96 165.8C253.072 164.965 253.499 164.205 254.154 163.675C254.809 163.145 255.641 162.886 256.481 162.949C257.321 163.013 258.104 163.396 258.671 164.019C259.238 164.642 259.545 165.458 259.53 166.3V169.94C259.53 170.073 259.477 170.2 259.383 170.294C259.29 170.387 259.163 170.44 259.03 170.44C258.897 170.44 258.77 170.387 258.676 170.294C258.583 170.2 258.53 170.073 258.53 169.94V166.31C258.543 165.722 258.33 165.15 257.935 164.714C257.54 164.278 256.993 164.01 256.406 163.965C255.819 163.92 255.237 164.102 254.78 164.473C254.323 164.844 254.026 165.376 253.95 165.96L252.75 173.73C252.729 173.845 252.668 173.949 252.579 174.023C252.489 174.098 252.377 174.14 252.26 174.14Z" fill="#453F3C"/>
<path d="M274.87 175.01H274.79C274.725 175 274.662 174.978 274.606 174.944C274.55 174.91 274.501 174.865 274.462 174.812C274.423 174.759 274.395 174.699 274.379 174.635C274.363 174.571 274.36 174.505 274.37 174.44L275.57 166.67C275.686 165.889 276.079 165.176 276.678 164.662C277.276 164.147 278.041 163.866 278.83 163.87C279.706 163.87 280.547 164.217 281.167 164.836C281.787 165.454 282.137 166.294 282.14 167.17V170.81C282.14 170.943 282.087 171.07 281.994 171.163C281.9 171.257 281.773 171.31 281.64 171.31C281.507 171.31 281.38 171.257 281.286 171.163C281.193 171.07 281.14 170.943 281.14 170.81V167.17C281.137 166.559 280.893 165.974 280.46 165.543C280.027 165.112 279.441 164.87 278.83 164.87C278.28 164.867 277.747 165.062 277.33 165.42C276.913 165.779 276.64 166.276 276.56 166.82L275.36 174.6C275.339 174.715 275.279 174.818 275.189 174.893C275.1 174.968 274.987 175.009 274.87 175.01Z" fill="#453F3C"/>
<path opacity="0.5" d="M246.13 212.98C249.9 198.86 253.38 184.68 256.78 170.47L253.27 170.35L253.95 165.94C254.021 165.489 254.224 165.068 254.534 164.733C254.844 164.397 255.247 164.16 255.691 164.053C256.135 163.946 256.601 163.973 257.03 164.131C257.459 164.289 257.831 164.571 258.1 164.94L258.37 163.79C257.925 163.404 257.384 163.144 256.804 163.038C256.224 162.933 255.626 162.985 255.073 163.189C254.52 163.394 254.032 163.743 253.661 164.2C253.289 164.658 253.047 165.207 252.96 165.79L252.27 170.31L233.83 169.66L234.51 165.23C234.586 164.646 234.883 164.114 235.34 163.743C235.797 163.372 236.379 163.19 236.966 163.235C237.553 163.28 238.1 163.548 238.495 163.984C238.89 164.42 239.103 164.992 239.09 165.58V169.22C239.09 169.353 239.143 169.48 239.236 169.574C239.33 169.667 239.457 169.72 239.59 169.72C239.723 169.72 239.85 169.667 239.943 169.574C240.037 169.48 240.09 169.353 240.09 169.22V165.58C240.105 164.738 239.798 163.922 239.231 163.299C238.664 162.676 237.881 162.293 237.041 162.229C236.201 162.166 235.369 162.425 234.714 162.955C234.059 163.485 233.632 164.245 233.52 165.08L232.82 169.63L227.29 169.43L210.93 234.49L240.51 233.07C242.463 226.39 244.337 219.693 246.13 212.98Z" fill="#6DAEE8"/>
<path d="M441.75 186.01L386.81 162.06C384.25 160.95 383.69 158.27 385.56 156.06L410.18 127.37C411.171 126.29 412.461 125.53 413.886 125.186C415.311 124.843 416.806 124.931 418.18 125.44L473.12 149.38C475.68 150.5 476.24 153.17 474.37 155.38L449.75 184.08C448.757 185.157 447.467 185.916 446.043 186.26C444.619 186.603 443.125 186.516 441.75 186.01Z" fill="#4990D1"/>
<path d="M467.76 163.11L403.55 135.13L407.25 130.81L471.46 158.8L467.76 163.11Z" fill="white"/>
<path d="M411.56 145.74L403.56 142.26L404.69 140.95L412.68 144.43L411.56 145.74Z" fill="white"/>
<path d="M426.39 152.21L418.39 148.72L419.52 147.41L427.51 150.89L426.39 152.21Z" fill="white"/>
<path d="M442.18 159.09L434.19 155.6L435.31 154.29L443.31 157.78L442.18 159.09Z" fill="white"/>
<path d="M457.01 165.55L449.02 162.07L450.14 160.76L458.14 164.24L457.01 165.55Z" fill="white"/>
<path opacity="0.5" d="M386.81 162.06L399.81 167.73C401.37 166.91 402.937 166.1 404.51 165.3C411.78 161.6 418.95 157.71 426.14 153.85C434.7 149.25 443.28 144.68 451.88 140.14L418.21 125.47C416.836 124.961 415.341 124.873 413.916 125.216C412.491 125.56 411.201 126.32 410.21 127.4L385.59 156.09C383.69 158.31 384.25 160.95 386.81 162.06Z" fill="#6DAEE8"/>
<path d="M410.3 233.19C414.16 222.01 407.86 207.56 394.61 198.92C381.36 190.28 365.61 190.36 356.93 198.4L356.44 198.08L354.64 200.93C354.367 201.29 354.107 201.66 353.86 202.04C353.498 202.568 353.164 203.116 352.86 203.68C346.86 215.13 353.12 231.25 367.43 240.57C381.5 249.74 398.43 249.09 406.65 239.5C407.203 238.867 407.714 238.199 408.18 237.5L410.75 233.55L410.3 233.19Z" fill="#F2B02C"/>
<path d="M410.769 233.465C418.265 221.962 412.173 204.708 397.162 194.926C382.152 185.145 363.907 186.541 356.411 198.044C348.915 209.547 355.007 226.801 370.018 236.582C385.028 246.364 403.273 244.968 410.769 233.465Z" fill="#FFD671"/>
<path opacity="0.5" d="M370.51 220.31C373.106 214.467 376.846 209.204 381.51 204.83C385.931 200.957 390.962 197.841 396.4 195.61C396.74 195.46 397.08 195.33 397.4 195.19L397.14 195.01C382.14 185.23 363.88 186.62 356.39 198.12L354.59 200.97C354.317 201.33 354.057 201.7 353.81 202.08C353.448 202.608 353.114 203.156 352.81 203.72C347.28 214.37 352.27 229.06 364.51 238.57C365.707 232.248 367.724 226.11 370.51 220.31Z" fill="#6DAEE8"/>
<path d="M418.17 224.39L417.51 224.77C416.512 225.312 415.567 225.948 414.69 226.67C414.209 227.068 413.803 227.549 413.49 228.09C413.158 228.709 412.961 229.39 412.91 230.09C412.848 230.964 412.872 231.841 412.98 232.71C413.04 233.28 413.12 233.86 413.2 234.43C413.205 234.466 413.205 234.504 413.2 234.54C413.136 234.491 413.088 234.425 413.06 234.35C412.525 233.358 411.921 232.406 411.25 231.5C410.802 230.885 410.242 230.359 409.6 229.95C408.937 229.556 408.19 229.326 407.42 229.28C406.573 229.227 405.722 229.253 404.88 229.36C404.3 229.43 403.73 229.5 403.16 229.59C403.134 229.599 403.106 229.599 403.08 229.59C403.08 229.52 403.18 229.5 403.23 229.47C403.88 229.11 404.51 228.74 405.13 228.34C405.86 227.902 406.532 227.375 407.13 226.77C407.894 225.952 408.341 224.888 408.39 223.77C408.434 222.804 408.387 221.837 408.25 220.88C408.25 220.47 408.14 220.06 408.09 219.65C408.084 219.604 408.084 219.556 408.09 219.51C408.16 219.51 408.17 219.6 408.2 219.64C408.68 220.527 409.211 221.385 409.79 222.21C410.167 222.753 410.606 223.25 411.1 223.69C411.914 224.367 412.932 224.751 413.99 224.78C414.946 224.823 415.903 224.777 416.85 224.64L418.07 224.48C418.091 224.439 418.127 224.407 418.17 224.39Z" fill="white"/>
<path d="M287.69 76.43L287.03 76.8C286.035 77.3516 285.091 77.9908 284.21 78.71C283.732 79.1112 283.326 79.5915 283.01 80.13C282.686 80.7303 282.489 81.3905 282.43 82.07C282.368 82.9468 282.392 83.8276 282.5 84.7C282.56 85.27 282.64 85.84 282.73 86.42V86.52C282.64 86.52 282.62 86.4 282.59 86.34C282.051 85.3486 281.443 84.3963 280.77 83.49C280.326 82.872 279.769 82.3429 279.13 81.93C278.464 81.5374 277.712 81.3111 276.94 81.27C276.093 81.2166 275.242 81.2434 274.4 81.35C273.83 81.41 273.26 81.49 272.68 81.58C272.668 81.5861 272.654 81.5894 272.64 81.5894C272.626 81.5894 272.613 81.5861 272.6 81.58C272.6 81.52 272.7 81.5 272.76 81.47C273.4 81.11 274.03 80.74 274.65 80.34C275.375 79.8957 276.046 79.3688 276.65 78.77C277.416 77.9332 277.862 76.8532 277.91 75.72C277.955 74.754 277.905 73.786 277.76 72.83C277.71 72.42 277.66 72.01 277.6 71.6C277.604 71.5534 277.604 71.5065 277.6 71.46C277.626 71.4732 277.649 71.4916 277.668 71.5139C277.687 71.5362 277.701 71.5621 277.71 71.59C278.194 72.4745 278.724 73.3324 279.3 74.16C279.675 74.7048 280.119 75.1988 280.62 75.63C281.431 76.306 282.445 76.693 283.5 76.73C284.456 76.7735 285.413 76.7266 286.36 76.59L287.58 76.43C287.616 76.417 287.655 76.417 287.69 76.43Z" fill="white"/>
<path d="M401.51 262.73C401.51 262.73 421.96 277.88 416.27 294.82L426.27 265.99L401.51 262.73Z" fill="#CCB8A6"/>
<path d="M176.17 287.44C176.17 287.44 176.58 286.44 173.71 297.44C170.84 308.44 170.25 309.7 170.25 309.7L164.1 294.81L176.17 287.44Z" fill="#CCB8A6"/>
<path opacity="0.5" d="M291.39 398.64C291.39 398.64 306.58 407.22 318.29 398.64C318.29 398.64 305.57 412.04 291.39 398.64Z" fill="#E5E5E5"/>
</g>
<defs>
<linearGradient id="paint0_linear_361_188" x1="297.56" y1="456.54" x2="334.23" y2="437.22" gradientUnits="userSpaceOnUse">
<stop stop-color="white" stop-opacity="0"/>
<stop offset="1" stop-color="white" stop-opacity="0.5"/>
</linearGradient>
<linearGradient id="paint1_linear_361_188" x1="9969.05" y1="11751.5" x2="9745.57" y2="11959.7" gradientUnits="userSpaceOnUse">
<stop stop-color="white" stop-opacity="0"/>
<stop offset="1" stop-color="white" stop-opacity="0.5"/>
</linearGradient>
<clipPath id="clip0_361_188">
<rect width="592.31" height="546.9" fill="white"/>
</clipPath>
</defs>
</svg>
