<svg width="1440" height="998" viewBox="0 0 1440 998" fill="none" xmlns="http://www.w3.org/2000/svg">
<g clip-path="url(#clip0_476_1085)">
<path d="M1440 0H0V1001H1440V0Z" fill="url(#paint0_linear_476_1085)"/>
<circle opacity="0.5" cx="1239" cy="531" r="5" fill="white"/>
<circle opacity="0.5" cx="294" cy="-4.58984" r="5" fill="white"/>
<g clip-path="url(#clip1_476_1085)">
<path d="M433.269 1068H103C103 1068 140.64 1061.24 146.713 1057.35C152.787 1053.46 146.713 1046.71 156.429 1024.04C166.144 1001.37 153.997 998.297 191.643 982.263C229.289 966.229 231.714 972.321 249.929 939.598C268.144 906.875 285.143 884.45 311.851 855.678C322.795 843.862 325.699 833.545 325.285 825.503C325.194 824.225 325.456 822.946 326.044 821.807C326.632 820.668 327.522 819.712 328.618 819.044C329.713 818.376 330.972 818.021 332.256 818.019C333.54 818.016 334.8 818.365 335.898 819.029C352.613 829.162 370.049 838.061 388.066 845.653C427.73 862.113 462.486 935.405 483.986 931.994C505.486 928.582 530.895 900.63 547.538 922.535C564.18 944.439 641 1067.14 641 1067.14L433.269 1068Z" fill="#83AEC8"/>
<path d="M305.994 929.802C302.672 935.461 298.935 940.867 294.814 945.976C291.779 949.762 288.304 953.174 284.462 956.141C278.312 960.588 270.545 962.983 263.669 966.089C259.469 967.92 255.388 970.012 251.451 972.353C249.678 973.398 247.994 974.586 246.415 975.904C245.778 976.476 245.103 977.079 244.505 977.715C244.219 978.013 243.034 979.443 243.321 979.049C242.755 979.815 242.268 980.636 241.869 981.501C241.99 981.285 241.455 982.886 241.385 983.254C241.385 983.311 241.385 983.356 241.354 983.4V983.686C241.354 984.112 241.354 984.525 241.354 984.957C241.354 985.027 241.354 985.077 241.354 985.128C241.367 985.174 241.378 985.221 241.385 985.268C241.455 985.637 241.545 986.005 241.646 986.367C242.538 989.486 245.065 992.453 247.803 995.032C255.519 988.915 264.91 985.903 274.594 983.934C283.119 982.2 292.42 981.253 300.06 976.857C307.7 972.461 311.38 964.717 312.45 956.293C314.022 943.886 312.915 931.416 311.775 918.958C310.062 922.63 308.082 926.264 305.994 929.802Z" fill="#7CA1B8"/>
<path d="M547.538 922.535C530.896 900.631 505.48 928.602 483.986 931.994C462.492 935.386 427.731 862.114 388.066 845.647C384.31 844.085 380.641 842.482 377.059 840.838C391.396 875.512 407.708 909.41 419.142 945.221C422.962 957.107 426.948 972.01 420.619 983.763C413.839 996.322 396.649 998.876 383.915 996.678C376.326 995.369 368.877 993.381 361.32 991.901C358.176 991.208 354.983 990.756 351.77 990.547C351.028 990.509 350.284 990.509 349.542 990.547H349.262L348.931 990.624L348.784 990.655C348.402 990.802 347.511 991.113 347.358 991.17C346.41 991.511 345.489 991.92 344.601 992.396C338.235 995.941 341.386 1002.75 343.328 1008.32C346.034 1016.14 347.422 1024 346.626 1032.32C346.059 1038.19 344.436 1044.3 339.686 1048.21C335.472 1051.67 330.066 1052.6 324.744 1052.79C313.704 1053.18 301.983 1050.71 291.994 1056.46C288.46 1058.5 286.805 1061.42 284.851 1064.92C284.271 1065.95 283.679 1066.98 283.062 1067.99H433.314L641.045 1067.13C641.045 1067.13 564.187 944.439 547.538 922.535Z" fill="#7CA1B8"/>
<path d="M263.14 917.331C264.095 916.309 265.05 915.299 266.018 914.295C275.842 904.124 288.148 892.206 303.059 890.936C310.699 890.269 317.46 893.604 323.388 898.14C331.346 904.232 337.744 912.021 343.946 919.822C350.147 927.623 356.679 935.037 363.103 942.692C369.336 950.118 373.009 958.51 371.691 968.293C371.398 970.517 370.991 972.74 370.896 975.002C370.851 975.615 370.851 976.231 370.896 976.844H370.94C371.314 977.096 371.713 977.309 372.131 977.479C372.029 977.435 373.105 977.835 373.404 977.924C374.961 978.404 376.548 978.784 378.153 979.061H378.281C379.244 979.222 380.233 979.108 381.134 978.733C382.036 978.357 382.812 977.735 383.374 976.938C383.937 976.142 384.262 975.203 384.312 974.229C384.363 973.256 384.137 972.288 383.661 971.438L383.61 971.343C380.574 965.825 378.425 959.865 377.243 953.682C375.969 947.452 375.856 941.041 376.912 934.77C377.969 928.773 380.325 923.106 382.642 917.503C385.532 910.451 384.838 902.345 385.411 894.874C385.972 887.594 386.685 878.243 392.669 873.135C398.966 867.767 408.121 870.08 414.781 873.402C422.663 877.335 429.494 883.357 436.096 889.087C437.223 890.065 438.363 891.114 439.522 892.187C424.012 873.345 406.6 853.334 388.111 845.666C370.094 838.072 352.658 829.174 335.943 819.042C334.848 818.379 333.592 818.029 332.312 818.029C331.032 818.029 329.777 818.379 328.682 819.041C327.587 819.703 326.695 820.652 326.103 821.785C325.511 822.917 325.241 824.19 325.323 825.464C325.756 833.52 322.885 843.856 311.89 855.697C291.599 877.455 276.956 895.605 263.14 917.331Z" fill="white"/>
<path d="M331.002 871.281C338.674 876.191 347.313 882.252 356.73 882.608C355.883 861.866 335.319 849.802 324.661 833.202C323.286 839.771 319.568 847.35 311.845 855.678C310.572 857.072 309.298 858.45 308.025 859.814C316.181 862.552 323.623 866.56 331.002 871.281Z" fill="#EAF5F5"/>
<path d="M170.41 1008.11C176.93 1006.37 183.907 1006.84 190.529 1007.62C198.111 1008.48 205.637 1009.87 213.245 1010.53C220.076 1011.11 227.455 1011.35 233.917 1008.7C239.787 1006.28 242.971 1002.08 244.225 995.991C245.619 989.226 245.231 982.047 244.651 975.212C244.015 967.969 242.901 960.81 241.57 953.676C241.455 953.771 241.347 953.873 241.233 953.962C229.658 970.816 222.419 969.138 191.636 982.244C161.198 995.204 163.318 999.701 160.103 1012.94C163.257 1010.79 166.737 1009.16 170.41 1008.11Z" fill="white"/>
<path d="M201.683 981.577C209.622 983.045 217.217 986.259 225.284 987.091C231.377 987.727 238.214 986.952 240.194 980.173C241.697 975.053 240.914 969.05 240.71 963.802C240.595 960.956 240.455 958.085 240.328 955.264C229.753 970.06 222.285 969.59 195.481 980.675C197.563 980.885 199.632 981.196 201.683 981.577Z" fill="#EAF5F5"/>
</g>
<g clip-path="url(#clip2_476_1085)">
<path d="M415 1011.68L501.824 940.953L598.16 908.779L640.978 875.601H696.877L730.176 833.38C730.176 833.38 796.782 815.266 821.756 805.226C846.73 795.186 859.819 754.958 935.936 704.69C1012.05 654.422 994.217 678.556 1031.09 613.204C1067.95 547.852 1070.33 530.768 1090.54 529.758C1110.75 528.748 1116.71 548.862 1128.61 504.627C1135.22 479.835 1144.28 455.557 1155.71 432.05C1156.72 430.01 1158.5 428.312 1160.78 427.222C1174.2 420.798 1221.39 407.087 1242.7 517.705C1267.67 647.399 1331.45 665.771 1359.99 669.791C1388.54 673.811 1423.03 647.67 1452.76 687.906C1482.49 728.141 1490.82 748.228 1500.33 765.325C1509.85 782.422 1516.99 1017.02 1516.99 1017.02L415 1011.68Z" fill="#83AEC8"/>
<path d="M925.123 944.827L925.691 944.952C925.691 944.952 925.741 944.952 926.087 944.952C927.299 944.999 928.513 944.975 929.722 944.883C934.972 944.534 940.437 943.803 946.008 943.371C942.308 929.604 938.846 915.781 933.934 902.264C929.021 888.748 922.576 875.448 912.99 863.785C904.385 853.334 893.208 844.465 881.859 836.202C865.02 823.981 847.241 812.576 832.636 798.579C829.457 801.274 825.783 803.516 821.756 805.219C818.591 806.501 814.742 807.908 810.456 809.399L810.942 809.58C830.966 817.158 848.321 828.997 861.311 843.942C867.987 851.606 873.732 859.744 879.675 867.791C885.617 875.838 891.082 883.565 895.005 892.51C901.962 908.41 904.748 926.594 917.737 940.11C918.867 941.355 920.164 942.484 921.603 943.475C922.218 943.738 922.808 944.041 923.367 944.381C923.938 944.567 924.525 944.716 925.123 944.827Z" fill="#7CA1B8"/>
<path d="M1500.34 765.304C1490.83 748.206 1482.51 728.099 1452.77 687.885C1423.03 647.67 1388.54 673.811 1360 669.77C1331.46 665.729 1267.69 647.378 1242.71 517.684C1233.07 467.646 1218.14 443.051 1203.42 431.716C1203.32 439.965 1202.53 448.256 1200.13 456.101C1197.03 466.266 1190.75 475.553 1186.38 485.363C1182.96 493.027 1180.54 501.067 1182.82 508.808C1183.46 509.389 1183.93 510.095 1184.19 510.863C1184.68 512.256 1185.2 513.65 1185.73 515.043C1186.02 515.504 1186.23 516 1186.34 516.513C1187.93 520.436 1189.7 524.31 1191.62 528.128C1214.03 572.655 1259.92 626.985 1220.47 674.229C1206.72 690.706 1187.21 702.613 1168.94 715.203C1151.63 727.131 1133.31 740.577 1126.14 759.096C1122.25 769.15 1121.02 781.071 1125.15 791.145C1131.04 805.546 1144.11 817.488 1147.24 832.781C1150.31 847.726 1143.06 861.486 1133.16 873.497C1121.81 887.278 1110.27 901.038 1098.47 914.548C1073.29 943.406 1045.89 970.912 1023.47 1001.41C1020.24 1005.8 1016.96 1010.18 1013.69 1014.56L1516.96 1016.99C1516.96 1016.99 1509.86 782.429 1500.34 765.304Z" fill="#7CA1B8"/>
<path d="M1391.7 725.856C1401.59 749.997 1400.98 776.061 1398.84 801.206C1398.38 806.584 1398.25 812.13 1396.89 817.418C1395.61 821.832 1393.81 826.125 1391.51 830.231C1386.79 839.198 1380.72 847.6 1375.62 856.407C1371.64 863.283 1367.38 871.254 1368.52 879.113C1368.84 881.245 1369.39 883.725 1370.73 885.585C1372.75 884.207 1374.61 882.677 1376.3 881.015C1383.19 873.156 1386.75 863.214 1391.57 854.421C1398.26 842.201 1405.47 830.168 1413 818.31C1419.26 808.486 1425.29 798.105 1433.17 789.111C1434.9 787.139 1436.73 785.397 1439.37 784.303C1442.34 783.07 1444.55 782.645 1447.17 781.461C1451.66 779.419 1456.16 777.51 1460.77 775.657C1464.21 774.376 1467.27 772.473 1469.75 770.083C1478.2 761.723 1480.59 748.952 1483.41 738.557C1483.68 737.554 1483.98 736.557 1484.24 735.561C1477.23 723.313 1467.68 708.145 1452.68 687.857C1427.05 653.202 1397.9 667.826 1372.05 669.958C1378.31 688.7 1384.14 707.469 1391.7 725.856Z" fill="white"/>
<path d="M1028.47 651.398C1031.88 650.088 1035.89 651.035 1037.06 654.352C1040.76 665.241 1040.5 676.326 1040.23 687.418C1040.22 687.629 1040.3 687.837 1040.46 688.001C1040.62 688.165 1040.84 688.275 1041.09 688.309C1041.34 688.344 1041.59 688.3 1041.8 688.187C1042.01 688.074 1042.17 687.9 1042.24 687.697V687.634C1045.97 677.511 1049.65 667.352 1054.6 657.577C1061.73 643.357 1072.86 629.709 1091.41 625.292C1105.59 621.913 1118.81 627.444 1128.55 636.007C1139.62 645.761 1147.28 658.065 1154.48 669.986C1158.6 676.87 1162.48 684.081 1166.95 690.887C1167.05 691.037 1167.2 691.157 1167.39 691.234C1167.57 691.311 1167.77 691.34 1167.97 691.319C1168.18 691.297 1168.37 691.225 1168.52 691.113C1168.67 691 1168.78 690.851 1168.84 690.685C1174.26 673.052 1175.31 654.456 1180.76 636.829C1181.22 635.592 1182.12 634.509 1183.35 633.738C1184.58 632.968 1186.07 632.549 1187.61 632.544C1209.4 633.171 1225.1 646.005 1244.04 653.348C1248.66 655.132 1253.8 656.679 1258.88 657.013C1264.79 657.403 1270.74 657.013 1276.62 656.539C1286.51 655.773 1296.4 654.916 1306.24 655.752C1307.18 655.833 1308.14 655.661 1308.96 655.26C1309.78 654.858 1310.44 654.248 1310.83 653.516V653.46C1311.22 652.721 1311.33 651.896 1311.12 651.104C1310.92 650.312 1310.43 649.595 1309.72 649.057C1283.92 629.549 1256.96 591.793 1242.69 517.67C1221.65 408.438 1175.37 420.436 1161.29 426.943C1158.72 428.128 1156.7 430.014 1155.56 432.294C1144.2 455.716 1135.19 479.9 1128.6 504.592C1116.71 548.827 1110.75 528.72 1090.54 529.723C1070.32 530.726 1067.94 547.838 1031.07 613.169C1016.65 638.787 1010.59 650.652 1004 658.643C1003.87 658.797 1003.8 658.982 1003.81 659.171C1003.82 659.36 1003.9 659.542 1004.04 659.689C1004.18 659.835 1004.37 659.94 1004.59 659.985C1004.8 660.03 1005.03 660.014 1005.24 659.939C1013.07 657.173 1020.78 654.345 1028.47 651.398Z" fill="white"/>
<path d="M1138.05 535.415C1150.21 543.776 1161.69 552.75 1173.62 561.298C1179.55 565.555 1183.95 568.628 1189.67 572.042C1192.15 573.512 1194.62 574.919 1197.27 576.222C1198.46 576.807 1199.68 577.365 1200.92 577.88C1201.43 578.089 1201.94 578.291 1202.46 578.486L1203.15 578.723C1204.27 579.076 1205.4 579.379 1206.56 579.629C1207.03 579.727 1207.52 579.796 1208.01 579.88H1208.17C1208.68 579.88 1209.25 579.88 1209.76 579.88C1210.66 579.636 1212.3 579.009 1210.73 579.768C1211.15 579.559 1211.6 579.357 1212.03 579.155C1212.31 578.883 1212.66 578.591 1212.97 578.34L1213.03 578.298C1213.05 578.257 1213.07 578.218 1213.1 578.18C1213.4 577.727 1213.72 577.267 1214.03 576.786L1214.26 576.466C1214.26 576.466 1214.26 576.466 1214.26 576.41C1214.68 575.386 1215.09 574.362 1215.42 573.31C1216.6 569.262 1216.78 566.893 1216.57 562.009C1216.26 554.61 1214 547.378 1211.07 540.411C1205.04 526.065 1195.74 512.877 1187.09 499.59C1177.87 485.44 1170.81 470.746 1166.48 455C1164.01 445.838 1162.24 436.558 1160.71 427.25L1160.65 427.285C1158.4 428.372 1156.64 430.057 1155.64 432.078C1144.22 455.586 1135.15 479.864 1128.54 504.655C1126.01 514.047 1123.76 520.526 1121.58 524.937C1127.27 528.193 1132.77 531.691 1138.05 535.415Z" fill="#EAF5F5"/>
<path d="M1006.89 655.084C1019.36 641.191 1032.44 627.675 1046.4 614.862C1056.79 605.359 1066.83 595.354 1071.22 582.709C1075.21 571.227 1074.27 559.536 1074.77 547.747C1074.87 543.591 1075.39 539.449 1076.32 535.367C1066.13 544.556 1057.36 566.614 1031.08 613.204C1018.19 636.077 1011.98 647.984 1006.1 655.961L1006.89 655.084Z" fill="#EAF5F5"/>
<path d="M492.403 977.51C500.741 977.006 509.12 977.328 517.369 978.472C525.315 979.617 533.471 979.131 541.148 977.054C548.825 974.977 555.799 971.37 561.482 966.537C567.274 961.476 573.831 957.084 580.983 953.473C590.264 948.952 601.168 946.123 611.875 947.712C621.766 949.182 630.997 953.648 639.709 957.682C647.193 961.165 654.743 964.976 663.101 966.739C669.373 968.063 675.415 967.387 679.684 963.046C679.544 963.151 680.83 961.611 681.011 961.353C681.465 960.719 681.885 960.071 682.289 959.409C682.693 958.748 683.764 956.783 683.698 956.915C684.827 954.686 685.833 952.428 686.921 950.192C690.433 942.854 696.635 936.662 704.617 932.523C714.508 927.493 724.72 926.706 735.575 925.605C743.57 924.797 750.51 922.212 757.326 918.422C758.027 918.031 758.736 917.627 759.412 917.202C759.593 917.077 759.857 916.896 759.98 916.798C760.541 916.359 761.068 915.913 761.588 915.44L761.695 915.293V915.182C761.69 915.105 761.69 915.029 761.695 914.952C761.695 914.868 761.629 914.764 761.588 914.645C761.34 913.893 761.118 913.14 760.862 912.395C760.203 910.549 759.486 908.716 758.917 906.821C757.086 900.745 756.438 894.457 756.997 888.205C757.615 881.112 758.406 874.208 761.802 867.631C767.341 856.922 778.616 850.331 791.285 846.493C804.406 842.507 818.534 841.33 832.24 839.581H832.537C843.73 838.153 845.725 825.229 835.356 821.383C826.092 817.955 816.671 814.694 808.157 810.235C778.394 820.338 730.143 833.45 730.143 833.45L696.845 875.671H640.979L598.16 908.849L501.824 940.953L449.832 983.307C463.827 980.388 478.045 978.207 492.403 977.51Z" fill="white"/>
<path d="M725.709 885.348C732.303 869.268 734.371 852.185 737.454 835.429C737.71 834.035 737.965 832.6 738.229 831.158C733.217 832.551 730.176 833.38 730.176 833.38L699.746 871.964C708.169 876.765 716.568 881.6 725.709 885.348Z" fill="#EAF5F5"/>
<path d="M607.21 916.506C610.268 917.899 613.729 919.125 617.274 918.596C622.26 917.857 626.167 914.206 629.184 911.05C639.116 900.669 643.954 887.829 650.111 875.594H640.978L598.16 908.772L594.673 909.928C598.778 912.2 602.841 914.513 607.21 916.506Z" fill="#EAF5F5"/>
<path d="M980.371 879.496C980.371 879.496 995.207 876.012 1023.23 901.61C1051.25 927.207 1054.81 919.773 1090.35 940.542C1125.88 961.311 1170.18 995.416 1148.25 997.673C1126.32 999.93 1135.52 977.524 1109.64 983.335C1083.76 989.145 1080.57 989.257 1055.19 965.283C1029.82 941.309 982.481 922.003 983.396 908.284C984.31 894.566 980.371 879.496 980.371 879.496Z" fill="#7CA1B8"/>
<path d="M1045.67 942.772C1041.7 939.985 1037.53 937.386 1033.79 934.411C1029.26 930.788 1025.6 926.246 1022.45 921.724C1015.57 911.852 1011.25 900.823 1003.61 891.326C998.841 885.397 990.014 876.556 980.371 879.517C972.054 882.074 965.815 889.48 960.334 894.963C952.795 902.372 944.757 909.407 936.258 916.032C919.551 929.27 902.127 943.329 892.73 961.242C902.085 960.921 911.251 956.448 920.853 958.141C931.016 959.939 939.209 966.23 949.503 967.728C960.737 969.366 972.821 964.941 983.437 962.419C994.679 959.751 1006.25 958.079 1017.72 960.782C1018.74 961.006 1019.67 961.464 1020.4 962.106C1027.82 963.994 1035.49 965.652 1043.25 966.098C1047.37 966.335 1051.44 966.377 1055.24 965.276C1057.86 964.516 1059.5 963.339 1060.06 960.824C1061.75 953.167 1051.81 947.029 1045.67 942.772Z" fill="white"/>
<path d="M1001.18 891.18C999.336 896.935 995.231 901.847 991.201 906.64C984.895 914.13 977.518 923.96 986.181 932.453C994.844 940.946 1011.06 943.475 1023.27 946.025C1035.02 948.478 1048 950.206 1059.08 954.79C1056.48 949.913 1050.06 945.844 1045.66 942.772C1041.68 939.985 1037.51 937.386 1033.77 934.411C1029.25 930.788 1025.58 926.246 1022.43 921.724C1015.56 911.851 1011.24 900.822 1003.6 891.326C1003.02 890.629 1002.39 889.863 1001.71 889.097C1001.58 889.772 1001.4 890.476 1001.18 891.18Z" fill="#EAF5F5"/>
<path d="M1167.15 433.266C1166.77 427.545 1177.16 427.386 1182.41 428.022C1228.64 431.835 1204.81 453.765 1185.27 445.184C1165.72 436.603 1167.63 440.417 1167.15 433.266Z" fill="#EAF5F5"/>
</g>
<g clip-path="url(#clip3_476_1085)">
<path d="M796.146 823.601C787.657 825.935 780.663 825.426 778.227 824.879C777.345 825.977 775.106 828.672 773.211 830.672C770.843 833.172 775.005 836.489 788.504 834.45C802.002 832.412 797.283 830.682 805.983 828.353C814.683 826.025 812.154 822.912 812.133 821.149C812.113 819.386 806.758 820.683 796.146 823.601Z" fill="#EAF5F5"/>
<path d="M776.525 791.998V755.642C776.525 755.642 790.226 766.085 801.525 766.499C812.825 766.913 818.248 766.499 818.248 766.499C818.248 766.499 809.473 769.173 813.23 773.09L816.996 776.979C816.996 776.979 781.233 781.122 776.525 791.998Z" fill="#76CE8B"/>
<path d="M783.49 777.09C783.237 777.09 783.043 777.02 782.91 776.88C782.777 776.74 782.71 776.543 782.71 776.29V770.74C782.71 770.48 782.777 770.283 782.91 770.15C783.05 770.017 783.247 769.95 783.5 769.95H785.93C786.717 769.95 787.323 770.14 787.75 770.52C788.177 770.9 788.39 771.43 788.39 772.11C788.39 772.55 788.293 772.93 788.1 773.25C787.907 773.57 787.627 773.817 787.26 773.99C786.9 774.163 786.457 774.25 785.93 774.25L786.01 774.08H786.42C786.7 774.08 786.943 774.15 787.15 774.29C787.363 774.423 787.547 774.63 787.7 774.91L788.32 776.06C788.413 776.227 788.457 776.39 788.45 776.55C788.443 776.71 788.383 776.84 788.27 776.94C788.157 777.04 787.99 777.09 787.77 777.09C787.55 777.09 787.37 777.043 787.23 776.95C787.097 776.857 786.977 776.713 786.87 776.52L785.91 774.75C785.81 774.563 785.687 774.437 785.54 774.37C785.4 774.303 785.227 774.27 785.02 774.27H784.26V776.29C784.26 776.543 784.193 776.74 784.06 776.88C783.933 777.02 783.743 777.09 783.49 777.09ZM784.26 773.15H785.65C786.063 773.15 786.373 773.067 786.58 772.9C786.793 772.733 786.9 772.483 786.9 772.15C786.9 771.823 786.793 771.577 786.58 771.41C786.373 771.243 786.063 771.16 785.65 771.16H784.26V773.15ZM791.793 777.11C791.44 777.11 791.08 777.07 790.713 776.99C790.353 776.903 790.04 776.783 789.773 776.63C789.6 776.537 789.48 776.427 789.413 776.3C789.353 776.167 789.33 776.037 789.343 775.91C789.363 775.783 789.416 775.673 789.503 775.58C789.59 775.48 789.7 775.417 789.833 775.39C789.973 775.363 790.126 775.39 790.293 775.47C790.553 775.597 790.8 775.687 791.033 775.74C791.266 775.793 791.5 775.82 791.733 775.82C792 775.82 792.223 775.787 792.403 775.72C792.583 775.647 792.72 775.543 792.813 775.41C792.906 775.277 792.953 775.11 792.953 774.91C792.953 774.63 792.856 774.42 792.663 774.28C792.47 774.14 792.186 774.07 791.813 774.07H791.223C791.003 774.07 790.833 774.017 790.713 773.91C790.6 773.797 790.543 773.643 790.543 773.45C790.543 773.25 790.6 773.097 790.713 772.99C790.833 772.877 791.003 772.82 791.223 772.82H791.663C791.89 772.82 792.08 772.787 792.233 772.72C792.393 772.647 792.516 772.547 792.603 772.42C792.696 772.293 792.743 772.137 792.743 771.95C792.743 771.683 792.65 771.48 792.463 771.34C792.283 771.2 792.02 771.13 791.673 771.13C791.46 771.13 791.25 771.157 791.043 771.21C790.836 771.257 790.613 771.343 790.373 771.47C790.226 771.543 790.09 771.567 789.963 771.54C789.836 771.513 789.73 771.453 789.643 771.36C789.563 771.267 789.51 771.16 789.483 771.04C789.463 770.913 789.48 770.787 789.533 770.66C789.593 770.533 789.7 770.43 789.853 770.35C790.14 770.183 790.45 770.057 790.783 769.97C791.123 769.883 791.466 769.84 791.813 769.84C792.32 769.84 792.753 769.917 793.113 770.07C793.473 770.223 793.75 770.443 793.943 770.73C794.136 771.01 794.233 771.35 794.233 771.75C794.233 772.023 794.18 772.273 794.073 772.5C793.966 772.727 793.816 772.92 793.623 773.08C793.436 773.233 793.206 773.343 792.933 773.41V773.28C793.406 773.36 793.776 773.557 794.043 773.87C794.31 774.183 794.443 774.577 794.443 775.05C794.443 775.47 794.336 775.837 794.123 776.15C793.91 776.457 793.603 776.693 793.203 776.86C792.81 777.027 792.34 777.11 791.793 777.11Z" fill="#1B4B26"/>
<path d="M776.526 755.642C776.526 755.642 773.089 818.166 776.526 835.68V755.642Z" fill="#3D332C"/>
</g>
<path d="M900.575 750.483C892.575 749.283 888.909 749.983 888.075 750.483C881.575 763.983 891.575 760.483 901.075 759.983C910.575 759.483 929.075 755.483 934.075 750.483C939.075 745.483 933.575 742.983 924.575 746.983C915.575 750.983 910.575 751.983 900.575 750.483Z" fill="#7CA1B8"/>
<g clip-path="url(#clip4_476_1085)">
<path d="M890.525 715.998V679.642C890.525 679.642 904.226 690.085 915.525 690.499C926.825 690.913 932.248 690.499 932.248 690.499C932.248 690.499 923.473 693.173 927.23 697.09L930.996 700.979C930.996 700.979 895.233 705.122 890.525 715.998Z" fill="#76CE8B"/>
<path d="M897.49 701.09C897.237 701.09 897.043 701.02 896.91 700.88C896.777 700.74 896.71 700.543 896.71 700.29V694.74C896.71 694.48 896.777 694.283 896.91 694.15C897.05 694.017 897.247 693.95 897.5 693.95H899.93C900.717 693.95 901.323 694.14 901.75 694.52C902.177 694.9 902.39 695.43 902.39 696.11C902.39 696.55 902.293 696.93 902.1 697.25C901.907 697.57 901.627 697.817 901.26 697.99C900.9 698.163 900.457 698.25 899.93 698.25L900.01 698.08H900.42C900.7 698.08 900.943 698.15 901.15 698.29C901.363 698.423 901.547 698.63 901.7 698.91L902.32 700.06C902.413 700.227 902.457 700.39 902.45 700.55C902.443 700.71 902.383 700.84 902.27 700.94C902.157 701.04 901.99 701.09 901.77 701.09C901.55 701.09 901.37 701.043 901.23 700.95C901.097 700.857 900.977 700.713 900.87 700.52L899.91 698.75C899.81 698.563 899.687 698.437 899.54 698.37C899.4 698.303 899.227 698.27 899.02 698.27H898.26V700.29C898.26 700.543 898.193 700.74 898.06 700.88C897.933 701.02 897.743 701.09 897.49 701.09ZM898.26 697.15H899.65C900.063 697.15 900.373 697.067 900.58 696.9C900.793 696.733 900.9 696.483 900.9 696.15C900.9 695.823 900.793 695.577 900.58 695.41C900.373 695.243 900.063 695.16 899.65 695.16H898.26V697.15ZM907.063 701.09C906.823 701.09 906.633 701.023 906.493 700.89C906.36 700.757 906.293 700.563 906.293 700.31V699.74H904.053C903.806 699.74 903.61 699.687 903.463 699.58C903.316 699.467 903.243 699.297 903.243 699.07C903.243 698.937 903.273 698.8 903.333 698.66C903.393 698.52 903.5 698.347 903.653 698.14L906.243 694.37C906.356 694.203 906.483 694.077 906.623 693.99C906.763 693.903 906.923 693.86 907.103 693.86C907.316 693.86 907.486 693.927 907.613 694.06C907.746 694.187 907.813 694.38 907.813 694.64V698.52H908.183C908.403 698.52 908.57 698.573 908.683 698.68C908.796 698.78 908.853 698.93 908.853 699.13C908.853 699.323 908.796 699.473 908.683 699.58C908.576 699.687 908.41 699.74 908.183 699.74H907.813V700.31C907.813 700.563 907.746 700.757 907.613 700.89C907.486 701.023 907.303 701.09 907.063 701.09ZM906.293 698.52V695.77H906.583L904.453 698.9V698.52H906.293Z" fill="#1B4B26"/>
<path d="M890.526 679.642C890.526 679.642 887.089 742.166 890.526 759.68V679.642Z" fill="#3D332C"/>
</g>
<path d="M994.599 682.339C986.972 681.195 983.477 681.862 982.683 682.339C976.486 695.211 986.019 691.873 995.075 691.397C1004.13 690.92 1021.77 687.106 1026.53 682.339C1031.3 677.572 1026.06 675.188 1017.48 679.002C1008.9 682.816 1004.13 683.769 994.599 682.339Z" fill="#7CA1B8"/>
<g clip-path="url(#clip5_476_1085)">
<path d="M982.525 645.998V609.642C982.525 609.642 996.226 620.085 1007.53 620.499C1018.82 620.913 1024.25 620.499 1024.25 620.499C1024.25 620.499 1015.47 623.173 1019.23 627.09L1023 630.979C1023 630.979 987.233 635.122 982.525 645.998Z" fill="#76CE8B"/>
<path d="M989.49 631.09C989.237 631.09 989.043 631.02 988.91 630.88C988.777 630.74 988.71 630.543 988.71 630.29V624.74C988.71 624.48 988.777 624.283 988.91 624.15C989.05 624.017 989.247 623.95 989.5 623.95H991.93C992.717 623.95 993.323 624.14 993.75 624.52C994.177 624.9 994.39 625.43 994.39 626.11C994.39 626.55 994.293 626.93 994.1 627.25C993.907 627.57 993.627 627.817 993.26 627.99C992.9 628.163 992.457 628.25 991.93 628.25L992.01 628.08H992.42C992.7 628.08 992.943 628.15 993.15 628.29C993.363 628.423 993.547 628.63 993.7 628.91L994.32 630.06C994.413 630.227 994.457 630.39 994.45 630.55C994.443 630.71 994.383 630.84 994.27 630.94C994.157 631.04 993.99 631.09 993.77 631.09C993.55 631.09 993.37 631.043 993.23 630.95C993.097 630.857 992.977 630.713 992.87 630.52L991.91 628.75C991.81 628.563 991.687 628.437 991.54 628.37C991.4 628.303 991.227 628.27 991.02 628.27H990.26V630.29C990.26 630.543 990.193 630.74 990.06 630.88C989.933 631.02 989.743 631.09 989.49 631.09ZM990.26 627.15H991.65C992.063 627.15 992.373 627.067 992.58 626.9C992.793 626.733 992.9 626.483 992.9 626.15C992.9 625.823 992.793 625.577 992.58 625.41C992.373 625.243 992.063 625.16 991.65 625.16H990.26V627.15ZM997.973 631.11C997.633 631.11 997.283 631.067 996.923 630.98C996.563 630.893 996.233 630.763 995.933 630.59C995.78 630.503 995.673 630.397 995.613 630.27C995.56 630.143 995.543 630.013 995.563 629.88C995.59 629.747 995.643 629.633 995.723 629.54C995.81 629.44 995.916 629.377 996.043 629.35C996.176 629.323 996.323 629.353 996.483 629.44C996.716 629.56 996.953 629.653 997.193 629.72C997.44 629.787 997.69 629.82 997.943 629.82C998.196 629.82 998.413 629.777 998.593 629.69C998.773 629.603 998.91 629.483 999.003 629.33C999.096 629.177 999.143 628.997 999.143 628.79C999.143 628.47 999.04 628.213 998.833 628.02C998.633 627.827 998.36 627.73 998.013 627.73C997.84 627.73 997.663 627.76 997.483 627.82C997.31 627.873 997.13 627.97 996.943 628.11C996.876 628.163 996.79 628.213 996.683 628.26C996.576 628.307 996.463 628.33 996.343 628.33C996.136 628.33 995.983 628.283 995.883 628.19C995.783 628.09 995.733 627.947 995.733 627.76V624.62C995.733 624.4 995.79 624.233 995.903 624.12C996.023 624.007 996.19 623.95 996.403 623.95H999.613C999.833 623.95 1000 624.007 1000.11 624.12C1000.23 624.227 1000.28 624.383 1000.28 624.59C1000.28 624.79 1000.23 624.947 1000.11 625.06C1000 625.167 999.833 625.22 999.613 625.22H997.223V627.13H996.843C997.01 626.923 997.23 626.763 997.503 626.65C997.776 626.537 998.076 626.48 998.403 626.48C998.85 626.48 999.24 626.577 999.573 626.77C999.906 626.957 1000.17 627.22 1000.35 627.56C1000.54 627.9 1000.63 628.293 1000.63 628.74C1000.63 629.207 1000.53 629.62 1000.31 629.98C1000.1 630.333 999.793 630.61 999.393 630.81C998.993 631.01 998.52 631.11 997.973 631.11Z" fill="#1B4B26"/>
<path d="M982.526 609.642C982.526 609.642 979.089 672.166 982.526 689.68V609.642Z" fill="#3D332C"/>
</g>
<path opacity="0.5" d="M1444.89 422.793C1437.04 401.269 429.308 399.553 330.849 422.793C232.39 446.033 484.002 446.053 484.002 446.053C557.501 447.257 527.711 468.129 442.186 488.67C356.661 509.21 1400.86 510.936 1423.01 482.599C1445.16 454.261 1118.34 469.504 1086.11 446.053C1053.88 422.602 1452.7 444.317 1444.89 422.793ZM718.499 455.004C631.247 455.004 560.471 448.391 560.471 440.223C560.471 432.055 631.202 425.442 718.499 425.442C805.795 425.442 876.526 432.075 876.526 440.223C876.526 448.371 805.783 455.004 718.499 455.004ZM1086.11 474.069C1086.11 477.782 1057.65 480.793 1022.54 480.793C987.425 480.793 958.969 477.782 958.969 474.069C958.969 470.357 987.437 467.346 1022.54 467.346C1057.64 467.346 1086.11 470.327 1086.11 474.039V474.069Z" fill="white" fill-opacity="0.07"/>
<path d="M524.011 940.677C519.435 939.915 508.759 942.902 503.992 944.491C502.086 949.258 505.899 948.782 508.759 946.875C511.618 944.968 517.815 946.398 526.394 945.921C533.258 945.54 537.198 939.088 538.311 935.91C535.451 937.817 528.587 941.44 524.011 940.677Z" fill="#EAF5F5"/>
<g clip-path="url(#clip6_476_1085)">
<path d="M505.525 903.356V867C505.525 867 519.226 877.443 530.525 877.857C541.825 878.271 547.248 877.857 547.248 877.857C547.248 877.857 538.473 880.531 542.23 884.448L545.996 888.337C545.996 888.337 510.233 892.48 505.525 903.356Z" fill="#76CE8B"/>
<path d="M505.526 867C505.526 867 502.089 929.524 505.526 947.038V867Z" fill="#3D332C"/>
<path d="M512.49 888.09C512.237 888.09 512.043 888.02 511.91 887.88C511.777 887.74 511.71 887.543 511.71 887.29V881.74C511.71 881.48 511.777 881.283 511.91 881.15C512.05 881.017 512.247 880.95 512.5 880.95H514.93C515.717 880.95 516.323 881.14 516.75 881.52C517.177 881.9 517.39 882.43 517.39 883.11C517.39 883.55 517.293 883.93 517.1 884.25C516.907 884.57 516.627 884.817 516.26 884.99C515.9 885.163 515.457 885.25 514.93 885.25L515.01 885.08H515.42C515.7 885.08 515.943 885.15 516.15 885.29C516.363 885.423 516.547 885.63 516.7 885.91L517.32 887.06C517.413 887.227 517.457 887.39 517.45 887.55C517.443 887.71 517.383 887.84 517.27 887.94C517.157 888.04 516.99 888.09 516.77 888.09C516.55 888.09 516.37 888.043 516.23 887.95C516.097 887.857 515.977 887.713 515.87 887.52L514.91 885.75C514.81 885.563 514.687 885.437 514.54 885.37C514.4 885.303 514.227 885.27 514.02 885.27H513.26V887.29C513.26 887.543 513.193 887.74 513.06 887.88C512.933 888.02 512.743 888.09 512.49 888.09ZM513.26 884.15H514.65C515.063 884.15 515.373 884.067 515.58 883.9C515.793 883.733 515.9 883.483 515.9 883.15C515.9 882.823 515.793 882.577 515.58 882.41C515.373 882.243 515.063 882.16 514.65 882.16H513.26V884.15ZM519.533 888C519.32 888 519.156 887.943 519.043 887.83C518.93 887.717 518.873 887.56 518.873 887.36C518.873 887.153 518.93 886.997 519.043 886.89C519.156 886.783 519.32 886.73 519.533 886.73H520.543V882.22H521.273L519.813 883.11C519.66 883.203 519.516 883.24 519.383 883.22C519.256 883.2 519.146 883.143 519.053 883.05C518.96 882.957 518.896 882.847 518.863 882.72C518.836 882.587 518.85 882.457 518.903 882.33C518.956 882.197 519.056 882.083 519.203 881.99L520.593 881.15C520.733 881.063 520.873 880.993 521.013 880.94C521.16 880.887 521.303 880.86 521.443 880.86C521.643 880.86 521.8 880.913 521.913 881.02C522.033 881.12 522.093 881.277 522.093 881.49V886.73H523.003C523.21 886.73 523.37 886.783 523.483 886.89C523.596 886.997 523.653 887.153 523.653 887.36C523.653 887.567 523.596 887.727 523.483 887.84C523.37 887.947 523.21 888 523.003 888H519.533Z" fill="#1B4B26"/>
</g>
<g clip-path="url(#clip7_476_1085)">
<path d="M718.427 873.553H750.564L740.947 861.508C740.947 861.508 747.882 861.68 747.202 861.508C746.522 861.337 729.789 816.406 729.789 816.406L723.768 842.939L727.114 845.766L723.768 848.522L718.427 873.553Z" fill="#3F7563"/>
<path d="M735.332 887.84H693.836L706.253 872.268C706.253 872.268 697.292 872.502 698.16 872.268C699.028 872.035 720.632 814.031 720.632 814.031L728.452 848.288L724.128 851.932L728.452 855.49L735.332 887.84Z" fill="#57917F"/>
<path d="M587.119 1000.69H541.768L548.023 993.055L539.023 984.024C539.023 984.024 553.098 979.991 545.193 968.741C537.288 957.49 555.999 909.133 555.999 909.133L565.601 951.285L559.76 954.905L572.99 964.918L563.24 978.932L587.119 1000.69Z" fill="#3F7563"/>
<path d="M967.86 1025H922.509L928.764 1017.37L919.756 1008.34C919.756 1008.34 933.831 1004.31 925.926 993.055C918.02 981.805 936.732 933.44 936.732 933.44L946.334 975.592L940.493 979.22L953.707 989.24L943.957 1003.25L967.86 1025Z" fill="#3F7563"/>
<path d="M1053.2 997.486C1053.2 997.486 1134.73 963.229 1215.71 930.342C1296.68 897.455 1450 953.831 1450 953.831L1448.74 998.498L1053.2 997.486Z" fill="#3F7563"/>
<path d="M1084.26 995.329C1100.79 995.259 1116.25 992.37 1130.15 983.097C1144.04 973.825 1155.05 959.616 1170.69 953.263C1182.91 948.295 1196.16 950.678 1208.94 949.105C1213.23 948.576 1217.61 947.914 1221.45 945.882C1224.66 944.2 1227.54 941.989 1230.49 939.879C1236.52 935.605 1242.56 932.802 1250.11 934.157C1258.09 935.581 1264.97 940.385 1272.79 942.378C1281.06 944.527 1289.77 941.646 1297.64 939.116C1304.79 936.78 1312.04 934.733 1319.65 935.527C1327.47 936.305 1335 939.124 1342.66 940.813C1349.3 942.285 1355.95 942.37 1362.74 941.997C1372.42 941.337 1382.15 941.621 1391.78 942.845C1409.49 945.313 1426.05 951.744 1443.1 956.751C1445.32 957.396 1447.58 957.898 1449.87 958.253L1449.98 953.831C1449.98 953.831 1296.67 897.463 1215.69 930.342C1134.71 963.221 1053.18 997.485 1053.18 997.485L1080.98 997.555C1081.21 996.883 1081.66 996.303 1082.25 995.902C1082.84 995.501 1083.54 995.3 1084.26 995.329Z" fill="white"/>
<path d="M1377.86 972.703C1373.82 970.181 1368.48 970.368 1363.63 969.706C1363.2 969.772 1362.77 969.772 1362.35 969.706C1356.25 968.733 1349.84 970.321 1343.81 970.905C1337.78 971.489 1331.77 971.131 1325.75 971.325C1318.78 971.559 1311.86 972.54 1305.7 975.997C1304.09 976.915 1300.53 978.675 1300.41 980.832C1300.32 982.49 1302.35 983.689 1303.54 984.39C1308.79 987.403 1315.67 988.002 1321.56 988.283C1328.65 988.656 1335.74 988.244 1342.81 988.026C1348.84 987.871 1354.87 988.04 1360.88 988.532C1366.94 989.007 1373.18 989.482 1379.11 987.917C1382.89 984.756 1381.82 975.172 1377.86 972.703Z" fill="white"/>
<path d="M1351.4 922.229L1341.2 920.625L1346.3 894.193L1351.4 891.592L1346.3 886.749L1352.97 869.722L1356.84 882.607L1354.7 887.956L1365.94 912.419L1351.4 922.229Z" fill="#57917F"/>
<path d="M1312.55 919.761H1290.41L1296.67 911.235L1292.25 905.256H1298.63L1299.41 890.619L1303.16 896.123L1307.49 859.663L1316.3 890.619C1316.3 890.619 1307.89 896.715 1308.72 896.123C1309.55 895.532 1319.67 896.123 1319.67 896.123L1323.89 919.761H1312.55Z" fill="#57917F"/>
<path d="M1335.1 934.577H1319.07L1321.46 918.92L1329.12 913.423L1323.38 910.94L1331.4 881.206L1340.91 918.92L1329.99 923.56H1340.91L1346.85 934.577" fill="#3F7563"/>
<path d="M1377.73 933.907H1359.5C1359.5 933.907 1370.82 922.711 1368.27 923.218C1365.72 923.724 1361.28 925.779 1361.73 923.218C1362.17 920.656 1375.44 876.784 1375.44 876.784L1387.07 920.648L1378.62 925.989L1391.96 933.931L1377.73 933.907Z" fill="#6CBC9F"/>
<path d="M669 881C659 881.4 650.5 881.834 647.5 882C640 889.5 686 885 687 883.5C688 882 689 882 690.5 881C692 880 681.5 880.5 669 881Z" fill="#EAF5F5"/>
</g>
<g clip-path="url(#clip8_476_1085)">
<path d="M648.525 842.356V806C648.525 806 662.226 816.443 673.525 816.857C684.825 817.271 690.248 816.857 690.248 816.857C690.248 816.857 681.473 819.531 685.23 823.448L688.996 827.337C688.996 827.337 653.233 831.48 648.525 842.356Z" fill="#76CE8B"/>
<path d="M655.49 827.09C655.237 827.09 655.043 827.02 654.91 826.88C654.777 826.74 654.71 826.543 654.71 826.29V820.74C654.71 820.48 654.777 820.283 654.91 820.15C655.05 820.017 655.247 819.95 655.5 819.95H657.93C658.717 819.95 659.323 820.14 659.75 820.52C660.177 820.9 660.39 821.43 660.39 822.11C660.39 822.55 660.293 822.93 660.1 823.25C659.907 823.57 659.627 823.817 659.26 823.99C658.9 824.163 658.457 824.25 657.93 824.25L658.01 824.08H658.42C658.7 824.08 658.943 824.15 659.15 824.29C659.363 824.423 659.547 824.63 659.7 824.91L660.32 826.06C660.413 826.227 660.457 826.39 660.45 826.55C660.443 826.71 660.383 826.84 660.27 826.94C660.157 827.04 659.99 827.09 659.77 827.09C659.55 827.09 659.37 827.043 659.23 826.95C659.097 826.857 658.977 826.713 658.87 826.52L657.91 824.75C657.81 824.563 657.687 824.437 657.54 824.37C657.4 824.303 657.227 824.27 657.02 824.27H656.26V826.29C656.26 826.543 656.193 826.74 656.06 826.88C655.933 827.02 655.743 827.09 655.49 827.09ZM656.26 823.15H657.65C658.063 823.15 658.373 823.067 658.58 822.9C658.793 822.733 658.9 822.483 658.9 822.15C658.9 821.823 658.793 821.577 658.58 821.41C658.373 821.243 658.063 821.16 657.65 821.16H656.26V823.15ZM662.343 827C662.096 827 661.913 826.943 661.793 826.83C661.68 826.71 661.623 826.537 661.623 826.31C661.623 826.163 661.66 826.027 661.733 825.9C661.806 825.773 661.906 825.643 662.033 825.51L663.913 823.53C664.193 823.23 664.393 822.963 664.513 822.73C664.64 822.497 664.703 822.263 664.703 822.03C664.703 821.737 664.606 821.513 664.413 821.36C664.226 821.207 663.953 821.13 663.593 821.13C663.4 821.13 663.2 821.16 662.993 821.22C662.793 821.273 662.583 821.363 662.363 821.49C662.216 821.57 662.08 821.6 661.953 821.58C661.833 821.553 661.73 821.497 661.643 821.41C661.556 821.317 661.5 821.207 661.473 821.08C661.446 820.953 661.46 820.827 661.513 820.7C661.566 820.573 661.666 820.467 661.813 820.38C662.106 820.2 662.426 820.067 662.773 819.98C663.12 819.887 663.463 819.84 663.803 819.84C664.33 819.84 664.773 819.92 665.133 820.08C665.493 820.233 665.766 820.46 665.953 820.76C666.14 821.06 666.233 821.427 666.233 821.86C666.233 822.14 666.19 822.413 666.103 822.68C666.016 822.947 665.88 823.217 665.693 823.49C665.513 823.757 665.273 824.043 664.973 824.35L663.223 826.13V825.73H665.933C666.146 825.73 666.306 825.783 666.413 825.89C666.526 825.997 666.583 826.153 666.583 826.36C666.583 826.567 666.526 826.727 666.413 826.84C666.306 826.947 666.146 827 665.933 827H662.343Z" fill="#1B4B26"/>
<path d="M648.526 806C648.526 806 645.089 868.524 648.526 886.038V806Z" fill="#3D332C"/>
</g>
<g clip-path="url(#clip9_476_1085)">
<path d="M1173.14 352.984V278C1173.14 278 1201.33 299.538 1224.57 300.392C1247.82 301.247 1258.98 300.392 1258.98 300.392C1258.98 300.392 1240.93 305.908 1248.65 313.987L1256.4 322.008C1256.4 322.008 1182.83 330.553 1173.14 352.984Z" fill="#E56038"/>
<g clip-path="url(#clip10_476_1085)">
<g opacity="0.75">
<path opacity="0.75" d="M1195.03 324.983C1194.89 325.004 1194.74 324.991 1194.61 324.947C1194.47 324.902 1194.35 324.827 1194.25 324.728C1194.15 324.629 1194.07 324.508 1194.03 324.375C1193.99 324.242 1193.98 324.101 1194 323.963V306.003C1193.98 305.867 1193.99 305.728 1194.04 305.597C1194.08 305.467 1194.16 305.348 1194.26 305.251C1194.36 305.153 1194.48 305.08 1194.61 305.036C1194.75 304.993 1194.89 304.98 1195.03 305H1202.29C1204.59 304.825 1206.89 305.414 1208.81 306.672C1209.59 307.382 1210.2 308.257 1210.58 309.232C1210.96 310.206 1211.1 311.253 1211 312.291C1211.1 313.329 1210.95 314.375 1210.57 315.349C1210.19 316.323 1209.59 317.199 1208.81 317.91C1206.89 319.168 1204.59 319.757 1202.29 319.582H1200.23V323.863C1200.25 324.001 1200.24 324.141 1200.2 324.274C1200.16 324.407 1200.08 324.528 1199.98 324.628C1199.88 324.727 1199.76 324.802 1199.63 324.846C1199.49 324.891 1199.35 324.903 1199.2 324.883L1195.03 324.983ZM1202.2 314.599C1202.89 314.657 1203.57 314.467 1204.12 314.064C1204.32 313.836 1204.48 313.571 1204.57 313.283C1204.67 312.996 1204.71 312.693 1204.68 312.391C1204.73 311.783 1204.53 311.182 1204.12 310.719C1203.57 310.322 1202.88 310.138 1202.2 310.201H1200.23V314.716L1202.2 314.599Z" fill="white"/>
</g>
</g>
<path d="M1173.14 278C1173.14 278 1166.07 406.955 1173.14 443.078V278Z" fill="#3D332C"/>
</g>
<path opacity="0.5" d="M497.453 220.228C497.453 220.228 -147.528 197.996 -168.337 211.176C-189.146 224.355 -120.994 224.355 28.4737 228.383C177.941 232.411 315.812 248.531 165.882 253.895C15.951 259.258 -209.944 266.038 -77.6771 277.423C54.5894 288.808 99.4064 291.549 412.861 292.845C726.315 294.141 1174.77 311.638 1082.81 302.237C990.848 292.835 677.89 306.723 684.289 278.968C690.689 251.213 1119.56 281.271 981.635 264.901C843.709 248.531 162.296 261.043 378.911 244.693C595.527 228.343 965.615 232.56 497.453 220.228Z" fill="white" fill-opacity="0.1"/>
<path d="M1108.45 542.988C1098.81 542.588 1091.65 538.83 1089.28 537C1088 538.164 1084.79 540.992 1082.16 542.988C1078.88 545.482 1082.16 551.969 1096.95 554.963C1111.73 557.957 1107.35 553.466 1117.21 553.965C1127.06 554.464 1125.42 548.975 1125.97 546.48C1126.51 543.986 1120.49 543.487 1108.45 542.988Z" fill="#EAF5F5"/>
<g clip-path="url(#clip11_476_1085)">
<path d="M1084.53 505.998V469.642C1084.53 469.642 1098.23 480.085 1109.53 480.499C1120.82 480.913 1126.25 480.499 1126.25 480.499C1126.25 480.499 1117.47 483.173 1121.23 487.09L1125 490.979C1125 490.979 1089.23 495.122 1084.53 505.998Z" fill="#76CE8B"/>
<path d="M1091.49 491.09C1091.24 491.09 1091.04 491.02 1090.91 490.88C1090.78 490.74 1090.71 490.543 1090.71 490.29V484.74C1090.71 484.48 1090.78 484.283 1090.91 484.15C1091.05 484.017 1091.25 483.95 1091.5 483.95H1093.93C1094.72 483.95 1095.32 484.14 1095.75 484.52C1096.18 484.9 1096.39 485.43 1096.39 486.11C1096.39 486.55 1096.29 486.93 1096.1 487.25C1095.91 487.57 1095.63 487.817 1095.26 487.99C1094.9 488.163 1094.46 488.25 1093.93 488.25L1094.01 488.08H1094.42C1094.7 488.08 1094.94 488.15 1095.15 488.29C1095.36 488.423 1095.55 488.63 1095.7 488.91L1096.32 490.06C1096.41 490.227 1096.46 490.39 1096.45 490.55C1096.44 490.71 1096.38 490.84 1096.27 490.94C1096.16 491.04 1095.99 491.09 1095.77 491.09C1095.55 491.09 1095.37 491.043 1095.23 490.95C1095.1 490.857 1094.98 490.713 1094.87 490.52L1093.91 488.75C1093.81 488.563 1093.69 488.437 1093.54 488.37C1093.4 488.303 1093.23 488.27 1093.02 488.27H1092.26V490.29C1092.26 490.543 1092.19 490.74 1092.06 490.88C1091.93 491.02 1091.74 491.09 1091.49 491.09ZM1092.26 487.15H1093.65C1094.06 487.15 1094.37 487.067 1094.58 486.9C1094.79 486.733 1094.9 486.483 1094.9 486.15C1094.9 485.823 1094.79 485.577 1094.58 485.41C1094.37 485.243 1094.06 485.16 1093.65 485.16H1092.26V487.15ZM1100.23 491.11C1099.63 491.11 1099.12 490.97 1098.7 490.69C1098.28 490.41 1097.96 490.007 1097.74 489.48C1097.52 488.953 1097.41 488.317 1097.41 487.57C1097.41 486.977 1097.48 486.45 1097.62 485.99C1097.77 485.53 1097.98 485.14 1098.24 484.82C1098.51 484.5 1098.84 484.257 1099.22 484.09C1099.62 483.923 1100.06 483.84 1100.54 483.84C1100.83 483.84 1101.12 483.88 1101.41 483.96C1101.71 484.04 1101.98 484.16 1102.23 484.32C1102.37 484.387 1102.46 484.483 1102.5 484.61C1102.56 484.73 1102.57 484.853 1102.55 484.98C1102.53 485.107 1102.48 485.22 1102.4 485.32C1102.32 485.413 1102.22 485.477 1102.09 485.51C1101.97 485.537 1101.83 485.513 1101.67 485.44C1101.47 485.327 1101.27 485.247 1101.07 485.2C1100.89 485.153 1100.7 485.13 1100.52 485.13C1100.17 485.13 1099.87 485.21 1099.62 485.37C1099.38 485.53 1099.19 485.77 1099.06 486.09C1098.94 486.41 1098.88 486.807 1098.88 487.28V487.93H1098.74C1098.8 487.61 1098.91 487.34 1099.07 487.12C1099.24 486.893 1099.45 486.72 1099.7 486.6C1099.96 486.48 1100.24 486.42 1100.54 486.42C1100.94 486.42 1101.3 486.52 1101.6 486.72C1101.92 486.913 1102.16 487.183 1102.34 487.53C1102.52 487.87 1102.61 488.26 1102.61 488.7C1102.61 489.167 1102.51 489.583 1102.31 489.95C1102.11 490.31 1101.83 490.593 1101.47 490.8C1101.12 491.007 1100.71 491.11 1100.23 491.11ZM1100.15 489.9C1100.36 489.9 1100.54 489.853 1100.69 489.76C1100.85 489.667 1100.97 489.533 1101.05 489.36C1101.14 489.187 1101.18 488.987 1101.18 488.76C1101.18 488.533 1101.14 488.337 1101.05 488.17C1100.97 487.997 1100.85 487.863 1100.69 487.77C1100.54 487.67 1100.36 487.62 1100.15 487.62C1099.95 487.62 1099.76 487.67 1099.6 487.77C1099.45 487.863 1099.33 487.997 1099.24 488.17C1099.16 488.337 1099.11 488.533 1099.11 488.76C1099.11 488.987 1099.16 489.187 1099.24 489.36C1099.33 489.533 1099.45 489.667 1099.6 489.76C1099.76 489.853 1099.95 489.9 1100.15 489.9Z" fill="#1B4B26"/>
<path d="M1084.53 469.642C1084.53 469.642 1081.09 532.166 1084.53 549.68V469.642Z" fill="#3D332C"/>
</g>
<g clip-path="url(#clip12_476_1085)">
<path d="M1100.22 505.123C1100.22 505.123 1102.86 505.599 1105.11 505.372C1107.35 505.144 1102.83 511.278 1102.71 511.689C1102.58 512.1 1100.22 505.123 1100.22 505.123Z" fill="white"/>
<path d="M1104.41 508.955C1104.42 508.848 1104.41 508.74 1104.37 508.639C1104.33 508.539 1104.27 508.449 1104.19 508.377C1104.01 508.178 1103.82 507.984 1103.63 507.785C1102.94 507.041 1102.33 506.218 1101.83 505.333C1100.88 505.243 1100.21 505.114 1100.21 505.114C1100.21 505.114 1102.58 512.081 1102.7 511.676C1102.76 511.505 1103.62 510.28 1104.41 508.955C1104.41 508.964 1104.41 508.959 1104.41 508.955Z" fill="#E5E5E5"/>
<path d="M1105.22 507.586C1105.08 507.833 1104.18 505.974 1103.88 505.32C1103.7 504.919 1105.51 505.258 1105.76 505.372C1106.27 505.606 1105.76 506.571 1105.22 507.586Z" fill="#453F3C"/>
<path d="M1094.04 538.195L1095.2 547.381C1095.2 547.381 1094.61 546.664 1093.77 547.919C1093.7 548.025 1093.66 548.146 1093.66 548.272C1093.65 548.397 1093.68 548.521 1093.74 548.631C1093.8 548.741 1093.89 548.833 1094 548.897C1094.11 548.96 1094.24 548.994 1094.36 548.993H1097.88L1097.03 534.957L1101.62 535.832L1101.74 548.993H1105.65C1105.76 548.992 1105.86 548.966 1105.96 548.917C1106.06 548.868 1106.14 548.797 1106.21 548.709C1106.27 548.622 1106.31 548.522 1106.33 548.415C1106.35 548.309 1106.34 548.2 1106.31 548.097C1106.13 547.545 1105.6 547.003 1104.07 547.377L1105.81 532.241L1101.11 531.499L1093.49 532.451L1094.04 538.195Z" fill="white"/>
<path d="M1096.23 536.397L1097.32 539.824L1097.17 535.839L1096.23 536.397Z" fill="#E5E5E5"/>
<path d="M1097.34 545.936C1097.33 545.946 1097.32 545.953 1097.31 545.956C1097.29 545.96 1097.28 545.96 1097.26 545.956C1097.25 545.952 1097.24 545.945 1097.23 545.935C1097.22 545.925 1097.21 545.912 1097.2 545.898C1097.16 545.595 1097.06 545.303 1096.91 545.039C1096.81 545.354 1096.76 545.682 1096.76 546.012C1096.76 546.089 1096.64 546.133 1096.6 546.054C1096.38 545.504 1096.12 544.972 1095.81 544.464C1095.81 544.891 1095.79 545.318 1095.74 545.743C1095.74 545.765 1095.73 545.786 1095.72 545.802C1095.7 545.818 1095.68 545.826 1095.66 545.826C1095.64 545.826 1095.62 545.818 1095.6 545.802C1095.58 545.786 1095.58 545.765 1095.58 545.743C1095.52 545.045 1095.23 544.385 1094.75 543.869L1095.19 547.386C1095.19 547.386 1094.61 546.668 1093.77 547.924C1093.7 548.029 1093.66 548.151 1093.66 548.276C1093.65 548.401 1093.68 548.526 1093.74 548.636C1093.8 548.746 1093.89 548.837 1094 548.901C1094.11 548.965 1094.23 548.998 1094.36 548.998H1097.87L1097.65 545.465C1097.58 545.638 1097.47 545.797 1097.34 545.936Z" fill="#BFAB99"/>
<path d="M1104.37 547.261L1104.45 544.245C1104.38 544.154 1104.31 544.07 1104.23 543.993C1104.03 544.335 1104.09 544.82 1103.85 545.131C1103.84 545.141 1103.82 545.148 1103.81 545.151C1103.79 545.155 1103.78 545.155 1103.77 545.151C1103.75 545.147 1103.74 545.14 1103.73 545.13C1103.72 545.12 1103.71 545.107 1103.71 545.094C1103.61 544.869 1103.46 544.668 1103.28 544.507C1103.18 544.864 1103.13 545.231 1103.13 545.601C1103.13 545.622 1103.12 545.643 1103.11 545.659C1103.09 545.676 1103.07 545.686 1103.05 545.689C1103.03 545.692 1103.01 545.687 1102.99 545.676C1102.98 545.664 1102.96 545.646 1102.96 545.625C1102.79 545.063 1102.63 544.363 1102.13 543.987C1101.85 544.809 1101.83 545.689 1101.72 546.546L1101.74 548.991H1105.65C1105.76 548.99 1105.86 548.964 1105.96 548.915C1106.06 548.866 1106.14 548.795 1106.21 548.707C1106.27 548.62 1106.31 548.52 1106.33 548.413C1106.35 548.307 1106.34 548.198 1106.31 548.095C1106.15 547.55 1105.89 546.892 1104.37 547.261Z" fill="#BFAB99"/>
<path d="M1098.7 533.087C1098.7 533.087 1098.81 537.121 1090.83 534.29C1090.83 534.29 1096.48 539.759 1101.2 533.724L1098.7 533.087Z" fill="#D9C9B9"/>
<path d="M1104.29 514.751C1104.29 514.751 1111.43 520.954 1111.96 523.304C1112.49 525.653 1107.33 530.382 1107.33 530.382C1107.33 530.382 1107.89 531.165 1108.51 530.618C1109.13 530.071 1109.75 532.121 1107.9 533.006C1106.04 533.892 1104.29 531.755 1105.18 529.914C1106.08 528.072 1108.78 524.421 1108.78 524.421L1106.46 521.797L1105.81 532.361L1092.55 532.683C1092.55 532.683 1090.46 525.373 1092.87 522.372C1095.27 519.371 1096.72 515.182 1096.72 515.182L1104.29 514.751Z" fill="white"/>
<path d="M1108.51 530.618C1107.89 531.165 1107.33 530.382 1107.33 530.382C1107.33 530.382 1107.94 529.944 1108.78 529.257C1108.78 529.236 1108.78 529.215 1108.78 529.194C1108.8 529.093 1108.83 528.994 1108.87 528.899C1108.74 528.989 1108.6 529.071 1108.46 529.146C1108.44 529.156 1108.42 529.161 1108.4 529.159C1108.38 529.157 1108.36 529.15 1108.34 529.137C1108.32 529.124 1108.31 529.106 1108.3 529.086C1108.29 529.066 1108.29 529.044 1108.3 529.023C1108.35 528.83 1108.4 528.634 1108.43 528.435C1108.25 528.597 1108.04 528.717 1107.8 528.787C1107.73 528.805 1107.63 528.737 1107.67 528.654C1107.7 528.571 1107.72 528.487 1107.74 528.402C1107.69 528.451 1107.64 528.506 1107.6 528.564C1107.53 528.668 1107.44 528.759 1107.34 528.833C1107.32 528.843 1107.31 528.848 1107.29 528.848C1107.27 528.848 1107.25 528.843 1107.23 528.833C1107.21 528.824 1107.2 528.81 1107.19 528.793C1107.18 528.777 1107.18 528.758 1107.18 528.739C1107.18 528.592 1107.2 528.446 1107.22 528.301C1107.12 528.386 1107 528.46 1106.88 528.52C1106.82 528.551 1106.71 528.52 1106.72 528.426C1106.74 528.266 1106.79 528.111 1106.88 527.971C1106.94 527.87 1107 527.765 1107.04 527.656C1106.92 527.71 1106.8 527.78 1106.69 527.864C1106.11 528.487 1105.61 529.175 1105.19 529.914C1104.3 531.755 1106.05 533.892 1107.91 533.006C1109.76 532.121 1109.13 530.073 1108.51 530.618Z" fill="#BFAB99"/>
<path d="M1101.15 505.151C1099.04 503.117 1096.66 505.713 1096.66 505.713C1097.15 503.611 1095.03 500.829 1095.03 500.829C1093.4 504.709 1094.38 506.844 1094.38 506.844C1094.38 506.844 1096.07 514.338 1096.31 516.792C1096.36 517.289 1096.05 518.172 1095.54 519.283C1095.76 519.274 1095.98 519.25 1096.2 519.213C1098.08 518.894 1099.76 517.523 1101.34 516.534C1102.32 515.917 1103.3 515.316 1104.3 514.745C1104.1 513.677 1103.4 511.761 1103.22 510.232C1103.01 508.407 1102.32 506.669 1101.21 505.202L1101.16 505.145" fill="white"/>
<path d="M1098.03 509.375C1098.18 509.311 1098.34 509.274 1098.5 509.268C1098.7 509.253 1098.9 509.225 1099.1 509.184C1099.8 509.022 1100.49 508.78 1101.14 508.463C1101.45 508.31 1101.74 508.133 1102.02 507.936C1102.16 507.839 1102.29 507.736 1102.42 507.631L1102.52 507.553C1102.28 506.954 1101.99 506.379 1101.64 505.838C1101.41 505.943 1101.23 506.111 1101.02 506.236C1100.42 506.599 1099.83 506.977 1099.2 507.297C1098.57 507.613 1097.91 507.884 1097.23 508.106C1096.54 508.364 1095.83 508.583 1095.11 508.762C1095.01 508.786 1094.91 508.804 1094.81 508.821C1094.96 509.506 1095.13 510.315 1095.3 511.162C1095.76 510.998 1096.07 510.519 1096.35 510.136C1096.36 510.12 1096.37 510.106 1096.39 510.097C1096.4 510.088 1096.42 510.083 1096.44 510.083C1096.46 510.083 1096.48 510.088 1096.5 510.097C1096.51 510.106 1096.53 510.12 1096.54 510.136C1096.84 510.608 1097.03 511.16 1097.47 511.527C1097.63 511.27 1097.72 510.975 1097.73 510.672C1097.76 510.422 1097.72 510.171 1097.74 509.922C1097.74 509.814 1097.77 509.707 1097.82 509.612C1097.87 509.516 1097.94 509.435 1098.03 509.375Z" fill="#E5E5E5"/>
<path d="M1096.72 505.72V505.696L1096.68 505.72C1096.74 505.414 1096.76 505.1 1096.72 504.79C1096.11 505.186 1095.63 505.743 1095.33 506.398C1095.77 505.781 1096.72 505.72 1096.72 505.72Z" fill="#E5E5E5"/>
<path d="M1104.6 515.407C1104.6 515.407 1105.82 518.73 1104.34 520.327C1102.86 521.923 1100.15 522.009 1101.2 527.49C1102.25 532.972 1102.33 534.391 1101.38 534.542C1100.42 534.693 1095.64 520.414 1100.12 517.918L1104.6 515.407Z" fill="#E5E5E5"/>
<path d="M1077 534.822C1077 534.822 1083.87 532.635 1090.31 532.921C1096.74 533.208 1092.69 534.868 1092.69 534.868C1092.69 534.868 1101.71 537.134 1101.52 533.827C1101.32 530.519 1079.57 531.283 1077 534.822Z" fill="#E56038"/>
<path d="M1095.66 512.721C1096.93 513.435 1098.34 513.862 1099.8 513.971C1101.26 514.081 1102.72 513.871 1104.09 513.356C1104.09 513.356 1106.67 515.106 1102.8 519.167C1098.94 523.229 1101.92 530.471 1101.51 533.822C1101.51 533.822 1088.19 531.226 1077 534.818C1077 534.818 1083.05 520.042 1090.15 518.524C1096.57 517.151 1095.8 513.454 1095.59 512.765C1095.59 512.757 1095.59 512.749 1095.6 512.741C1095.6 512.733 1095.6 512.727 1095.61 512.722C1095.62 512.717 1095.63 512.715 1095.63 512.715C1095.64 512.715 1095.65 512.717 1095.66 512.721Z" fill="#E56038"/>
<path d="M1095.02 515.95C1094.42 516.709 1093.42 517.564 1091.64 518.137C1099.34 518.861 1102.71 516.206 1102.71 516.206C1099.93 517.312 1096.45 516.392 1095.02 515.95Z" fill="#C6492C"/>
<path d="M1093.95 533.855C1093.95 533.855 1096.28 532.797 1096.79 526.232C1096.79 526.232 1097.12 534.255 1094.58 535.242L1092.69 534.868C1092.69 534.868 1093.76 534.555 1093.95 533.855Z" fill="#C6492C"/>
<path d="M1101.62 535.837L1103.02 535.944C1103.02 535.944 1101.61 536.627 1101.66 540.251L1101.62 535.837Z" fill="#E5E5E5"/>
<path d="M1106.46 521.788L1105.18 520.76C1105.18 520.76 1106.14 525.296 1106.11 526.753L1106.46 521.788Z" fill="#E5E5E5"/>
<path d="M1096.02 505.976C1096.02 505.976 1097.25 503.771 1098.44 504.554C1098.44 504.554 1099.63 503.646 1100.74 505.28C1101.86 506.914 1096.02 505.976 1096.02 505.976Z" fill="white"/>
<path d="M1099.57 504.757C1099.57 504.757 1098.71 502.133 1099.57 500C1099.57 500 1102.98 503.259 1100.72 505.665C1098.47 508.071 1099.57 504.757 1099.57 504.757Z" fill="white"/>
<path d="M1101.43 503.458C1101.45 503.506 1101.47 503.559 1101.49 503.609C1101.43 502.515 1100.78 501.461 1100.25 500.781C1100.26 501.087 1100.33 501.389 1100.45 501.669C1100.72 502.294 1101.16 502.832 1101.43 503.458Z" fill="#FFC4AB"/>
<path d="M1094.44 507.12C1094.44 507.12 1094.9 508.32 1096.94 507.614C1099.13 506.857 1101.35 504.65 1101.35 504.65C1101.35 504.65 1102.68 506.897 1102.7 507.986C1102.72 508.659 1099.61 508.793 1097.42 509.329C1096.58 509.549 1095.81 509.98 1095.18 510.58L1094.44 507.12Z" fill="#E56038"/>
<path d="M1101.36 504.639L1101.2 504.79C1101.24 505.036 1101.28 505.284 1101.3 505.534C1101.34 506.231 1101.34 506.932 1101.3 507.629C1101.28 507.972 1101.23 508.313 1101.16 508.648C1102.06 508.476 1102.7 508.281 1102.7 507.975C1102.68 506.886 1101.36 504.639 1101.36 504.639Z" fill="#C6492C"/>
<path d="M1095.86 509.231L1094.89 508.821C1094.89 508.821 1096.81 509.259 1096.25 508.951C1095.84 508.732 1095.41 508.552 1094.96 508.415C1094.96 508.415 1095.97 508.994 1096.17 508.633C1096.37 508.272 1094.89 508.001 1094.89 508.001C1094.89 508.001 1095.94 508.017 1096.2 508.31C1096.47 508.603 1097.79 507.627 1097.79 507.627C1097.79 507.627 1095.9 508.664 1096.54 508.583C1097.17 508.502 1098.75 508.054 1098.75 508.054C1098.75 508.054 1096.96 508.463 1096.88 508.756C1096.81 509.049 1098.69 508.793 1098.66 508.813C1098.63 508.832 1097.35 508.863 1096.81 509.049C1096.5 509.162 1096.18 509.223 1095.86 509.231Z" fill="#C6492C"/>
<path d="M1096.72 508.793C1096.72 508.793 1094.64 508.309 1094.29 511.361C1094.3 511.361 1096.11 510.534 1096.72 508.793Z" fill="#C6492C"/>
<path d="M1096.5 508.738C1096.5 508.738 1098.14 508.848 1097.59 511.339C1097.59 511.339 1096.49 510.258 1096.5 508.738Z" fill="#EA6849"/>
<path d="M1096.54 508.821C1096.54 508.821 1096.7 509.983 1096.87 510.208C1096.87 510.208 1096.4 508.677 1096.74 509.099C1096.96 509.375 1097.13 509.681 1097.25 510.007C1097.15 509.672 1097 509.353 1096.82 509.058C1096.82 509.058 1096.89 508.911 1097.17 509.178C1097.17 509.178 1097.09 508.946 1096.54 508.821Z" fill="#C6492C"/>
<path d="M1099 504.324C1099 504.324 1099.15 504.324 1099.24 504.79C1099.29 505.087 1099.23 505.39 1099.07 505.648L1099.57 504.757L1099.45 504.32C1099.38 504.288 1099.3 504.272 1099.23 504.272C1099.15 504.273 1099.07 504.291 1099 504.324Z" fill="#E5E5E5"/>
</g>
</g>
<defs>
<linearGradient id="paint0_linear_476_1085" x1="720" y1="0" x2="720" y2="1001" gradientUnits="userSpaceOnUse">
<stop stop-color="#0A4A84"/>
<stop offset="0.953591" stop-color="#1E6EB7"/>
</linearGradient>
<clipPath id="clip0_476_1085">
<rect width="1440" height="998" fill="white"/>
</clipPath>
<clipPath id="clip1_476_1085">
<rect width="538" height="250" fill="white" transform="translate(103 818)"/>
</clipPath>
<clipPath id="clip2_476_1085">
<rect width="1102" height="594" fill="white" transform="translate(415 423)"/>
</clipPath>
<clipPath id="clip3_476_1085">
<rect width="43.258" height="80" fill="white" transform="translate(775 755.642)"/>
</clipPath>
<clipPath id="clip4_476_1085">
<rect width="43.258" height="80" fill="white" transform="translate(889 679.642)"/>
</clipPath>
<clipPath id="clip5_476_1085">
<rect width="43.258" height="80" fill="white" transform="translate(981 609.642)"/>
</clipPath>
<clipPath id="clip6_476_1085">
<rect width="43.258" height="80" fill="white" transform="translate(504 867)"/>
</clipPath>
<clipPath id="clip7_476_1085">
<rect width="911" height="211" fill="white" transform="translate(539 814)"/>
</clipPath>
<clipPath id="clip8_476_1085">
<rect width="43.258" height="80" fill="white" transform="translate(647 806)"/>
</clipPath>
<clipPath id="clip9_476_1085">
<rect width="89" height="165" fill="white" transform="translate(1170 278)"/>
</clipPath>
<clipPath id="clip10_476_1085">
<rect width="17" height="20" fill="white" transform="translate(1194 305)"/>
</clipPath>
<clipPath id="clip11_476_1085">
<rect width="43.258" height="80" fill="white" transform="translate(1083 469.642)"/>
</clipPath>
<clipPath id="clip12_476_1085">
<rect width="35" height="49" fill="white" transform="translate(1077 500)"/>
</clipPath>
</defs>
</svg>
