<svg width="1440" height="998" viewBox="0 0 1440 998" fill="none" xmlns="http://www.w3.org/2000/svg">
<g clip-path="url(#clip0_389_29385)">
<path d="M1440 0H0V1001H1440V0Z" fill="url(#paint0_linear_389_29385)"/>
<path style="mix-blend-mode:screen" opacity="0.5" d="M875.86 313.75C874.22 313.5 872.7 313.42 871.51 313.49C871.33 312.47 870.06 311.61 868.44 311.49C866.8 311.37 865.4 312.05 865.1 313.05C864.44 312.35 863.52 311.91 862.48 311.91C861.53 311.91 860.68 312.28 860.03 312.88C859.28 311.82 858.08 311.11 856.71 310.99C856.27 309.7 855.07 308.77 853.63 308.77C853.13 308.77 852.66 308.89 852.24 309.09C851.2 307.24 849.22 305.99 846.94 305.99C845.4 305.99 844.01 306.56 842.93 307.5C841.48 306.41 839.68 305.75 837.73 305.75C836.48 305.75 835.3 306.02 834.23 306.49C833.85 303.5 831.3 301.18 828.2 301.18C827.76 301.18 827.32 301.23 826.91 301.32C826.91 301.27 826.91 301.23 826.91 301.18C826.91 297.82 824.19 295.09 820.83 295.09C820.38 295.09 819.94 295.14 819.51 295.24C817.85 289.11 812.27 284.6 805.61 284.6C802.48 284.6 799.58 285.61 797.22 287.31C796.65 282.01 792.17 277.87 786.71 277.87C783.63 277.87 780.87 279.19 778.94 281.29C778.08 271.65 769.99 264.09 760.13 264.09C755.59 264.09 751.43 265.69 748.18 268.35C743.71 262.09 736.39 258 728.1 258C716.19 258 706.26 266.44 703.94 277.66C702.25 277.17 700.47 276.9 698.63 276.9C688.78 276.9 680.67 284.31 679.56 293.86C678.41 293.46 677.18 293.23 675.89 293.23C671.72 293.23 668.09 295.52 666.16 298.9C664.98 298.55 663.73 298.36 662.44 298.36C657.85 298.36 653.82 300.71 651.47 304.28C650.58 303.68 649.5 303.33 648.34 303.33C645.79 303.33 643.64 305.04 642.96 307.37C642.45 307.15 641.89 307.02 641.29 307.02C641.19 307.02 641.1 307.04 641 307.04V318.45C641.25 318.27 641.48 318.07 641.69 317.84C642.72 319.15 644.31 319.99 646.1 319.99C648.04 319.99 649.76 319 650.76 317.5C652.94 321.73 657.34 324.64 662.43 324.64C666.54 324.64 670.2 322.75 672.61 319.8C674.35 323.96 678.46 326.88 683.25 326.88C688.42 326.88 692.8 323.48 694.26 318.79C695.91 323.14 700.1 326.24 705.03 326.24C709.42 326.24 713.24 323.78 715.19 320.16C718.56 325.72 724.64 329.44 731.62 329.44C736.99 329.44 741.83 327.24 745.32 323.69C747.47 327.14 751.28 329.44 755.64 329.44C759.27 329.44 762.53 327.84 764.76 325.32C768.41 328.48 773.17 330.4 778.39 330.4C784.68 330.4 790.31 327.61 794.12 323.21C796.48 325.1 799.47 326.24 802.73 326.24C807.3 326.24 811.33 324.01 813.84 320.59C815.75 322.5 818.39 323.68 821.31 323.68C825.08 323.68 828.38 321.7 830.25 318.73C831.75 321.3 834.53 323.04 837.72 323.04C840.23 323.04 842.48 321.97 844.06 320.26C845.08 321.05 846.35 321.52 847.73 321.52C849.94 321.52 851.87 320.32 852.91 318.55C853.75 319.48 854.95 320.08 856.3 320.08C857.84 320.08 859.19 319.31 860.02 318.15C860.66 318.75 861.52 319.12 862.47 319.12C863.56 319.12 864.52 318.63 865.18 317.87C865.69 318.32 866.35 318.6 867.08 318.6C867.98 318.6 868.77 318.18 869.3 317.54C870.06 317.96 871.34 318.21 872.79 318.16C874.42 318.1 875.8 317.69 876.46 317.12C879.56 317.47 882 317.17 882.12 316.37C882.26 315.48 879.46 314.31 875.86 313.75Z" fill="url(#paint1_linear_389_29385)"/>
<path style="mix-blend-mode:screen" opacity="0.5" d="M628.738 245.752C627.099 245.493 625.58 245.41 624.39 245.483C624.211 244.426 622.941 243.535 621.322 243.411C619.683 243.287 618.284 243.991 617.984 245.027C617.324 244.302 616.405 243.846 615.365 243.846C614.416 243.846 613.566 244.229 612.916 244.851C612.167 243.753 610.967 243.017 609.598 242.893C609.158 241.557 607.959 240.593 606.52 240.593C606.02 240.593 605.55 240.718 605.13 240.925C604.091 239.008 602.112 237.713 599.833 237.713C598.294 237.713 596.905 238.304 595.825 239.278C594.376 238.148 592.577 237.465 590.628 237.465C589.379 237.465 588.199 237.744 587.13 238.231C586.75 235.134 584.201 232.731 581.103 232.731C580.663 232.731 580.223 232.782 579.814 232.876C579.814 232.824 579.814 232.782 579.814 232.731C579.814 229.25 577.095 226.422 573.737 226.422C573.287 226.422 572.847 226.474 572.417 226.577C570.758 220.227 565.181 215.555 558.525 215.555C555.396 215.555 552.498 216.602 550.139 218.363C549.569 212.872 545.092 208.584 539.634 208.584C536.556 208.584 533.797 209.951 531.868 212.126C531.009 202.14 522.923 194.309 513.068 194.309C508.531 194.309 504.373 195.966 501.124 198.722C496.657 192.237 489.341 188 481.055 188C469.151 188 459.226 196.743 456.907 208.366C455.218 207.858 453.439 207.579 451.6 207.579C441.755 207.579 433.649 215.255 432.54 225.148C431.391 224.733 430.161 224.495 428.872 224.495C424.704 224.495 421.076 226.867 419.147 230.369C417.968 230.006 416.718 229.809 415.429 229.809C410.841 229.809 406.813 232.244 404.465 235.942C403.575 235.32 402.496 234.958 401.336 234.958C398.788 234.958 396.639 236.729 395.959 239.143C395.449 238.915 394.89 238.78 394.29 238.78C394.19 238.78 394.1 238.801 394 238.801V250.621C394.25 250.434 394.48 250.227 394.69 249.989C395.719 251.346 397.308 252.216 399.097 252.216C401.036 252.216 402.755 251.191 403.755 249.637C405.934 254.019 410.332 257.033 415.419 257.033C419.527 257.033 423.185 255.075 425.594 252.019C427.333 256.329 431.441 259.354 436.228 259.354C441.395 259.354 445.773 255.831 447.232 250.973C448.882 255.479 453.069 258.691 457.997 258.691C462.385 258.691 466.203 256.142 468.152 252.392C471.52 258.152 477.597 262.006 484.573 262.006C489.94 262.006 494.778 259.727 498.266 256.049C500.415 259.623 504.223 262.006 508.581 262.006C512.209 262.006 515.467 260.348 517.696 257.738C521.344 261.011 526.101 263 531.319 263C537.606 263 543.233 260.11 547.041 255.552C549.399 257.51 552.388 258.691 555.646 258.691C560.214 258.691 564.242 256.381 566.75 252.838C568.659 254.816 571.298 256.039 574.217 256.039C577.985 256.039 581.283 253.988 583.152 250.911C584.651 253.573 587.43 255.376 590.618 255.376C593.127 255.376 595.376 254.267 596.955 252.496C597.974 253.314 599.244 253.801 600.623 253.801C602.832 253.801 604.761 252.558 605.8 250.724C606.64 251.688 607.839 252.309 609.188 252.309C610.728 252.309 612.077 251.512 612.906 250.31C613.546 250.932 614.406 251.315 615.355 251.315C616.445 251.315 617.404 250.807 618.064 250.02C618.573 250.486 619.233 250.776 619.963 250.776C620.862 250.776 621.652 250.341 622.182 249.678C622.941 250.113 624.221 250.372 625.67 250.32C627.299 250.258 628.678 249.834 629.338 249.243C632.436 249.606 634.875 249.295 634.995 248.466C635.135 247.544 632.336 246.332 628.738 245.752Z" fill="url(#paint2_linear_389_29385)"/>
<path style="mix-blend-mode:screen" opacity="0.7" d="M217.17 367.794C215.33 367.549 213.62 367.47 212.29 367.54C212.08 366.54 210.66 365.699 208.85 365.576C207.02 365.453 205.45 366.128 205.1 367.11C204.36 366.426 203.32 365.988 202.16 365.988C201.1 365.988 200.14 366.356 199.42 366.944C198.57 365.9 197.23 365.199 195.69 365.085C195.2 363.813 193.85 362.901 192.24 362.901C191.68 362.901 191.16 363.024 190.68 363.217C189.51 361.402 187.29 360.166 184.74 360.166C183.02 360.166 181.45 360.727 180.25 361.647C178.62 360.569 176.61 359.92 174.41 359.92C173.01 359.92 171.69 360.183 170.49 360.657C170.06 357.71 167.2 355.439 163.73 355.439C163.23 355.439 162.75 355.483 162.28 355.58C162.28 355.536 162.28 355.492 162.28 355.439C162.28 352.134 159.23 349.459 155.46 349.459C154.95 349.459 154.46 349.512 153.98 349.6C152.12 343.576 145.86 339.139 138.39 339.139C134.87 339.139 131.63 340.13 128.98 341.804C128.34 336.587 123.31 332.527 117.2 332.527C113.75 332.527 110.65 333.834 108.48 335.894C107.51 326.416 98.45 318.989 87.39 318.989C82.3 318.989 77.64 320.567 73.98 323.18C68.97 317.025 60.75 313 51.46 313C38.11 313 26.96 321.295 24.37 332.334C22.48 331.852 20.48 331.589 18.41 331.589C11.24 331.589 4.91 334.667 1 339.384V380.719C1.06 380.719 1.11 380.719 1.17 380.719C6.97 380.719 11.87 377.369 13.51 372.766C15.36 377.045 20.06 380.096 25.59 380.096C30.52 380.096 34.8 377.676 36.98 374.125C40.76 379.588 47.58 383.253 55.4 383.253C61.42 383.253 66.85 381.087 70.76 377.597C73.17 380.991 77.45 383.253 82.34 383.253C86.42 383.253 90.06 381.683 92.56 379.202C96.66 382.315 102 384.2 107.84 384.2C114.89 384.2 121.2 381.455 125.48 377.124C128.13 378.983 131.48 380.105 135.13 380.105C140.25 380.105 144.78 377.913 147.59 374.546C149.74 376.422 152.69 377.589 155.97 377.589C160.2 377.589 163.9 375.642 166 372.722C167.68 375.256 170.8 376.957 174.38 376.957C177.19 376.957 179.72 375.905 181.49 374.221C182.63 374.993 184.05 375.458 185.61 375.458C188.09 375.458 190.25 374.283 191.42 372.529C192.36 373.45 193.71 374.037 195.22 374.037C196.95 374.037 198.46 373.283 199.39 372.135C200.11 372.722 201.07 373.09 202.13 373.09C203.35 373.09 204.43 372.608 205.17 371.863C205.74 372.301 206.48 372.573 207.3 372.573C208.31 372.573 209.19 372.161 209.79 371.53C210.64 371.942 212.08 372.187 213.71 372.143C215.53 372.091 217.08 371.679 217.82 371.126C221.29 371.468 224.03 371.17 224.17 370.39C224.32 369.513 221.18 368.364 217.15 367.812L217.17 367.794Z" fill="url(#paint3_linear_389_29385)"/>
<path style="mix-blend-mode:screen" opacity="0.7" d="M1224.11 406.55C1224.11 404.61 1217.24 403.02 1208.54 402.89C1208.54 402.84 1208.54 402.79 1208.54 402.74C1208.54 399.23 1205.92 396.38 1202.68 396.38C1201.37 396.38 1200.16 396.85 1199.19 397.64C1199.17 397.61 1199.16 397.59 1199.14 397.56C1197.83 390.52 1192.1 385.22 1185.23 385.22C1184.06 385.22 1182.92 385.39 1181.84 385.68C1180.47 382.41 1177.43 380.13 1173.91 380.13C1171.33 380.13 1169.02 381.35 1167.42 383.29C1165.63 380.53 1162.67 378.72 1159.33 378.72C1158.84 378.72 1158.37 378.77 1157.9 378.84C1158.23 377.54 1158.42 376.17 1158.42 374.76C1158.42 366.25 1152.07 359.36 1144.23 359.36C1140.13 359.36 1136.45 361.26 1133.86 364.27C1131.98 359.55 1127.66 356.24 1122.62 356.24C1118.31 356.24 1114.53 358.66 1112.35 362.31C1110.87 359.77 1108.27 358.08 1105.3 358.08C1104.48 358.08 1103.69 358.21 1102.95 358.45C1101.07 354.61 1097.35 352 1093.06 352C1088.77 352 1085.29 354.46 1083.36 358.1C1083.21 358.1 1083.06 358.08 1082.9 358.08C1079.84 358.08 1077.18 359.87 1075.73 362.53C1073.16 359.86 1069.68 358.22 1065.85 358.22C1061.63 358.22 1057.85 360.21 1055.23 363.36C1051.55 360.48 1047.04 358.78 1042.16 358.78C1035.44 358.78 1029.42 361.99 1025.32 367.07C1023.7 366.29 1021.91 365.84 1020.03 365.84C1012.84 365.84 1007.01 372.16 1007.01 379.97C1007.01 380.26 1007.03 380.55 1007.05 380.84C1006.37 380.65 1005.66 380.53 1004.93 380.53C1001.72 380.53 998.94 382.5 997.54 385.39C995.85 384.46 993.94 383.92 991.91 383.92C986.54 383.92 981.97 387.61 980.2 392.77C979.86 392.71 979.51 392.68 979.15 392.68C975.38 392.68 972.28 395.78 971.9 399.76C971.8 399.76 971.7 399.74 971.6 399.74C969.3 399.74 967.37 401.45 966.82 403.76C966.26 403.72 965.68 403.69 965.09 403.69C960.4 403.69 956.46 405.02 955.29 406.83C954.91 406.81 954.54 406.8 954.15 406.8C948.54 406.8 944 408.7 944 411.04C944 413.38 948.55 415.28 954.15 415.28C954.87 415.28 955.58 415.25 956.26 415.19C957.92 416.58 961.36 417.55 965.35 417.55C965.74 417.55 966.12 417.54 966.5 417.52C966.96 419.8 968.83 421.51 971.08 421.51C971.59 421.51 972.08 421.42 972.54 421.25C974.15 423.63 976.74 425.18 979.67 425.18C981.14 425.18 982.52 424.79 983.74 424.1C985.05 425.47 986.83 426.31 988.78 426.31C990.73 426.31 992.56 425.45 993.88 424.05C996.17 427.15 999.68 429.13 1003.63 429.13C1006.88 429.13 1009.82 427.78 1012.04 425.58C1013.07 428.01 1015.33 429.7 1017.95 429.7C1020.3 429.7 1022.34 428.35 1023.49 426.33C1025.37 427.56 1027.57 428.28 1029.93 428.28C1032.83 428.28 1035.49 427.2 1037.62 425.4C1038.81 426.82 1040.52 427.72 1042.43 427.72C1044.34 427.72 1045.99 426.85 1047.17 425.48C1048.98 428.52 1052.12 430.54 1055.71 430.54C1058.54 430.54 1061.1 429.28 1062.94 427.26C1066.33 430.14 1071.28 431.96 1076.81 431.96C1083.61 431.96 1089.55 429.21 1092.76 425.11C1094.72 428.62 1098.27 430.97 1102.33 430.97C1103.68 430.97 1104.97 430.7 1106.17 430.22C1107.66 432.87 1110.33 434.64 1113.4 434.64C1116.47 434.64 1119.1 432.89 1120.59 430.28C1123.94 432.93 1128.07 434.5 1132.54 434.5C1139.52 434.5 1145.68 430.68 1149.33 424.86C1151.56 427.4 1154.7 428.99 1158.19 428.99C1161.68 428.99 1165.09 427.26 1167.33 424.52C1168.13 424.84 1169 425.03 1169.91 425.03C1170.95 425.03 1171.94 424.79 1172.84 424.37C1175.27 425.14 1178.06 425.59 1181.04 425.59C1189.53 425.59 1196.53 422.01 1197.61 417.37C1197.75 417.38 1197.89 417.39 1198.03 417.39C1200.02 417.39 1201.77 416.31 1202.83 414.67C1203.65 415.14 1204.59 415.41 1205.58 415.41C1208.49 415.41 1210.9 413.1 1211.36 410.08C1218.69 409.69 1224.14 408.24 1224.14 406.51L1224.11 406.55Z" fill="url(#paint4_linear_389_29385)"/>
<path style="mix-blend-mode:screen" opacity="0.7" d="M359.11 411.949C359.11 410.244 352.24 408.846 343.54 408.732C343.54 408.688 343.54 408.644 343.54 408.6C343.54 405.515 340.92 403.01 337.68 403.01C336.37 403.01 335.16 403.423 334.19 404.117C334.17 404.091 334.16 404.073 334.14 404.047C332.83 397.859 327.1 393.2 320.23 393.2C319.06 393.2 317.92 393.35 316.84 393.604C315.47 390.73 312.43 388.726 308.91 388.726C306.33 388.726 304.02 389.798 302.42 391.504C300.63 389.078 297.67 387.487 294.33 387.487C293.84 387.487 293.37 387.531 292.9 387.592C293.23 386.449 293.42 385.245 293.42 384.006C293.42 376.526 287.07 370.469 279.23 370.469C275.13 370.469 271.45 372.139 268.86 374.785C266.98 370.636 262.66 367.727 257.62 367.727C253.31 367.727 249.53 369.854 247.35 373.062C245.87 370.83 243.27 369.344 240.3 369.344C239.48 369.344 238.69 369.459 237.95 369.67C236.07 366.294 232.35 364 228.06 364C223.77 364 220.29 366.162 218.36 369.362C218.21 369.362 218.06 369.344 217.9 369.344C214.84 369.344 212.18 370.918 210.73 373.256C208.16 370.909 204.68 369.467 200.85 369.467C196.63 369.467 192.85 371.217 190.23 373.985C186.55 371.454 182.04 369.96 177.16 369.96C170.44 369.96 164.42 372.781 160.32 377.246C158.7 376.561 156.91 376.165 155.03 376.165C147.84 376.165 142.01 381.721 142.01 388.585C142.01 388.84 142.03 389.095 142.05 389.35C141.37 389.183 140.66 389.078 139.93 389.078C136.72 389.078 133.94 390.809 132.54 393.35C130.85 392.532 128.94 392.057 126.91 392.057C121.54 392.057 116.97 395.301 115.2 399.837C114.86 399.784 114.51 399.757 114.15 399.757C110.38 399.757 107.28 402.482 106.9 405.981C106.8 405.981 106.7 405.963 106.6 405.963C104.3 405.963 102.37 407.466 101.82 409.497C101.26 409.462 100.68 409.435 100.09 409.435C95.4 409.435 91.46 410.604 90.29 412.195C89.91 412.178 89.54 412.169 89.15 412.169C83.54 412.169 79 413.839 79 415.896C79 417.953 83.55 419.623 89.15 419.623C89.87 419.623 90.58 419.596 91.26 419.544C92.92 420.765 96.36 421.618 100.35 421.618C100.74 421.618 101.12 421.609 101.5 421.592C101.96 423.596 103.83 425.099 106.08 425.099C106.59 425.099 107.08 425.02 107.54 424.87C109.15 426.962 111.74 428.325 114.67 428.325C116.14 428.325 117.52 427.982 118.74 427.375C120.05 428.58 121.83 429.318 123.78 429.318C125.73 429.318 127.56 428.562 128.88 427.331C131.17 430.056 134.68 431.797 138.63 431.797C141.88 431.797 144.82 430.61 147.04 428.676C148.07 430.812 150.33 432.298 152.95 432.298C155.3 432.298 157.34 431.111 158.49 429.336C160.37 430.417 162.57 431.05 164.93 431.05C167.83 431.05 170.49 430.1 172.62 428.518C173.81 429.766 175.52 430.557 177.43 430.557C179.34 430.557 180.99 429.793 182.17 428.588C183.98 431.261 187.12 433.036 190.71 433.036C193.54 433.036 196.1 431.929 197.94 430.153C201.33 432.685 206.28 434.284 211.81 434.284C218.61 434.284 224.55 431.867 227.76 428.263C229.72 431.348 233.27 433.414 237.33 433.414C238.68 433.414 239.97 433.177 241.17 432.755C242.66 435.084 245.33 436.64 248.4 436.64C251.47 436.64 254.1 435.102 255.59 432.808C258.94 435.137 263.07 436.517 267.54 436.517C274.52 436.517 280.68 433.159 284.33 428.043C286.56 430.276 289.7 431.674 293.19 431.674C296.68 431.674 300.09 430.153 302.33 427.745C303.13 428.026 304 428.193 304.91 428.193C305.95 428.193 306.94 427.982 307.84 427.613C310.27 428.29 313.06 428.685 316.04 428.685C324.53 428.685 331.53 425.538 332.61 421.46C332.75 421.469 332.89 421.477 333.03 421.477C335.02 421.477 336.77 420.528 337.83 419.087C338.65 419.5 339.59 419.737 340.58 419.737C343.49 419.737 345.9 417.706 346.36 415.052C353.69 414.709 359.14 413.435 359.14 411.914L359.11 411.949Z" fill="url(#paint5_linear_389_29385)"/>
<path style="mix-blend-mode:screen" opacity="0.7" d="M1580.11 228.949C1580.11 227.244 1573.24 225.846 1564.54 225.732C1564.54 225.688 1564.54 225.644 1564.54 225.6C1564.54 222.515 1561.92 220.01 1558.68 220.01C1557.37 220.01 1556.16 220.423 1555.19 221.117C1555.17 221.091 1555.16 221.073 1555.14 221.047C1553.83 214.859 1548.1 210.2 1541.23 210.2C1540.06 210.2 1538.92 210.35 1537.84 210.604C1536.47 207.73 1533.43 205.726 1529.91 205.726C1527.33 205.726 1525.02 206.798 1523.42 208.504C1521.63 206.078 1518.67 204.487 1515.33 204.487C1514.84 204.487 1514.37 204.531 1513.9 204.592C1514.23 203.449 1514.42 202.245 1514.42 201.006C1514.42 193.526 1508.07 187.469 1500.23 187.469C1496.13 187.469 1492.45 189.139 1489.86 191.785C1487.98 187.636 1483.66 184.727 1478.62 184.727C1474.31 184.727 1470.53 186.854 1468.35 190.062C1466.87 187.83 1464.27 186.344 1461.3 186.344C1460.48 186.344 1459.69 186.459 1458.95 186.67C1457.07 183.294 1453.35 181 1449.06 181C1444.77 181 1441.29 183.162 1439.36 186.362C1439.21 186.362 1439.06 186.344 1438.9 186.344C1435.84 186.344 1433.18 187.918 1431.73 190.256C1429.16 187.909 1425.68 186.467 1421.85 186.467C1417.63 186.467 1413.85 188.217 1411.23 190.985C1407.55 188.454 1403.04 186.96 1398.16 186.96C1391.44 186.96 1385.42 189.781 1381.32 194.246C1379.7 193.561 1377.91 193.165 1376.03 193.165C1368.84 193.165 1363.01 198.721 1363.01 205.585C1363.01 205.84 1363.03 206.095 1363.05 206.35C1362.37 206.183 1361.66 206.078 1360.93 206.078C1357.72 206.078 1354.94 207.809 1353.54 210.35C1351.85 209.532 1349.94 209.057 1347.91 209.057C1342.54 209.057 1337.97 212.301 1336.2 216.837C1335.86 216.784 1335.51 216.757 1335.15 216.757C1331.38 216.757 1328.28 219.482 1327.9 222.981C1327.8 222.981 1327.7 222.963 1327.6 222.963C1325.3 222.963 1323.37 224.466 1322.82 226.497C1322.26 226.462 1321.68 226.435 1321.09 226.435C1316.4 226.435 1312.46 227.604 1311.29 229.195C1310.91 229.178 1310.54 229.169 1310.15 229.169C1304.54 229.169 1300 230.839 1300 232.896C1300 234.953 1304.55 236.623 1310.15 236.623C1310.87 236.623 1311.58 236.596 1312.26 236.544C1313.92 237.765 1317.36 238.618 1321.35 238.618C1321.74 238.618 1322.12 238.609 1322.5 238.592C1322.96 240.596 1324.83 242.099 1327.08 242.099C1327.59 242.099 1328.08 242.02 1328.54 241.87C1330.15 243.962 1332.74 245.325 1335.67 245.325C1337.14 245.325 1338.52 244.982 1339.74 244.375C1341.05 245.58 1342.83 246.318 1344.78 246.318C1346.73 246.318 1348.56 245.562 1349.88 244.331C1352.17 247.056 1355.68 248.797 1359.63 248.797C1362.88 248.797 1365.82 247.61 1368.04 245.676C1369.07 247.812 1371.33 249.298 1373.95 249.298C1376.3 249.298 1378.34 248.111 1379.49 246.336C1381.37 247.417 1383.57 248.05 1385.93 248.05C1388.83 248.05 1391.49 247.1 1393.62 245.518C1394.81 246.766 1396.52 247.557 1398.43 247.557C1400.34 247.557 1401.99 246.793 1403.17 245.588C1404.98 248.261 1408.12 250.036 1411.71 250.036C1414.54 250.036 1417.1 248.929 1418.94 247.153C1422.33 249.685 1427.28 251.284 1432.81 251.284C1439.61 251.284 1445.55 248.867 1448.76 245.263C1450.72 248.348 1454.27 250.414 1458.33 250.414C1459.68 250.414 1460.97 250.177 1462.17 249.755C1463.66 252.084 1466.33 253.64 1469.4 253.64C1472.47 253.64 1475.1 252.102 1476.59 249.808C1479.94 252.137 1484.07 253.517 1488.54 253.517C1495.52 253.517 1501.68 250.159 1505.33 245.043C1507.56 247.276 1510.7 248.674 1514.19 248.674C1517.68 248.674 1521.09 247.153 1523.33 244.745C1524.13 245.026 1525 245.193 1525.91 245.193C1526.95 245.193 1527.94 244.982 1528.84 244.613C1531.27 245.29 1534.06 245.685 1537.04 245.685C1545.53 245.685 1552.53 242.538 1553.61 238.46C1553.75 238.469 1553.89 238.477 1554.03 238.477C1556.02 238.477 1557.77 237.528 1558.83 236.087C1559.65 236.5 1560.59 236.737 1561.58 236.737C1564.49 236.737 1566.9 234.706 1567.36 232.052C1574.69 231.709 1580.14 230.435 1580.14 228.914L1580.11 228.949Z" fill="url(#paint6_linear_389_29385)"/>
<path style="mix-blend-mode:screen" opacity="0.7" d="M994.64 285.448C992.26 285.198 989.71 285.068 987.18 285.048C987.07 283.708 986.32 282.448 985.05 281.758C983.06 280.688 980.58 281.428 979.51 283.418C979.03 276.548 959.97 272.578 956.7 279.018C956.37 276.548 954.92 274.258 952.56 272.978C948.64 270.868 943.76 272.328 941.64 276.238C941.58 276.338 941.56 276.458 941.51 276.558C940.32 276.278 939.11 276.098 937.89 275.998C938.28 273.768 937.26 271.438 935.15 270.298C932.64 268.948 929.54 269.798 928.03 272.168C927.2 271.488 926.29 270.868 925.31 270.338C922.87 269.018 920.26 268.378 917.67 268.298C916.27 264.528 913.56 261.228 909.74 259.168C903.05 255.558 895.04 256.848 889.79 261.798C889.77 258.528 888.06 255.358 884.97 253.688C881.99 252.078 878.53 252.308 875.82 253.928C875.12 249.518 872.46 245.478 868.23 243.188C862.71 240.208 856.13 241.098 851.61 244.918C850.35 242.368 848.32 240.158 845.62 238.708C838.7 234.978 830.05 237.558 826.31 244.478C826.15 244.768 826.03 245.058 825.89 245.358C824.66 244.178 823.26 243.128 821.69 242.278C812.2 237.158 800.34 240.698 795.22 250.188C794.29 251.918 793.65 253.718 793.28 255.548C788.03 255.478 782.93 258.238 780.26 263.178C779.51 264.568 779.02 266.028 778.75 267.508C775.66 266.848 772.47 267.778 770.21 269.978C769.61 269.488 768.96 269.038 768.26 268.658C762.48 265.538 755.31 267.548 751.95 273.108C751.77 272.968 751.58 272.828 751.37 272.718C749.19 271.538 746.47 272.358 745.29 274.538C744.79 275.478 744.67 276.508 744.85 277.478C744.27 277.618 743.71 277.798 743.16 278.028C742.77 277.178 742.12 276.438 741.23 275.958C739.05 274.788 736.33 275.598 735.16 277.778C734.69 278.648 734.55 279.608 734.68 280.518C733.93 280.688 733.21 280.928 732.53 281.268C730.64 280.868 728.63 281.718 727.67 283.508C727.57 283.698 727.5 283.888 727.43 284.088C726.87 283.968 726.29 283.878 725.67 283.878C723.49 283.878 721.61 284.708 720.57 285.938C720.41 285.938 720.25 285.938 720.09 285.938C713.96 285.938 709 286.888 709 288.068C709 289.248 713.96 290.198 720.09 290.198C720.25 290.198 720.41 290.198 720.57 290.198C721.61 291.428 723.49 292.258 725.67 292.258C726.9 292.258 728.05 291.998 728.99 291.548C729.76 292.938 730.98 294.138 732.62 294.928C735.03 296.098 737.77 296.098 740.11 295.208C740.76 295.818 741.49 296.368 742.31 296.808C745.55 298.558 749.31 298.408 752.31 296.748C753.07 297.568 753.98 298.288 755.02 298.848C759.77 301.418 765.62 299.958 768.66 295.658C769.46 298.028 771.12 300.108 773.49 301.388C778.4 304.038 784.5 302.268 787.25 297.448C788.92 299.728 791.08 301.698 793.74 303.128C802.1 307.648 812.27 305.438 818.09 298.368C819.21 300.298 820.84 301.958 822.95 303.088C829.02 306.368 836.6 304.098 839.87 298.028C839.92 297.938 839.95 297.848 840 297.758C840.82 300.238 842.54 302.418 845.01 303.758C850.15 306.538 856.57 304.618 859.34 299.478C859.53 299.128 859.69 298.768 859.84 298.418C861.39 300.778 863.53 302.798 866.2 304.238C874.4 308.668 884.54 305.908 889.45 298.148C890.48 299.768 891.92 301.168 893.73 302.148C898.49 304.718 904.23 303.608 907.74 299.828C908.15 300.098 908.57 300.358 909 300.598C915.64 304.188 923.59 302.938 928.84 298.078C935.47 300.128 943.15 299.098 948.12 295.738C951.46 296.308 954.98 296.338 958.23 295.878C958.86 296.608 959.61 297.248 960.5 297.738C964.42 299.858 969.3 298.398 971.42 294.478C971.44 294.448 971.45 294.408 971.46 294.378C976.13 294.128 980.45 293.208 983.2 291.748C990.39 292.028 997.96 291.368 1001.62 290.028C1006.13 288.388 1003.01 286.328 994.66 285.448H994.64Z" fill="url(#paint7_linear_389_29385)"/>
<circle opacity="0.5" cx="1239" cy="531" r="5" fill="white"/>
<circle opacity="0.5" cx="294" cy="-4.58984" r="5" fill="white"/>
<g clip-path="url(#clip1_389_29385)">
<path d="M433.269 1068H103C103 1068 140.64 1061.24 146.713 1057.35C152.787 1053.46 146.713 1046.71 156.429 1024.04C166.144 1001.37 153.997 998.297 191.643 982.263C229.289 966.229 231.714 972.321 249.929 939.598C268.144 906.875 285.143 884.45 311.851 855.678C322.795 843.862 325.699 833.545 325.285 825.503C325.194 824.225 325.456 822.946 326.044 821.807C326.632 820.668 327.522 819.712 328.618 819.044C329.713 818.376 330.972 818.021 332.256 818.019C333.54 818.016 334.8 818.365 335.898 819.029C352.613 829.162 370.049 838.061 388.066 845.653C427.73 862.113 462.486 935.405 483.986 931.994C505.486 928.582 530.895 900.63 547.538 922.535C564.18 944.439 641 1067.14 641 1067.14L433.269 1068Z" fill="#83AEC8"/>
<path d="M305.994 929.802C302.671 935.461 298.935 940.867 294.814 945.976C291.779 949.762 288.304 953.174 284.462 956.141C278.312 960.588 270.544 962.983 263.668 966.089C259.468 967.92 255.388 970.012 251.451 972.353C249.678 973.398 247.994 974.586 246.415 975.904C245.778 976.476 245.103 977.079 244.505 977.715C244.218 978.013 243.034 979.443 243.321 979.049C242.754 979.815 242.268 980.636 241.869 981.501C241.99 981.285 241.455 982.886 241.385 983.254C241.385 983.311 241.385 983.356 241.353 983.4V983.686C241.353 984.112 241.353 984.525 241.353 984.957C241.353 985.027 241.353 985.078 241.353 985.128C241.367 985.174 241.377 985.221 241.385 985.268C241.455 985.637 241.544 986.005 241.646 986.367C242.537 989.486 245.065 992.453 247.803 995.032C255.519 988.915 264.91 985.903 274.594 983.934C283.118 982.2 292.42 981.253 300.06 976.857C307.7 972.461 311.38 964.717 312.45 956.293C314.022 943.886 312.914 931.416 311.775 918.958C310.062 922.63 308.082 926.264 305.994 929.802Z" fill="#7CA1B8"/>
<path d="M547.538 922.535C530.895 900.631 505.48 928.602 483.986 931.994C462.492 935.386 427.73 862.114 388.066 845.647C384.31 844.085 380.641 842.482 377.058 840.838C391.396 875.512 407.707 909.41 419.142 945.221C422.962 957.107 426.947 972.01 420.619 983.763C413.838 996.322 396.648 998.876 383.915 996.678C376.326 995.369 368.877 993.381 361.32 991.901C358.176 991.208 354.983 990.756 351.77 990.547C351.028 990.509 350.284 990.509 349.542 990.547H349.262L348.931 990.624L348.784 990.655C348.402 990.802 347.511 991.113 347.358 991.17C346.41 991.511 345.489 991.92 344.601 992.396C338.235 995.941 341.386 1002.75 343.328 1008.32C346.034 1016.14 347.422 1024 346.626 1032.32C346.059 1038.19 344.436 1044.3 339.686 1048.21C335.471 1051.67 330.066 1052.6 324.744 1052.79C313.704 1053.18 301.983 1050.71 291.994 1056.46C288.46 1058.5 286.805 1061.42 284.85 1064.92C284.271 1065.95 283.679 1066.98 283.061 1067.99H433.314L641.045 1067.13C641.045 1067.13 564.187 944.439 547.538 922.535Z" fill="#7CA1B8"/>
<path d="M263.14 917.331C264.095 916.309 265.05 915.299 266.018 914.295C275.842 904.124 288.148 892.206 303.059 890.936C310.699 890.269 317.46 893.604 323.388 898.14C331.346 904.232 337.744 912.021 343.946 919.822C350.147 927.623 356.679 935.037 363.103 942.692C369.336 950.118 373.009 958.51 371.691 968.293C371.398 970.517 370.991 972.74 370.896 975.002C370.851 975.615 370.851 976.231 370.896 976.844H370.94C371.314 977.096 371.713 977.309 372.131 977.479C372.029 977.435 373.105 977.835 373.404 977.924C374.961 978.404 376.548 978.784 378.153 979.061H378.281C379.244 979.222 380.233 979.108 381.134 978.733C382.036 978.357 382.812 977.735 383.374 976.938C383.937 976.142 384.262 975.203 384.312 974.229C384.363 973.256 384.137 972.288 383.661 971.438L383.61 971.343C380.574 965.825 378.425 959.865 377.243 953.682C375.969 947.452 375.856 941.041 376.912 934.77C377.969 928.773 380.325 923.106 382.642 917.503C385.532 910.451 384.838 902.345 385.411 894.874C385.972 887.594 386.685 878.243 392.669 873.135C398.966 867.767 408.121 870.08 414.781 873.402C422.663 877.335 429.494 883.357 436.096 889.087C437.223 890.065 438.363 891.114 439.522 892.187C424.012 873.345 406.6 853.334 388.111 845.666C370.094 838.072 352.658 829.174 335.943 819.042C334.848 818.379 333.592 818.029 332.312 818.029C331.032 818.029 329.777 818.379 328.682 819.041C327.587 819.703 326.695 820.652 326.103 821.785C325.511 822.917 325.241 824.19 325.323 825.464C325.756 833.52 322.885 843.856 311.89 855.697C291.599 877.455 276.956 895.605 263.14 917.331Z" fill="white"/>
<path d="M331.002 871.281C338.674 876.191 347.313 882.252 356.73 882.608C355.883 861.866 335.319 849.802 324.661 833.202C323.286 839.771 319.568 847.35 311.845 855.678C310.572 857.072 309.298 858.45 308.025 859.814C316.181 862.552 323.623 866.56 331.002 871.281Z" fill="#EAF5F5"/>
<path d="M170.41 1008.11C176.929 1006.37 183.907 1006.84 190.528 1007.62C198.111 1008.48 205.636 1009.87 213.245 1010.53C220.076 1011.11 227.455 1011.35 233.917 1008.7C239.787 1006.28 242.97 1002.08 244.225 995.991C245.619 989.226 245.231 982.047 244.651 975.212C244.015 967.969 242.9 960.81 241.57 953.676C241.455 953.771 241.347 953.873 241.232 953.962C229.658 970.816 222.419 969.138 191.636 982.244C161.197 995.204 163.317 999.701 160.102 1012.94C163.257 1010.79 166.737 1009.16 170.41 1008.11V1008.11Z" fill="white"/>
<path d="M201.683 981.577C209.622 983.045 217.217 986.259 225.284 987.091C231.377 987.727 238.215 986.952 240.195 980.173C241.697 975.053 240.914 969.05 240.71 963.802C240.596 960.956 240.456 958.085 240.328 955.264C229.753 970.06 222.285 969.59 195.482 980.675C197.564 980.885 199.633 981.196 201.683 981.577Z" fill="#EAF5F5"/>
</g>
<g clip-path="url(#clip2_389_29385)">
<path d="M415 1011.68L501.824 940.953L598.16 908.779L640.978 875.601H696.877L730.176 833.38C730.176 833.38 796.782 815.266 821.756 805.226C846.73 795.186 859.819 754.958 935.936 704.69C1012.05 654.422 994.217 678.556 1031.09 613.204C1067.95 547.852 1070.33 530.768 1090.54 529.758C1110.75 528.748 1116.71 548.862 1128.61 504.627C1135.22 479.835 1144.28 455.557 1155.71 432.05C1156.72 430.01 1158.5 428.312 1160.78 427.222C1174.2 420.798 1221.39 407.087 1242.7 517.705C1267.67 647.399 1331.45 665.771 1359.99 669.791C1388.54 673.811 1423.03 647.67 1452.76 687.906C1482.49 728.141 1490.82 748.228 1500.33 765.325C1509.85 782.422 1516.99 1017.02 1516.99 1017.02L415 1011.68Z" fill="#83AEC8"/>
<path d="M925.123 944.827L925.691 944.952C925.691 944.952 925.741 944.952 926.087 944.952C927.299 944.999 928.513 944.975 929.722 944.883C934.972 944.534 940.437 943.803 946.008 943.371C942.308 929.604 938.846 915.781 933.934 902.264C929.021 888.748 922.576 875.448 912.99 863.785C904.385 853.334 893.208 844.465 881.859 836.202C865.02 823.981 847.241 812.576 832.636 798.579C829.457 801.274 825.783 803.516 821.756 805.219C818.591 806.501 814.742 807.908 810.456 809.399L810.942 809.58C830.966 817.158 848.321 828.997 861.311 843.942C867.987 851.606 873.732 859.744 879.675 867.791C885.617 875.838 891.082 883.565 895.005 892.51C901.962 908.41 904.748 926.594 917.737 940.11C918.867 941.355 920.164 942.484 921.603 943.475C922.218 943.738 922.808 944.041 923.367 944.381C923.938 944.567 924.525 944.716 925.123 944.827Z" fill="#7CA1B8"/>
<path d="M1500.34 765.304C1490.83 748.206 1482.51 728.099 1452.77 687.885C1423.03 647.67 1388.54 673.811 1360 669.77C1331.46 665.729 1267.69 647.378 1242.71 517.684C1233.07 467.646 1218.14 443.051 1203.42 431.716C1203.32 439.965 1202.53 448.256 1200.13 456.101C1197.03 466.266 1190.75 475.553 1186.38 485.363C1182.96 493.027 1180.54 501.067 1182.82 508.808C1183.46 509.389 1183.93 510.095 1184.19 510.863C1184.68 512.256 1185.2 513.65 1185.73 515.043C1186.02 515.504 1186.23 516 1186.34 516.513C1187.93 520.436 1189.7 524.31 1191.62 528.128C1214.03 572.655 1259.92 626.985 1220.47 674.229C1206.72 690.706 1187.21 702.613 1168.94 715.203C1151.63 727.131 1133.31 740.577 1126.14 759.096C1122.25 769.15 1121.02 781.071 1125.15 791.145C1131.04 805.546 1144.11 817.488 1147.24 832.781C1150.31 847.726 1143.06 861.486 1133.16 873.497C1121.81 887.278 1110.27 901.038 1098.47 914.548C1073.29 943.406 1045.89 970.912 1023.47 1001.41C1020.24 1005.8 1016.96 1010.18 1013.69 1014.56L1516.96 1016.99C1516.96 1016.99 1509.86 782.429 1500.34 765.304Z" fill="#7CA1B8"/>
<path d="M1391.7 725.856C1401.59 749.997 1400.98 776.061 1398.84 801.206C1398.38 806.584 1398.25 812.13 1396.89 817.418C1395.61 821.832 1393.81 826.125 1391.51 830.231C1386.79 839.198 1380.72 847.6 1375.62 856.407C1371.64 863.283 1367.38 871.254 1368.52 879.113C1368.84 881.245 1369.39 883.725 1370.73 885.585C1372.75 884.207 1374.61 882.677 1376.3 881.015C1383.19 873.156 1386.75 863.214 1391.57 854.421C1398.26 842.201 1405.47 830.168 1413 818.31C1419.26 808.486 1425.29 798.105 1433.17 789.111C1434.9 787.139 1436.73 785.397 1439.37 784.303C1442.34 783.07 1444.55 782.645 1447.17 781.461C1451.66 779.419 1456.16 777.51 1460.77 775.657C1464.21 774.376 1467.27 772.473 1469.75 770.083C1478.2 761.723 1480.59 748.952 1483.41 738.557C1483.68 737.554 1483.98 736.557 1484.24 735.561C1477.23 723.313 1467.68 708.145 1452.68 687.857C1427.05 653.202 1397.9 667.826 1372.05 669.958C1378.31 688.7 1384.14 707.469 1391.7 725.856Z" fill="white"/>
<path d="M1028.47 651.398C1031.88 650.088 1035.89 651.035 1037.06 654.352C1040.76 665.241 1040.5 676.326 1040.23 687.418C1040.22 687.629 1040.3 687.837 1040.46 688.001C1040.62 688.165 1040.84 688.275 1041.09 688.309C1041.34 688.344 1041.59 688.3 1041.8 688.187C1042.01 688.074 1042.17 687.9 1042.24 687.697V687.634C1045.97 677.511 1049.65 667.352 1054.6 657.577C1061.73 643.357 1072.86 629.709 1091.41 625.292C1105.59 621.913 1118.81 627.444 1128.55 636.007C1139.62 645.761 1147.28 658.065 1154.48 669.986C1158.6 676.87 1162.48 684.081 1166.95 690.887C1167.05 691.037 1167.2 691.157 1167.39 691.234C1167.57 691.311 1167.77 691.34 1167.97 691.319C1168.18 691.297 1168.37 691.225 1168.52 691.113C1168.67 691 1168.78 690.851 1168.84 690.685C1174.26 673.052 1175.31 654.456 1180.76 636.829C1181.22 635.592 1182.12 634.509 1183.35 633.738C1184.58 632.968 1186.07 632.549 1187.61 632.544C1209.4 633.171 1225.1 646.005 1244.04 653.348C1248.66 655.132 1253.8 656.679 1258.88 657.013C1264.79 657.403 1270.74 657.013 1276.62 656.539C1286.51 655.773 1296.4 654.916 1306.24 655.752C1307.18 655.833 1308.14 655.661 1308.96 655.26C1309.78 654.858 1310.44 654.248 1310.83 653.516V653.46C1311.22 652.721 1311.33 651.896 1311.12 651.104C1310.92 650.312 1310.43 649.595 1309.72 649.057C1283.92 629.549 1256.96 591.793 1242.69 517.67C1221.65 408.438 1175.37 420.436 1161.29 426.943C1158.72 428.128 1156.7 430.014 1155.56 432.294C1144.2 455.716 1135.19 479.9 1128.6 504.592C1116.71 548.827 1110.75 528.72 1090.54 529.723C1070.32 530.726 1067.94 547.838 1031.07 613.169C1016.65 638.787 1010.59 650.652 1004 658.643C1003.87 658.797 1003.8 658.982 1003.81 659.171C1003.82 659.36 1003.9 659.542 1004.04 659.689C1004.18 659.835 1004.37 659.94 1004.59 659.985C1004.8 660.03 1005.03 660.014 1005.24 659.939C1013.07 657.173 1020.78 654.345 1028.47 651.398Z" fill="white"/>
<path d="M1138.05 535.415C1150.21 543.776 1161.69 552.75 1173.62 561.298C1179.55 565.555 1183.95 568.628 1189.67 572.042C1192.15 573.512 1194.62 574.919 1197.27 576.222C1198.46 576.807 1199.68 577.365 1200.92 577.88C1201.43 578.089 1201.94 578.291 1202.46 578.486L1203.15 578.723C1204.27 579.076 1205.4 579.379 1206.55 579.629C1207.03 579.727 1207.52 579.796 1208.01 579.88H1208.17C1208.68 579.88 1209.25 579.88 1209.76 579.88C1210.66 579.636 1212.3 579.009 1210.73 579.768C1211.15 579.559 1211.6 579.357 1212.03 579.155C1212.31 578.883 1212.66 578.591 1212.97 578.34L1213.02 578.298C1213.05 578.257 1213.07 578.218 1213.1 578.18C1213.4 577.727 1213.72 577.267 1214.03 576.786L1214.26 576.466C1214.26 576.466 1214.26 576.466 1214.26 576.41C1214.68 575.386 1215.09 574.362 1215.42 573.31C1216.6 569.262 1216.78 566.893 1216.57 562.009C1216.26 554.61 1214 547.378 1211.07 540.411C1205.04 526.065 1195.74 512.877 1187.09 499.59C1177.87 485.44 1170.81 470.746 1166.48 455C1164.01 445.838 1162.24 436.558 1160.71 427.25L1160.65 427.285C1158.4 428.372 1156.64 430.057 1155.64 432.078C1144.22 455.586 1135.15 479.864 1128.54 504.655C1126.01 514.047 1123.76 520.526 1121.58 524.937C1127.27 528.193 1132.77 531.691 1138.05 535.415V535.415Z" fill="#EAF5F5"/>
<path d="M1006.89 655.084C1019.36 641.191 1032.44 627.675 1046.4 614.862C1056.79 605.359 1066.83 595.354 1071.22 582.709C1075.21 571.227 1074.27 559.536 1074.77 547.747C1074.87 543.591 1075.39 539.449 1076.32 535.367C1066.13 544.556 1057.36 566.614 1031.09 613.204C1018.19 636.077 1011.98 647.984 1006.1 655.961L1006.89 655.084Z" fill="#EAF5F5"/>
<path d="M492.403 977.51C500.741 977.006 509.12 977.328 517.369 978.472C525.315 979.617 533.471 979.131 541.148 977.054C548.825 974.977 555.799 971.37 561.482 966.537C567.274 961.476 573.831 957.084 580.983 953.473C590.264 948.952 601.168 946.123 611.875 947.712C621.766 949.182 630.997 953.648 639.709 957.682C647.193 961.165 654.743 964.976 663.101 966.739C669.373 968.063 675.415 967.387 679.684 963.046C679.544 963.151 680.83 961.611 681.011 961.353C681.464 960.719 681.885 960.071 682.289 959.409C682.692 958.748 683.764 956.783 683.698 956.915C684.827 954.686 685.833 952.428 686.921 950.192C690.433 942.854 696.635 936.662 704.617 932.523C714.508 927.493 724.72 926.706 735.575 925.605C743.57 924.797 750.51 922.212 757.326 918.422C758.027 918.031 758.736 917.627 759.412 917.202C759.593 917.077 759.857 916.896 759.98 916.798C760.541 916.359 761.068 915.913 761.588 915.44L761.695 915.293V915.182C761.69 915.105 761.69 915.029 761.695 914.952C761.695 914.868 761.629 914.764 761.588 914.645C761.34 913.893 761.118 913.14 760.862 912.395C760.203 910.549 759.486 908.716 758.917 906.821C757.086 900.745 756.437 894.457 756.997 888.205C757.615 881.112 758.406 874.208 761.802 867.631C767.341 856.922 778.616 850.331 791.284 846.493C804.406 842.507 818.533 841.33 832.24 839.581H832.537C843.73 838.153 845.725 825.229 835.356 821.383C826.092 817.955 816.671 814.694 808.156 810.235C778.393 820.338 730.143 833.45 730.143 833.45L696.844 875.671H640.978L598.16 908.849L501.824 940.953L449.832 983.307C463.827 980.388 478.045 978.207 492.403 977.51Z" fill="white"/>
<path d="M725.709 885.348C732.303 869.268 734.371 852.185 737.454 835.429C737.71 834.035 737.965 832.6 738.229 831.158C733.217 832.551 730.176 833.38 730.176 833.38L699.746 871.964C708.169 876.765 716.568 881.6 725.709 885.348Z" fill="#EAF5F5"/>
<path d="M607.21 916.506C610.268 917.899 613.729 919.125 617.274 918.596C622.26 917.857 626.167 914.206 629.184 911.05C639.116 900.669 643.954 887.829 650.111 875.594H640.978L598.16 908.772L594.673 909.928C598.778 912.2 602.841 914.513 607.21 916.506Z" fill="#EAF5F5"/>
<path d="M980.37 879.496C980.37 879.496 995.206 876.012 1023.23 901.61C1051.25 927.207 1054.81 919.773 1090.35 940.542C1125.88 961.311 1170.18 995.416 1148.25 997.673C1126.32 999.93 1135.52 977.524 1109.64 983.335C1083.76 989.145 1080.57 989.257 1055.19 965.283C1029.82 941.309 982.48 922.003 983.395 908.284C984.31 894.566 980.37 879.496 980.37 879.496Z" fill="#7CA1B8"/>
<path d="M1045.67 942.772C1041.7 939.985 1037.53 937.386 1033.79 934.411C1029.26 930.788 1025.6 926.246 1022.45 921.724C1015.57 911.852 1011.25 900.823 1003.61 891.326C998.841 885.397 990.014 876.556 980.37 879.517C972.054 882.074 965.814 889.48 960.333 894.963C952.795 902.372 944.756 909.407 936.258 916.032C919.551 929.27 902.126 943.329 892.73 961.242C902.085 960.921 911.251 956.448 920.853 958.141C931.016 959.939 939.208 966.23 949.503 967.728C960.737 969.366 972.82 964.941 983.436 962.419C994.679 959.751 1006.25 958.079 1017.72 960.782C1018.74 961.006 1019.67 961.464 1020.4 962.106C1027.82 963.994 1035.49 965.652 1043.25 966.098C1047.37 966.335 1051.44 966.377 1055.23 965.276C1057.86 964.516 1059.5 963.339 1060.06 960.824C1061.75 953.167 1051.81 947.029 1045.67 942.772Z" fill="white"/>
<path d="M1001.18 891.18C999.336 896.935 995.231 901.847 991.201 906.64C984.895 914.13 977.518 923.96 986.181 932.453C994.844 940.946 1011.06 943.475 1023.27 946.025C1035.02 948.478 1048 950.206 1059.08 954.79C1056.48 949.913 1050.06 945.844 1045.66 942.772C1041.68 939.985 1037.51 937.386 1033.77 934.411C1029.25 930.788 1025.58 926.246 1022.43 921.724C1015.56 911.851 1011.24 900.822 1003.6 891.326C1003.02 890.629 1002.39 889.863 1001.71 889.097C1001.58 889.772 1001.4 890.476 1001.18 891.18Z" fill="#EAF5F5"/>
<path d="M1167.15 433.266C1166.77 427.545 1177.16 427.386 1182.41 428.022C1228.64 431.835 1204.81 453.765 1185.27 445.184C1165.72 436.603 1167.63 440.417 1167.15 433.266Z" fill="#EAF5F5"/>
</g>
<g clip-path="url(#clip3_389_29385)">
<path d="M796.146 823.601C787.657 825.935 780.663 825.426 778.227 824.879C777.345 825.977 775.106 828.672 773.211 830.672C770.843 833.172 775.005 836.489 788.504 834.45C802.002 832.412 797.283 830.682 805.983 828.353C814.683 826.025 812.154 822.912 812.133 821.149C812.113 819.386 806.758 820.683 796.146 823.601Z" fill="#EAF5F5"/>
<path d="M776.525 791.998V755.642C776.525 755.642 790.226 766.085 801.525 766.499C812.825 766.913 818.248 766.499 818.248 766.499C818.248 766.499 809.473 769.173 813.23 773.09L816.996 776.979C816.996 776.979 781.233 781.122 776.525 791.998Z" fill="#76CE8B"/>
<path d="M783.41 777.08C782.983 777.08 782.77 776.86 782.77 776.42V770.6C782.77 770.167 782.987 769.95 783.42 769.95H785.83C786.603 769.95 787.2 770.137 787.62 770.51C788.04 770.877 788.25 771.393 788.25 772.06C788.25 772.587 788.113 773.023 787.84 773.37C787.567 773.71 787.173 773.94 786.66 774.06C787 774.167 787.28 774.423 787.5 774.83L788.25 776.22C788.363 776.433 788.383 776.63 788.31 776.81C788.243 776.99 788.073 777.08 787.8 777.08C787.62 777.08 787.473 777.043 787.36 776.97C787.247 776.89 787.147 776.77 787.06 776.61L786.05 774.75C785.93 774.523 785.787 774.373 785.62 774.3C785.46 774.22 785.253 774.18 785 774.18H784.05V776.42C784.05 776.86 783.837 777.08 783.41 777.08ZM784.05 773.23H785.61C786.543 773.23 787.01 772.85 787.01 772.09C787.01 771.337 786.543 770.96 785.61 770.96H784.05V773.23ZM791.715 777.1C791.355 777.1 790.982 777.053 790.595 776.96C790.209 776.867 789.872 776.727 789.585 776.54C789.419 776.427 789.319 776.3 789.285 776.16C789.252 776.013 789.269 775.883 789.335 775.77C789.402 775.65 789.502 775.57 789.635 775.53C789.775 775.49 789.932 775.517 790.105 775.61C790.379 775.757 790.642 775.863 790.895 775.93C791.149 775.99 791.409 776.02 791.675 776.02C792.575 776.02 793.025 775.667 793.025 774.96C793.025 774.627 792.912 774.38 792.685 774.22C792.465 774.053 792.142 773.97 791.715 773.97H791.075C790.889 773.97 790.745 773.923 790.645 773.83C790.552 773.737 790.505 773.607 790.505 773.44C790.505 773.273 790.552 773.143 790.645 773.05C790.745 772.957 790.889 772.91 791.075 772.91H791.595C791.969 772.91 792.265 772.82 792.485 772.64C792.705 772.453 792.815 772.197 792.815 771.87C792.815 771.563 792.712 771.33 792.505 771.17C792.305 771.01 792.012 770.93 791.625 770.93C791.379 770.93 791.145 770.96 790.925 771.02C790.712 771.073 790.475 771.177 790.215 771.33C790.062 771.423 789.922 771.45 789.795 771.41C789.669 771.363 789.569 771.283 789.495 771.17C789.429 771.05 789.409 770.92 789.435 770.78C789.462 770.64 789.555 770.52 789.715 770.42C790.302 770.04 790.975 769.85 791.735 769.85C792.469 769.85 793.039 770.017 793.445 770.35C793.852 770.677 794.055 771.133 794.055 771.72C794.055 772.1 793.959 772.433 793.765 772.72C793.572 773.007 793.309 773.213 792.975 773.34C793.382 773.453 793.699 773.663 793.925 773.97C794.152 774.27 794.265 774.637 794.265 775.07C794.265 775.697 794.039 776.193 793.585 776.56C793.132 776.92 792.509 777.1 791.715 777.1Z" fill="white"/>
<path d="M776.526 755.642C776.526 755.642 773.089 818.166 776.526 835.68V755.642Z" fill="#3D332C"/>
</g>
<path d="M900.575 750.483C892.575 749.283 888.909 749.983 888.075 750.483C881.575 763.983 891.575 760.483 901.075 759.983C910.575 759.483 929.075 755.483 934.075 750.483C939.075 745.483 933.575 742.983 924.575 746.983C915.575 750.983 910.575 751.983 900.575 750.483Z" fill="#7CA1B8"/>
<g clip-path="url(#clip4_389_29385)">
<path d="M890.525 715.998V679.642C890.525 679.642 904.226 690.085 915.525 690.499C926.825 690.913 932.248 690.499 932.248 690.499C932.248 690.499 923.473 693.173 927.23 697.09L930.996 700.979C930.996 700.979 895.233 705.122 890.525 715.998Z" fill="#76CE8B"/>
<path d="M897.41 701.08C896.983 701.08 896.77 700.86 896.77 700.42V694.6C896.77 694.167 896.987 693.95 897.42 693.95H899.83C900.603 693.95 901.2 694.137 901.62 694.51C902.04 694.877 902.25 695.393 902.25 696.06C902.25 696.587 902.113 697.023 901.84 697.37C901.567 697.71 901.173 697.94 900.66 698.06C901 698.167 901.28 698.423 901.5 698.83L902.25 700.22C902.363 700.433 902.383 700.63 902.31 700.81C902.243 700.99 902.073 701.08 901.8 701.08C901.62 701.08 901.473 701.043 901.36 700.97C901.247 700.89 901.147 700.77 901.06 700.61L900.05 698.75C899.93 698.523 899.787 698.373 899.62 698.3C899.46 698.22 899.253 698.18 899 698.18H898.05V700.42C898.05 700.86 897.837 701.08 897.41 701.08ZM898.05 697.23H899.61C900.543 697.23 901.01 696.85 901.01 696.09C901.01 695.337 900.543 694.96 899.61 694.96H898.05V697.23ZM906.985 701.08C906.785 701.08 906.629 701.027 906.515 700.92C906.402 700.807 906.345 700.647 906.345 700.44V699.66H903.875C903.669 699.66 903.502 699.617 903.375 699.53C903.255 699.443 903.195 699.31 903.195 699.13C903.195 699.017 903.222 698.897 903.275 698.77C903.335 698.643 903.439 698.477 903.585 698.27L906.325 694.3C906.419 694.16 906.522 694.053 906.635 693.98C906.749 693.907 906.879 693.87 907.025 693.87C907.199 693.87 907.342 693.923 907.455 694.03C907.569 694.13 907.625 694.29 907.625 694.51V698.6H908.115C908.502 698.6 908.695 698.777 908.695 699.13C908.695 699.483 908.502 699.66 908.115 699.66H907.625V700.44C907.625 700.647 907.569 700.807 907.455 700.92C907.342 701.027 907.185 701.08 906.985 701.08ZM906.345 698.6V695.91L904.505 698.6H906.345Z" fill="white"/>
<path d="M890.526 679.642C890.526 679.642 887.089 742.166 890.526 759.68V679.642Z" fill="#3D332C"/>
</g>
<path d="M994.599 682.339C986.972 681.195 983.477 681.862 982.683 682.339C976.486 695.211 986.019 691.873 995.075 691.397C1004.13 690.92 1021.77 687.106 1026.53 682.339C1031.3 677.572 1026.06 675.188 1017.48 679.002C1008.9 682.816 1004.13 683.769 994.599 682.339Z" fill="#7CA1B8"/>
<g clip-path="url(#clip5_389_29385)">
<path d="M982.525 645.998V609.642C982.525 609.642 996.226 620.085 1007.53 620.499C1018.82 620.913 1024.25 620.499 1024.25 620.499C1024.25 620.499 1015.47 623.173 1019.23 627.09L1023 630.979C1023 630.979 987.233 635.122 982.525 645.998Z" fill="#76CE8B"/>
<path d="M989.41 631.08C988.983 631.08 988.77 630.86 988.77 630.42V624.6C988.77 624.167 988.987 623.95 989.42 623.95H991.83C992.603 623.95 993.2 624.137 993.62 624.51C994.04 624.877 994.25 625.393 994.25 626.06C994.25 626.587 994.113 627.023 993.84 627.37C993.567 627.71 993.173 627.94 992.66 628.06C993 628.167 993.28 628.423 993.5 628.83L994.25 630.22C994.363 630.433 994.383 630.63 994.31 630.81C994.243 630.99 994.073 631.08 993.8 631.08C993.62 631.08 993.473 631.043 993.36 630.97C993.247 630.89 993.147 630.77 993.06 630.61L992.05 628.75C991.93 628.523 991.787 628.373 991.62 628.3C991.46 628.22 991.253 628.18 991 628.18H990.05V630.42C990.05 630.86 989.837 631.08 989.41 631.08ZM990.05 627.23H991.61C992.543 627.23 993.01 626.85 993.01 626.09C993.01 625.337 992.543 624.96 991.61 624.96H990.05V627.23ZM997.915 631.1C997.562 631.1 997.202 631.053 996.835 630.96C996.469 630.867 996.132 630.723 995.825 630.53C995.665 630.43 995.569 630.31 995.535 630.17C995.509 630.023 995.529 629.89 995.595 629.77C995.662 629.643 995.759 629.56 995.885 629.52C996.019 629.473 996.169 629.497 996.335 629.59C996.582 629.73 996.832 629.837 997.085 629.91C997.339 629.983 997.609 630.02 997.895 630.02C998.315 630.02 998.642 629.913 998.875 629.7C999.115 629.48 999.235 629.187 999.235 628.82C999.235 628.447 999.122 628.147 998.895 627.92C998.669 627.687 998.359 627.57 997.965 627.57C997.752 627.57 997.545 627.607 997.345 627.68C997.145 627.747 996.949 627.867 996.755 628.04C996.695 628.093 996.619 628.147 996.525 628.2C996.432 628.247 996.332 628.27 996.225 628.27C995.885 628.27 995.715 628.107 995.715 627.78V624.51C995.715 624.137 995.902 623.95 996.275 623.95H999.565C999.939 623.95 1000.13 624.127 1000.13 624.48C1000.13 624.833 999.939 625.01 999.565 625.01H996.965V626.92C997.319 626.653 997.752 626.52 998.265 626.52C998.712 626.52 999.099 626.617 999.425 626.81C999.759 626.997 1000.02 627.26 1000.2 627.6C1000.38 627.933 1000.48 628.323 1000.48 628.77C1000.48 629.23 1000.37 629.637 1000.17 629.99C999.959 630.337 999.662 630.61 999.275 630.81C998.895 631.003 998.442 631.1 997.915 631.1Z" fill="white"/>
<path d="M982.526 609.642C982.526 609.642 979.089 672.166 982.526 689.68V609.642Z" fill="#3D332C"/>
</g>
<path d="M524.011 940.677C519.435 939.915 508.759 942.902 503.992 944.491C502.086 949.258 505.899 948.782 508.759 946.875C511.618 944.968 517.815 946.398 526.394 945.921C533.258 945.54 537.198 939.088 538.311 935.91C535.451 937.817 528.587 941.44 524.011 940.677Z" fill="#EAF5F5"/>
<g clip-path="url(#clip6_389_29385)">
<path d="M505.525 903.356V867C505.525 867 519.226 877.443 530.525 877.857C541.825 878.271 547.248 877.857 547.248 877.857C547.248 877.857 538.473 880.531 542.23 884.448L545.996 888.337C545.996 888.337 510.233 892.48 505.525 903.356Z" fill="#76CE8B"/>
<path d="M505.526 867C505.526 867 502.089 929.524 505.526 947.038V867Z" fill="#3D332C"/>
<path d="M512.41 888.08C511.983 888.08 511.77 887.86 511.77 887.42V881.6C511.77 881.167 511.987 880.95 512.42 880.95H514.83C515.603 880.95 516.2 881.137 516.62 881.51C517.04 881.877 517.25 882.393 517.25 883.06C517.25 883.587 517.113 884.023 516.84 884.37C516.567 884.71 516.173 884.94 515.66 885.06C516 885.167 516.28 885.423 516.5 885.83L517.25 887.22C517.363 887.433 517.383 887.63 517.31 887.81C517.243 887.99 517.073 888.08 516.8 888.08C516.62 888.08 516.473 888.043 516.36 887.97C516.247 887.89 516.147 887.77 516.06 887.61L515.05 885.75C514.93 885.523 514.787 885.373 514.62 885.3C514.46 885.22 514.253 885.18 514 885.18H513.05V887.42C513.05 887.86 512.837 888.08 512.41 888.08ZM513.05 884.23H514.61C515.543 884.23 516.01 883.85 516.01 883.09C516.01 882.337 515.543 881.96 514.61 881.96H513.05V884.23ZM519.415 888C519.049 888 518.865 887.82 518.865 887.46C518.865 887.113 519.049 886.94 519.415 886.94H520.535V882.41L519.685 882.92C519.525 883.013 519.379 883.037 519.245 882.99C519.119 882.943 519.022 882.86 518.955 882.74C518.889 882.62 518.869 882.49 518.895 882.35C518.922 882.203 519.015 882.083 519.175 881.99L520.555 881.16C520.689 881.08 520.822 881.013 520.955 880.96C521.089 880.9 521.212 880.87 521.325 880.87C521.465 880.87 521.582 880.91 521.675 880.99C521.769 881.063 521.815 881.187 521.815 881.36V886.94H522.835C523.202 886.94 523.385 887.113 523.385 887.46C523.385 887.82 523.202 888 522.835 888H519.415Z" fill="white"/>
</g>
<g clip-path="url(#clip7_389_29385)">
<path d="M718.427 873.553H750.564L740.947 861.508C740.947 861.508 747.882 861.68 747.202 861.508C746.522 861.337 729.789 816.406 729.789 816.406L723.768 842.939L727.114 845.766L723.768 848.522L718.427 873.553Z" fill="#3F7563"/>
<path d="M735.332 887.84H693.836L706.253 872.268C706.253 872.268 697.292 872.502 698.16 872.268C699.028 872.035 720.632 814.031 720.632 814.031L728.452 848.288L724.128 851.932L728.452 855.49L735.332 887.84Z" fill="#57917F"/>
<path d="M587.119 1000.69H541.768L548.023 993.055L539.023 984.024C539.023 984.024 553.098 979.991 545.193 968.741C537.288 957.49 555.999 909.133 555.999 909.133L565.601 951.285L559.76 954.905L572.99 964.918L563.24 978.932L587.119 1000.69Z" fill="#3F7563"/>
<path d="M967.86 1025H922.509L928.764 1017.37L919.756 1008.34C919.756 1008.34 933.831 1004.31 925.926 993.055C918.02 981.805 936.732 933.44 936.732 933.44L946.334 975.592L940.493 979.22L953.707 989.24L943.957 1003.25L967.86 1025Z" fill="#3F7563"/>
<path d="M1053.2 997.486C1053.2 997.486 1134.73 963.229 1215.71 930.342C1296.68 897.455 1450 953.831 1450 953.831L1448.74 998.498L1053.2 997.486Z" fill="#3F7563"/>
<path d="M1084.26 995.329C1100.79 995.259 1116.25 992.37 1130.15 983.097C1144.04 973.825 1155.05 959.616 1170.69 953.263C1182.91 948.295 1196.16 950.678 1208.94 949.105C1213.23 948.576 1217.61 947.914 1221.45 945.882C1224.66 944.2 1227.54 941.989 1230.49 939.879C1236.52 935.605 1242.56 932.802 1250.11 934.157C1258.09 935.581 1264.97 940.385 1272.79 942.378C1281.06 944.527 1289.77 941.646 1297.64 939.116C1304.79 936.78 1312.04 934.733 1319.65 935.527C1327.47 936.305 1335 939.124 1342.66 940.813C1349.3 942.285 1355.95 942.37 1362.74 941.997C1372.42 941.337 1382.15 941.621 1391.78 942.845C1409.49 945.313 1426.05 951.744 1443.1 956.751C1445.32 957.396 1447.58 957.898 1449.87 958.253L1449.98 953.831C1449.98 953.831 1296.67 897.463 1215.69 930.342C1134.71 963.221 1053.18 997.485 1053.18 997.485L1080.98 997.555C1081.21 996.883 1081.66 996.303 1082.25 995.902C1082.84 995.501 1083.54 995.3 1084.26 995.329V995.329Z" fill="white"/>
<path d="M1377.86 972.703C1373.82 970.181 1368.48 970.368 1363.63 969.706C1363.2 969.772 1362.77 969.772 1362.35 969.706C1356.25 968.733 1349.84 970.321 1343.81 970.905C1337.78 971.489 1331.77 971.131 1325.75 971.325C1318.78 971.559 1311.86 972.54 1305.7 975.997C1304.09 976.915 1300.53 978.675 1300.41 980.832C1300.32 982.49 1302.35 983.689 1303.54 984.39C1308.79 987.403 1315.67 988.002 1321.56 988.283C1328.65 988.656 1335.74 988.244 1342.81 988.026C1348.84 987.871 1354.87 988.04 1360.88 988.532C1366.94 989.007 1373.18 989.482 1379.11 987.917C1382.89 984.756 1381.82 975.172 1377.86 972.703Z" fill="white"/>
<path d="M1351.4 922.229L1341.2 920.625L1346.3 894.193L1351.4 891.592L1346.3 886.749L1352.97 869.722L1356.84 882.607L1354.7 887.956L1365.94 912.419L1351.4 922.229Z" fill="#57917F"/>
<path d="M1312.55 919.761H1290.41L1296.67 911.235L1292.25 905.256H1298.63L1299.41 890.619L1303.16 896.123L1307.49 859.663L1316.3 890.619C1316.3 890.619 1307.89 896.715 1308.72 896.123C1309.55 895.532 1319.67 896.123 1319.67 896.123L1323.89 919.761H1312.55Z" fill="#57917F"/>
<path d="M1335.1 934.577H1319.07L1321.46 918.92L1329.12 913.423L1323.38 910.94L1331.4 881.206L1340.91 918.92L1329.99 923.56H1340.91L1346.85 934.577" fill="#3F7563"/>
<path d="M1377.73 933.907H1359.5C1359.5 933.907 1370.82 922.711 1368.27 923.218C1365.72 923.724 1361.28 925.779 1361.73 923.218C1362.17 920.656 1375.44 876.784 1375.44 876.784L1387.07 920.648L1378.62 925.989L1391.96 933.931L1377.73 933.907Z" fill="#6CBC9F"/>
<path d="M669 881C659 881.4 650.5 881.834 647.5 882C640 889.5 686 885 687 883.5C688 882 689 882 690.5 881C692 880 681.5 880.5 669 881Z" fill="#EAF5F5"/>
</g>
<path d="M1108.45 542.988C1098.81 542.588 1091.65 538.83 1089.28 537C1088 538.164 1084.79 540.992 1082.16 542.988C1078.88 545.482 1082.16 551.969 1096.95 554.963C1111.73 557.957 1107.35 553.466 1117.21 553.965C1127.06 554.464 1125.42 548.975 1125.97 546.48C1126.51 543.986 1120.49 543.487 1108.45 542.988Z" fill="#EAF5F5"/>
<g clip-path="url(#clip8_389_29385)">
<path d="M1084.53 505.998V469.642C1084.53 469.642 1098.23 480.085 1109.53 480.499C1120.82 480.913 1126.25 480.499 1126.25 480.499C1126.25 480.499 1117.47 483.173 1121.23 487.09L1125 490.979C1125 490.979 1089.23 495.122 1084.53 505.998Z" fill="#76CE8B"/>
<path d="M1091.41 491.08C1090.98 491.08 1090.77 490.86 1090.77 490.42V484.6C1090.77 484.167 1090.99 483.95 1091.42 483.95H1093.83C1094.6 483.95 1095.2 484.137 1095.62 484.51C1096.04 484.877 1096.25 485.393 1096.25 486.06C1096.25 486.587 1096.11 487.023 1095.84 487.37C1095.57 487.71 1095.17 487.94 1094.66 488.06C1095 488.167 1095.28 488.423 1095.5 488.83L1096.25 490.22C1096.36 490.433 1096.38 490.63 1096.31 490.81C1096.24 490.99 1096.07 491.08 1095.8 491.08C1095.62 491.08 1095.47 491.043 1095.36 490.97C1095.25 490.89 1095.15 490.77 1095.06 490.61L1094.05 488.75C1093.93 488.523 1093.79 488.373 1093.62 488.3C1093.46 488.22 1093.25 488.18 1093 488.18H1092.05V490.42C1092.05 490.86 1091.84 491.08 1091.41 491.08ZM1092.05 487.23H1093.61C1094.54 487.23 1095.01 486.85 1095.01 486.09C1095.01 485.337 1094.54 484.96 1093.61 484.96H1092.05V487.23ZM1100.12 491.1C1099.24 491.1 1098.57 490.793 1098.09 490.18C1097.61 489.567 1097.38 488.707 1097.38 487.6C1097.38 486.407 1097.64 485.483 1098.18 484.83C1098.72 484.177 1099.46 483.85 1100.41 483.85C1100.7 483.85 1101 483.897 1101.3 483.99C1101.6 484.077 1101.89 484.21 1102.16 484.39C1102.29 484.477 1102.37 484.59 1102.39 484.73C1102.41 484.863 1102.39 484.993 1102.33 485.12C1102.27 485.24 1102.17 485.323 1102.05 485.37C1101.93 485.41 1101.79 485.383 1101.63 485.29C1101.4 485.157 1101.19 485.063 1100.99 485.01C1100.79 484.957 1100.59 484.93 1100.39 484.93C1099.81 484.93 1099.36 485.133 1099.06 485.54C1098.75 485.947 1098.6 486.553 1098.6 487.36V487.65C1098.74 487.283 1098.96 486.997 1099.28 486.79C1099.59 486.583 1099.95 486.48 1100.36 486.48C1100.76 486.48 1101.12 486.577 1101.44 486.77C1101.75 486.963 1102 487.23 1102.18 487.57C1102.36 487.91 1102.45 488.3 1102.45 488.74C1102.45 489.193 1102.35 489.6 1102.15 489.96C1101.95 490.313 1101.68 490.593 1101.33 490.8C1100.98 491 1100.58 491.1 1100.12 491.1ZM1100.05 490.08C1100.41 490.08 1100.7 489.963 1100.92 489.73C1101.14 489.49 1101.26 489.177 1101.26 488.79C1101.26 488.403 1101.14 488.09 1100.92 487.85C1100.7 487.61 1100.41 487.49 1100.05 487.49C1099.69 487.49 1099.39 487.61 1099.17 487.85C1098.95 488.09 1098.84 488.403 1098.84 488.79C1098.84 489.177 1098.95 489.49 1099.17 489.73C1099.39 489.963 1099.69 490.08 1100.05 490.08Z" fill="white"/>
<path d="M1084.53 469.642C1084.53 469.642 1081.09 532.166 1084.53 549.68V469.642Z" fill="#3D332C"/>
</g>
<path style="mix-blend-mode:screen" opacity="0.7" d="M1305.64 378.448C1303.26 378.198 1300.71 378.068 1298.18 378.048C1298.07 376.708 1297.32 375.448 1296.05 374.758C1294.06 373.688 1291.58 374.428 1290.51 376.418C1290.03 369.548 1270.97 365.578 1267.7 372.018C1267.37 369.548 1265.92 367.258 1263.56 365.978C1259.64 363.868 1254.76 365.328 1252.64 369.238C1252.58 369.338 1252.56 369.458 1252.51 369.558C1251.32 369.278 1250.11 369.098 1248.89 368.998C1249.28 366.768 1248.26 364.438 1246.15 363.298C1243.64 361.948 1240.54 362.798 1239.03 365.168C1238.2 364.488 1237.29 363.868 1236.31 363.338C1233.87 362.018 1231.26 361.378 1228.67 361.298C1227.27 357.528 1224.56 354.228 1220.74 352.168C1214.05 348.558 1206.04 349.848 1200.79 354.798C1200.77 351.528 1199.06 348.358 1195.97 346.688C1192.99 345.078 1189.53 345.308 1186.82 346.928C1186.12 342.518 1183.46 338.478 1179.23 336.188C1173.71 333.208 1167.13 334.098 1162.61 337.918C1161.35 335.368 1159.32 333.158 1156.62 331.708C1149.7 327.978 1141.05 330.558 1137.31 337.478C1137.15 337.768 1137.03 338.058 1136.89 338.358C1135.66 337.178 1134.26 336.128 1132.69 335.278C1123.2 330.158 1111.34 333.698 1106.22 343.188C1105.29 344.918 1104.65 346.718 1104.28 348.548C1099.03 348.478 1093.93 351.238 1091.26 356.178C1090.51 357.568 1090.02 359.028 1089.75 360.508C1086.66 359.848 1083.47 360.778 1081.21 362.978C1080.61 362.488 1079.96 362.038 1079.26 361.658C1073.48 358.538 1066.31 360.548 1062.95 366.108C1062.77 365.968 1062.58 365.828 1062.37 365.718C1060.19 364.538 1057.47 365.358 1056.29 367.538C1055.79 368.478 1055.67 369.508 1055.85 370.478C1055.27 370.618 1054.71 370.798 1054.16 371.028C1053.77 370.178 1053.12 369.438 1052.23 368.958C1050.05 367.788 1047.33 368.598 1046.16 370.778C1045.69 371.648 1045.55 372.608 1045.68 373.518C1044.93 373.688 1044.21 373.928 1043.53 374.268C1041.64 373.868 1039.63 374.718 1038.67 376.508C1038.57 376.698 1038.5 376.888 1038.43 377.088C1037.87 376.968 1037.29 376.878 1036.67 376.878C1034.49 376.878 1032.61 377.708 1031.57 378.938C1031.41 378.938 1031.25 378.938 1031.09 378.938C1024.96 378.938 1020 379.888 1020 381.068C1020 382.248 1024.96 383.198 1031.09 383.198C1031.25 383.198 1031.41 383.198 1031.57 383.198C1032.61 384.428 1034.49 385.258 1036.67 385.258C1037.9 385.258 1039.05 384.998 1039.99 384.548C1040.76 385.938 1041.98 387.138 1043.62 387.928C1046.03 389.098 1048.77 389.098 1051.11 388.208C1051.76 388.818 1052.49 389.368 1053.31 389.808C1056.55 391.558 1060.31 391.408 1063.31 389.748C1064.07 390.568 1064.98 391.288 1066.02 391.848C1070.77 394.418 1076.62 392.958 1079.66 388.658C1080.46 391.028 1082.12 393.108 1084.49 394.388C1089.4 397.038 1095.5 395.268 1098.25 390.448C1099.92 392.728 1102.08 394.698 1104.74 396.128C1113.1 400.648 1123.27 398.438 1129.09 391.368C1130.21 393.298 1131.84 394.958 1133.95 396.088C1140.02 399.368 1147.6 397.098 1150.87 391.028C1150.92 390.938 1150.95 390.848 1151 390.758C1151.82 393.238 1153.54 395.418 1156.01 396.758C1161.15 399.538 1167.57 397.618 1170.34 392.478C1170.53 392.128 1170.69 391.768 1170.84 391.418C1172.39 393.778 1174.53 395.798 1177.2 397.238C1185.4 401.668 1195.54 398.908 1200.45 391.148C1201.48 392.768 1202.92 394.168 1204.73 395.148C1209.49 397.718 1215.23 396.608 1218.74 392.828C1219.15 393.098 1219.57 393.358 1220 393.598C1226.64 397.188 1234.59 395.938 1239.84 391.078C1246.47 393.128 1254.15 392.098 1259.12 388.738C1262.46 389.308 1265.98 389.338 1269.23 388.878C1269.86 389.608 1270.61 390.248 1271.5 390.738C1275.42 392.858 1280.3 391.398 1282.42 387.478C1282.44 387.448 1282.45 387.408 1282.46 387.378C1287.13 387.128 1291.45 386.208 1294.2 384.748C1301.39 385.028 1308.96 384.368 1312.62 383.028C1317.13 381.388 1314.01 379.328 1305.66 378.448H1305.64Z" fill="url(#paint8_linear_389_29385)"/>
<g clip-path="url(#clip9_389_29385)">
<path d="M648.525 842.356V806C648.525 806 662.226 816.443 673.525 816.857C684.825 817.271 690.248 816.857 690.248 816.857C690.248 816.857 681.473 819.531 685.23 823.448L688.996 827.337C688.996 827.337 653.233 831.48 648.525 842.356Z" fill="#76CE8B"/>
<path d="M655.41 827.08C654.983 827.08 654.77 826.86 654.77 826.42V820.6C654.77 820.167 654.987 819.95 655.42 819.95H657.83C658.603 819.95 659.2 820.137 659.62 820.51C660.04 820.877 660.25 821.393 660.25 822.06C660.25 822.587 660.113 823.023 659.84 823.37C659.567 823.71 659.173 823.94 658.66 824.06C659 824.167 659.28 824.423 659.5 824.83L660.25 826.22C660.363 826.433 660.383 826.63 660.31 826.81C660.243 826.99 660.073 827.08 659.8 827.08C659.62 827.08 659.473 827.043 659.36 826.97C659.247 826.89 659.147 826.77 659.06 826.61L658.05 824.75C657.93 824.523 657.787 824.373 657.62 824.3C657.46 824.22 657.253 824.18 657 824.18H656.05V826.42C656.05 826.86 655.837 827.08 655.41 827.08ZM656.05 823.23H657.61C658.543 823.23 659.01 822.85 659.01 822.09C659.01 821.337 658.543 820.96 657.61 820.96H656.05V823.23ZM662.185 827C661.972 827 661.815 826.953 661.715 826.86C661.622 826.76 661.575 826.617 661.575 826.43C661.575 826.317 661.605 826.207 661.665 826.1C661.725 825.993 661.812 825.88 661.925 825.76L663.935 823.62C664.242 823.3 664.462 823.01 664.595 822.75C664.729 822.483 664.795 822.217 664.795 821.95C664.795 821.27 664.385 820.93 663.565 820.93C663.339 820.93 663.112 820.963 662.885 821.03C662.659 821.09 662.429 821.197 662.195 821.35C662.049 821.45 661.912 821.48 661.785 821.44C661.659 821.4 661.562 821.32 661.495 821.2C661.429 821.073 661.405 820.94 661.425 820.8C661.452 820.66 661.539 820.54 661.685 820.44C661.972 820.247 662.292 820.1 662.645 820C663.005 819.9 663.365 819.85 663.725 819.85C664.479 819.85 665.055 820.02 665.455 820.36C665.862 820.7 666.065 821.187 666.065 821.82C666.065 822.247 665.962 822.657 665.755 823.05C665.555 823.443 665.239 823.867 664.805 824.32L663.255 825.94H665.865C666.232 825.94 666.415 826.113 666.415 826.46C666.415 826.82 666.232 827 665.865 827H662.185Z" fill="white"/>
<path d="M648.526 806C648.526 806 645.089 868.524 648.526 886.038V806Z" fill="#3D332C"/>
</g>
<path d="M1092.4 540.785L1093.37 548.613C1093.37 548.613 1092.88 548.004 1092.17 549.072C1092.11 549.162 1092.08 549.265 1092.07 549.372C1092.07 549.479 1092.1 549.585 1092.15 549.679C1092.2 549.773 1092.27 549.851 1092.36 549.906C1092.46 549.96 1092.56 549.989 1092.67 549.989H1095.64L1094.92 538.029L1098.8 538.774L1098.9 549.989H1102.2C1102.3 549.989 1102.39 549.968 1102.47 549.927C1102.55 549.885 1102.63 549.825 1102.68 549.751C1102.74 549.676 1102.77 549.59 1102.79 549.499C1102.81 549.407 1102.8 549.314 1102.77 549.225C1102.62 548.755 1102.17 548.293 1100.88 548.612L1102.35 535.714L1098.38 535.082L1091.94 535.891L1092.4 540.785Z" fill="white"/>
<path d="M1094.25 539.254L1095.17 542.174L1095.04 538.776L1094.25 539.254Z" fill="#E5E5E5"/>
<path d="M1095.19 547.381C1095.18 547.39 1095.17 547.396 1095.16 547.399C1095.14 547.402 1095.13 547.402 1095.12 547.399C1095.11 547.395 1095.1 547.389 1095.09 547.381C1095.08 547.372 1095.07 547.361 1095.07 547.35C1095.03 547.091 1094.95 546.842 1094.82 546.615C1094.73 546.884 1094.69 547.163 1094.69 547.445C1094.69 547.51 1094.59 547.549 1094.56 547.482C1094.37 547.014 1094.15 546.561 1093.89 546.127C1093.89 546.491 1093.87 546.855 1093.84 547.217C1093.84 547.236 1093.83 547.254 1093.81 547.267C1093.8 547.281 1093.78 547.288 1093.76 547.288C1093.75 547.288 1093.73 547.281 1093.71 547.267C1093.7 547.254 1093.69 547.236 1093.69 547.217C1093.65 546.622 1093.4 546.059 1093 545.618L1093.37 548.615C1093.37 548.615 1092.88 548.006 1092.17 549.074C1092.11 549.163 1092.08 549.267 1092.07 549.374C1092.07 549.481 1092.1 549.587 1092.15 549.681C1092.2 549.774 1092.27 549.853 1092.36 549.907C1092.46 549.962 1092.56 549.991 1092.67 549.991H1095.64L1095.45 546.979C1095.39 547.126 1095.3 547.262 1095.19 547.381Z" fill="#BFAB99"/>
<path d="M1101.11 548.509L1101.18 545.939C1101.12 545.862 1101.06 545.791 1100.99 545.726C1100.82 546.017 1100.88 546.429 1100.67 546.694C1100.64 546.738 1100.57 546.71 1100.55 546.664C1100.47 546.472 1100.35 546.301 1100.19 546.162C1100.11 546.466 1100.06 546.779 1100.06 547.094C1100.06 547.112 1100.06 547.129 1100.05 547.143C1100.03 547.156 1100.02 547.165 1100 547.167C1099.98 547.17 1099.97 547.165 1099.95 547.155C1099.94 547.145 1099.93 547.13 1099.92 547.113C1099.78 546.636 1099.64 546.039 1099.23 545.719C1098.98 546.418 1098.97 547.169 1098.88 547.899L1098.89 549.983H1102.19C1102.29 549.984 1102.38 549.962 1102.46 549.921C1102.54 549.88 1102.62 549.819 1102.67 549.745C1102.73 549.671 1102.76 549.584 1102.78 549.493C1102.8 549.402 1102.79 549.308 1102.76 549.219C1102.62 548.757 1102.41 548.196 1101.11 548.509Z" fill="#BFAB99"/>
<path d="M1096.34 536.433C1096.34 536.433 1096.43 539.87 1089.69 537.458C1089.69 537.458 1094.46 542.118 1098.45 536.975L1096.34 536.433Z" fill="#D9C9B9"/>
<path d="M1101.06 520.809C1101.06 520.809 1108.53 525.905 1108.97 527.907C1109.42 529.908 1103.81 534.644 1103.81 534.644C1103.81 534.644 1104.79 534.527 1105.32 534.063C1105.84 533.599 1107.23 535.108 1105.66 535.863C1104.1 536.618 1101.77 535.282 1102.53 533.714C1103.28 532.147 1106.18 528.79 1106.18 528.79L1102.9 526.805L1102.35 535.807L1091.14 536.081C1091.14 536.081 1089.37 529.851 1091.42 527.295C1093.47 524.74 1094.67 521.169 1094.67 521.169L1101.06 520.809Z" fill="white"/>
<path d="M1105.32 534.062C1104.79 534.526 1103.81 534.644 1103.81 534.644C1103.81 534.644 1104.4 534.146 1105.17 533.408C1105.15 533.4 1105.12 533.382 1105.1 533.359C1105.08 533.335 1105.07 533.306 1105.07 533.276C1105.08 533.193 1105.1 533.111 1105.13 533.032C1104.97 533.123 1104.81 533.203 1104.64 533.27C1104.61 533.277 1104.59 533.277 1104.57 533.271C1104.54 533.264 1104.52 533.252 1104.5 533.235C1104.49 533.218 1104.47 533.196 1104.47 533.172C1104.46 533.149 1104.46 533.124 1104.47 533.101C1104.59 532.869 1104.73 532.646 1104.88 532.435C1104.61 532.674 1104.35 532.929 1103.99 533.015C1103.96 533.021 1103.94 533.019 1103.91 533.01C1103.88 533.001 1103.86 532.985 1103.85 532.963C1103.83 532.942 1103.82 532.916 1103.82 532.889C1103.82 532.862 1103.82 532.835 1103.83 532.812C1104.03 532.4 1104.32 531.943 1104.33 531.47C1104.12 531.563 1103.92 531.7 1103.76 531.87L1103.64 531.986C1103.22 532.531 1102.85 533.11 1102.53 533.716C1102.46 534.074 1102.45 534.441 1102.49 534.804C1102.89 535.812 1104.49 536.429 1105.67 535.861C1107.23 535.108 1105.84 533.598 1105.32 534.062Z" fill="#BFAB99"/>
<path d="M1095.31 522.893C1095.41 523.307 1095.27 524.091 1094.99 525.092C1095.17 525.056 1095.35 525.008 1095.53 524.949C1097.06 524.439 1098.29 523.069 1099.47 522.033C1100.21 521.39 1100.95 520.758 1101.71 520.149C1101.24 518.791 1100.48 516.163 1101.25 515.082C1102.21 513.726 1100.69 507.49 1100.69 507.49C1098.78 508.762 1099.4 512.085 1099.4 512.085C1097.36 510.642 1094.18 513.523 1094.18 513.523C1094.32 511.69 1091.46 508.503 1091.46 508.503C1090.6 511.98 1092.42 514.767 1092.42 514.767C1092.42 514.767 1094.79 520.863 1095.31 522.893Z" fill="white"/>
<path d="M1094.64 513.113V513.091L1094.61 513.113C1094.66 512.852 1094.67 512.585 1094.64 512.321C1094.13 512.657 1093.72 513.131 1093.47 513.689C1093.83 513.163 1094.64 513.113 1094.64 513.113Z" fill="#E5E5E5"/>
<path d="M1100 512.481C1100 512.481 1101.23 512.995 1101.43 513.91C1101.43 513.91 1101.42 513.008 1100 512.093V512.481Z" fill="#E5E5E5"/>
<path d="M1099.64 510.831C1099.64 510.831 1101.88 512.981 1101.92 513.509L1101.87 514.133L1099.64 511.714V510.831Z" fill="#E5E5E5"/>
<path d="M1093.01 510.831C1093.01 510.831 1092.69 513.336 1092.13 513.921V514.363L1093.9 512.597C1093.79 512.107 1093.21 511.289 1093.01 510.831Z" fill="#E5E5E5"/>
<path d="M1093.13 516.906L1092.51 514.077C1092.51 514.077 1094.74 510.483 1096.92 511.607C1096.92 511.607 1098.6 510.8 1099.47 511.581C1100.34 512.362 1102.13 513.736 1101.86 514.701C1101.65 515.424 1101.33 516.114 1100.93 516.751L1093.13 516.906Z" fill="#E56038"/>
<path d="M1101.32 521.368C1101.32 521.368 1102.35 524.199 1101.1 525.56C1099.85 526.921 1097.56 526.993 1098.45 531.662C1099.33 536.331 1099.41 537.544 1098.6 537.673C1097.79 537.802 1093.75 525.633 1097.53 523.508L1101.32 521.368Z" fill="#E5E5E5"/>
<path d="M1078 537.911C1078 537.911 1083.81 536.047 1089.24 536.291C1094.68 536.536 1091.26 537.95 1091.26 537.95C1091.26 537.95 1098.88 539.881 1098.72 537.061C1098.55 534.241 1080.18 534.895 1078 537.911Z" fill="#E56038"/>
<path d="M1093.78 519.312C1093.78 519.312 1096.8 521.131 1100.89 519.62C1100.89 519.62 1103.07 521.111 1099.8 524.572C1096.53 528.033 1099.06 534.204 1098.71 537.059C1098.71 537.059 1087.46 534.847 1078 537.909C1078 537.909 1083.11 525.319 1089.11 524.026C1095.11 522.732 1093.78 519.312 1093.78 519.312Z" fill="#E56038"/>
<path d="M1093.26 521.913C1092.76 522.559 1091.88 523.206 1090.37 523.693C1096.87 524.309 1099.72 522.049 1099.72 522.049C1097.37 522.992 1094.48 522.287 1093.26 521.913Z" fill="#C6492C"/>
<path d="M1092.32 537.084C1092.32 537.084 1094.29 536.184 1094.72 530.588C1094.72 530.588 1095 537.427 1092.86 538.265L1091.26 537.949C1091.26 537.949 1092.17 537.682 1092.32 537.084Z" fill="#C6492C"/>
<path d="M1106.18 528.79L1107.01 527.819C1107.01 527.819 1104.84 527.981 1103.39 527.105L1106.18 528.79Z" fill="#E5E5E5"/>
<path d="M1098.8 538.776L1099.99 538.868C1099.99 538.868 1098.8 539.447 1098.83 542.538L1098.8 538.776Z" fill="#E5E5E5"/>
<g clip-path="url(#clip10_389_29385)">
<path d="M1173.14 352.984V278C1173.14 278 1201.33 299.538 1224.57 300.392C1247.82 301.247 1258.98 300.392 1258.98 300.392C1258.98 300.392 1240.92 305.908 1248.65 313.987L1256.4 322.008C1256.4 322.008 1182.82 330.553 1173.14 352.984Z" fill="#E56038"/>
<g clip-path="url(#clip11_389_29385)">
<g opacity="0.75">
<path opacity="0.75" d="M1195.03 324.983C1194.89 325.004 1194.74 324.991 1194.61 324.947C1194.47 324.902 1194.35 324.827 1194.25 324.728C1194.15 324.629 1194.07 324.508 1194.03 324.375C1193.99 324.242 1193.98 324.101 1194 323.963V306.003C1193.98 305.867 1193.99 305.728 1194.04 305.597C1194.08 305.467 1194.16 305.348 1194.26 305.251C1194.36 305.153 1194.48 305.08 1194.61 305.036C1194.75 304.993 1194.89 304.98 1195.03 305H1202.29C1204.59 304.825 1206.89 305.414 1208.81 306.672C1209.59 307.382 1210.2 308.257 1210.58 309.232C1210.96 310.206 1211.1 311.253 1211 312.291C1211.1 313.329 1210.95 314.375 1210.57 315.349C1210.19 316.323 1209.59 317.199 1208.81 317.91C1206.89 319.168 1204.59 319.757 1202.29 319.582H1200.23V323.863C1200.25 324.001 1200.24 324.141 1200.2 324.274C1200.16 324.407 1200.08 324.528 1199.98 324.628C1199.88 324.727 1199.76 324.802 1199.62 324.846C1199.49 324.891 1199.35 324.903 1199.2 324.883L1195.03 324.983ZM1202.2 314.599C1202.89 314.657 1203.57 314.467 1204.12 314.064C1204.32 313.836 1204.48 313.571 1204.57 313.283C1204.67 312.996 1204.71 312.693 1204.68 312.391C1204.73 311.783 1204.52 311.182 1204.12 310.719C1203.57 310.322 1202.88 310.138 1202.2 310.201H1200.23V314.716L1202.2 314.599Z" fill="white"/>
</g>
</g>
<path d="M1173.14 278C1173.14 278 1166.07 406.955 1173.14 443.078V278Z" fill="#3D332C"/>
</g>
</g>
<defs>
<linearGradient id="paint0_linear_389_29385" x1="718.95" y1="934.935" x2="720.092" y2="20.2359" gradientUnits="userSpaceOnUse">
<stop stop-color="#6393BA"/>
<stop offset="1" stop-color="#045C98"/>
</linearGradient>
<linearGradient id="paint1_linear_389_29385" x1="761.57" y1="330.41" x2="761.57" y2="258.02" gradientUnits="userSpaceOnUse">
<stop offset="0.22"/>
<stop offset="0.29" stop-color="#0B0C0D"/>
<stop offset="0.41" stop-color="#2B2F2F"/>
<stop offset="0.58" stop-color="#5E6667"/>
<stop offset="0.79" stop-color="#A3B2B3"/>
<stop offset="0.97" stop-color="#E8FDFF"/>
</linearGradient>
<linearGradient id="paint2_linear_389_29385" x1="514.507" y1="263.01" x2="514.507" y2="188.021" gradientUnits="userSpaceOnUse">
<stop offset="0.22"/>
<stop offset="0.29" stop-color="#0B0C0D"/>
<stop offset="0.41" stop-color="#2B2F2F"/>
<stop offset="0.58" stop-color="#5E6667"/>
<stop offset="0.79" stop-color="#A3B2B3"/>
<stop offset="0.97" stop-color="#E8FDFF"/>
</linearGradient>
<linearGradient id="paint3_linear_389_29385" x1="112.532" y1="369.002" x2="112.578" y2="313.009" gradientUnits="userSpaceOnUse">
<stop stop-color="#16679F" stop-opacity="0.15"/>
<stop offset="0.346656" stop-color="#75A5C6" stop-opacity="0.44"/>
<stop offset="0.846187" stop-color="white"/>
</linearGradient>
<linearGradient id="paint4_linear_389_29385" x1="1084" y1="417" x2="1084.05" y2="352.01" gradientUnits="userSpaceOnUse">
<stop stop-color="#16679F" stop-opacity="0.15"/>
<stop offset="0.346656" stop-color="#75A5C6" stop-opacity="0.44"/>
<stop offset="0.846187" stop-color="white"/>
</linearGradient>
<linearGradient id="paint5_linear_389_29385" x1="219" y1="421.135" x2="219.039" y2="364.009" gradientUnits="userSpaceOnUse">
<stop stop-color="#16679F" stop-opacity="0.15"/>
<stop offset="0.346656" stop-color="#75A5C6" stop-opacity="0.44"/>
<stop offset="0.846187" stop-color="white"/>
</linearGradient>
<linearGradient id="paint6_linear_389_29385" x1="1440" y1="238.135" x2="1440.04" y2="181.009" gradientUnits="userSpaceOnUse">
<stop stop-color="#16679F" stop-opacity="0"/>
<stop offset="0.846187" stop-color="white"/>
</linearGradient>
<linearGradient id="paint7_linear_389_29385" x1="856.269" y1="291.55" x2="856.303" y2="237.008" gradientUnits="userSpaceOnUse">
<stop stop-color="#16679F" stop-opacity="0"/>
<stop offset="0.846187" stop-color="white"/>
</linearGradient>
<linearGradient id="paint8_linear_389_29385" x1="1167.27" y1="384.55" x2="1167.3" y2="330.008" gradientUnits="userSpaceOnUse">
<stop stop-color="#16679F" stop-opacity="0.15"/>
<stop offset="0.346656" stop-color="#75A5C6" stop-opacity="0.44"/>
<stop offset="0.846187" stop-color="white"/>
</linearGradient>
<clipPath id="clip0_389_29385">
<rect width="1440" height="998" fill="white"/>
</clipPath>
<clipPath id="clip1_389_29385">
<rect width="538" height="250" fill="white" transform="translate(103 818)"/>
</clipPath>
<clipPath id="clip2_389_29385">
<rect width="1102" height="594" fill="white" transform="translate(415 423)"/>
</clipPath>
<clipPath id="clip3_389_29385">
<rect width="43.258" height="80" fill="white" transform="translate(775 755.642)"/>
</clipPath>
<clipPath id="clip4_389_29385">
<rect width="43.258" height="80" fill="white" transform="translate(889 679.642)"/>
</clipPath>
<clipPath id="clip5_389_29385">
<rect width="43.258" height="80" fill="white" transform="translate(981 609.642)"/>
</clipPath>
<clipPath id="clip6_389_29385">
<rect width="43.258" height="80" fill="white" transform="translate(504 867)"/>
</clipPath>
<clipPath id="clip7_389_29385">
<rect width="911" height="211" fill="white" transform="translate(539 814)"/>
</clipPath>
<clipPath id="clip8_389_29385">
<rect width="43.258" height="80" fill="white" transform="translate(1083 469.642)"/>
</clipPath>
<clipPath id="clip9_389_29385">
<rect width="43.258" height="80" fill="white" transform="translate(647 806)"/>
</clipPath>
<clipPath id="clip10_389_29385">
<rect width="89" height="165" fill="white" transform="translate(1170 278)"/>
</clipPath>
<clipPath id="clip11_389_29385">
<rect width="17" height="20" fill="white" transform="translate(1194 305)"/>
</clipPath>
</defs>
</svg>
