<svg width="1439" height="834" viewBox="0 0 1439 834" fill="none" xmlns="http://www.w3.org/2000/svg">
<g clip-path="url(#clip0_307_247)">
<path d="M1438.72 0H0V1030.66H1438.72V0Z" fill="url(#paint0_linear_307_247)"/>
<path d="M1404.05 225.37L1402.84 225.6C1401.02 225.914 1399.23 226.396 1397.5 227.04C1396.55 227.409 1395.67 227.937 1394.9 228.6C1394.09 229.357 1393.44 230.273 1393 231.29C1392.44 232.602 1392.01 233.965 1391.72 235.36C1391.51 236.27 1391.33 237.19 1391.16 238.12C1391.17 238.173 1391.17 238.227 1391.16 238.28C1391.09 238.178 1391.04 238.056 1391.04 237.93C1390.74 236.122 1390.3 234.338 1389.75 232.59C1389.38 231.409 1388.8 230.304 1388.04 229.33C1387.22 228.384 1386.19 227.641 1385.04 227.16C1383.77 226.638 1382.45 226.233 1381.1 225.95C1380.18 225.75 1379.26 225.56 1378.34 225.4C1378.34 225.4 1378.24 225.4 1378.22 225.34C1378.2 225.28 1378.41 225.26 1378.51 225.24C1379.69 225.03 1380.86 224.79 1382.02 224.49C1383.35 224.18 1384.64 223.717 1385.86 223.11C1387.48 222.24 1388.73 220.822 1389.39 219.11C1389.97 217.651 1390.4 216.141 1390.69 214.6C1390.83 213.94 1390.96 213.28 1391.09 212.6C1391.09 212.53 1391.09 212.47 1391.15 212.37C1391.21 212.448 1391.24 212.542 1391.25 212.64C1391.53 214.248 1391.89 215.841 1392.34 217.41C1392.63 218.458 1393.05 219.466 1393.59 220.41C1394.48 221.881 1395.85 223.009 1397.46 223.61C1398.88 224.15 1400.35 224.559 1401.84 224.83L1403.84 225.22C1403.88 225.227 1403.93 225.244 1403.96 225.27C1404 225.297 1404.03 225.331 1404.05 225.37V225.37Z" fill="#FFF8EE"/>
<path d="M1299.96 483.08L1298.76 483.31C1296.94 483.627 1295.14 484.113 1293.41 484.76C1292.46 485.122 1291.58 485.651 1290.82 486.32C1290 487.072 1289.35 487.989 1288.91 489.01C1288.35 490.318 1287.93 491.678 1287.64 493.07C1287.43 493.99 1287.25 494.91 1287.08 495.83C1287.07 495.889 1287.05 495.946 1287.02 496C1286.95 495.898 1286.9 495.776 1286.9 495.65C1286.6 493.841 1286.18 492.056 1285.62 490.31C1285.25 489.127 1284.67 488.022 1283.9 487.05C1283.09 486.1 1282.06 485.356 1280.9 484.88C1279.61 484.349 1278.27 483.944 1276.9 483.67C1275.98 483.46 1275.06 483.28 1274.14 483.11C1274.12 483.115 1274.09 483.111 1274.07 483.1C1274.05 483.09 1274.03 483.072 1274.02 483.05C1274.1 482.988 1274.21 482.953 1274.31 482.95C1275.49 482.74 1276.66 482.5 1277.82 482.21C1279.15 481.905 1280.44 481.438 1281.66 480.82C1283.28 479.953 1284.54 478.534 1285.2 476.82C1285.77 475.361 1286.21 473.851 1286.5 472.31L1286.89 470.31L1286.96 470.09C1287.01 470.166 1287.05 470.256 1287.05 470.35C1287.33 471.962 1287.69 473.557 1288.14 475.13C1288.43 476.177 1288.85 477.185 1289.39 478.13C1290.29 479.594 1291.65 480.719 1293.26 481.33C1294.71 481.896 1296.2 482.324 1297.73 482.61L1299.73 483.01C1299.77 483.005 1299.81 483.008 1299.85 483.02C1299.89 483.032 1299.93 483.053 1299.96 483.08V483.08Z" fill="#FFF8EE"/>
<path d="M140.92 163.83L139.72 164.06C137.899 164.377 136.111 164.863 134.38 165.51C133.428 165.872 132.548 166.401 131.78 167.07C130.967 167.821 130.32 168.734 129.88 169.75C129.32 171.061 128.891 172.425 128.6 173.82C128.39 174.74 128.21 175.66 128.04 176.58C128.04 176.58 128.04 176.68 128.04 176.75C127.961 176.647 127.918 176.52 127.92 176.39C127.616 174.585 127.184 172.804 126.63 171.06C126.243 169.88 125.636 168.784 124.84 167.83C124.031 166.874 123.001 166.13 121.84 165.66C120.549 165.129 119.209 164.724 117.84 164.45C116.93 164.24 116.01 164.06 115.08 163.89C115.08 163.89 114.99 163.89 114.96 163.83C115.049 163.769 115.153 163.734 115.26 163.73C116.44 163.52 117.61 163.28 118.77 162.99C120.098 162.683 121.384 162.216 122.6 161.6C124.221 160.733 125.477 159.314 126.14 157.6C126.714 156.141 127.149 154.631 127.44 153.09C127.58 152.43 127.7 151.77 127.84 151.09C127.854 151.015 127.874 150.942 127.9 150.87C127.959 150.944 127.991 151.036 127.99 151.13C128.271 152.742 128.639 154.337 129.09 155.91C129.38 156.958 129.8 157.966 130.34 158.91C131.235 160.376 132.593 161.502 134.2 162.11C135.647 162.676 137.143 163.104 138.67 163.39C139.32 163.53 139.98 163.65 140.67 163.78C140.757 163.765 140.846 163.783 140.92 163.83V163.83Z" fill="#FFF8EE"/>
<path d="M874.96 501.96L873.76 502.19C871.939 502.507 870.151 502.993 868.42 503.64C867.468 504.002 866.588 504.53 865.82 505.2C865.007 505.951 864.36 506.864 863.92 507.88C863.36 509.191 862.931 510.554 862.64 511.95C862.43 512.87 862.25 513.79 862.08 514.71C862.08 514.71 862.08 514.81 862.08 514.88C862.001 514.777 861.959 514.65 861.96 514.52C861.656 512.715 861.225 510.934 860.67 509.19C860.283 508.01 859.676 506.914 858.88 505.96C858.071 505.004 857.041 504.26 855.88 503.79C854.589 503.259 853.249 502.854 851.88 502.58C850.97 502.37 850.05 502.19 849.12 502.02C849.12 502.02 849.03 502.02 849 501.96C849.089 501.899 849.193 501.864 849.3 501.86C850.48 501.65 851.65 501.41 852.81 501.12C854.138 500.813 855.424 500.346 856.64 499.73C858.261 498.863 859.517 497.444 860.18 495.73C860.754 494.271 861.189 492.761 861.48 491.22C861.62 490.56 861.74 489.9 861.88 489.22C861.894 489.145 861.914 489.072 861.94 489C861.999 489.074 862.031 489.166 862.03 489.26C862.311 490.872 862.679 492.467 863.13 494.04C863.42 495.088 863.84 496.096 864.38 497.04C865.275 498.506 866.634 499.632 868.24 500.24C869.687 500.806 871.183 501.234 872.71 501.52C873.36 501.66 874.02 501.78 874.71 501.91C874.797 501.895 874.886 501.913 874.96 501.96V501.96Z" fill="#FFF8EE"/>
<path d="M442.35 345.08L441.52 345.24C440.262 345.458 439.026 345.792 437.83 346.24C437.175 346.494 436.57 346.859 436.04 347.32C435.476 347.836 435.029 348.467 434.73 349.17C434.342 350.074 434.048 351.016 433.85 351.98C433.7 352.61 433.58 353.24 433.46 353.88C433.46 353.88 433.46 353.95 433.46 354C433.407 353.928 433.379 353.84 433.38 353.75C433.173 352.503 432.876 351.273 432.49 350.07C432.239 349.254 431.839 348.491 431.31 347.82C430.746 347.164 430.033 346.652 429.23 346.33C428.351 345.966 427.441 345.685 426.51 345.49C425.88 345.35 425.24 345.22 424.6 345.11C424.6 345.11 424.54 345.11 424.52 345.11C424.58 345.063 424.654 345.038 424.73 345.04C425.54 344.89 426.35 344.73 427.15 344.52C428.064 344.308 428.951 343.99 429.79 343.57C430.91 342.966 431.776 341.979 432.23 340.79C432.63 339.785 432.931 338.743 433.13 337.68L433.4 336.31C433.402 336.26 433.402 336.21 433.4 336.16C433.445 336.209 433.47 336.273 433.47 336.34C433.68 337.45 433.9 338.55 434.22 339.64C434.428 340.339 434.72 341.011 435.09 341.64C435.705 342.653 436.641 343.431 437.75 343.85C438.747 344.24 439.778 344.538 440.83 344.74L442.18 345.01C442.212 345.008 442.244 345.013 442.273 345.025C442.303 345.037 442.329 345.056 442.35 345.08V345.08Z" fill="#FFF8EE"/>
<path d="M515.83 387.92L515 388.08C513.742 388.298 512.506 388.633 511.31 389.08C510.655 389.334 510.05 389.699 509.52 390.16C508.956 390.676 508.509 391.307 508.21 392.01C507.822 392.914 507.528 393.856 507.33 394.82C507.18 395.45 507.06 396.08 506.94 396.72C506.94 396.72 506.94 396.79 506.94 396.84C506.887 396.768 506.859 396.68 506.86 396.59C506.653 395.343 506.356 394.113 505.97 392.91C505.719 392.094 505.319 391.331 504.79 390.66C504.226 390.004 503.513 389.493 502.71 389.17C501.831 388.806 500.921 388.525 499.99 388.33C499.36 388.19 498.72 388.06 498.08 387.95C498.08 387.95 498.02 387.95 498 387.95C498.06 387.903 498.134 387.878 498.21 387.88C499.02 387.73 499.83 387.57 500.63 387.36C501.544 387.149 502.431 386.83 503.27 386.41C504.39 385.806 505.256 384.819 505.71 383.63C506.11 382.625 506.411 381.583 506.61 380.52L506.88 379.15C506.882 379.1 506.882 379.05 506.88 379C506.925 379.049 506.95 379.113 506.95 379.18C507.16 380.29 507.38 381.39 507.7 382.48C507.908 383.179 508.2 383.851 508.57 384.48C509.185 385.493 510.121 386.271 511.23 386.69C512.227 387.08 513.258 387.378 514.31 387.58L515.66 387.85C515.692 387.848 515.724 387.853 515.753 387.865C515.783 387.878 515.809 387.896 515.83 387.92V387.92Z" fill="#FFF8EE"/>
<path d="M313.83 449.92L313 450.08C311.742 450.298 310.506 450.633 309.31 451.08C308.655 451.334 308.05 451.699 307.52 452.16C306.956 452.676 306.509 453.307 306.21 454.01C305.822 454.914 305.528 455.856 305.33 456.82C305.18 457.45 305.06 458.08 304.94 458.72C304.94 458.72 304.94 458.79 304.94 458.84C304.887 458.768 304.859 458.68 304.86 458.59C304.653 457.343 304.356 456.113 303.97 454.91C303.719 454.094 303.319 453.331 302.79 452.66C302.226 452.004 301.513 451.493 300.71 451.17C299.831 450.806 298.921 450.525 297.99 450.33C297.36 450.19 296.72 450.06 296.08 449.95C296.08 449.95 296.02 449.95 296 449.95C296.06 449.903 296.134 449.878 296.21 449.88C297.02 449.73 297.83 449.57 298.63 449.36C299.544 449.149 300.431 448.83 301.27 448.41C302.39 447.806 303.256 446.819 303.71 445.63C304.11 444.625 304.411 443.583 304.61 442.52L304.88 441.15C304.882 441.1 304.882 441.05 304.88 441C304.925 441.049 304.95 441.113 304.95 441.18C305.16 442.29 305.38 443.39 305.7 444.48C305.908 445.179 306.2 445.851 306.57 446.48C307.185 447.493 308.121 448.271 309.23 448.69C310.227 449.08 311.258 449.378 312.31 449.58L313.66 449.85C313.692 449.848 313.724 449.853 313.753 449.865C313.783 449.878 313.809 449.896 313.83 449.92V449.92Z" fill="#FFF8EE"/>
<path d="M165.83 185.92L165 186.08C163.742 186.298 162.506 186.633 161.31 187.08C160.655 187.334 160.05 187.699 159.52 188.16C158.956 188.676 158.509 189.307 158.21 190.01C157.822 190.914 157.528 191.856 157.33 192.82C157.18 193.45 157.06 194.08 156.94 194.72C156.94 194.72 156.94 194.79 156.94 194.84C156.887 194.768 156.859 194.68 156.86 194.59C156.653 193.343 156.356 192.113 155.97 190.91C155.719 190.094 155.319 189.331 154.79 188.66C154.226 188.004 153.513 187.493 152.71 187.17C151.831 186.806 150.921 186.525 149.99 186.33C149.36 186.19 148.72 186.06 148.08 185.95C148.08 185.95 148.02 185.95 148 185.95C148.06 185.903 148.134 185.878 148.21 185.88C149.02 185.73 149.83 185.57 150.63 185.36C151.544 185.149 152.431 184.83 153.27 184.41C154.39 183.806 155.256 182.819 155.71 181.63C156.11 180.625 156.411 179.583 156.61 178.52L156.88 177.15C156.882 177.1 156.882 177.05 156.88 177C156.925 177.049 156.95 177.113 156.95 177.18C157.16 178.29 157.38 179.39 157.7 180.48C157.908 181.179 158.2 181.851 158.57 182.48C159.185 183.493 160.121 184.271 161.23 184.69C162.227 185.08 163.258 185.378 164.31 185.58L165.66 185.85C165.692 185.848 165.724 185.853 165.753 185.865C165.783 185.878 165.809 185.896 165.83 185.92V185.92Z" fill="#FFF8EE"/>
<path d="M604.83 189.92L604 190.08C602.742 190.298 601.506 190.633 600.31 191.08C599.655 191.334 599.05 191.699 598.52 192.16C597.956 192.676 597.509 193.307 597.21 194.01C596.822 194.914 596.528 195.856 596.33 196.82C596.18 197.45 596.06 198.08 595.94 198.72C595.94 198.72 595.94 198.79 595.94 198.84C595.887 198.768 595.859 198.68 595.86 198.59C595.653 197.343 595.356 196.113 594.97 194.91C594.719 194.094 594.319 193.331 593.79 192.66C593.226 192.004 592.513 191.493 591.71 191.17C590.831 190.806 589.921 190.525 588.99 190.33C588.36 190.19 587.72 190.06 587.08 189.95C587.08 189.95 587.02 189.95 587 189.95C587.06 189.903 587.134 189.878 587.21 189.88C588.02 189.73 588.83 189.57 589.63 189.36C590.544 189.149 591.431 188.83 592.27 188.41C593.39 187.806 594.256 186.819 594.71 185.63C595.11 184.625 595.411 183.583 595.61 182.52L595.88 181.15C595.882 181.1 595.882 181.05 595.88 181C595.925 181.049 595.95 181.113 595.95 181.18C596.16 182.29 596.38 183.39 596.7 184.48C596.908 185.179 597.2 185.851 597.57 186.48C598.185 187.493 599.121 188.271 600.23 188.69C601.227 189.08 602.258 189.378 603.31 189.58L604.66 189.85C604.692 189.848 604.724 189.853 604.753 189.865C604.783 189.878 604.809 189.896 604.83 189.92V189.92Z" fill="#FFF8EE"/>
<path d="M1027.6 198.7L1026.77 198.86C1025.51 199.078 1024.28 199.413 1023.09 199.86C1022.44 200.118 1021.83 200.483 1021.3 200.94C1020.74 201.458 1020.29 202.088 1019.98 202.79C1019.6 203.696 1019.31 204.638 1019.11 205.6C1018.96 206.23 1018.83 206.86 1018.72 207.5V207.62C1018.67 207.548 1018.64 207.46 1018.64 207.37C1018.43 206.123 1018.14 204.893 1017.75 203.69C1017.49 202.875 1017.09 202.113 1016.57 201.44C1016.01 200.784 1015.29 200.273 1014.49 199.95C1013.61 199.587 1012.7 199.306 1011.77 199.11C1011.13 198.97 1010.5 198.84 1009.86 198.73C1009.86 198.73 1009.8 198.73 1009.78 198.73C1009.84 198.684 1009.91 198.659 1009.98 198.66C1010.8 198.51 1011.6 198.35 1012.4 198.14C1013.32 197.93 1014.21 197.611 1015.05 197.19C1016.17 196.582 1017.03 195.597 1017.49 194.41C1017.89 193.405 1018.18 192.363 1018.38 191.3C1018.48 190.84 1018.57 190.39 1018.66 189.93C1018.66 189.93 1018.66 189.84 1018.66 189.78C1018.7 189.829 1018.73 189.893 1018.73 189.96C1018.92 191.073 1019.17 192.174 1019.48 193.26C1019.68 193.959 1019.97 194.631 1020.34 195.26C1020.96 196.275 1021.9 197.053 1023.01 197.47C1024.01 197.862 1025.04 198.16 1026.09 198.36L1027.44 198.63C1027.47 198.63 1027.5 198.636 1027.53 198.648C1027.56 198.66 1027.58 198.678 1027.6 198.7V198.7Z" fill="#FFF8EE"/>
<path d="M1286.82 55.92L1285.99 56.08C1284.73 56.2978 1283.5 56.6326 1282.31 57.08C1281.66 57.3376 1281.05 57.7027 1280.52 58.16C1279.96 58.678 1279.51 59.3082 1279.2 60.01C1278.82 60.9164 1278.53 61.8575 1278.33 62.82C1278.18 63.45 1278.05 64.08 1277.94 64.72V64.84C1277.89 64.7677 1277.86 64.6798 1277.86 64.59C1277.65 63.3433 1277.36 62.1134 1276.97 60.91C1276.71 60.0954 1276.31 59.3333 1275.79 58.66C1275.23 58.0036 1274.51 57.4925 1273.71 57.17C1272.83 56.8074 1271.92 56.5262 1270.99 56.33C1270.35 56.19 1269.72 56.06 1269.08 55.95C1269.08 55.95 1269.02 55.95 1269 55.95C1269.06 55.9039 1269.13 55.8791 1269.2 55.88C1270.02 55.73 1270.82 55.57 1271.62 55.36C1272.54 55.1502 1273.43 54.8313 1274.27 54.41C1275.39 53.8022 1276.25 52.8168 1276.71 51.63C1277.11 50.6245 1277.4 49.583 1277.6 48.52C1277.7 48.06 1277.79 47.61 1277.88 47.15C1277.88 47.15 1277.88 47.06 1277.88 47C1277.92 47.0493 1277.95 47.1134 1277.95 47.18C1278.14 48.2927 1278.39 49.3942 1278.7 50.48C1278.9 51.1793 1279.19 51.8509 1279.56 52.48C1280.18 53.4946 1281.12 54.2727 1282.23 54.69C1283.23 55.0817 1284.26 55.3796 1285.31 55.58L1286.66 55.85C1286.69 55.8495 1286.72 55.8555 1286.75 55.8676C1286.78 55.8797 1286.8 55.8975 1286.82 55.92V55.92Z" fill="#FFF8EE"/>
</g>
<defs>
<linearGradient id="paint0_linear_307_247" x1="719" y1="853" x2="719.36" y2="158.5" gradientUnits="userSpaceOnUse">
<stop stop-color="#DAEDEE"/>
<stop offset="1" stop-color="#9FE0F6"/>
</linearGradient>
<clipPath id="clip0_307_247">
<rect width="1439" height="834" fill="white"/>
</clipPath>
</defs>
</svg>
