<svg width="487" height="645" viewBox="0 0 487 645" fill="none" xmlns="http://www.w3.org/2000/svg">
<path d="M32.4284 615.016C-20.9902 618.888 3.42585 632.761 22.3112 639.214C22.3112 648.355 251.971 639.214 305.086 643.784C358.201 648.355 331.896 639.214 436.103 630.072C519.469 622.759 481.968 608.564 452.797 602.38C414.857 603.814 330.075 605.821 294.463 602.38C249.947 598.078 201.891 604.262 190.762 615.016C179.633 625.771 99.2017 610.177 32.4284 615.016Z" fill="url(#paint0_linear_463_518)"/>
<g clip-path="url(#clip0_463_518)">
<path d="M241.499 177.509C241.499 177.509 277.906 336.877 363.96 386.4C417.881 417.406 436.851 446.143 443.503 463.282C444.118 464.903 444.277 466.662 443.965 468.367C443.653 470.073 442.881 471.66 441.732 472.959C440.583 474.258 439.102 475.218 437.447 475.736C435.792 476.253 434.028 476.309 432.343 475.898C377.562 462.562 186.264 419.895 142.939 462.844C90.7241 514.605 79.0007 357.757 79.0007 357.757L104.435 183.097L241.499 177.509Z" fill="#E56038"/>
<path d="M280 448C265.2 418.8 279.833 348.5 289 317C267 331.8 252.167 408.5 247.5 445L280 448Z" fill="#C6492C"/>
<path d="M131.513 146.268L42.7979 249.195L103.011 441.62H250.296L308.709 246.957L220.541 146.268H131.513Z" fill="white"/>
<path d="M99.5675 217.672C108.448 229.31 120.903 237.712 135.019 241.588C142.866 243.5 150.882 244.637 158.951 244.984C166.772 245.493 174.62 245.41 182.429 244.734C197.367 243.369 211.986 239.601 225.722 233.574C240.244 227.007 253.88 218.634 266.308 208.656C268.045 207.279 269.814 205.933 271.582 204.618L220.51 146.283H131.513L85.7468 199.375C90.5833 205.291 94.8719 211.74 99.5675 217.672Z" fill="#E5E5E5"/>
<path d="M111.682 198.921C111.682 198.921 103.559 189.655 98.5657 186.493C97.2196 185.648 96.3274 181.5 97.3761 180.232C111.134 164.346 183.744 92.4249 256.322 181.078C256.823 181.688 254.537 184.49 251.626 187.51C247.682 191.58 242.579 196.025 241.531 196.119L111.682 198.921Z" fill="#E56038"/>
<path d="M135.003 241.588C135.003 241.588 109.679 261.059 118.976 304.587C128.273 348.115 115.72 333.621 129.682 376.304C143.643 418.987 199.286 452.795 217.567 405.166C235.849 357.537 207.55 318.251 234.518 290.907C261.487 263.563 206.502 167.789 135.003 241.588Z" fill="#D9C9B9"/>
<path d="M148.401 251.871C150.672 254.449 152.763 257.179 154.662 260.041C156.165 262.556 157.493 265.171 158.638 267.867C160.876 272.891 163.036 278.479 167.106 282.345C170.752 285.789 176.372 287.15 181.192 287.041C186.357 286.884 191.429 284.693 194.027 280.044C195.858 276.789 195.733 273.392 195.983 269.793C196.32 266.192 197.454 262.712 199.302 259.603C201.244 256.298 203.409 253.129 205.781 250.118C207.55 247.756 209.502 245.537 211.62 243.482C215.347 239.928 219.677 237.066 224.407 235.029C225.237 234.669 226.082 234.356 226.927 234.043C208.599 211.833 174.665 201.174 135.739 240.742C140.577 243.685 144.862 247.451 148.401 251.871V251.871Z" fill="#C6B3A3"/>
<path d="M193.651 256.739L251.595 187.573L109.428 180.796L111.682 198.905L161.221 256.739H193.651Z" fill="#E56038"/>
<path d="M141.953 80.3259C139.574 78.5416 117.567 63.9539 119.054 47.5976C120.541 31.2413 130.464 0 130.464 0C130.464 0 151.172 32.7283 150.812 56.8166C150.452 80.905 141.953 80.3259 141.953 80.3259Z" fill="white"/>
<path d="M134.643 49.961C131.137 54.6566 128.023 59.4617 124.673 64.2042C130.934 72.8597 140.435 79.1832 141.89 80.3258C141.89 80.3258 150.514 80.9206 150.812 56.8479C150.789 50.6137 149.872 44.415 148.088 38.4412C142.329 40.5855 138.275 45.2184 134.643 49.961Z" fill="#E5E5E5"/>
<path d="M134.925 67.9138C134.925 67.9138 122.278 58.3663 123.609 49.4603C124.939 40.5544 131.435 21.7876 131.435 21.7876C131.435 21.7876 147.588 57.0514 146.586 60.3384C145.584 63.6253 134.925 67.9138 134.925 67.9138Z" fill="#FFC4AB"/>
<path d="M219.039 66.0356C217.161 63.2495 219.931 37.1108 229.995 19.3302L239.997 1.53394C239.997 1.53394 253.896 40.4603 249.388 55.4705C244.88 70.4807 228.258 100.517 228.258 100.517L219.039 66.0356Z" fill="white"/>
<path d="M221.653 51.8081C221.011 51.1507 220.353 50.4777 219.696 49.8359C218.24 58.2097 218.131 64.7209 218.976 66.0357L228.211 100.47C228.211 100.47 234.706 88.7622 240.732 76.3189C235.286 67.4765 228.888 59.2574 221.653 51.8081Z" fill="#E5E5E5"/>
<path d="M220.541 72.1871C220.541 72.1871 220.745 37.4241 240.529 24.2451C240.529 24.2451 248.918 50.6185 238.964 68.493C229.009 86.3675 220.541 72.1871 220.541 72.1871Z" fill="#FFC4AB"/>
<path d="M127.271 73.1415C128.535 68.0261 130.849 63.2291 134.064 59.0548C141.139 49.914 154.021 35.8429 161.784 42.761C172.928 52.6531 182.836 48.7714 195.827 41.1958C201.352 37.9559 208.661 43.5749 215.251 51.1035C225.445 62.9219 232.182 77.3228 234.722 92.7221L248.136 171.874C248.804 175.812 248.552 179.85 247.397 183.674C246.243 187.498 244.219 191.002 241.484 193.912L202.526 235.327C199.043 239.028 194.84 241.977 190.176 243.993C185.511 246.009 180.483 247.05 175.401 247.05V247.05C170.144 247.043 164.948 245.923 160.155 243.765C155.361 241.607 151.078 238.46 147.588 234.529L109.553 191.83C105.327 187.091 102.993 180.963 102.995 174.613C102.99 172.503 103.243 170.401 103.746 168.352L127.271 73.1415Z" fill="white"/>
<path d="M224.157 170.497L225.722 169.698C225.902 169.591 226.057 169.447 226.176 169.276C226.318 169.128 226.416 168.944 226.458 168.744C226.512 168.538 226.512 168.323 226.458 168.117C226.446 167.907 226.381 167.702 226.27 167.523L226.02 167.194C225.82 167.006 225.579 166.866 225.315 166.787H224.893C224.613 166.782 224.338 166.853 224.094 166.991L222.529 167.805C222.352 167.902 222.201 168.042 222.091 168.211C221.953 168.37 221.852 168.557 221.794 168.759C221.739 168.964 221.739 169.18 221.794 169.385C221.793 169.598 221.859 169.806 221.981 169.98L222.216 170.309C222.416 170.497 222.657 170.637 222.921 170.716H223.343C223.625 170.723 223.903 170.647 224.141 170.497H224.157Z" fill="#453F3C"/>
<path d="M224.783 162.092C225.198 162.092 225.596 161.927 225.89 161.633C226.183 161.34 226.348 160.941 226.348 160.526C226.348 160.111 226.183 159.713 225.89 159.42C225.596 159.126 225.198 158.961 224.783 158.961C224.368 158.961 223.97 159.126 223.676 159.42C223.383 159.713 223.218 160.111 223.218 160.526C223.218 160.941 223.383 161.34 223.676 161.633C223.97 161.927 224.368 162.092 224.783 162.092Z" fill="#453F3C"/>
<path d="M232.75 163.109C233.165 163.109 233.563 162.944 233.857 162.65C234.15 162.357 234.315 161.959 234.315 161.544C234.315 161.129 234.15 160.73 233.857 160.437C233.563 160.143 233.165 159.979 232.75 159.979C232.335 159.979 231.937 160.143 231.643 160.437C231.35 160.73 231.185 161.129 231.185 161.544C231.185 161.959 231.35 162.357 231.643 162.65C231.937 162.944 232.335 163.109 232.75 163.109Z" fill="#453F3C"/>
<path d="M232.124 155.299C232.539 155.299 232.937 155.134 233.231 154.84C233.524 154.547 233.689 154.149 233.689 153.734C233.689 153.319 233.524 152.92 233.231 152.627C232.937 152.333 232.539 152.168 232.124 152.168C231.709 152.168 231.311 152.333 231.017 152.627C230.724 152.92 230.559 153.319 230.559 153.734C230.559 154.149 230.724 154.547 231.017 154.84C231.311 155.134 231.709 155.299 232.124 155.299Z" fill="#453F3C"/>
<path d="M113.654 172.954C114.215 172.954 114.752 172.731 115.148 172.335C115.545 171.939 115.767 171.401 115.767 170.841C115.767 170.281 115.545 169.743 115.148 169.347C114.752 168.951 114.215 168.728 113.654 168.728C113.094 168.728 112.556 168.951 112.16 169.347C111.764 169.743 111.541 170.281 111.541 170.841C111.541 171.401 111.764 171.939 112.16 172.335C112.556 172.731 113.094 172.954 113.654 172.954V172.954Z" fill="#453F3C"/>
<path d="M125.816 177.431C126.149 177.3 126.496 177.206 126.849 177.149L126.285 177.227C126.66 177.18 127.038 177.18 127.412 177.227L126.849 177.149H127.005C127.283 177.219 127.573 177.219 127.851 177.149C128.124 177.124 128.389 177.039 128.627 176.901C128.865 176.763 129.07 176.576 129.228 176.35C129.414 176.148 129.544 175.899 129.604 175.631V175.067C129.605 174.694 129.508 174.327 129.322 174.003L128.993 173.58C128.735 173.316 128.411 173.127 128.054 173.032C127.483 172.918 126.898 172.881 126.317 172.923C125.734 172.964 125.16 173.085 124.611 173.283C124.344 173.356 124.097 173.49 123.891 173.674C123.665 173.823 123.482 174.028 123.359 174.269C123.199 174.499 123.112 174.772 123.108 175.051C123.031 175.328 123.031 175.62 123.108 175.897C123.265 176.424 123.61 176.875 124.078 177.164L124.579 177.368C124.947 177.478 125.339 177.478 125.706 177.368L125.816 177.431Z" fill="#453F3C"/>
<path d="M118.037 157.85L115.485 158.961C115.293 159.059 115.122 159.196 114.985 159.363C114.847 159.53 114.746 159.724 114.687 159.932C114.508 160.433 114.459 160.972 114.546 161.497C114.619 161.971 114.832 162.412 115.157 162.765C115.289 162.897 115.458 162.988 115.641 163.027C115.824 163.066 116.015 163.051 116.19 162.984L118.757 161.857C119.137 161.647 119.422 161.3 119.555 160.886C119.721 160.382 119.764 159.846 119.68 159.321C119.62 158.843 119.406 158.398 119.07 158.054C118.937 157.922 118.768 157.833 118.584 157.797C118.4 157.76 118.21 157.779 118.037 157.85V157.85Z" fill="#453F3C"/>
<path d="M232.609 148.396H232.906C233.488 148.388 234.045 148.165 234.472 147.77C234.679 147.592 234.831 147.358 234.91 147.097C235.045 146.848 235.11 146.566 235.098 146.283V145.72C235.003 145.363 234.814 145.039 234.55 144.78L234.127 144.452C233.805 144.261 233.438 144.159 233.063 144.155H232.609C232.327 144.154 232.048 144.218 231.795 144.342C231.54 144.434 231.309 144.584 231.122 144.78C230.918 144.967 230.766 145.205 230.684 145.469C230.543 145.716 230.478 145.999 230.496 146.283L230.574 146.847C230.673 147.197 230.862 147.515 231.122 147.77L231.545 148.099C231.864 148.297 232.233 148.4 232.609 148.396V148.396Z" fill="#453F3C"/>
<path d="M390.318 466.334C390.975 444.86 295.499 354.031 295.499 354.031L315.392 384.099C349.529 428.816 355.79 451.794 356.901 459.651C368.781 461.889 380.035 464.159 390.318 466.35V466.334Z" fill="#C6492C"/>
<path d="M129.306 164.612C129.306 164.612 128.93 145.438 180.738 138.301C232.546 131.163 224.814 147.692 224.814 147.692L168.686 166.787L129.306 164.612Z" fill="#E5E5E5"/>
<path d="M113.091 186.712L113.67 187.291C113.86 187.492 114.096 187.642 114.359 187.729C114.609 187.859 114.891 187.919 115.172 187.902C115.727 187.891 116.257 187.673 116.659 187.291L116.988 186.853C117.186 186.533 117.289 186.164 117.286 185.789L117.207 185.225C117.113 184.869 116.923 184.544 116.659 184.286L116.08 183.722C115.905 183.512 115.671 183.359 115.407 183.284C115.158 183.149 114.877 183.084 114.593 183.097C114.31 183.078 114.027 183.144 113.779 183.284C113.515 183.367 113.278 183.518 113.091 183.722L112.762 184.145C112.576 184.469 112.479 184.836 112.48 185.209V185.773C112.575 186.126 112.759 186.449 113.013 186.712H113.091Z" fill="#453F3C"/>
<path d="M201.603 136.517C215.382 136.517 226.552 123.23 226.552 106.84C226.552 90.4508 215.382 77.1643 201.603 77.1643C187.823 77.1643 176.653 90.4508 176.653 106.84C176.653 123.23 187.823 136.517 201.603 136.517Z" fill="#D9C9B9"/>
<path d="M201.602 121.005C208.942 121.005 214.891 113.458 214.891 104.148C214.891 94.8382 208.942 87.291 201.602 87.291C194.263 87.291 188.314 94.8382 188.314 104.148C188.314 113.458 194.263 121.005 201.602 121.005Z" fill="white"/>
<path d="M201.603 112.099C205.994 112.099 209.554 108.539 209.554 104.148C209.554 99.7566 205.994 96.1968 201.603 96.1968C197.211 96.1968 193.651 99.7566 193.651 104.148C193.651 108.539 197.211 112.099 201.603 112.099Z" fill="#453F3C"/>
<path d="M150.89 112.099C155.281 112.099 158.841 108.539 158.841 104.148C158.841 99.7566 155.281 96.1968 150.89 96.1968C146.499 96.1968 142.939 99.7566 142.939 104.148C142.939 108.539 146.499 112.099 150.89 112.099Z" fill="#453F3C"/>
<path d="M225.002 176.257C225.002 176.257 225.894 177.509 227.084 178.996C226.967 179.11 226.863 179.236 226.771 179.371C217.974 194.475 204.968 207.419 187.531 211.536C177.121 213.857 166.277 213.316 156.149 209.971C154.584 209.486 153.128 208.938 151.657 208.406L151.328 208.265L150.828 208.046L150.421 207.842C148.589 206.934 146.977 209.673 148.855 210.581C154.81 213.385 161.199 215.152 167.747 215.809C181.621 217.613 195.675 214.272 207.253 206.418C216.303 199.875 223.827 191.449 229.306 181.719C231.059 183.629 232.719 184.975 232.844 183.284C233.016 179.512 225.002 176.257 225.002 176.257Z" fill="#453F3C"/>
<path d="M180.316 192.456C178.287 193.825 175.937 194.641 173.497 194.825C171.058 195.009 168.612 194.554 166.401 193.505C154.521 187.902 131.967 175.912 129.306 164.612C125.565 149.147 225.065 130.177 224.783 147.645C224.626 161.168 194.105 183.19 180.316 192.456Z" fill="#453F3C"/>
<path d="M135.113 106.84C135.113 106.84 137.727 81.2961 151.579 81.8908C165.431 82.4856 165.666 111.395 165.666 111.395C165.666 111.395 163.005 84.3169 151.751 84.0038C140.889 83.6908 135.113 106.84 135.113 106.84Z" fill="#453F3C"/>
<path d="M214.891 110.691C214.891 110.691 218.491 85.1621 200.882 85.1621C186.483 85.1621 188.361 108.531 188.361 108.531C188.361 108.531 189.144 87.729 200.789 87.2594C214.891 86.6959 214.891 110.691 214.891 110.691Z" fill="#453F3C"/>
<path d="M225.581 64.8618C225.3 64.4549 228.884 55.2515 228.884 59.0237C228.938 60.989 228.727 62.9527 228.258 64.8618C228.258 64.8618 236.303 51.1507 232.953 59.1801C229.604 67.2096 228.759 69.933 228.759 69.933L225.581 64.8618Z" fill="white"/>
<path d="M134.002 59.1017C134.002 59.1017 128.461 48.6776 131.45 51.0254C134.44 53.3732 130.668 40.2881 133.016 44.8584C134.645 48.4109 135.798 52.1635 136.443 56.0183L134.002 59.1017Z" fill="white"/>
<path d="M248.496 315.371C248.496 315.371 261.69 324.136 267.388 333.152C268.703 335.33 270.759 336.962 273.179 337.749C275.599 338.537 278.221 338.427 280.567 337.44C286.827 334.592 291.695 326.797 280.661 306.137C261.064 269.307 248.496 315.371 248.496 315.371Z" fill="#D9C9B9"/>
<path d="M53.0343 293.943L83.7277 270.732C86.3141 274.48 87.9651 278.794 88.5424 283.312C89.1197 287.829 88.6065 292.42 87.046 296.698C83.6182 306.449 63.5681 316.686 68.4045 331.039L53.0343 293.943Z" fill="#E5E5E5"/>
<path d="M432.171 442.997C432.171 442.997 439.81 473.08 425.582 481.939L431.373 481.313C433.564 481.078 435.672 480.343 437.534 479.164C439.396 477.985 440.962 476.394 442.111 474.514C443.261 472.634 443.963 470.515 444.164 468.321C444.364 466.126 444.058 463.915 443.269 461.858C440.559 455.039 436.816 448.678 432.171 442.997V442.997Z" fill="#FC7859"/>
<path d="M102.995 308.469C102.995 308.469 238.51 331.759 287.845 319.863C356.338 303.366 308.693 246.956 308.693 246.956L270.534 282.517L221.778 291.111C221.778 291.111 190.959 306.7 102.995 308.469Z" fill="white"/>
<path d="M200.554 321.287C201.806 321.444 238.478 302.896 261.596 285.084L210.696 292.222L153.52 319.926L200.554 321.287Z" fill="#E5E5E5"/>
<path d="M135.113 121.005C135.113 121.005 147.901 112.13 165.65 119.628L135.113 121.005Z" fill="#E5E5E5"/>
<path d="M42.7979 249.195C42.7979 249.195 -5.14396 309.971 24.8765 326.844C41.0293 335.922 109.522 331.696 169.281 320.849C182.038 318.533 197.048 312.773 208.004 308.61C245.319 294.413 261.722 283.3 266.01 284.568L221.778 291.111C221.778 291.111 54.9125 309.189 62.4255 282.909C69.9384 256.629 42.7979 249.195 42.7979 249.195Z" fill="white"/>
<path d="M177.013 282.205C190.014 282.205 200.554 274.314 200.554 264.581C200.554 254.847 190.014 246.957 177.013 246.957C164.012 246.957 153.473 254.847 153.473 264.581C153.473 274.314 164.012 282.205 177.013 282.205Z" fill="#5494D8"/>
<path d="M177.013 279.027C187.672 279.027 196.312 272.559 196.312 264.581C196.312 256.602 187.672 250.134 177.013 250.134C166.355 250.134 157.714 256.602 157.714 264.581C157.714 272.559 166.355 279.027 177.013 279.027Z" fill="#83B3DD"/>
<g opacity="0.75">
<path opacity="0.75" d="M171.206 273.94C171.077 273.959 170.945 273.947 170.82 273.905C170.696 273.863 170.583 273.794 170.491 273.701C170.398 273.609 170.329 273.496 170.287 273.372C170.245 273.247 170.233 273.115 170.252 272.986V256.175C170.233 256.046 170.244 255.915 170.286 255.791C170.328 255.667 170.398 255.555 170.491 255.464C170.584 255.372 170.697 255.304 170.821 255.264C170.946 255.225 171.078 255.215 171.206 255.236H177.827C179.93 255.068 182.027 255.62 183.775 256.802C185.082 258.241 185.805 260.116 185.805 262.061C185.805 264.005 185.082 265.88 183.775 267.32C182.024 268.494 179.929 269.045 177.827 268.885H175.949V272.892C175.967 273.021 175.955 273.153 175.914 273.278C175.872 273.402 175.802 273.515 175.71 273.607C175.617 273.7 175.504 273.77 175.38 273.811C175.256 273.853 175.124 273.865 174.994 273.847L171.206 273.94ZM177.765 264.221C178.386 264.273 179.004 264.095 179.502 263.72C179.691 263.508 179.836 263.26 179.927 262.991C180.019 262.722 180.055 262.438 180.034 262.155C180.052 261.872 180.015 261.588 179.924 261.319C179.832 261.051 179.689 260.803 179.502 260.589C179.004 260.215 178.386 260.036 177.765 260.088H175.965V264.33L177.765 264.221Z" fill="#5494D8"/>
</g>
<path d="M187.218 248.709L168.123 280.89C171.009 281.77 174.011 282.213 177.029 282.205C177.467 282.205 177.874 282.205 178.312 282.205L192.978 251.699C191.197 250.456 189.26 249.451 187.218 248.709V248.709Z" fill="url(#paint1_linear_463_518)"/>
<path d="M158.215 265.895C158.215 257.913 166.855 251.448 177.514 251.448C185.982 251.448 193.166 255.518 195.749 261.184C193.714 254.923 186.107 250.134 176.966 250.134C166.307 250.134 157.667 256.598 157.667 264.581C157.68 266.204 158.043 267.806 158.732 269.276C158.389 268.182 158.214 267.042 158.215 265.895V265.895Z" fill="#457BAD"/>
<path d="M163.365 274.786L169.36 256.88C169.36 256.88 161.643 267.492 159.546 270.685C160.554 272.276 161.849 273.667 163.365 274.786V274.786Z" fill="url(#paint2_linear_463_518)"/>
<path d="M76.7626 294.006C76.7626 294.006 58.3403 258.257 72.9435 261.654C87.5468 265.05 100.428 296.573 109.428 296.651C109.428 296.698 82.8825 295.431 76.7626 294.006Z" fill="#D9C9B9"/>
<path d="M261.581 285.085L287.25 279.481L271.598 243.075C271.598 243.075 284.761 281.5 261.581 285.085Z" fill="#E5E5E5"/>
<path d="M250.28 441.62L278.094 598.531C278.094 598.531 305.187 592.004 318.225 611.725C319.584 613.789 320.358 616.182 320.467 618.65C320.576 621.119 320.015 623.57 318.844 625.746C317.673 627.921 315.935 629.739 313.814 631.008C311.694 632.276 309.27 632.947 306.799 632.949H226.974L214.656 468.776C214.656 468.776 193.291 475.272 143.675 468.228L134.878 632.949L48.5735 632.214C45.7628 632.219 43.0185 631.359 40.714 629.75C38.4095 628.141 36.6566 625.861 35.6937 623.22C34.7308 620.58 34.6048 617.706 35.3326 614.992C36.0604 612.277 37.6068 609.852 39.7614 608.047C49.3561 600.033 65.4933 593.428 92.6338 594.774L102.948 441.62H250.28Z" fill="white"/>
<path d="M135.129 589.985C134.988 590.213 134.784 590.396 134.542 590.512C134.299 590.627 134.029 590.67 133.762 590.635C133.496 590.601 133.246 590.49 133.041 590.316C132.836 590.142 132.686 589.913 132.609 589.656C132.046 588.015 131.306 586.44 130.402 584.96C129.833 586.589 129.506 588.292 129.431 590.016C129.431 590.381 129.286 590.731 129.028 590.99C128.77 591.248 128.419 591.393 128.054 591.393C127.689 591.393 127.338 591.248 127.08 590.99C126.822 590.731 126.677 590.381 126.677 590.016C126.677 585.821 126.911 580.875 124.955 576.978C121.824 580.875 118.976 584.945 115.798 588.795C115 589.75 113.451 588.92 113.435 587.825C113.587 582.912 112.806 578.015 111.134 573.394C108.536 579.529 108.614 579.92 108.004 586.51C107.847 588.294 105.406 587.543 105.202 585.79C104.404 579.232 103.84 579.764 103.277 573.174C102.776 567.461 101.946 561.373 99.1291 556.286C97.5639 557.992 96.2649 559.823 94.8875 561.639L92.665 594.774C65.5245 593.428 49.3873 600.033 39.7926 608.047C37.6379 609.852 36.0915 612.276 35.3637 614.991C34.6358 617.706 34.762 620.579 35.7249 623.22C36.6878 625.861 38.4407 628.141 40.7452 629.75C43.0497 631.359 45.794 632.219 48.6047 632.213L134.91 632.949L137.414 585.993C136.647 587.324 135.864 588.638 135.129 589.985Z" fill="#D9C9B9"/>
<path d="M318.225 611.725C305.187 592.004 278.094 598.53 278.094 598.53L274.071 575.851C272.806 581.078 270.472 585.986 267.215 590.266C267.065 590.412 266.884 590.521 266.685 590.587C266.486 590.653 266.275 590.672 266.068 590.645C265.86 590.618 265.661 590.545 265.486 590.43C265.311 590.316 265.164 590.164 265.055 589.985C262.52 586.165 260.141 582.002 256.603 579.028C255.367 582.581 254.35 586.197 252.002 589.249C251.861 589.478 251.657 589.661 251.415 589.776C251.172 589.892 250.902 589.934 250.635 589.9C250.369 589.865 250.119 589.754 249.914 589.58C249.709 589.406 249.559 589.177 249.482 588.92C248.855 586.761 247.928 584.701 246.727 582.8C246.681 582.913 246.629 583.023 246.571 583.129C245.752 584.33 245.163 585.673 244.833 587.089C244.834 587.423 244.713 587.747 244.493 587.999C244.273 588.25 243.969 588.414 243.637 588.458C243.306 588.502 242.97 588.424 242.691 588.238C242.413 588.052 242.212 587.772 242.125 587.449C240.56 583.129 238.885 578.809 236.882 574.661C236.428 580.171 236.882 585.758 235.239 591.127C235.133 591.432 234.925 591.692 234.65 591.86C234.375 592.029 234.05 592.097 233.73 592.053C233.41 592.009 233.116 591.855 232.897 591.617C232.678 591.38 232.549 591.074 232.531 590.751C232.714 584.202 231.777 577.67 229.76 571.437C227.819 579.592 227.663 588.106 225.675 596.277C225.573 596.555 225.393 596.798 225.158 596.978C224.922 597.158 224.64 597.268 224.345 597.294L227.021 632.949H306.846C309.313 632.938 311.731 632.261 313.845 630.989C315.958 629.718 317.689 627.899 318.855 625.725C320.02 623.551 320.577 621.103 320.466 618.638C320.356 616.174 319.581 613.786 318.225 611.725V611.725Z" fill="#D9C9B9"/>
<path d="M278.094 598.53C278.094 598.53 256.181 602.021 248.84 613.196C248.84 613.196 258.748 595.979 277.186 593.381L278.094 598.53Z" fill="#C4A991"/>
<path d="M92.6805 594.774C92.6805 594.774 111.306 600.017 112.496 607.295C107.811 599.278 100.937 592.763 92.6805 588.513V594.774Z" fill="#C4A991"/>
<path d="M214.703 468.776C218.891 468.461 223.026 467.646 227.021 466.35C227.021 466.35 215.173 475.052 216.143 487.996L214.703 468.776Z" fill="#E5E5E5"/>
<path d="M143.722 468.228C143.722 468.228 129.979 464.597 125.158 461.388C125.158 461.388 143.471 473.08 142.375 494.555L143.722 468.228Z" fill="#E5E5E5"/>
<path d="M209.538 70.34C197.721 69.9643 185.919 70.2304 174.102 70.1208C164.163 70.0269 154.224 69.7452 144.363 70.5278C138.52 70.9216 132.729 71.8755 127.068 73.3764C115.736 101.832 111.682 136.516 111.682 136.516C188.549 145.782 242.157 131.821 242.157 131.821C242.077 110.969 237.658 90.3617 229.181 71.3104C222.618 70.8826 216.07 70.5591 209.538 70.34ZM150.374 131.883C140.983 131.883 133.469 119.91 133.469 105.134C133.469 90.3588 141.029 78.4008 150.374 78.4008C159.718 78.4008 167.293 90.3745 167.293 105.134C167.293 119.894 159.718 131.883 150.374 131.883ZM201.587 133.59C192.196 133.59 184.683 121.616 184.683 106.84C184.683 92.0648 192.258 80.0911 201.587 80.0911C210.915 80.0911 218.522 92.0648 218.522 106.84C218.522 121.616 210.931 133.59 201.587 133.59V133.59Z" fill="#E56038"/>
<path d="M134.925 116.043C134.925 116.043 139.23 129.395 150.374 129.598C161.518 129.802 163.991 121.005 163.991 121.005C163.991 121.005 159.201 132.822 149.466 131.962C139.73 131.101 135.567 118.704 134.925 116.043Z" fill="#C6492C"/>
<path d="M242.5 132C243.3 110.4 234.5 82 229 71L215 70.5C219.167 73.3333 228.3 83.3 223.5 96.5C217.5 113 226 110 228 121C229.6 129.8 218.333 135 212.5 136.5C218.5 136.5 235 133.5 242.5 132Z" fill="#C6492C"/>
<path d="M186.123 117.687C186.123 117.687 190.427 131.054 201.571 131.242C212.715 131.429 215.188 122.664 215.188 122.664C215.188 122.664 210.399 134.482 200.663 133.621C190.928 132.76 186.78 120.348 186.123 117.687Z" fill="#C6492C"/>
<path d="M182.632 73.8616C182.632 73.8616 195.389 45.1089 209.773 62.107L224.157 79.1363C224.157 79.1363 192.775 66.4895 182.632 73.8616Z" fill="#453F3C"/>
<path d="M131.701 75.7711C131.701 75.7711 148.683 40.8046 159.734 53.6549C170.784 66.5051 170.064 70.5434 170.064 70.5434C170.064 70.5434 146.664 60.3539 131.701 75.7711Z" fill="#453F3C"/>
</g>
<defs>
<linearGradient id="paint0_linear_463_518" x1="55.5" y1="623" x2="344.574" y2="548.063" gradientUnits="userSpaceOnUse">
<stop stop-color="#86BAE2"/>
<stop offset="1" stop-color="#2F8BC9" stop-opacity="0.15"/>
</linearGradient>
<linearGradient id="paint1_linear_463_518" x1="171.723" y1="271.248" x2="210.133" y2="251.01" gradientUnits="userSpaceOnUse">
<stop stop-color="white" stop-opacity="0"/>
<stop offset="1" stop-color="white" stop-opacity="0.5"/>
</linearGradient>
<linearGradient id="paint2_linear_463_518" x1="8792.42" y1="24434.7" x2="8635.52" y2="24580.8" gradientUnits="userSpaceOnUse">
<stop stop-color="white" stop-opacity="0"/>
<stop offset="1" stop-color="white" stop-opacity="0.5"/>
</linearGradient>
<clipPath id="clip0_463_518">
<rect width="429.255" height="632.949" fill="white" transform="translate(15)"/>
</clipPath>
</defs>
</svg>
