<svg width="355" height="678" viewBox="0 0 355 678" fill="none" xmlns="http://www.w3.org/2000/svg">
<path opacity="0.4" d="M180 133.523L179.391 133.638C178.475 133.795 177.575 134.037 176.704 134.36C176.226 134.546 175.784 134.81 175.395 135.143C174.987 135.523 174.661 135.982 174.439 136.493C174.159 137.151 173.943 137.835 173.795 138.535C173.689 138.992 173.598 139.453 173.513 139.92C173.516 139.946 173.516 139.973 173.513 140C173.475 139.949 173.454 139.888 173.453 139.824C173.299 138.917 173.082 138.022 172.803 137.145C172.618 136.552 172.327 135.998 171.943 135.509C171.531 135.035 171.014 134.662 170.433 134.421C169.792 134.159 169.128 133.956 168.45 133.814C167.987 133.713 167.524 133.618 167.061 133.538C167.061 133.538 167.011 133.538 167.001 133.508C166.991 133.477 167.096 133.467 167.147 133.457C167.74 133.352 168.329 133.232 168.913 133.081C169.582 132.926 170.231 132.693 170.846 132.389C171.659 131.952 172.289 131.24 172.622 130.382C172.912 129.65 173.131 128.892 173.276 128.119C173.347 127.788 173.412 127.457 173.478 127.115C173.478 127.08 173.478 127.05 173.508 127C173.538 127.039 173.555 127.086 173.558 127.135C173.698 127.942 173.881 128.741 174.107 129.529C174.253 130.054 174.465 130.56 174.736 131.034C175.186 131.772 175.872 132.338 176.683 132.64C177.398 132.911 178.136 133.116 178.888 133.252L179.894 133.447C179.917 133.451 179.938 133.46 179.956 133.473C179.974 133.486 179.989 133.503 180 133.523V133.523Z" fill="#FFF8EE"/>
<path opacity="0.4" d="M260 57.5226L259.391 57.638C258.475 57.7954 257.575 58.0373 256.704 58.3605C256.226 58.5457 255.784 58.8104 255.395 59.1432C254.987 59.5229 254.661 59.9823 254.439 60.4929C254.159 61.1513 253.943 61.8351 253.795 62.5349C253.689 62.9915 253.598 63.4531 253.513 63.9197C253.516 63.9464 253.516 63.9733 253.513 64C253.475 63.949 253.454 63.8877 253.453 63.8244C253.299 62.9173 253.082 62.022 252.803 61.1451C252.618 60.5523 252.327 59.9981 251.943 59.5095C251.531 59.0346 251.014 58.6619 250.433 58.4207C249.792 58.1588 249.128 57.9556 248.45 57.8136C247.987 57.7132 247.524 57.6179 247.061 57.5376C247.061 57.5376 247.011 57.5376 247.001 57.5075C246.991 57.4774 247.096 57.4674 247.147 57.4574C247.74 57.352 248.329 57.2316 248.913 57.0811C249.582 56.9257 250.231 56.6933 250.846 56.3887C251.659 55.9521 252.289 55.2404 252.622 54.3817C252.912 53.6499 253.131 52.8922 253.276 52.1189C253.347 51.7877 253.412 51.4566 253.478 51.1154C253.478 51.0803 253.478 51.0502 253.508 51C253.538 51.0393 253.555 51.0864 253.558 51.1355C253.698 51.9424 253.881 52.7413 254.107 53.5288C254.253 54.0545 254.465 54.56 254.736 55.034C255.186 55.7721 255.872 56.3377 256.683 56.6395C257.398 56.9106 258.136 57.1155 258.888 57.2516L259.894 57.4473C259.917 57.4509 259.938 57.4595 259.956 57.4726C259.974 57.4856 259.989 57.5028 260 57.5226V57.5226Z" fill="#FFF8EE"/>
<path opacity="0.4" d="M284 474.523L283.391 474.638C282.475 474.795 281.575 475.037 280.704 475.36C280.226 475.546 279.784 475.81 279.395 476.143C278.987 476.523 278.661 476.982 278.439 477.493C278.159 478.151 277.943 478.835 277.795 479.535C277.689 479.992 277.598 480.453 277.513 480.92C277.516 480.946 277.516 480.973 277.513 481C277.475 480.949 277.454 480.888 277.453 480.824C277.299 479.917 277.082 479.022 276.803 478.145C276.618 477.552 276.327 476.998 275.943 476.509C275.531 476.035 275.014 475.662 274.433 475.421C273.792 475.159 273.128 474.956 272.45 474.814C271.987 474.713 271.524 474.618 271.061 474.538C271.061 474.538 271.011 474.538 271.001 474.508C270.991 474.477 271.096 474.467 271.147 474.457C271.74 474.352 272.329 474.232 272.913 474.081C273.582 473.926 274.231 473.693 274.846 473.389C275.659 472.952 276.289 472.24 276.622 471.382C276.912 470.65 277.131 469.892 277.276 469.119C277.347 468.788 277.412 468.457 277.478 468.115C277.478 468.08 277.478 468.05 277.508 468C277.538 468.039 277.555 468.086 277.558 468.135C277.698 468.942 277.881 469.741 278.107 470.529C278.253 471.054 278.465 471.56 278.736 472.034C279.186 472.772 279.872 473.338 280.683 473.64C281.398 473.911 282.136 474.116 282.888 474.252L283.894 474.447C283.917 474.451 283.938 474.46 283.956 474.473C283.974 474.486 283.989 474.503 284 474.523V474.523Z" fill="#FFF8EE"/>
<path opacity="0.4" d="M48 43.0104L47.719 43.0637C47.296 43.1364 46.8808 43.248 46.4786 43.3971C46.2583 43.4826 46.0541 43.6048 45.8747 43.7584C45.6862 43.9336 45.536 44.1457 45.4334 44.3813C45.304 44.6852 45.2044 45.0008 45.136 45.3238C45.0873 45.5345 45.0454 45.7476 45.006 45.9629C45.0074 45.9753 45.0074 45.9877 45.006 46C44.9886 45.9764 44.9789 45.9482 44.9781 45.919C44.9073 45.5003 44.8072 45.0871 44.6785 44.6824C44.5931 44.4088 44.4585 44.153 44.2813 43.9274C44.0912 43.7083 43.8527 43.5363 43.5844 43.4249C43.2885 43.3041 42.9822 43.2103 42.6693 43.1447C42.4556 43.0984 42.2419 43.0544 42.0282 43.0174C42.0282 43.0174 42.005 43.0174 42.0003 43.0035C41.9957 42.9896 42.0445 42.9849 42.0677 42.9803C42.3418 42.9317 42.6135 42.8761 42.883 42.8066C43.1917 42.7349 43.491 42.6277 43.7749 42.4871C44.1502 42.2856 44.441 41.9571 44.5948 41.5608C44.7285 41.223 44.8296 40.8733 44.8968 40.5164C44.9293 40.3636 44.9595 40.2107 44.9897 40.0533C44.9897 40.0371 44.9897 40.0232 45.0037 40C45.0174 40.0181 45.0255 40.0399 45.0269 40.0625C45.0914 40.435 45.1759 40.8037 45.2801 41.1671C45.3477 41.4098 45.4452 41.6431 45.5704 41.8618C45.778 42.2025 46.0947 42.4636 46.4693 42.6029C46.799 42.728 47.1396 42.8225 47.4867 42.8854L47.9512 42.9757C47.9615 42.9773 47.9712 42.9813 47.9797 42.9873C47.9882 42.9934 47.9951 43.0013 48 43.0104V43.0104Z" fill="#FFF8EE"/>
<path opacity="0.4" d="M213 506.01L212.719 506.064C212.296 506.136 211.881 506.248 211.479 506.397C211.258 506.483 211.054 506.605 210.875 506.758C210.686 506.934 210.536 507.146 210.433 507.381C210.304 507.685 210.204 508.001 210.136 508.324C210.087 508.535 210.045 508.748 210.006 508.963C210.007 508.975 210.007 508.988 210.006 509C209.989 508.976 209.979 508.948 209.978 508.919C209.907 508.5 209.807 508.087 209.678 507.682C209.593 507.409 209.459 507.153 209.281 506.927C209.091 506.708 208.853 506.536 208.584 506.425C208.289 506.304 207.982 506.21 207.669 506.145C207.456 506.098 207.242 506.054 207.028 506.017C207.028 506.017 207.005 506.017 207 506.003C206.996 505.99 207.044 505.985 207.068 505.98C207.342 505.932 207.614 505.876 207.883 505.807C208.192 505.735 208.491 505.628 208.775 505.487C209.15 505.286 209.441 504.957 209.595 504.561C209.729 504.223 209.83 503.873 209.897 503.516C209.929 503.364 209.96 503.211 209.99 503.053C209.99 503.037 209.99 503.023 210.004 503C210.017 503.018 210.025 503.04 210.027 503.063C210.091 503.435 210.176 503.804 210.28 504.167C210.348 504.41 210.445 504.643 210.57 504.862C210.778 505.203 211.095 505.464 211.469 505.603C211.799 505.728 212.14 505.823 212.487 505.885L212.951 505.976C212.961 505.977 212.971 505.981 212.98 505.987C212.988 505.993 212.995 506.001 213 506.01V506.01Z" fill="#FFF8EE"/>
<path opacity="0.4" d="M101 484.01L100.719 484.064C100.296 484.136 99.8808 484.248 99.4786 484.397C99.2583 484.483 99.0541 484.605 98.8747 484.758C98.6862 484.934 98.536 485.146 98.4334 485.381C98.304 485.685 98.2044 486.001 98.136 486.324C98.0873 486.535 98.0454 486.748 98.006 486.963C98.0074 486.975 98.0074 486.988 98.006 487C97.9886 486.976 97.9789 486.948 97.9781 486.919C97.9073 486.5 97.8072 486.087 97.6785 485.682C97.5931 485.409 97.4585 485.153 97.2813 484.927C97.0912 484.708 96.8527 484.536 96.5844 484.425C96.2885 484.304 95.9822 484.21 95.6693 484.145C95.4556 484.098 95.2419 484.054 95.0282 484.017C95.0282 484.017 95.005 484.017 95.0003 484.003C94.9957 483.99 95.0445 483.985 95.0677 483.98C95.3418 483.932 95.6135 483.876 95.883 483.807C96.1917 483.735 96.491 483.628 96.7749 483.487C97.1502 483.286 97.441 482.957 97.5948 482.561C97.7285 482.223 97.8296 481.873 97.8968 481.516C97.9293 481.364 97.9595 481.211 97.9897 481.053C97.9897 481.037 97.9897 481.023 98.0037 481C98.0174 481.018 98.0255 481.04 98.0269 481.063C98.0914 481.435 98.1759 481.804 98.2801 482.167C98.3477 482.41 98.4452 482.643 98.5704 482.862C98.778 483.203 99.0947 483.464 99.4693 483.603C99.799 483.728 100.14 483.823 100.487 483.885L100.951 483.976C100.961 483.977 100.971 483.981 100.98 483.987C100.988 483.993 100.995 484.001 101 484.01V484.01Z" fill="#FFF8EE"/>
<path opacity="0.4" d="M161 6.52258L160.391 6.63798C159.475 6.79544 158.575 7.03731 157.704 7.36048C157.226 7.54573 156.784 7.81039 156.395 8.14319C155.987 8.52287 155.661 8.9823 155.439 9.49287C155.159 10.1513 154.943 10.8351 154.795 11.5349C154.689 11.9915 154.598 12.4531 154.513 12.9197C154.516 12.9464 154.516 12.9733 154.513 13C154.475 12.949 154.454 12.8877 154.453 12.8244C154.299 11.9173 154.082 11.022 153.803 10.1451C153.618 9.55233 153.327 8.99807 152.943 8.50946C152.531 8.03465 152.014 7.66189 151.433 7.42069C150.792 7.1588 150.128 6.95559 149.45 6.81359C148.987 6.71324 148.524 6.61791 148.061 6.53764C148.061 6.53764 148.011 6.53763 148.001 6.50753C147.991 6.47742 148.096 6.46739 148.147 6.45736C148.74 6.35199 149.329 6.23158 149.913 6.08105C150.582 5.92569 151.231 5.69333 151.846 5.38865C152.659 4.9521 153.289 4.24037 153.622 3.38171C153.912 2.64985 154.131 1.89216 154.276 1.11888C154.347 0.787732 154.412 0.456586 154.478 0.115405C154.478 0.0802834 154.478 0.0501737 154.508 0C154.538 0.03926 154.555 0.086372 154.558 0.135471C154.698 0.94242 154.881 1.74133 155.107 2.52876C155.253 3.05446 155.465 3.56005 155.736 4.03397C156.186 4.77213 156.872 5.33772 157.683 5.63952C158.398 5.91061 159.136 6.11552 159.888 6.25164L160.894 6.44732C160.917 6.45088 160.938 6.45953 160.956 6.47258C160.974 6.48564 160.989 6.50275 161 6.52258V6.52258Z" fill="#FFF8EE"/>
<path d="M355 30.533L354.11 30.7017C352.771 30.9318 351.456 31.2853 350.182 31.7576C349.484 32.0284 348.838 32.4152 348.27 32.9016C347.673 33.4565 347.197 34.128 346.872 34.8742C346.463 35.8365 346.147 36.836 345.931 37.8587C345.776 38.5261 345.644 39.2007 345.519 39.8827C345.523 39.9217 345.523 39.961 345.519 40C345.464 39.9254 345.433 39.8359 345.431 39.7433C345.207 38.4175 344.89 37.109 344.482 35.8275C344.212 34.9611 343.785 34.151 343.224 33.4369C342.622 32.7429 341.867 32.1981 341.017 31.8456C340.08 31.4629 339.11 31.1659 338.119 30.9583C337.443 30.8117 336.766 30.6723 336.089 30.555C336.089 30.555 336.016 30.555 336.001 30.511C335.986 30.467 336.141 30.4523 336.214 30.4377C337.082 30.2837 337.943 30.1077 338.796 29.8877C339.774 29.6606 340.722 29.321 341.621 28.8757C342.809 28.2377 343.73 27.1975 344.217 25.9425C344.64 24.8729 344.96 23.7655 345.173 22.6353C345.276 22.1513 345.372 21.6673 345.467 21.1687C345.467 21.1173 345.467 21.0733 345.512 21C345.555 21.0574 345.581 21.1262 345.585 21.198C345.79 22.3774 346.057 23.545 346.387 24.6959C346.601 25.4642 346.91 26.2031 347.306 26.8958C347.964 27.9747 348.966 28.8013 350.153 29.2424C351.197 29.6386 352.275 29.9381 353.374 30.137L354.846 30.423C354.878 30.4282 354.909 30.4408 354.936 30.4599C354.963 30.479 354.985 30.504 355 30.533V30.533Z" fill="#FFF8EE"/>
<path d="M19 205.533L18.11 205.702C16.7708 205.932 15.4559 206.285 14.1823 206.758C13.4845 207.028 12.8379 207.415 12.2699 207.902C11.6731 208.456 11.1974 209.128 10.8723 209.874C10.4627 210.836 10.1474 211.836 9.9308 212.859C9.77633 213.526 9.64389 214.201 9.51885 214.883C9.52329 214.922 9.52329 214.961 9.51885 215C9.46391 214.925 9.43312 214.836 9.43059 214.743C9.2066 213.418 8.8896 212.109 8.4818 210.827C8.21159 209.961 7.78532 209.151 7.22396 208.437C6.62225 207.743 5.86677 207.198 5.01734 206.846C4.08031 206.463 3.11035 206.166 2.11935 205.958C1.44265 205.812 0.765941 205.672 0.0892423 205.555C0.0892423 205.555 0.0156917 205.555 0.000980848 205.511C-0.01373 205.467 0.140763 205.452 0.214317 205.438C1.08226 205.284 1.94285 205.108 2.79608 204.888C3.77372 204.661 4.72155 204.321 5.62053 203.876C6.80897 203.238 7.72978 202.197 8.21702 200.942C8.64037 199.873 8.9605 198.765 9.17317 197.635C9.27614 197.151 9.37178 196.667 9.4674 196.169C9.4674 196.117 9.46745 196.073 9.51158 196C9.55504 196.057 9.5806 196.126 9.58512 196.198C9.78956 197.377 10.0572 198.545 10.3868 199.696C10.601 200.464 10.9099 201.203 11.3063 201.896C11.9637 202.975 12.9664 203.801 14.1528 204.242C15.1969 204.639 16.2753 204.938 17.3745 205.137L18.8456 205.423C18.8781 205.428 18.9089 205.441 18.9357 205.46C18.9625 205.479 18.9845 205.504 19 205.533V205.533Z" fill="#FFF8EE"/>
<path opacity="0.4" d="M101 484.01L100.719 484.064C100.296 484.136 99.8808 484.248 99.4786 484.397C99.2583 484.483 99.0541 484.605 98.8747 484.758C98.6862 484.934 98.536 485.146 98.4334 485.381C98.304 485.685 98.2044 486.001 98.136 486.324C98.0873 486.535 98.0454 486.748 98.006 486.963C98.0074 486.975 98.0074 486.988 98.006 487C97.9886 486.976 97.9789 486.948 97.9781 486.919C97.9073 486.5 97.8072 486.087 97.6785 485.682C97.5931 485.409 97.4585 485.153 97.2813 484.927C97.0912 484.708 96.8527 484.536 96.5844 484.425C96.2885 484.304 95.9822 484.21 95.6693 484.145C95.4556 484.098 95.2419 484.054 95.0282 484.017C95.0282 484.017 95.005 484.017 95.0003 484.003C94.9957 483.99 95.0445 483.985 95.0677 483.98C95.3418 483.932 95.6135 483.876 95.883 483.807C96.1917 483.735 96.491 483.628 96.7749 483.487C97.1502 483.286 97.441 482.957 97.5948 482.561C97.7285 482.223 97.8296 481.873 97.8968 481.516C97.9293 481.364 97.9595 481.211 97.9897 481.053C97.9897 481.037 97.9897 481.023 98.0037 481C98.0174 481.018 98.0255 481.04 98.0269 481.063C98.0914 481.435 98.1759 481.804 98.2801 482.167C98.3477 482.41 98.4452 482.643 98.5704 482.862C98.778 483.203 99.0947 483.464 99.4693 483.603C99.799 483.728 100.14 483.823 100.487 483.885L100.951 483.976C100.961 483.977 100.971 483.981 100.98 483.987C100.988 483.993 100.995 484.001 101 484.01V484.01Z" fill="#FFF8EE"/>
<path opacity="0.4" d="M345 212.01L344.719 212.064C344.296 212.136 343.881 212.248 343.479 212.397C343.258 212.483 343.054 212.605 342.875 212.758C342.686 212.934 342.536 213.146 342.433 213.381C342.304 213.685 342.204 214.001 342.136 214.324C342.087 214.535 342.045 214.748 342.006 214.963C342.007 214.975 342.007 214.988 342.006 215C341.989 214.976 341.979 214.948 341.978 214.919C341.907 214.5 341.807 214.087 341.678 213.682C341.593 213.409 341.459 213.153 341.281 212.927C341.091 212.708 340.853 212.536 340.584 212.425C340.289 212.304 339.982 212.21 339.669 212.145C339.456 212.098 339.242 212.054 339.028 212.017C339.028 212.017 339.005 212.017 339 212.003C338.996 211.99 339.044 211.985 339.068 211.98C339.342 211.932 339.614 211.876 339.883 211.807C340.192 211.735 340.491 211.628 340.775 211.487C341.15 211.286 341.441 210.957 341.595 210.561C341.729 210.223 341.83 209.873 341.897 209.516C341.929 209.364 341.96 209.211 341.99 209.053C341.99 209.037 341.99 209.023 342.004 209C342.017 209.018 342.025 209.04 342.027 209.063C342.091 209.435 342.176 209.804 342.28 210.167C342.348 210.41 342.445 210.643 342.57 210.862C342.778 211.203 343.095 211.464 343.469 211.603C343.799 211.728 344.14 211.823 344.487 211.885L344.951 211.976C344.961 211.977 344.971 211.981 344.98 211.987C344.988 211.993 344.995 212.001 345 212.01V212.01Z" fill="#FFF8EE"/>
<path opacity="0.4" d="M133 675.01L132.719 675.064C132.296 675.136 131.881 675.248 131.479 675.397C131.258 675.483 131.054 675.605 130.875 675.758C130.686 675.934 130.536 676.146 130.433 676.381C130.304 676.685 130.204 677.001 130.136 677.324C130.087 677.535 130.045 677.748 130.006 677.963C130.007 677.975 130.007 677.988 130.006 678C129.989 677.976 129.979 677.948 129.978 677.919C129.907 677.5 129.807 677.087 129.678 676.682C129.593 676.409 129.459 676.153 129.281 675.927C129.091 675.708 128.853 675.536 128.584 675.425C128.289 675.304 127.982 675.21 127.669 675.145C127.456 675.098 127.242 675.054 127.028 675.017C127.028 675.017 127.005 675.017 127 675.003C126.996 674.99 127.044 674.985 127.068 674.98C127.342 674.932 127.614 674.876 127.883 674.807C128.192 674.735 128.491 674.628 128.775 674.487C129.15 674.286 129.441 673.957 129.595 673.561C129.729 673.223 129.83 672.873 129.897 672.516C129.929 672.364 129.96 672.211 129.99 672.053C129.99 672.037 129.99 672.023 130.004 672C130.017 672.018 130.025 672.04 130.027 672.063C130.091 672.435 130.176 672.804 130.28 673.167C130.348 673.41 130.445 673.643 130.57 673.862C130.778 674.203 131.095 674.464 131.469 674.603C131.799 674.728 132.14 674.823 132.487 674.885L132.951 674.976C132.961 674.977 132.971 674.981 132.98 674.987C132.988 674.993 132.995 675.001 133 675.01V675.01Z" fill="#FFF8EE"/>
<path opacity="0.4" d="M107 355.01L106.719 355.064C106.296 355.136 105.881 355.248 105.479 355.397C105.258 355.483 105.054 355.605 104.875 355.758C104.686 355.934 104.536 356.146 104.433 356.381C104.304 356.685 104.204 357.001 104.136 357.324C104.087 357.535 104.045 357.748 104.006 357.963C104.007 357.975 104.007 357.988 104.006 358C103.989 357.976 103.979 357.948 103.978 357.919C103.907 357.5 103.807 357.087 103.678 356.682C103.593 356.409 103.459 356.153 103.281 355.927C103.091 355.708 102.853 355.536 102.584 355.425C102.289 355.304 101.982 355.21 101.669 355.145C101.456 355.098 101.242 355.054 101.028 355.017C101.028 355.017 101.005 355.017 101 355.003C100.996 354.99 101.044 354.985 101.068 354.98C101.342 354.932 101.614 354.876 101.883 354.807C102.192 354.735 102.491 354.628 102.775 354.487C103.15 354.286 103.441 353.957 103.595 353.561C103.729 353.223 103.83 352.873 103.897 352.516C103.929 352.364 103.96 352.211 103.99 352.053C103.99 352.037 103.99 352.023 104.004 352C104.017 352.018 104.025 352.04 104.027 352.063C104.091 352.435 104.176 352.804 104.28 353.167C104.348 353.41 104.445 353.643 104.57 353.862C104.778 354.203 105.095 354.464 105.469 354.603C105.799 354.728 106.14 354.823 106.487 354.885L106.951 354.976C106.961 354.977 106.971 354.981 106.98 354.987C106.988 354.993 106.995 355.001 107 355.01V355.01Z" fill="#FFF8EE"/>
</svg>
