<svg width="360" height="258" viewBox="0 0 360 258" fill="none" xmlns="http://www.w3.org/2000/svg">
<g opacity="0.7">
<mask id="mask0_440_175" style="mask-type:alpha" maskUnits="userSpaceOnUse" x="0" y="0" width="360" height="258">
<rect width="360" height="258" fill="#C4C4C4"/>
</mask>
<g mask="url(#mask0_440_175)">
<path d="M184.443 219.813C184.443 219.813 216.922 188.609 248.48 175.387C280.038 162.165 299.962 167.163 299.962 167.163C299.962 167.163 306.932 144.801 331.827 127.079C356.721 109.356 394.568 71.3449 394.568 71.3449L420.319 71.0223C420.319 71.0223 440.28 42.4203 455.268 30.5733C470.257 18.7263 475.704 -1.6886 483.04 15.7645C490.375 33.2177 523.917 59.4767 531.829 71.0276C539.741 82.5784 532.95 105.902 538.678 109.911C544.406 113.92 561.087 127.258 569.089 131.262C577.091 135.266 585.363 162.329 585.183 162.815C585.003 163.302 610.442 211.948 610.442 211.948L605.339 259.172C605.339 259.172 340.278 219.787 184.443 219.813Z" fill="#83AEC8"/>
<path d="M379.002 230.454C376.663 229.384 374.386 228.185 372.18 226.863C370.294 225.678 368.502 224.352 366.817 222.896C363.379 219.934 360.428 216.465 357.514 212.995C354.047 208.749 350.302 204.738 346.302 200.99C342.166 197.203 337.695 193.8 332.942 190.825C330.62 189.381 328.235 188.043 325.786 186.831C324.679 186.285 323.558 185.756 322.423 185.245L321.989 185.06L321.508 184.88C316.748 182.949 311.919 181.31 307.138 179.496C300.914 177.204 294.81 174.601 288.849 171.695C285.848 170.23 282.936 168.589 280.128 166.781C271.777 167.733 261.088 170.108 248.501 175.381C216.942 188.603 184.463 219.807 184.463 219.807C241.694 219.807 313.664 225.096 381.821 231.829C380.876 231.36 379.937 230.902 379.002 230.454Z" fill="#7CA1B8"/>
<path d="M389.607 225.446C386.846 223.701 384.139 221.881 381.515 219.935C375.843 215.729 370.469 211.134 365.432 206.184C362.921 203.716 360.505 201.163 358.181 198.526C356.013 196.045 354.035 193.443 352.025 190.841C350.439 188.743 348.574 186.871 346.482 185.277C344.465 183.836 342.326 182.576 340.088 181.511C337.454 180.193 334.799 178.92 332.123 177.693C329.747 176.646 327.46 175.407 325.284 173.991C321.423 171.448 318.355 167.871 316.431 163.667C315.302 161.079 314.416 158.391 313.787 155.639C313.041 152.576 312.348 149.503 311.671 146.431C302.881 157.828 299.967 167.179 299.967 167.179C299.967 167.179 294.318 165.756 284.27 166.428C287.994 168.587 291.84 170.53 295.789 172.245C301.458 174.763 307.265 176.953 313.088 179.121C318.192 180.998 323.301 182.823 328.146 185.298C337.955 190.427 346.786 197.241 354.235 205.428C360.524 212.271 365.77 220.072 373.841 224.996C376.036 226.345 378.363 227.413 380.674 228.534C383.319 229.814 385.921 231.179 388.534 232.501L388.645 232.559C395.827 233.286 402.949 234.019 410.012 234.759C406.516 233.173 402.872 231.888 399.317 230.444C395.938 229.071 392.688 227.398 389.607 225.446Z" fill="#7CA1B8"/>
<path d="M585.183 162.81C585.363 162.324 577.091 135.261 569.089 131.257C561.087 127.253 544.406 113.915 538.678 109.906C532.95 105.897 539.736 82.568 531.829 71.0225C526.012 62.5604 506.443 46.165 493.522 31.1553C490.933 32.8423 488.436 34.6679 486.044 36.6239C486.02 36.7942 485.96 36.9574 485.869 37.1032C485.778 37.249 485.657 37.374 485.515 37.4701C481.732 40.0939 478.234 43.1074 475.08 46.4612C468.938 53.0072 464.18 60.725 461.09 69.1528C458 77.5805 456.643 86.545 457.098 95.5098C457.447 102.295 460.742 108.88 463.698 114.862C466.872 121.282 470.436 127.555 473.049 134.235C474.911 138.995 476.714 144.939 474.239 149.81C471.558 155.099 464.301 156.199 459.039 156.881C451.323 157.876 443.516 157.712 435.768 158.357C429.03 158.918 422.091 160.869 416.395 164.635C414.232 166.063 412.54 168.02 410.969 170.061C408.552 173.208 406.256 176.408 403.702 179.47C397.857 186.386 391.298 192.665 384.133 198.203C369.668 209.452 353.162 217.809 335.931 223.917C332.969 224.975 329.992 225.938 326.998 226.847C463.979 238.171 651.045 275.813 651.045 275.813V240.113C651.045 240.113 585.003 163.291 585.183 162.81Z" fill="#7CA1B8"/>
<path d="M221.851 193.036C224.147 193.21 226.812 193.316 228.859 194.506C230.033 195.188 230.694 196.294 231.503 197.23C232.37 198.226 233.452 199.011 234.669 199.525C235.885 200.038 237.203 200.266 238.522 200.192C242.065 200.038 245.54 198.52 248.676 196.971C251.741 195.542 254.652 193.805 257.366 191.788C262.655 187.636 267.6 182.162 274.322 180.327C280.748 178.571 288.3 180.623 294.726 181.548C309.884 183.722 324.195 189.603 339.221 192.279C337.058 189.667 333.932 187.578 331.341 185.869C327.038 183.096 322.549 180.622 317.907 178.465C310.894 175.128 304.442 170.294 297.471 166.703C291.219 165.846 273.523 164.857 248.48 175.366C237.929 179.792 227.278 186.229 217.768 192.819C219.133 192.865 220.494 192.937 221.851 193.036Z" fill="white"/>
<path d="M331.339 185.869C327.036 183.096 322.548 180.622 317.905 178.465C310.892 175.128 304.44 170.294 297.469 166.703C291.951 166.046 286.375 166.046 280.857 166.703C282.686 167.545 284.31 168.773 285.617 170.304C286.014 170.775 286.178 171.616 285.617 172.071C280.17 176.487 272.675 176.302 266.096 177.36C264.688 177.598 263.293 177.91 261.918 178.296C260.331 178.729 258.639 179.031 257.232 179.935C256.557 180.444 255.924 181.007 255.339 181.617C255.206 181.739 255.053 181.897 254.9 182.056C255.227 182.453 255.545 182.86 255.836 183.288C256.037 183.585 256.222 183.891 256.428 184.187L256.666 184.505L256.962 184.875C257.491 185.552 258.099 186.202 258.686 186.848C259.353 187.588 260.03 188.318 260.707 189.048C264.837 185.515 269.015 181.807 274.31 180.364C280.735 178.608 288.288 180.66 294.714 181.585C309.872 183.759 324.183 189.64 339.209 192.316C337.056 189.667 333.931 187.578 331.339 185.869Z" fill="#EAF5F5"/>
<path d="M412.365 152.206C409.276 149.614 405.765 147.398 401.787 146.473C399.348 145.965 396.872 145.653 394.383 145.542C391.739 145.357 389.057 145.299 386.392 145.336C376.073 145.473 365.85 146.986 355.595 147.98L355.563 148.028C354.325 149.509 352.02 151.138 352.39 153.258C352.707 155.099 354.188 156.717 355.632 157.802C357.076 158.886 358.673 159.6 360.439 159.203C362.206 158.806 363.866 157.569 365.321 156.411C366.908 155.162 368.415 153.793 370.224 152.904C370.511 152.744 370.85 152.701 371.168 152.785C371.487 152.869 371.76 153.073 371.932 153.354C373.093 155.958 374.043 158.652 374.772 161.409C375.047 162.554 375.4 163.68 375.83 164.778C376.02 165.246 376.254 165.696 376.528 166.121C376.576 166.195 376.628 166.274 376.687 166.348C378.12 165.047 378.94 163.037 379.818 161.35C380.907 159.235 382.335 156.871 384.71 156.062C387.354 155.157 389.38 157.241 391.506 158.362C393.093 159.203 395.002 159.552 396.366 160.795C397.821 162.117 398.424 164.249 399.228 165.978C399.984 167.612 400.703 169.125 401.999 170.209C402.109 170.298 402.224 170.381 402.343 170.458C402.523 170.574 402.708 170.685 402.872 170.78C403.183 170.952 403.513 171.089 403.855 171.188C404.925 171.501 406.031 171.679 407.145 171.716C409.343 171.858 411.543 171.485 413.571 170.627C417.516 168.908 420.351 165.428 421.811 161.446C418.743 158.325 415.755 155.051 412.365 152.206Z" fill="white"/>
<path d="M-57.6377 188.826C-57.6377 188.826 -29.0357 180.892 -6.02395 165.301C16.9878 149.709 34.2293 124.254 43.0458 134.097C51.8623 143.939 73.5254 174.229 92.3324 179.417C111.14 184.605 130.899 172.187 147.172 186.525C163.446 200.863 213.283 219.813 213.283 219.813L-34.4303 237.441C-34.4303 237.441 -48.1389 247.537 -57.6588 188.826" fill="#B1CFDA"/>
<path d="M-110.283 260.211L32.738 232.681C33.1147 232.152 33.4574 231.599 33.764 231.026C33.9386 230.687 34.1025 230.338 34.2559 229.968L34.3775 229.672C34.4463 229.487 34.515 229.307 34.5732 229.143C34.8291 228.447 35.0065 227.725 35.1021 226.99C35.3224 224.887 34.8844 222.768 33.8487 220.924C31.5956 216.857 27.2482 214.123 23.1335 212.023C18.6803 209.759 13.9468 208.109 9.21861 206.533C8.93497 206.444 8.69188 206.258 8.53239 206.007C8.37291 205.756 8.30731 205.457 8.34721 205.163C8.38711 204.868 8.52995 204.597 8.75042 204.398C8.97089 204.199 9.25477 204.084 9.55181 204.074C10.5144 203.979 11.4769 203.899 12.4395 203.825C17.1624 203.466 21.8959 203.222 26.5924 202.582C30.9662 201.99 35.6574 201.186 39.5342 198.965C41.3678 197.838 42.9661 196.367 44.2412 194.633C44.5223 194.263 44.7785 193.874 45.0081 193.47C45.098 193.316 45.1773 193.158 45.2567 192.999C45.2567 192.999 45.299 192.904 45.3254 192.846C45.3519 192.787 45.3836 192.703 45.3836 192.703C45.4744 192.438 45.5468 192.168 45.6004 191.894C45.6004 191.835 45.6269 191.64 45.6269 191.582C45.6269 191.523 45.6269 191.359 45.6269 191.248V191.217C45.6269 191.153 45.6004 191.084 45.5846 191.021C45.5687 190.957 45.5105 190.788 45.4788 190.672C45.4769 190.656 45.4769 190.64 45.4788 190.624L45.4418 190.566C45.373 190.444 45.3148 190.323 45.2408 190.206C45.1668 190.09 45.1297 190.037 45.0716 189.958C45.0134 189.879 44.9023 189.752 44.86 189.704C44.6639 189.488 44.4556 189.283 44.2359 189.091C44.1037 188.969 43.9662 188.858 43.8287 188.741H43.7917L43.6383 188.625C43.3633 188.424 43.1094 188.234 42.8026 188.043C42.1786 187.631 41.5333 187.245 40.8828 186.864C37.9634 185.145 34.8905 183.474 32.6005 180.914C30.1845 178.162 28.8665 174.617 28.8983 170.955C28.8719 166.988 30.0248 163.075 31.4105 159.399C33.0289 155.089 35.0492 150.937 37.0061 146.775C39.0129 142.712 40.7669 138.529 42.2579 134.251C42.3425 134.002 42.4166 133.753 42.4906 133.505C33.4996 125.339 16.5278 150.043 -6.00264 165.301C-29.0144 180.893 -110.283 207.587 -110.283 207.587C-110.283 270.054 -110.283 260.211 -110.283 260.211Z" fill="#8FBFCC"/>
<path d="M12.0431 170.214C16.7766 169.685 22.3087 169.537 25.8416 173.255C27.1268 174.609 28.1158 176.217 29.2794 177.666C30.7063 179.437 32.3682 181.004 34.2191 182.326C35.5753 180.284 37.2564 178.478 39.1959 176.979C41.1687 175.477 43.8871 173.996 46.4469 174.038C48.3932 174.07 49.9428 175.445 51.3338 176.645C51.8997 177.216 52.5599 177.685 53.2854 178.031C53.7402 178.19 53.8883 178.031 54.4754 177.925C56.0144 177.608 57.5429 177.232 59.0661 176.868C59.4839 176.767 59.9176 176.614 60.346 176.556C61.2556 176.429 62.3134 176.868 63.1755 177.137C73.2243 180.258 81.5806 187.186 91.5818 190.444C91.7851 189.972 92.0293 189.519 92.3117 189.09C94.5912 185.689 98.727 184.33 102.588 183.669C107.263 182.892 112.018 182.934 116.746 182.865C118.862 182.865 120.977 182.802 123.056 182.601C124.965 182.416 126.811 181.892 128.694 181.543C131.052 181.083 133.453 180.734 135.833 180.485C122.146 176.889 106.951 183.473 92.3328 179.427C73.5257 174.239 51.8627 143.929 43.0462 134.107C34.2297 124.286 16.9934 149.741 -6.02359 165.311C-11.5657 169.019 -17.3446 172.36 -23.3234 175.313C-11.323 175.053 0.190781 171.584 12.0431 170.214Z" fill="white"/>
<path d="M28.5442 175.953C27.1532 172.822 26.2965 168.977 29.2423 166.433C30.7655 165.121 32.6801 164.36 34.5682 163.751C36.763 163.043 39.0214 162.54 41.2638 162.006C43.5397 161.506 45.7814 160.861 47.9754 160.076C48.8568 159.741 49.705 159.325 50.5087 158.833C50.9245 158.586 51.3128 158.295 51.667 157.965L51.5559 157.838C51.4237 157.69 51.2915 157.558 51.1487 157.426C51.0059 157.294 50.9741 157.273 50.8842 157.198L50.8472 157.167L50.8102 157.14C50.1503 156.671 49.4274 156.297 48.6629 156.03C45.0506 154.75 41.1687 154.755 37.3554 154.512C33.7167 154.279 29.7395 154.126 26.4445 152.396C26.2084 152.255 26.0245 152.041 25.9206 151.786C25.8166 151.532 25.7982 151.25 25.8681 150.984C26.5302 148.68 27.6054 146.515 29.0414 144.595C32.7118 139.766 38.0324 137.053 43.4005 134.483L43.0303 134.065C34.2138 124.244 16.9775 149.699 -6.03947 165.269C-11.5752 168.991 -17.3489 172.346 -23.3234 175.313C-11.3336 175.054 0.180207 171.611 12.0325 170.214C16.766 169.685 22.2981 169.537 25.831 173.255C27.1162 174.609 28.1052 176.217 29.2688 177.666C29.3534 177.767 29.4433 177.862 29.5279 177.968C29.1842 177.307 28.8457 176.635 28.5442 175.953Z" fill="#EAF5F5"/>
<path d="M140.133 195.923C138.546 195.923 136.986 196.484 135.494 196.949C132.697 197.816 129.962 198.806 127.032 199.065C124.917 199.234 122.801 198.98 120.686 199.012C118.961 199.038 117.243 199.181 115.867 200.001C115.247 200.361 114.742 200.892 114.413 201.529C114.071 202.244 113.87 203.018 113.821 203.809C113.821 203.862 113.858 203.915 113.868 203.967C113.977 204.744 114.045 205.526 114.069 206.31C114.069 206.458 114.08 206.607 114.101 206.755C114.101 206.755 114.101 206.797 114.101 206.813C114.101 206.829 114.101 206.945 114.138 207.008L114.212 207.273C114.212 207.273 114.265 207.315 114.281 207.336C114.397 207.368 114.572 207.41 114.514 207.405C114.882 207.441 115.254 207.416 115.614 207.331C116.221 207.167 116.756 206.806 117.137 206.305C118.269 205.136 119.422 204.221 121.114 204.094C122.806 203.967 124.287 204.84 125.768 205.586C126.352 205.923 126.991 206.152 127.656 206.263C128.489 206.319 129.324 206.211 130.116 205.945C131.702 205.48 133.056 204.554 134.489 203.798C135.299 203.369 136.138 202.999 137.002 202.693C137.73 202.362 138.546 202.273 139.329 202.439C140.123 202.754 140.876 203.165 141.571 203.661C142.312 204.089 143.047 204.517 143.792 204.935C146.104 206.231 148.748 207.696 151.467 208.003C149.472 204.062 146.896 200.445 143.824 197.272C142.787 196.408 141.482 195.931 140.133 195.923V195.923Z" fill="white"/>
<path d="M114.08 206.289C114.08 206.437 114.091 206.585 114.112 206.734C114.112 206.734 114.112 206.776 114.112 206.792C114.112 206.808 114.112 206.924 114.149 206.987L114.223 207.252C114.223 207.252 114.276 207.294 114.292 207.315C114.408 207.347 114.583 207.389 114.524 207.384C114.893 207.42 115.264 207.395 115.624 207.31C116.232 207.146 116.767 206.785 117.148 206.284C118.279 205.115 119.432 204.2 121.125 204.073C122.817 203.946 124.298 204.819 125.779 205.565C126.363 205.902 127.002 206.131 127.667 206.242C128.5 206.298 129.335 206.19 130.126 205.924C130.613 205.783 131.089 205.606 131.549 205.395C130.667 205.019 129.761 204.703 128.836 204.449C127.187 204.023 125.645 203.258 124.309 202.201C124.08 201.963 123.953 201.645 123.953 201.315C123.953 200.985 124.08 200.668 124.309 200.429C124.715 199.933 125.184 199.492 125.705 199.118C124.034 199.118 122.362 198.985 120.696 199.012C119.03 199.038 117.253 199.181 115.878 200.001C115.258 200.361 114.753 200.892 114.424 201.529C114.082 202.244 113.881 203.018 113.832 203.809C113.832 203.862 113.869 203.915 113.879 203.967C113.988 204.737 114.055 205.512 114.08 206.289Z" fill="#EAF5F5"/>
<path d="M185.872 224.045L182.651 223.538L184.258 215.155L185.872 214.33L184.258 212.796L186.363 207.396L187.585 211.484L186.908 213.182L190.457 220.935L185.872 224.045Z" fill="#57917F"/>
<path d="M173.613 223H167L168.881 220.021L167.56 217.934H169.466L169.691 212.815L170.812 214.739L172.103 202L174.734 212.815L172.473 214.739C172.718 214.535 175.744 214.739 175.744 214.739L177 223H173.613Z" fill="#57917F"/>
<path d="M193.867 223.273H186.875L188.864 220.571L187.468 218.677H189.483L189.721 214.034L190.905 215.779L192.27 204.223L195.052 214.034L192.656 215.779C192.92 215.594 196.12 215.779 196.12 215.779L197.448 223.273H193.867Z" fill="#57917F"/>
<path d="M180.725 224.183H175.664L176.42 219.216L178.837 217.471L177.023 216.688L179.556 207.264L182.555 219.216L179.107 220.687H182.555L184.433 224.183" fill="#57917F"/>
<path d="M206.85 223.167H201.789L202.545 217.608L204.962 215.657L203.148 214.773L205.682 204.217L208.68 217.608L205.237 219.258H208.68L210.558 223.167" fill="#57917F"/>
<path d="M205.107 222.972L197.449 223.273L199.109 220.126L197.449 219.428L200.04 207.396L202.214 215.001L200.765 215.335L202.42 216.138L205.107 222.972Z" fill="#57917F"/>
<path d="M354.04 204.771L350.401 202.423L356.626 196.886L350.401 195.611L360.064 173.71L361.65 179.078L360.323 181.712L362.851 182.5L364.527 201.032L360.323 202.423L366.405 204.999L354.04 204.771Z" fill="#57917F"/>
<path d="M97.9708 220.041H90.979L92.9676 217.339L91.5714 215.44H93.5864L93.8191 210.802L95.0038 212.547L96.3683 200.986L99.1555 210.802L96.7597 212.547C97.0188 212.362 100.219 212.547 100.219 212.547L101.551 220.041H97.9708Z" fill="#57917F"/>
<path d="M-110.812 254.393C-110.812 254.393 -38.9209 206.645 43.4526 214.837C125.826 223.03 203.017 227.102 296.957 216.704C390.897 206.307 404.368 200.214 445.885 210.358C487.403 220.502 652.366 213.404 651.838 218.693C651.309 223.982 651.573 421.097 651.573 421.097L-110.812 414.38V254.393Z" fill="#EAF5F5"/>
<path d="M-36.3615 222.015C-22.4836 222.015 -8.65855 223.416 5.22463 222.835C19.5944 222.232 33.9271 220.571 48.318 220.899C62.7089 221.227 77.2003 222.671 91.5965 223.67C106.104 224.681 120.611 225.664 135.139 226.405C161.42 227.737 187.769 228.399 214.017 226.146C227.269 225.028 240.448 223.174 253.493 220.592C178.434 225.707 112.768 221.735 43.4523 214.838C1.97729 210.713 -26.4502 215.965 -44.4534 222.195C-41.7561 222.068 -39.0588 222.008 -36.3615 222.015Z" fill="white"/>
<path d="M211.732 290.855C211.256 289.384 210.705 287.938 210.082 286.523C207.285 280.092 203.836 273.983 201.192 267.457C199.929 264.564 199.04 261.521 198.547 258.402C198.321 256.875 198.361 255.32 198.664 253.806C196.88 254.106 195.096 254.395 193.311 254.674C183.439 256.204 173.521 257.353 163.556 258.122C153.793 258.873 144.011 259.259 134.209 259.28C124.266 259.317 114.323 259 104.396 258.418C100.297 258.175 96.2138 257.789 92.1202 257.535C90.7754 257.442 89.4265 257.422 88.0796 257.477C86.9528 257.493 85.8328 257.654 84.7476 257.958C84.4673 258.037 84.1923 258.133 83.912 258.233H83.8538L83.7797 258.27C83.6687 258.323 83.5629 258.371 83.4571 258.429C83.2364 258.548 83.0243 258.682 82.8225 258.831L82.759 258.889C82.6691 258.974 82.5792 259.058 82.4946 259.148C82.4402 259.207 82.389 259.269 82.3412 259.333C82.2994 259.391 82.2605 259.451 82.2248 259.513C82.1825 259.582 82.1455 259.656 82.1085 259.73C82.0841 259.781 82.0629 259.834 82.045 259.889C82.008 260.015 81.971 260.137 81.9445 260.264C81.9293 260.323 81.9187 260.383 81.9128 260.444C81.8969 260.698 81.8969 260.952 81.9128 261.205C81.9229 261.448 81.9638 261.688 82.0344 261.919C82.1101 262.244 82.2037 262.563 82.3147 262.877C82.6015 263.65 82.9555 264.397 83.3725 265.109C84.145 266.464 85.1267 267.688 86.2814 268.737C88.783 271.027 91.8981 272.619 94.9868 273.967C98.213 275.374 101.566 276.48 104.887 277.617C108.621 278.897 112.318 280.261 116.084 281.467C120.527 282.877 125.011 284.138 129.539 285.249C138.705 287.503 147.986 289.257 157.342 290.506C166.74 291.775 176.207 292.574 185.68 292.986C194.538 293.372 203.413 293.409 212.277 293.145C212.277 293.039 212.245 292.938 212.219 292.833C212.09 292.166 211.928 291.505 211.732 290.855V290.855Z" fill="#D1E9EF"/>
<path d="M298.375 233.497C299.2 235.666 299.268 238.257 298.158 240.346C297.137 242.261 295.228 243.451 293.276 244.249C291.118 245.138 288.77 245.572 286.501 246.079L285.919 246.201C287.638 246.137 289.352 246.069 291.071 245.989C297.026 245.72 302.976 245.339 308.91 244.789C311.803 244.514 314.685 244.202 317.563 243.826L318.001 243.768L318.44 243.71L319.456 243.567L321.508 243.26C322.788 243.059 324.062 242.841 325.332 242.605C327.68 242.16 330.018 241.653 332.318 241.018C333.313 240.738 334.302 240.436 335.28 240.092C335.719 239.934 336.158 239.77 336.592 239.601L336.957 239.447H336.994L337.581 239.183C338.311 238.856 339.018 238.48 339.696 238.056L340.162 237.744C340.273 237.665 340.532 237.464 340.463 237.522C340.68 237.342 340.897 237.162 341.098 236.961C341.209 236.85 341.32 236.739 341.42 236.623C341.521 236.507 341.759 236.131 341.51 236.522C341.653 236.295 341.817 236.089 341.944 235.845C341.97 235.798 341.992 235.745 342.018 235.692C342.059 235.586 342.094 235.479 342.124 235.369C342.156 235.258 342.171 235.142 342.203 235.031C342.235 234.92 342.203 234.941 342.203 234.899C342.211 234.763 342.211 234.627 342.203 234.492C342.206 234.458 342.206 234.424 342.203 234.391C342.134 234.121 342.076 233.862 341.986 233.587C341.987 233.573 341.987 233.559 341.986 233.545V233.487C341.986 233.455 341.986 233.428 341.949 233.397C341.875 233.254 341.801 233.106 341.722 232.963C341.643 232.82 341.611 232.788 341.553 232.699L341.521 232.64C341.389 232.492 341.262 232.35 341.119 232.212L340.833 231.958H340.791C340.606 231.831 340.426 231.71 340.236 231.593C340.045 231.477 339.77 231.334 339.532 231.218L339.152 231.043L339.014 230.99C337.836 230.545 336.622 230.202 335.386 229.964C333.965 229.677 332.53 229.471 331.086 229.345C329.447 229.182 327.807 229.081 326.162 229.007C322.608 228.854 319.043 228.843 315.484 228.854C312.242 228.854 308.995 228.896 305.747 228.817C304.024 228.803 302.303 228.702 300.591 228.515C300.391 228.646 300.157 228.714 299.919 228.711C298.142 228.711 296.344 228.885 294.551 229.023C296.262 230.078 297.599 231.643 298.375 233.497Z" fill="#D1E9EF"/>
<path d="M262.679 219.926C262.679 219.926 300.156 240.679 273.818 244.196C247.479 247.714 57.5414 257.847 120.235 284.704C182.929 311.56 401.448 313.708 332.064 332.932L447.36 344.441C447.36 344.441 457.224 271.952 345.259 271.952C233.295 271.952 206.692 253.917 297.088 245.783C387.485 237.649 270.829 219.265 270.829 219.265L262.679 219.926Z" fill="#9ED0EF"/>
<path d="M110.35 279.049C111.054 277.092 112.223 275.335 113.756 273.93C116.818 271.084 120.912 270.016 124.662 268.392C126.888 267.425 129.062 266.346 131.289 265.388C133.483 264.454 135.74 263.673 138.042 263.051C142.576 261.829 147.181 260.887 151.83 260.232C161.467 258.82 171.193 258.254 180.871 257.265C190.693 256.265 200.44 254.488 210.203 253.192C215.138 252.542 220.083 251.997 225.049 251.669C230.116 251.331 235.177 251.262 240.233 250.77C245.289 250.278 250.435 249.569 255.518 248.84C260.278 248.157 265.038 247.554 269.745 246.634C273.262 245.947 276.747 244.973 279.688 243.006C280.012 242.786 280.322 242.548 280.619 242.292C279.122 243.122 276.917 243.778 273.817 244.191C249.415 247.454 84.5882 256.392 110.35 279.049Z" fill="#4990D1"/>
<path d="M292.752 224.294C296.758 225.19 300.747 226.138 304.721 227.139C308.603 228.123 312.501 229.075 316.314 230.313C317.962 230.84 319.579 231.458 321.159 232.164C322.478 232.675 323.657 233.491 324.602 234.544C325.094 235.118 325.414 235.821 325.522 236.57C325.631 237.319 325.524 238.084 325.215 238.775C324.644 239.991 323.406 240.753 322.248 241.34C321.233 241.869 320.222 242.398 319.191 242.89C364.146 233.962 270.83 219.259 270.83 219.259L270.095 219.317C277.637 221.036 285.205 222.602 292.752 224.294Z" fill="#4990D1"/>
<path d="M20.2557 233.787C20.2557 233.787 11.6719 234.464 15.3635 237.289C19.0551 240.113 19.0657 241.615 16.4477 242.276C13.8298 242.937 23.2756 248.564 13.1898 247.306C3.10402 246.047 4.07188 246.042 -0.714514 246.042C-5.50091 246.042 -8.75354 246.105 -10.922 246.042C-13.0904 245.978 -16.1368 246.719 -12.662 244.175C-9.18723 241.631 -3.97244 240.33 -9.40407 237.722C-14.8357 235.115 -10.2714 232.497 -10.2714 232.497C-10.2714 232.497 -32.8918 231.08 -21.7852 228.599C-10.6787 226.119 -7.01351 225.992 -7.01351 225.992L20.2557 233.787Z" fill="#BADBDA"/>
<path d="M313.379 214.838C313.379 214.838 366.58 203.594 396.52 191.8C426.46 180.005 528.354 163.605 569.004 191.324C609.654 219.042 610.125 231.143 610.125 231.143C610.125 231.143 558.358 223.971 531.015 231.143C503.671 238.315 492.639 231.815 443.003 226.383C393.368 220.952 412.275 216.075 372.096 220.1C331.917 224.125 283.175 221.888 313.39 214.811" fill="#EAF5F5"/>
<path d="M327.236 212.553C337.459 212.68 347.64 210.797 357.636 208.851C367.632 206.905 377.839 205.44 387.629 202.584C398.148 199.511 408.308 195.375 418.653 191.8C428.538 188.383 438.682 185.755 449.085 184.575C454.712 183.941 460.361 183.867 466.009 183.655C471.869 183.428 477.724 183.1 483.568 182.714C495.315 181.941 507.04 180.815 518.792 180.164C529.047 179.588 539.524 181.603 549.266 184.681C556.856 187.077 564.175 190.203 571.58 193.106L568.999 191.329C528.349 163.61 426.454 180.016 396.514 191.805C374.941 200.304 341.293 208.512 324.173 212.432C325.192 212.499 326.213 212.539 327.236 212.553Z" fill="white"/>
<path opacity="0.25" d="M273.819 221.623C273.819 221.623 295.614 227.219 306.049 229.477C316.484 231.736 329.071 237.22 317.018 241.721C317.018 241.721 323.365 237.976 315.728 234.713C308.09 231.45 273.819 221.623 273.819 221.623Z" fill="#EAF5F5"/>
<path d="M82.1031 218.365C82.1031 218.365 74.2228 219.063 75.3546 220.935C76.4864 222.808 80.2044 225.203 72.287 226.029C64.3697 226.854 77.1951 229.45 77.1951 229.45L80.178 232.343L94.0823 226.568L84.4038 227.895L98.361 226.568L93.4794 219.254L82.1031 218.365" fill="#BADBDA"/>
<path opacity="0.25" d="M267.118 222.332C267.678 222.771 316.436 237.357 298.211 242.297C286.681 245.361 274.917 247.468 263.04 248.596C263.04 248.596 294.583 244.841 300.485 239.97C306.387 235.099 267.118 222.332 267.118 222.332Z" fill="#EAF5F5"/>
<path d="M217.37 253.357C217.37 253.357 216.672 260.29 191.217 262.088C165.762 263.887 146.384 264.204 136.821 268.964C127.259 273.724 120.331 278.193 129.56 281.223C138.789 284.254 145.13 284.714 145.13 284.714C145.13 284.714 115.978 277.865 143.803 269.022C171.627 260.179 219.433 267.319 217.354 253.33" fill="#EAF5F5"/>
<path d="M-3.83833 230.545H-14.2891L-11.3167 226.504L-13.4323 223.664H-10.4176L-10.0633 216.725L-8.29153 219.338L-6.23946 202.049L-2.07715 216.725L-5.64182 219.343C-5.25573 219.063 -0.469343 219.343 -0.469343 219.343L1.51925 230.55L-3.83833 230.545Z" fill="#57917F"/>
<path d="M5.87683 300.32L21.5212 254.577L26.1225 274.833L19.6807 280.614L26.1225 279.234L31.6282 326.029L5.87683 300.32Z" fill="#57917F"/>
<path d="M1.51917 234.152L5.04153 219.465H8.60621C8.60621 219.465 4.86171 217.682 5.06268 217.127C5.26366 216.572 8.60621 201.329 8.60621 201.329L13.2762 212.901L10.4943 214.583L12.832 216.291L16.1692 224.711L14.6143 225.711L16.8356 226.822L19.6176 234.152H1.51917Z" fill="#57917F"/>
<path d="M85.0195 226.393H79.5403C79.5403 226.393 82.941 223.008 82.1847 223.161C81.4284 223.315 80.0692 223.934 80.212 223.161C80.3548 222.389 84.3373 209.135 84.3373 209.135L87.8332 222.358L85.2945 223.944L89.3088 226.345L85.0195 226.393Z" fill="#6AAA95"/>
<path d="M-0.664817 240.314H-8.31775C-8.31775 240.314 -3.5578 235.591 -4.61557 235.807C-5.67333 236.024 -7.55087 236.865 -7.36577 235.807C-7.18066 234.75 -1.60623 216.239 -1.60623 216.239L3.28065 234.75L-0.268155 237.003L5.33272 240.351L-0.664817 240.314Z" fill="#6AAA95"/>
<path d="M93.4449 226.933H87.9603C87.9603 226.933 91.3663 223.553 90.6047 223.707C89.8432 223.86 88.4892 224.479 88.6373 223.707C88.7854 222.934 92.7573 209.675 92.7573 209.675L96.2585 222.929L93.7199 224.542L97.7288 226.938L93.4449 226.933Z" fill="#6AAA95"/>
</g>
</g>
</svg>
