<svg width="355" height="140" viewBox="0 0 355 140" fill="none" xmlns="http://www.w3.org/2000/svg">
<path d="M328.857 17.0676C328.857 17.0676 327.223 28.9515 323.468 30.3492C319.713 31.7468 313.516 31.2448 311.596 32.0159C309.676 32.787 308.716 30.5219 307.058 28.1644C305.399 25.8069 302.692 27.0157 301.993 23.0076C301.294 18.9994 301.057 14.7302 301.057 14.7302L328.857 17.0676Z" fill="#89C6F4"/>
<path d="M302.792 14.8587C303.142 16.3006 303.021 17.8669 302.885 19.3689C302.762 20.4125 302.71 21.463 302.728 22.5136C302.714 23.4762 302.948 24.4263 303.407 25.2727C303.706 25.7268 304.101 26.1105 304.563 26.3972C303.435 25.8791 302.391 25.2848 301.997 23.0076C301.545 20.266 301.232 17.5034 301.057 14.7302L302.792 14.8587Z" fill="#A9DEFF"/>
<path d="M307.118 27.9313C307.741 28.5091 308.17 29.2651 308.347 30.096C307.945 29.5056 307.543 28.8389 307.057 28.1642C306.86 27.8835 306.626 27.6297 306.363 27.4092C306.627 27.5638 306.88 27.7383 307.118 27.9313V27.9313Z" fill="#A9DEFF"/>
<path d="M327.371 18.2364C326.75 18.3099 326.125 18.3394 325.5 18.3248C324.05 18.3248 322.604 18.144 321.162 18.0236C319.935 17.8774 318.693 17.9125 317.476 18.128C316.996 18.2246 316.532 18.3882 316.098 18.6139C315.72 18.8147 315.359 19.0477 314.994 19.2686C314.295 19.6903 313.411 20.2686 312.548 20.1361C312.346 20.095 312.156 20.0128 311.988 19.8946C311.82 19.7765 311.678 19.6248 311.572 19.4493C311.328 19.0739 310.95 18.8054 310.516 18.6983C309.936 18.6098 309.345 18.6385 308.776 18.7826C308.113 18.8936 307.439 18.9246 306.768 18.875C305.518 18.79 304.283 18.5471 303.094 18.1521C302.479 17.9432 301.889 17.6942 301.274 17.4492C301.122 15.8428 301.057 14.7102 301.057 14.7102L328.857 17.0677C328.857 17.0677 328.825 17.3207 328.757 17.7424C328.351 18.0337 327.87 18.2049 327.371 18.2364V18.2364Z" fill="#4990D1"/>
<path d="M328.388 16.1157C328.388 16.1157 321.58 10.6055 317.367 12.3365C313.154 14.0675 310.889 13.2 308.186 13.5414C305.483 13.8827 302.138 12.9992 301.057 14.7261C299.977 16.4531 305.27 18.8749 309.267 18.2042C313.263 17.5335 311.427 20.2926 315.64 18.3206C319.853 16.3487 331.52 18.9231 328.388 16.1157Z" fill="white"/>
<path d="M316.198 13.4289C316.813 13.8828 317.636 14.0193 318.339 14.3004C318.651 14.3986 318.943 14.5538 319.198 14.7583C319.339 14.8908 319.315 14.9912 319.158 15.1117C318.757 15.425 318.046 15.3527 317.552 15.3206C316.109 15.1649 314.685 14.8649 313.303 14.4249C312.214 14.1117 311.098 13.7663 309.969 13.445C311.612 13.445 313.299 13.5896 315.592 12.939C315.783 13.1155 315.986 13.2792 316.198 13.4289Z" fill="#EAF5F5"/>
<path d="M280.909 33.131L278.06 45.5004L287.059 39.6904L280.909 33.131Z" fill="#005895"/>
<path d="M314.909 51.131L312.06 63.5004L321.059 57.6904L314.909 51.131Z" fill="#005895"/>
<path d="M5.90889 127.131L3.05969 139.5L12.0593 133.69L5.90889 127.131Z" fill="#005895"/>
<path d="M343.261 18.0413L353.114 26.0434L351.858 15.4052L343.261 18.0413Z" fill="#005895"/>
<path d="M42.2609 112.041L52.1142 120.043L50.8577 109.405L42.2609 112.041Z" fill="#005895"/>
<circle opacity="0.5" r="3" transform="matrix(-1 0 0 1 321.915 3)" fill="#005895"/>
<path d="M206.921 64.5749C206.921 64.5749 206.554 77.3062 215.385 78.8702C224.216 80.4342 234.305 78.7354 234.915 63.7019L206.921 64.5749Z" fill="#89C6F4"/>
<path d="M206.921 64.575L232.168 63.7795C231.757 64.2739 231.343 64.7683 230.928 65.2627C230.398 65.4514 229.866 65.6267 229.323 65.775C226.653 66.5065 223.883 66.739 221.129 66.9312C219.981 67.0121 218.83 67.0851 217.677 67.1503C216.707 67.1755 215.743 67.3135 214.805 67.5615C213.894 67.809 213.074 68.3161 212.446 69.021C211.822 69.7785 211.495 70.7369 211.526 71.7176C211.546 73.7974 212.638 75.8164 213.848 77.4479C214.195 77.9119 214.57 78.3543 214.97 78.7726C206.564 76.8951 206.921 64.575 206.921 64.575Z" fill="#A9DEFF"/>
<path d="M258.909 57.131L256.06 69.5004L265.059 63.6904L258.909 57.131Z" fill="#005895"/>
<path d="M174.261 68.0413L184.114 76.0434L182.858 65.4052L174.261 68.0413Z" fill="#005895"/>
<path d="M207.349 69.1591C207.241 68.6063 207.16 68.0737 207.096 67.585C207.233 68.0999 207.318 68.6272 207.349 69.1591Z" fill="#4990D1"/>
<path d="M229.781 67.3996C227.998 67.8883 226.131 68.3602 224.273 68.3332C222.588 68.3097 220.933 68.0265 219.261 68.2423C218.425 68.3501 217.606 68.5355 216.77 68.6299C215.934 68.7243 215.119 68.8018 214.296 68.9366C213.63 69.0013 212.98 69.1803 212.375 69.4658C211.976 69.7156 211.61 70.0146 211.286 70.3557C210.949 70.6928 210.612 71.0298 210.238 71.3669C210.005 71.5658 209.668 71.8557 209.341 71.8354C208.92 71.8085 208.667 71.2152 208.525 70.8815C208.259 70.1501 208.273 69.3512 208.188 68.5894C208.084 67.4541 207.644 66.3756 206.924 65.4917C206.904 64.9221 206.924 64.5816 206.924 64.5816L234.901 63.6985C234.878 64.2648 234.837 64.8108 234.79 65.3401C233.218 66.244 231.534 66.9365 229.781 67.3996Z" fill="#4990D1"/>
<path d="M218.085 61.565C218.292 61.5064 218.491 61.4203 218.675 61.3088C219.734 60.5706 220.168 61.4065 221.739 61.3357C223.31 61.265 224.638 59.4818 225.865 60.1492C227.092 60.8167 228.592 61.5414 228.592 61.5414C237.962 62.4211 235.333 65.1312 230.796 66.2233C228.073 66.9139 225.273 67.2537 222.464 67.2345C220.778 65.8862 217.964 68.7345 213.295 68.5828C208.627 68.4312 211.63 69.5941 209.797 70.4165C207.963 71.239 209.797 65.5829 207.299 64.8245C205.438 64.2413 210.558 62.2762 218.085 61.565Z" fill="white"/>
<path d="M224.867 61.8007C224.914 61.8951 224.938 61.9288 224.867 61.9996C224.702 62.1189 224.509 62.1953 224.307 62.2221C224.054 62.2322 223.806 62.1468 223.613 61.9828C223.236 61.7199 222.871 61.4603 222.521 61.1738C223.109 60.9237 223.681 60.6378 224.233 60.3176C224.252 60.507 224.299 60.6924 224.375 60.8671C224.467 61.0896 224.58 61.3029 224.712 61.5041C224.769 61.6003 224.82 61.6993 224.867 61.8007V61.8007Z" fill="#EAF5F5"/>
<path d="M218.904 61.184C218.982 61.277 219.078 61.3528 219.187 61.4065C219.248 61.4402 219.4 61.4975 219.443 61.5683H219.406C219.335 61.5683 219.258 61.5919 219.184 61.5919C218.993 61.5946 218.803 61.5822 218.614 61.5548L218.26 61.4941C218.406 61.4458 218.545 61.3801 218.675 61.2986C218.752 61.2447 218.827 61.2008 218.897 61.1604L218.904 61.184Z" fill="#EAF5F5"/>
<path d="M137.789 82.2861C137.928 87.1138 136.557 91.8646 133.868 95.876C133.868 95.876 129.672 99.7512 121.034 99.0845C112.396 98.4179 109.946 84.443 109.946 84.443L137.789 82.2861Z" fill="#89C6F4"/>
<path d="M132.932 82.6604C132.39 83.9082 131.702 85.0917 131.056 86.2896L130.572 86.4251C128.493 86.9669 126.383 87.4019 124.322 88.0222C122.443 88.5926 120.472 89.2985 118.957 90.5926C117.442 91.8867 117.288 93.9508 117.727 95.7725C117.961 96.7372 118.314 97.669 118.778 98.5461C111.951 95.9009 109.951 84.418 109.951 84.418L132.932 82.6604Z" fill="#A9DEFF"/>
<path d="M111.669 87.8293L110.803 87.7758C110.45 86.6809 110.164 85.5653 109.947 84.4354L137.787 82.2964C137.877 84.4114 137.647 86.5279 137.106 88.5744C129.494 92.8631 119.78 88.4781 111.669 87.8293Z" fill="#4990D1"/>
<path d="M133.867 80.0471C133.867 80.0471 119.928 75.4411 114.448 80.0471C108.969 84.6531 106.987 84.9455 117.022 86.1077C127.058 87.2699 132.894 90.1753 135.001 87.7083C137.108 85.2413 140.865 81.6763 133.867 80.0471Z" fill="white"/>
<path d="M120.441 79.734C122.012 80.056 123.605 80.2539 125.207 80.3258C127.257 80.4827 129.485 80.4969 131.403 81.2705C132.084 81.5415 132.633 82.0477 131.966 82.6716C131.204 83.3846 130.116 83.4309 129.132 83.5129C128.006 83.6056 126.872 83.6163 125.742 83.6092C124.612 83.602 123.542 83.6092 122.448 83.545C120.288 83.3881 118.17 82.9211 116.031 82.5824C114.651 82.3461 113.256 82.2127 111.856 82.1832C112.569 81.5949 113.46 80.8962 114.469 80.0441C115.427 79.2815 116.543 78.742 117.735 78.4648C118.518 79.1059 119.448 79.542 120.441 79.734V79.734Z" fill="#EAF5F5"/>
<path d="M86.9089 86.131L84.0597 98.5004L93.0593 92.6904L86.9089 86.131Z" fill="#005895"/>
<path d="M169.261 97.0413L179.114 105.043L177.858 94.4052L169.261 97.0413Z" fill="#005895"/>
<circle opacity="0.5" r="3" transform="matrix(-1 0 0 1 143.915 78)" fill="#005895"/>
<circle opacity="0.5" r="3" transform="matrix(-1 0 0 1 9.91504 105)" fill="#005895"/>
<path d="M12.9211 119.575C12.9211 119.575 12.5537 132.306 21.385 133.87C30.2163 135.434 40.3049 133.735 40.915 118.702L12.9211 119.575Z" fill="#89C6F4"/>
<path d="M12.9211 119.575L38.168 118.78C37.7567 119.274 37.3432 119.768 36.9275 120.263C36.3983 120.451 35.8658 120.627 35.3231 120.775C32.6534 121.506 29.8827 121.739 27.1288 121.931C25.9805 122.012 24.8299 122.085 23.6772 122.15C22.7072 122.176 21.7434 122.314 20.8053 122.561C19.8939 122.809 19.0742 123.316 18.4458 124.021C17.8221 124.779 17.4951 125.737 17.5256 126.718C17.5458 128.797 18.6379 130.816 19.848 132.448C20.1948 132.912 20.5696 133.354 20.9705 133.773C12.5638 131.895 12.9211 119.575 12.9211 119.575Z" fill="#A9DEFF"/>
<path d="M13.3491 124.159C13.2413 123.607 13.1604 123.074 13.0963 122.585C13.2332 123.1 13.3178 123.627 13.3491 124.159Z" fill="#4990D1"/>
<path d="M35.7812 122.4C33.9981 122.889 32.1307 123.36 30.2734 123.333C28.5881 123.31 26.933 123.027 25.2611 123.242C24.4252 123.35 23.6061 123.536 22.7702 123.63C21.9342 123.724 21.1185 123.802 20.2961 123.937C19.63 124.002 18.98 124.181 18.3747 124.466C17.9759 124.716 17.6102 125.015 17.286 125.356C16.9489 125.693 16.6118 126.03 16.2377 126.367C16.0051 126.566 15.668 126.856 15.3411 126.836C14.9197 126.809 14.6669 126.215 14.5254 125.882C14.2591 125.15 14.2726 124.351 14.1883 123.59C14.0845 122.454 13.6444 121.376 12.9243 120.492C12.904 119.922 12.9243 119.582 12.9243 119.582L40.9014 118.699C40.8778 119.265 40.8373 119.811 40.7901 120.34C39.2184 121.244 37.5342 121.937 35.7812 122.4Z" fill="#4990D1"/>
<path d="M24.0852 116.565C24.2925 116.506 24.4909 116.42 24.6751 116.309C25.7335 115.571 26.1684 116.407 27.7391 116.336C29.3099 116.265 30.638 114.482 31.8649 115.149C33.0919 115.817 34.5918 116.541 34.5918 116.541C43.9625 117.421 41.3333 120.131 36.7963 121.223C34.0732 121.914 31.273 122.254 28.4638 122.235C26.7785 120.886 23.9639 123.735 19.2954 123.583C14.627 123.431 17.6303 124.594 15.7966 125.417C13.9629 126.239 15.7966 120.583 13.2989 119.824C11.4382 119.241 16.5584 117.276 24.0852 116.565Z" fill="white"/>
<path d="M30.8669 116.801C30.9141 116.895 30.9377 116.929 30.8669 117C30.7017 117.119 30.5094 117.196 30.3074 117.222C30.0541 117.232 29.8063 117.147 29.613 116.983C29.2355 116.72 28.8715 116.461 28.5209 116.174C29.1087 115.924 29.6805 115.638 30.2332 115.318C30.2517 115.507 30.2995 115.693 30.3748 115.867C30.4668 116.09 30.5796 116.303 30.7119 116.504C30.7686 116.601 30.8203 116.7 30.8669 116.801V116.801Z" fill="#EAF5F5"/>
<path d="M24.904 116.184C24.9819 116.277 25.0784 116.353 25.1872 116.406C25.2479 116.44 25.3995 116.497 25.4434 116.568H25.4063C25.3355 116.568 25.258 116.592 25.1838 116.592C24.9932 116.595 24.8028 116.582 24.6142 116.555L24.2602 116.494C24.4058 116.446 24.5449 116.38 24.6748 116.299C24.7523 116.245 24.8265 116.201 24.8973 116.16L24.904 116.184Z" fill="#EAF5F5"/>
<circle r="3.5" transform="matrix(-1 0 0 1 65.415 133.5)" fill="#4481BD"/>
</svg>
