<svg width="355" height="140" viewBox="0 0 355 140" fill="none" xmlns="http://www.w3.org/2000/svg">
<path d="M26.0576 17.0676C26.0576 17.0676 27.6922 28.9515 31.4473 30.3492C35.2025 31.7468 41.3994 31.2448 43.3192 32.0159C45.2389 32.787 46.1988 30.5219 47.8575 28.1644C49.5161 25.8069 52.223 27.0157 52.9219 23.0076C53.6207 18.9994 53.8576 14.7302 53.8576 14.7302L26.0576 17.0676Z" fill="#89C6F4"/>
<path d="M52.1227 14.8587C51.7733 16.3006 51.8938 17.8669 52.0303 19.3689C52.1527 20.4125 52.205 21.463 52.187 22.5136C52.2007 23.4762 51.967 24.4263 51.5082 25.2727C51.2086 25.7268 50.814 26.1105 50.3516 26.3972C51.4801 25.8791 52.5243 25.2848 52.9179 23.0076C53.3697 20.266 53.6834 17.5034 53.8577 14.7302L52.1227 14.8587Z" fill="#A9DEFF"/>
<path d="M47.7973 27.9313C47.1745 28.5091 46.7453 29.2651 46.5684 30.096C46.97 29.5056 47.3716 28.8389 47.8576 28.1642C48.0555 27.8835 48.2891 27.6297 48.5524 27.4092C48.2878 27.5638 48.0354 27.7383 47.7973 27.9313V27.9313Z" fill="#A9DEFF"/>
<path d="M27.5436 18.2364C28.1646 18.3099 28.79 18.3394 29.4151 18.3248C30.865 18.3248 32.3108 18.144 33.7526 18.0236C34.98 17.8774 36.2223 17.9125 37.4395 18.128C37.9192 18.2246 38.3829 18.3882 38.817 18.6139C39.1945 18.8147 39.556 19.0477 39.9215 19.2686C40.6203 19.6903 41.5039 20.2686 42.3673 20.1361C42.5686 20.095 42.7591 20.0128 42.9271 19.8946C43.095 19.7765 43.2367 19.6248 43.3433 19.4493C43.5872 19.0739 43.9649 18.8054 44.3995 18.6983C44.979 18.6098 45.5703 18.6385 46.1385 18.7826C46.8018 18.8936 47.476 18.9246 48.1466 18.875C49.3972 18.79 50.6319 18.5471 51.8214 18.1521C52.4359 17.9432 53.0263 17.6942 53.6408 17.4492C53.7934 15.8428 53.8576 14.7102 53.8576 14.7102L26.0576 17.0677C26.0576 17.0677 26.0897 17.3207 26.158 17.7424C26.5644 18.0337 27.0445 18.2049 27.5436 18.2364V18.2364Z" fill="#4990D1"/>
<path d="M26.5275 16.1157C26.5275 16.1157 33.3349 10.6055 37.5479 12.3365C41.7608 14.0675 44.026 13.2 46.7289 13.5414C49.4318 13.8827 52.7772 12.9992 53.8576 14.7261C54.9379 16.4531 49.6446 18.8749 45.6485 18.2042C41.6524 17.5335 43.4878 20.2926 39.2748 18.3206C35.0618 16.3487 23.3948 18.9231 26.5275 16.1157Z" fill="white"/>
<path d="M38.7168 13.4289C38.1023 13.8828 37.279 14.0193 36.5762 14.3004C36.2638 14.3986 35.9724 14.5538 35.7167 14.7583C35.5761 14.8908 35.6002 14.9912 35.7568 15.1117C36.1585 15.425 36.8693 15.3527 37.3633 15.3206C38.8061 15.1649 40.2296 14.8649 41.6124 14.4249C42.7008 14.1117 43.8173 13.7663 44.9459 13.445C43.3033 13.445 41.6165 13.5896 39.3232 12.939C39.1321 13.1155 38.9295 13.2792 38.7168 13.4289Z" fill="#EAF5F5"/>
<path d="M74.0061 33.131L76.8553 45.5004L67.8557 39.6904L74.0061 33.131Z" fill="#005895"/>
<path d="M40.0061 51.131L42.8553 63.5004L33.8557 57.6904L40.0061 51.131Z" fill="#005895"/>
<path d="M349.006 127.131L351.855 139.5L342.856 133.69L349.006 127.131Z" fill="#005895"/>
<path d="M11.6541 18.0413L1.80087 26.0434L3.05736 15.4052L11.6541 18.0413Z" fill="#005895"/>
<path d="M312.654 112.041L302.801 120.043L304.057 109.405L312.654 112.041Z" fill="#005895"/>
<circle opacity="0.5" cx="33" cy="3" r="3" fill="#005895"/>
<path d="M147.994 64.5749C147.994 64.5749 148.361 77.3062 139.53 78.8702C130.699 80.4342 120.61 78.7354 120 63.7019L147.994 64.5749Z" fill="#89C6F4"/>
<path d="M147.994 64.575L122.747 63.7795C123.158 64.2739 123.572 64.7683 123.988 65.2627C124.517 65.4514 125.049 65.6267 125.592 65.775C128.262 66.5065 131.032 66.739 133.786 66.9312C134.935 67.0121 136.085 67.0851 137.238 67.1503C138.208 67.1755 139.172 67.3135 140.11 67.5615C141.021 67.809 141.841 68.3161 142.469 69.021C143.093 69.7785 143.42 70.7369 143.389 71.7176C143.369 73.7974 142.277 75.8164 141.067 77.4479C140.72 77.9119 140.345 78.3543 139.945 78.7726C148.351 76.8951 147.994 64.575 147.994 64.575Z" fill="#A9DEFF"/>
<path d="M96.0061 57.131L98.8553 69.5004L89.8557 63.6904L96.0061 57.131Z" fill="#005895"/>
<path d="M180.654 68.0413L170.801 76.0434L172.057 65.4052L180.654 68.0413Z" fill="#005895"/>
<path d="M147.566 69.1591C147.674 68.6063 147.755 68.0737 147.819 67.585C147.682 68.0999 147.597 68.6272 147.566 69.1591Z" fill="#4990D1"/>
<path d="M125.134 67.3996C126.917 67.8883 128.784 68.3602 130.642 68.3332C132.327 68.3097 133.982 68.0265 135.654 68.2423C136.49 68.3501 137.309 68.5355 138.145 68.6299C138.981 68.7243 139.797 68.8018 140.619 68.9366C141.285 69.0013 141.935 69.1803 142.54 69.4658C142.939 69.7156 143.305 70.0146 143.629 70.3557C143.966 70.6928 144.303 71.0298 144.677 71.3669C144.91 71.5658 145.247 71.8557 145.574 71.8354C145.995 71.8085 146.248 71.2152 146.39 70.8815C146.656 70.1501 146.642 69.3512 146.727 68.5894C146.831 67.4541 147.271 66.3756 147.991 65.4917C148.011 64.9221 147.991 64.5816 147.991 64.5816L120.014 63.6985C120.037 64.2648 120.078 64.8108 120.125 65.3401C121.697 66.244 123.381 66.9365 125.134 67.3996Z" fill="#4990D1"/>
<path d="M136.83 61.565C136.623 61.5064 136.424 61.4203 136.24 61.3088C135.182 60.5706 134.747 61.4065 133.176 61.3357C131.605 61.265 130.277 59.4818 129.05 60.1492C127.823 60.8167 126.323 61.5414 126.323 61.5414C116.953 62.4211 119.582 65.1312 124.119 66.2233C126.842 66.9139 129.642 67.2537 132.451 67.2345C134.137 65.8862 136.951 68.7345 141.62 68.5828C146.288 68.4312 143.285 69.5941 145.118 70.4165C146.952 71.239 145.118 65.5829 147.616 64.8245C149.477 64.2413 144.357 62.2762 136.83 61.565Z" fill="white"/>
<path d="M130.048 61.8007C130.001 61.8951 129.977 61.9288 130.048 61.9996C130.213 62.1189 130.406 62.1953 130.608 62.2221C130.861 62.2322 131.109 62.1468 131.302 61.9828C131.68 61.7199 132.044 61.4603 132.394 61.1738C131.806 60.9237 131.235 60.6378 130.682 60.3176C130.663 60.507 130.616 60.6924 130.54 60.8671C130.448 61.0896 130.335 61.3029 130.203 61.5041C130.146 61.6003 130.095 61.6993 130.048 61.8007V61.8007Z" fill="#EAF5F5"/>
<path d="M136.011 61.184C135.933 61.277 135.837 61.3528 135.728 61.4065C135.667 61.4402 135.515 61.4975 135.472 61.5683H135.509C135.58 61.5683 135.657 61.5919 135.731 61.5919C135.922 61.5946 136.112 61.5822 136.301 61.5548L136.655 61.4941C136.509 61.4458 136.37 61.3801 136.24 61.2986C136.163 61.2447 136.089 61.2008 136.018 61.1604L136.011 61.184Z" fill="#EAF5F5"/>
<path d="M217.126 82.2861C216.987 87.1138 218.358 91.8646 221.047 95.876C221.047 95.876 225.243 99.7512 233.881 99.0845C242.52 98.4179 244.969 84.443 244.969 84.443L217.126 82.2861Z" fill="#89C6F4"/>
<path d="M221.983 82.6604C222.525 83.9082 223.213 85.0917 223.859 86.2896L224.343 86.4251C226.422 86.9669 228.532 87.4019 230.593 88.0222C232.472 88.5926 234.443 89.2985 235.958 90.5926C237.473 91.8867 237.627 93.9508 237.188 95.7725C236.954 96.7372 236.601 97.669 236.137 98.5461C242.964 95.9009 244.964 84.418 244.964 84.418L221.983 82.6604Z" fill="#A9DEFF"/>
<path d="M243.246 87.8293L244.112 87.7758C244.465 86.6809 244.751 85.5653 244.968 84.4354L217.128 82.2964C217.038 84.4114 217.268 86.5279 217.809 88.5744C225.421 92.8631 235.135 88.4781 243.246 87.8293Z" fill="#4990D1"/>
<path d="M221.048 80.0471C221.048 80.0471 234.987 75.4411 240.467 80.0471C245.946 84.6531 247.928 84.9455 237.893 86.1077C227.857 87.2699 222.021 90.1753 219.914 87.7083C217.807 85.2413 214.05 81.6763 221.048 80.0471Z" fill="white"/>
<path d="M234.474 79.734C232.903 80.056 231.31 80.2539 229.708 80.3258C227.658 80.4827 225.43 80.4969 223.512 81.2705C222.831 81.5415 222.282 82.0477 222.949 82.6716C223.711 83.3846 224.799 83.4309 225.783 83.5129C226.909 83.6056 228.043 83.6163 229.173 83.6092C230.303 83.602 231.373 83.6092 232.467 83.545C234.628 83.3881 236.745 82.9211 238.884 82.5824C240.264 82.3461 241.659 82.2127 243.059 82.1832C242.346 81.5949 241.455 80.8962 240.446 80.0441C239.488 79.2815 238.372 78.742 237.18 78.4648C236.397 79.1059 235.468 79.542 234.474 79.734V79.734Z" fill="#EAF5F5"/>
<path d="M268.006 86.131L270.855 98.5004L261.856 92.6904L268.006 86.131Z" fill="#005895"/>
<path d="M185.654 97.0413L175.801 105.043L177.057 94.4052L185.654 97.0413Z" fill="#005895"/>
<circle opacity="0.5" cx="211" cy="78" r="3" fill="#005895"/>
<circle opacity="0.5" cx="345" cy="105" r="3" fill="#005895"/>
<path d="M341.994 119.575C341.994 119.575 342.361 132.306 333.53 133.87C324.699 135.434 314.61 133.735 314 118.702L341.994 119.575Z" fill="#89C6F4"/>
<path d="M341.994 119.575L316.747 118.78C317.158 119.274 317.572 119.768 317.988 120.263C318.517 120.451 319.049 120.627 319.592 120.775C322.262 121.506 325.032 121.739 327.786 121.931C328.935 122.012 330.085 122.085 331.238 122.15C332.208 122.176 333.172 122.314 334.11 122.561C335.021 122.809 335.841 123.316 336.469 124.021C337.093 124.779 337.42 125.737 337.389 126.718C337.369 128.797 336.277 130.816 335.067 132.448C334.72 132.912 334.345 133.354 333.945 133.773C342.351 131.895 341.994 119.575 341.994 119.575Z" fill="#A9DEFF"/>
<path d="M341.566 124.159C341.674 123.607 341.755 123.074 341.819 122.585C341.682 123.1 341.597 123.627 341.566 124.159Z" fill="#4990D1"/>
<path d="M319.134 122.4C320.917 122.889 322.784 123.36 324.642 123.333C326.327 123.31 327.982 123.027 329.654 123.242C330.49 123.35 331.309 123.536 332.145 123.63C332.981 123.724 333.797 123.802 334.619 123.937C335.285 124.002 335.935 124.181 336.54 124.466C336.939 124.716 337.305 125.015 337.629 125.356C337.966 125.693 338.303 126.03 338.677 126.367C338.91 126.566 339.247 126.856 339.574 126.836C339.995 126.809 340.248 126.215 340.39 125.882C340.656 125.15 340.642 124.351 340.727 123.59C340.831 122.454 341.271 121.376 341.991 120.492C342.011 119.922 341.991 119.582 341.991 119.582L314.014 118.699C314.037 119.265 314.078 119.811 314.125 120.34C315.697 121.244 317.381 121.937 319.134 122.4Z" fill="#4990D1"/>
<path d="M330.83 116.565C330.623 116.506 330.424 116.42 330.24 116.309C329.182 115.571 328.747 116.407 327.176 116.336C325.605 116.265 324.277 114.482 323.05 115.149C321.823 115.817 320.323 116.541 320.323 116.541C310.953 117.421 313.582 120.131 318.119 121.223C320.842 121.914 323.642 122.254 326.451 122.235C328.137 120.886 330.951 123.735 335.62 123.583C340.288 123.431 337.285 124.594 339.118 125.417C340.952 126.239 339.118 120.583 341.616 119.824C343.477 119.241 338.357 117.276 330.83 116.565Z" fill="white"/>
<path d="M324.048 116.801C324.001 116.895 323.977 116.929 324.048 117C324.213 117.119 324.406 117.196 324.608 117.222C324.861 117.232 325.109 117.147 325.302 116.983C325.68 116.72 326.044 116.461 326.394 116.174C325.806 115.924 325.235 115.638 324.682 115.318C324.663 115.507 324.616 115.693 324.54 115.867C324.448 116.09 324.335 116.303 324.203 116.504C324.146 116.601 324.095 116.7 324.048 116.801Z" fill="#EAF5F5"/>
<path d="M330.011 116.184C329.933 116.277 329.837 116.353 329.728 116.406C329.667 116.44 329.515 116.497 329.472 116.568H329.509C329.58 116.568 329.657 116.592 329.731 116.592C329.922 116.595 330.112 116.582 330.301 116.555L330.655 116.494C330.509 116.446 330.37 116.38 330.24 116.299C330.163 116.245 330.089 116.201 330.018 116.16L330.011 116.184Z" fill="#EAF5F5"/>
<circle cx="289.5" cy="133.5" r="3.5" fill="#4481BD"/>
</svg>
