<svg width="1440" height="240" viewBox="0 0 1440 240" fill="none" xmlns="http://www.w3.org/2000/svg">
<g clip-path="url(#clip0_314_844)">
<rect width="1440" height="240" fill="white"/>
<path d="M1514 41H-3V237H1514V41Z" fill="url(#paint0_linear_314_844)"/>
<path d="M297.764 22.7181L370.277 16.693L281.991 15.7464L54.2201 23.1388L-11.5526 19.3074L-33.407 31.027L-99 25.6931L-44.4315 17.264L-11.0284 4.05682L66.6077 15.3107L205.178 7.19709L274.696 7.55768L485.211 4.28219L528.934 7.28724L554.234 8.59442L395.591 18.0753L532.185 20.7649L623.931 18.451L694.078 20.1488L743.598 22.5378L759.581 22.4026L767.729 21.0053L870.41 20.855L978.708 21.5011L1073.48 17.6396L958.082 6.17538L997.867 4.14697L1070.99 5.60442L1228.45 6.10023L1221.79 3.99671L1351.19 2.37401L1460.6 0.0300339L1520.26 0L1548.94 2.85478L1548.91 2.1336L1550.08 16.2122L1543.22 15.2356L1524.62 15.8366L1326.79 17.6396L1186.51 18.1505L1075.46 14.304L1161.02 23.845L1242.67 28.2324L1311.18 28.7733L1357.59 35.9102L1448.87 38.134L1340.26 41.2592L1258.67 35.0088L1061.36 30.9369L941.785 31.9586L757.634 33.9419L546.969 38.1189L458.922 33.8668L288.387 23.3792L293.09 22.7782L297.793 22.673L297.764 22.7181ZM1533.49 81.5719L1533.31 81.061L1429.83 81.1361L1248.82 89.9108L1106.82 90.7222L884.311 105.612L979.398 111.833L1162.94 104.035L1229.07 106.649L1311.33 100.023L1442.05 100.894L1441.62 101.33L1551.12 108.662L1533.47 81.5418L1533.49 81.5719ZM-37.8258 114.943L-32.7629 125.07L-30.8606 131.696L-32.1937 187.124L-36.5825 259.696L-29.3177 274.39L85.5112 276.554L215.604 283.961L552.871 286.26L850.818 301L1429.52 287.598L1524.05 278.973L1557.35 277.215L1561.8 268.981L1573 126.122L1321.77 135.527L1348.03 145.639L1181.24 163.625L1068.55 164.105L976.626 160.304L1040.81 179.641L755.072 195.959L545.067 179.686L302.452 179.221L153.83 168.072L215.124 160.379L278.965 143.942L293.674 136.97L207.59 133.589L146.64 131.516L103.486 126.107L20.9967 123.222L-37.8408 114.988L-37.8258 114.943Z" fill="#093A5A"/>
<path d="M824.368 141.739C824.368 142.713 823.963 143.776 822.99 144.855C819.829 148.359 816.085 149.348 811.666 150.337C787.297 155.789 762.179 156.762 737.3 157.032C727.969 157.137 720.105 156.328 711.298 153.092C707.913 151.834 704.393 150.726 701.308 148.794C699.136 147.431 695.227 145.738 696.425 142.548C696.485 142.413 696.545 142.278 696.605 142.129C696.979 141.38 697.533 140.751 698.192 140.241C699.256 139.417 700.604 138.863 701.877 138.369C719.836 131.599 739.202 129.128 758.404 129.217C770.102 129.262 781.785 130.236 793.408 131.674C797.437 132.168 801.631 132.498 805.57 133.351C810.468 134.415 815.5 135.763 820.249 137.366C822.66 138.174 824.338 139.807 824.353 141.739H824.368Z" fill="#093A5A"/>
<path d="M824.368 141.739C824.368 142.713 823.963 143.776 822.99 144.855C819.829 148.36 816.085 149.348 811.666 150.337C787.297 155.789 762.179 156.762 737.3 157.032C727.969 157.137 720.105 156.328 711.298 153.093C707.913 151.835 704.393 150.726 701.308 148.794C699.136 147.431 695.227 145.738 696.425 142.548C696.724 142.413 697.039 142.308 697.354 142.204C716.406 135.389 736.956 132.902 757.341 132.992C769.757 133.052 782.159 134.026 794.486 135.463C798.755 135.958 803.188 136.287 807.382 137.156C812.595 138.219 817.927 139.567 822.96 141.185C823.454 141.35 823.933 141.53 824.368 141.754V141.739Z" fill="#015B98"/>
<path d="M330.047 142.661C330.047 143.38 330.346 144.159 331.05 144.938C333.357 147.514 336.113 148.233 339.333 148.952C357.172 152.936 375.565 153.655 393.778 153.85C400.608 153.924 406.36 153.34 412.815 150.959C415.302 150.045 417.878 149.221 420.125 147.813C421.712 146.81 424.573 145.567 423.704 143.245C423.66 143.14 423.615 143.05 423.57 142.946C423.3 142.391 422.896 141.942 422.401 141.568C421.623 140.968 420.634 140.549 419.705 140.19C406.555 135.232 392.37 133.42 378.321 133.494C369.753 133.524 361.201 134.243 352.693 135.292C349.743 135.666 346.672 135.891 343.796 136.52C340.217 137.299 336.517 138.287 333.057 139.471C331.29 140.055 330.062 141.253 330.047 142.676V142.661Z" fill="#093A5A"/>
<path d="M330.047 142.661C330.047 143.38 330.346 144.159 331.05 144.938C333.357 147.514 336.113 148.233 339.333 148.952C357.172 152.936 375.565 153.655 393.778 153.85C400.608 153.925 406.36 153.34 412.815 150.959C415.302 150.045 417.878 149.221 420.125 147.813C421.712 146.81 424.573 145.567 423.704 143.245C423.48 143.155 423.255 143.065 423.03 142.991C409.086 138.003 394.033 136.19 379.115 136.235C370.023 136.28 360.946 136.999 351.915 138.048C348.784 138.407 345.534 138.647 342.478 139.291C338.659 140.07 334.75 141.058 331.065 142.242C330.706 142.361 330.361 142.496 330.032 142.661H330.047Z" fill="#015B98"/>
<path d="M1432.55 111.375C1432.55 111.839 1432.36 112.333 1431.91 112.828C1430.43 114.475 1428.67 114.939 1426.61 115.389C1415.19 117.935 1403.42 118.399 1391.77 118.519C1387.39 118.564 1383.71 118.19 1379.59 116.677C1378 116.093 1376.35 115.568 1374.9 114.67C1373.88 114.026 1372.06 113.232 1372.61 111.749C1372.61 111.749 1372.67 111.614 1372.7 111.554C1372.88 111.195 1373.13 110.91 1373.45 110.671C1373.94 110.281 1374.57 110.027 1375.17 109.787C1383.59 106.612 1392.67 105.458 1401.65 105.503C1407.13 105.518 1412.6 105.983 1418.05 106.657C1419.94 106.896 1421.9 107.046 1423.75 107.435C1426.04 107.93 1428.4 108.574 1430.62 109.323C1431.74 109.697 1432.54 110.461 1432.54 111.375H1432.55Z" fill="#093A5A"/>
<path d="M1432.55 111.375C1432.55 111.839 1432.36 112.333 1431.91 112.828C1430.43 114.475 1428.67 114.94 1426.61 115.389C1415.19 117.935 1403.42 118.399 1391.77 118.519C1387.39 118.564 1383.71 118.19 1379.59 116.677C1378 116.093 1376.35 115.569 1374.9 114.67C1373.88 114.026 1372.06 113.232 1372.61 111.749C1372.76 111.689 1372.89 111.629 1373.04 111.584C1381.97 108.394 1391.6 107.226 1401.14 107.271C1406.97 107.301 1412.77 107.75 1418.55 108.424C1420.56 108.664 1422.62 108.814 1424.58 109.218C1427.03 109.712 1429.53 110.356 1431.88 111.105C1432.12 111.18 1432.33 111.27 1432.54 111.375H1432.55Z" fill="#015B98"/>
<path d="M1182 145.022C1182 145.377 1181.85 145.756 1181.51 146.135C1180.37 147.397 1179.03 147.753 1177.44 148.097C1168.7 150.048 1159.68 150.403 1150.75 150.495C1147.4 150.53 1144.58 150.243 1141.43 149.084C1140.21 148.636 1138.95 148.235 1137.83 147.546C1137.05 147.053 1135.65 146.445 1136.08 145.309C1136.08 145.309 1136.12 145.205 1136.15 145.159C1136.29 144.884 1136.48 144.666 1136.72 144.482C1137.1 144.184 1137.58 143.989 1138.04 143.805C1144.49 141.373 1151.44 140.489 1158.33 140.524C1162.53 140.535 1166.72 140.891 1170.89 141.407C1172.34 141.591 1173.84 141.706 1175.25 142.004C1177.01 142.383 1178.82 142.876 1180.52 143.45C1181.38 143.737 1181.99 144.322 1181.99 145.022H1182Z" fill="#093A5A"/>
<path d="M1182 145.022C1182 145.378 1181.85 145.756 1181.51 146.135C1180.37 147.397 1179.03 147.753 1177.44 148.097C1168.7 150.048 1159.68 150.404 1150.75 150.495C1147.4 150.53 1144.58 150.243 1141.43 149.084C1140.21 148.637 1138.95 148.235 1137.83 147.546C1137.05 147.053 1135.65 146.445 1136.08 145.309C1136.19 145.263 1136.3 145.217 1136.41 145.183C1143.25 142.739 1150.63 141.843 1157.94 141.878C1162.4 141.901 1166.84 142.245 1171.27 142.761C1172.81 142.945 1174.39 143.06 1175.9 143.37C1177.77 143.748 1179.68 144.242 1181.48 144.815C1181.67 144.873 1181.83 144.942 1181.99 145.022H1182Z" fill="#015B98"/>
<path d="M-29.3221 274.052L85.4998 276.208L215.599 283.593L552.845 285.884L850.759 300.578L1429.44 287.217L1523.96 278.62L1557.26 276.867L1561.71 268.644L1572.64 129.648L1329.77 138.71L1347.96 145.69L1342.35 146.289L1349.5 149.03L1182.72 166.958L1070.04 167.438L989.231 164.098L1040.77 179.585L1032.71 180.034L1042.3 182.925L756.577 199.191L546.585 182.97L303.985 182.506L155.372 171.377L171.504 169.355L153.845 168.037L215.12 160.368L278.971 143.982L287.269 140.058L209.129 136.987L148.168 134.92L105.016 129.528L22.532 126.652L-36.1521 118.474L-32.7671 125.214L-32.5723 125.889L-31.2393 128.555L-29.3371 135.16L-30.6701 190.399L-35.0437 262.518L-29.3221 274.052Z" fill="#015B98"/>
<path d="M1534.91 85.1781L1534.73 84.6838L1431.26 84.7587L1250.28 93.5059L1108.29 94.3297L910.357 107.54L979.346 112.034L1162.87 104.245L1229 106.866L1311.26 100.261L1441.97 101.13L1441.54 101.564L1550.34 108.828L1534.91 85.1781Z" fill="#015B98"/>
<rect width="1440" height="65" fill="#BCE0FA"/>
</g>
<defs>
<linearGradient id="paint0_linear_314_844" x1="755.5" y1="50.6375" x2="756" y2="285" gradientUnits="userSpaceOnUse">
<stop offset="0.231975" stop-color="#BBE0F9"/>
<stop offset="0.737966" stop-color="#76B8E9"/>
</linearGradient>
<clipPath id="clip0_314_844">
<rect width="1440" height="240" fill="white"/>
</clipPath>
</defs>
</svg>
