<svg width="1440" height="161" viewBox="0 0 1440 161" fill="none" xmlns="http://www.w3.org/2000/svg">
<g clip-path="url(#clip0_314_844)">
<rect width="1440" height="161" fill="white"/>
<path d="M1514 -38H-3V158H1514V-38Z" fill="url(#paint0_linear_314_844)"/>
<path d="M297.764 -56.2819L370.277 -62.307L281.991 -63.2536L54.2201 -55.8612L-11.5526 -59.6926L-33.407 -47.973L-99 -53.3069L-44.4315 -61.736L-11.0284 -74.9432L66.6077 -63.6893L205.178 -71.8029L274.696 -71.4423L485.211 -74.7178L528.934 -71.7128L554.234 -70.4056L395.591 -60.9247L532.185 -58.2351L623.931 -60.549L694.078 -58.8512L743.598 -56.4622L759.581 -56.5974L767.729 -57.9947L870.41 -58.145L978.708 -57.4989L1073.48 -61.3604L958.082 -72.8246L997.867 -74.853L1070.99 -73.3956L1228.45 -72.8998L1221.79 -75.0033L1351.19 -76.626L1460.6 -78.97L1520.26 -79L1548.94 -76.1452L1548.91 -76.8664L1550.08 -62.7878L1543.22 -63.7644L1524.62 -63.1634L1326.79 -61.3604L1186.51 -60.8495L1075.46 -64.696L1161.02 -55.155L1242.67 -50.7676L1311.18 -50.2267L1357.59 -43.0898L1448.87 -40.866L1340.26 -37.7408L1258.67 -43.9912L1061.36 -48.0631L941.785 -47.0414L757.634 -45.0581L546.969 -40.8811L458.922 -45.1332L288.387 -55.6208L293.09 -56.2218L297.793 -56.327L297.764 -56.2819ZM1533.49 2.57188L1533.31 2.06102L1429.83 2.13613L1248.82 10.9108L1106.82 11.7222L884.311 26.6122L979.398 32.8326L1162.94 25.0345L1229.07 27.6489L1311.33 21.0228L1442.05 21.8943L1441.62 22.33L1551.12 29.6623L1533.47 2.54179L1533.49 2.57188ZM-37.8258 35.9428L-32.7629 46.0698L-30.8606 52.696L-32.1937 108.124L-36.5825 180.696L-29.3177 195.39L85.5112 197.554L215.604 204.961L552.871 207.26L850.818 222L1429.52 208.598L1524.05 199.973L1557.35 198.215L1561.8 189.981L1573 47.1216L1321.77 56.5274L1348.03 66.6393L1181.24 84.6245L1068.55 85.1053L976.626 81.304L1040.81 100.641L755.072 116.959L545.067 100.686L302.452 100.221L153.83 89.072L215.124 81.3791L278.965 64.9415L293.674 57.9698L207.59 54.5891L146.64 52.5157L103.486 47.1066L20.9967 44.2218L-37.8408 35.9879L-37.8258 35.9428Z" fill="#093A5A"/>
<path d="M824.368 62.7391C824.368 63.7127 823.963 64.7761 822.99 65.8545C819.829 69.3594 816.085 70.348 811.666 71.3365C787.297 76.7885 762.179 77.7621 737.3 78.0317C727.969 78.1366 720.105 77.3277 711.298 74.0925C707.913 72.8343 704.393 71.726 701.308 69.7938C699.136 68.4308 695.227 66.7382 696.425 63.5479C696.485 63.4131 696.545 63.2783 696.605 63.1285C696.979 62.3796 697.533 61.7505 698.192 61.2413C699.256 60.4175 700.604 59.8633 701.877 59.369C719.836 52.5989 739.202 50.1276 758.404 50.2174C770.102 50.2624 781.785 51.2359 793.408 52.6738C797.437 53.1681 801.631 53.4977 805.57 54.3514C810.468 55.4148 815.5 56.7629 820.249 58.3655C822.66 59.1743 824.338 60.8069 824.353 62.7391H824.368Z" fill="#093A5A"/>
<path d="M824.368 62.7393C824.368 63.7128 823.963 64.7763 822.99 65.8547C819.829 69.3596 816.085 70.3482 811.666 71.3367C787.297 76.7887 762.179 77.7623 737.3 78.0319C727.969 78.1368 720.105 77.3279 711.298 74.0927C707.913 72.8345 704.393 71.7261 701.308 69.794C699.136 68.431 695.227 66.7384 696.425 63.5481C696.724 63.4133 697.039 63.3084 697.354 63.2036C716.406 56.3886 736.956 53.9022 757.341 53.9921C769.757 54.052 782.159 55.0256 794.486 56.4635C798.755 56.9577 803.188 57.2873 807.382 58.156C812.595 59.2194 817.927 60.5675 822.96 62.1851C823.454 62.3499 823.933 62.5296 824.368 62.7543V62.7393Z" fill="#015B98"/>
<path d="M330.047 63.661C330.047 64.3799 330.346 65.1588 331.05 65.9377C333.357 68.5139 336.113 69.2328 339.333 69.9518C357.172 73.9359 375.565 74.6549 393.778 74.8496C400.608 74.9245 406.36 74.3403 412.815 71.9588C415.302 71.0452 417.878 70.2214 420.125 68.8134C421.712 67.8099 424.573 66.5667 423.704 64.2451C423.659 64.1403 423.615 64.0504 423.57 63.9456C423.3 63.3914 422.896 62.9421 422.401 62.5676C421.622 61.9685 420.634 61.5491 419.705 61.1896C406.555 56.2319 392.37 54.4195 378.321 54.4944C369.753 54.5244 361.201 55.2433 352.693 56.2918C349.743 56.6662 346.672 56.8909 343.796 57.52C340.217 58.2988 336.517 59.2874 333.057 60.4706C331.29 61.0548 330.062 62.2531 330.047 63.676V63.661Z" fill="#093A5A"/>
<path d="M330.047 63.661C330.047 64.38 330.346 65.1589 331.05 65.9377C333.357 68.514 336.113 69.2329 339.333 69.9518C357.172 73.936 375.565 74.6549 393.778 74.8497C400.608 74.9245 406.36 74.3404 412.815 71.9589C415.302 71.0452 417.878 70.2214 420.125 68.8135C421.712 67.81 424.573 66.5668 423.704 64.2452C423.48 64.1553 423.255 64.0654 423.03 63.9906C409.086 59.0029 394.033 57.1905 379.115 57.2354C370.023 57.2804 360.946 57.9993 351.915 59.0478C348.784 59.4073 345.534 59.6469 342.478 60.291C338.659 61.0698 334.75 62.0584 331.065 63.2417C330.706 63.3615 330.361 63.4963 330.032 63.661H330.047Z" fill="#015B98"/>
<path d="M1432.55 32.3746C1432.55 32.839 1432.36 33.3332 1431.91 33.8275C1430.43 35.4751 1428.67 35.9394 1426.61 36.3887C1415.19 38.935 1403.42 39.3993 1391.77 39.5192C1387.39 39.5641 1383.71 39.1897 1379.59 37.6769C1378 37.0927 1376.35 36.5685 1374.9 35.6698C1373.88 35.0257 1372.06 34.2319 1372.61 32.7491C1372.61 32.7491 1372.67 32.6143 1372.7 32.5544C1372.88 32.1949 1373.13 31.9103 1373.45 31.6707C1373.94 31.2812 1374.57 31.0266 1375.17 30.787C1383.59 27.6116 1392.67 26.4583 1401.65 26.5032C1407.13 26.5182 1412.6 26.9825 1418.05 27.6566C1419.94 27.8962 1421.9 28.046 1423.75 28.4354C1426.04 28.9297 1428.4 29.5737 1430.62 30.3226C1431.74 30.6971 1432.54 31.461 1432.54 32.3746H1432.55Z" fill="#093A5A"/>
<path d="M1432.55 32.3748C1432.55 32.8391 1432.36 33.3334 1431.91 33.8277C1430.43 35.4753 1428.67 35.9396 1426.61 36.3889C1415.19 38.9352 1403.42 39.3995 1391.77 39.5193C1387.39 39.5642 1383.71 39.1898 1379.59 37.677C1378 37.0929 1376.35 36.5686 1374.9 35.6699C1373.88 35.0259 1372.06 34.2321 1372.61 32.7492C1372.76 32.6893 1372.89 32.6294 1373.04 32.5845C1381.97 29.3941 1391.6 28.2258 1401.14 28.2708C1406.97 28.3007 1412.77 28.7501 1418.55 29.4241C1420.56 29.6638 1422.62 29.8135 1424.58 30.218C1427.03 30.7122 1429.53 31.3563 1431.88 32.1052C1432.12 32.1801 1432.33 32.2699 1432.54 32.3748H1432.55Z" fill="#015B98"/>
<path d="M1182 66.0217C1182 66.3775 1181.85 66.7561 1181.51 67.1348C1180.37 68.397 1179.03 68.7527 1177.44 69.0969C1168.7 71.0476 1159.68 71.4033 1150.75 71.4951C1147.4 71.5296 1144.58 71.2427 1141.43 70.0838C1140.21 69.6363 1138.95 69.2346 1137.83 68.5462C1137.05 68.0527 1135.65 67.4446 1136.08 66.3086C1136.08 66.3086 1136.12 66.2053 1136.15 66.1594C1136.29 65.884 1136.48 65.666 1136.72 65.4824C1137.1 65.1841 1137.58 64.989 1138.04 64.8054C1144.49 62.3728 1151.44 61.4892 1158.33 61.5237C1162.53 61.5351 1166.72 61.8909 1170.89 62.4072C1172.34 62.5908 1173.84 62.7056 1175.25 63.0039C1177.01 63.3826 1178.82 63.876 1180.52 64.4497C1181.38 64.7366 1181.99 65.3218 1181.99 66.0217H1182Z" fill="#093A5A"/>
<path d="M1182 66.022C1182 66.3777 1181.85 66.7564 1181.51 67.135C1180.37 68.3972 1179.03 68.7529 1177.44 69.0972C1168.7 71.0479 1159.68 71.4036 1150.75 71.4954C1147.4 71.5298 1144.58 71.243 1141.43 70.084C1140.21 69.6365 1138.95 69.2349 1137.83 68.5464C1137.05 68.053 1135.65 67.4448 1136.08 66.3089C1136.19 66.263 1136.3 66.217 1136.41 66.1826C1143.25 63.7385 1150.63 62.8435 1157.94 62.8779C1162.4 62.9009 1166.84 63.2451 1171.27 63.7615C1172.81 63.9451 1174.39 64.0598 1175.9 64.3696C1177.77 64.7483 1179.68 65.2417 1181.48 65.8154C1181.67 65.8728 1181.83 65.9417 1181.99 66.022H1182Z" fill="#015B98"/>
<path d="M-29.3221 195.052L85.4997 197.208L215.599 204.593L552.845 206.884L850.759 221.578L1429.44 208.217L1523.96 199.62L1557.26 197.867L1561.71 189.644L1572.64 50.648L1329.77 59.7097L1347.96 66.6895L1342.35 67.2886L1349.5 70.0296L1182.72 87.9584L1070.04 88.4377L989.231 85.0975L1040.77 100.585L1032.71 101.034L1042.3 103.925L756.577 120.191L546.585 103.97L303.985 103.506L155.372 92.3769L171.504 90.3549L153.845 89.0368L215.12 81.368L278.971 64.982L287.269 61.0578L209.129 57.9873L148.168 55.9203L105.016 50.5282L22.532 47.6524L-36.1521 39.4744L-32.7671 46.2145L-32.5723 46.8885L-31.2393 49.5546L-29.3371 56.16L-30.6701 111.399L-35.0437 183.518L-29.3221 195.052Z" fill="#015B98"/>
<path d="M1534.91 6.17809L1534.73 5.68384L1431.26 5.75871L1250.28 14.5059L1108.29 15.3297L910.357 28.5404L979.346 33.0338L1162.87 25.2452L1229 27.8663L1311.26 21.261L1441.97 22.1298L1441.54 22.5641L1550.34 29.8285L1534.91 6.17809Z" fill="#015B98"/>
</g>
<defs>
<linearGradient id="paint0_linear_314_844" x1="755.5" y1="-28.3625" x2="756" y2="206" gradientUnits="userSpaceOnUse">
<stop offset="0.231975" stop-color="#BBE0F9"/>
<stop offset="0.737966" stop-color="#76B8E9"/>
</linearGradient>
<clipPath id="clip0_314_844">
<rect width="1440" height="161" fill="white"/>
</clipPath>
</defs>
</svg>
