<svg width="1306" height="1175" viewBox="0 0 1306 1175" fill="none" xmlns="http://www.w3.org/2000/svg">
<g opacity="0.05">
<g style="mix-blend-mode:multiply">
<path fill-rule="evenodd" clip-rule="evenodd" d="M993.681 523.068C1003.79 512.454 1031.4 520.731 1043.91 522.31C1050.67 523.195 1057.49 524.079 1064.25 523.827C1091.04 522.752 1128.06 501.903 1153.46 524.395C1157.5 527.933 1159.4 533.114 1158.01 538.926C1152.77 561.102 1125.41 571.653 1111.13 575.065C1101.59 577.339 1089.97 578.476 1076.57 570.2C1067.28 564.451 1060.02 554.847 1044.79 556.996C1030.83 559.017 1024.89 565.462 1009.29 560.976C995.197 556.932 983.888 533.367 993.681 523.132V523.068Z" fill="#6592B7"/>
</g>
<path fill-rule="evenodd" clip-rule="evenodd" d="M993.674 523.068C1003.78 512.454 1031.39 520.731 1043.9 522.31C1050.66 523.195 1057.49 524.079 1064.25 523.827C1091.03 522.752 1128.06 501.903 1153.45 524.395C1157.5 527.933 1159.77 532.608 1158.76 538.484C1155.85 555.542 1123.44 567.041 1108.91 569.568C1099.25 571.274 1089.71 569.758 1074.99 564.072C1061.28 558.765 1059 552.952 1043.78 555.1C1029.81 557.122 1025.07 561.039 1009.47 556.553C995.38 552.51 983.881 533.303 993.674 523.068Z" fill="url(#paint0_radial_540_262)"/>
<path style="mix-blend-mode:multiply" fill-rule="evenodd" clip-rule="evenodd" d="M1063.17 550.046C1049.71 546.76 1041.18 552.636 1028.99 555.732C1015.72 559.08 1003.47 556.048 997.654 542.78C995.254 537.284 993.927 530.839 994.748 526.543C995.38 523.321 997.086 520.983 999.866 519.278C997.402 520.099 995.317 521.362 993.674 523.068C983.881 533.303 995.38 552.573 1009.47 556.553C1025.01 561.039 1029.81 557.122 1043.78 555.1C1059 552.889 1061.28 558.701 1074.99 564.071C1089.64 569.758 1099.25 571.274 1108.91 569.568C1123.44 567.041 1155.85 555.479 1158.76 538.484C1159.77 532.608 1157.5 527.996 1153.45 524.395C1149.54 520.92 1145.37 518.519 1141.01 516.877C1145.18 518.772 1149.09 521.615 1151.18 525.595C1153.64 530.271 1154.09 534.82 1153.2 539.053C1151.24 548.087 1143.03 555.669 1134.06 559.712C1116.94 567.483 1102.03 572.032 1084.78 562.302C1077.13 557.943 1072.27 552.32 1063.11 550.046H1063.17Z" fill="url(#paint1_radial_540_262)"/>
<path style="mix-blend-mode:screen" fill-rule="evenodd" clip-rule="evenodd" d="M1004.09 520.036C1002.07 520.478 999.987 521.489 998.597 523.005C991.585 530.903 1000.68 548.403 1012.37 551.246C1028.23 555.163 1036.32 547.582 1048.57 541.896C1052.68 540 1075.87 535.072 1061.84 527.554C1054.13 523.384 1014.64 517.698 1004.16 519.973L1004.09 520.036Z" fill="url(#paint2_radial_540_262)"/>
<path style="mix-blend-mode:screen" fill-rule="evenodd" clip-rule="evenodd" d="M1080.86 527.175C1060.2 539.242 1089.83 546.445 1100.69 546.003C1119.96 545.308 1118.57 538.863 1128.49 532.609C1132.16 530.271 1136.9 530.145 1140.5 527.807C1149.22 522.184 1136.33 516.498 1130.07 515.803C1113.14 513.908 1095.45 518.583 1080.79 527.112L1080.86 527.175Z" fill="url(#paint3_radial_540_262)"/>
</g>
<g opacity="0.05">
<g style="mix-blend-mode:multiply">
<path fill-rule="evenodd" clip-rule="evenodd" d="M25.6811 257.068C35.7897 246.454 63.3991 254.731 75.9085 256.31C82.6687 257.195 89.492 258.079 96.2522 257.827C123.04 256.752 160.063 235.903 185.461 258.395C189.504 261.933 191.4 267.114 190.01 272.926C184.766 295.102 157.409 305.653 143.131 309.065C133.591 311.339 121.966 312.476 108.572 304.2C99.2849 298.451 92.0191 288.847 76.7929 290.996C62.8304 293.017 56.8916 299.462 41.2863 294.976C27.1974 290.932 15.8883 267.367 25.6811 257.132V257.068Z" fill="#6592B7"/>
</g>
<path fill-rule="evenodd" clip-rule="evenodd" d="M25.6741 257.068C35.7827 246.454 63.3921 254.731 75.9015 256.31C82.6617 257.195 89.485 258.079 96.2452 257.827C123.033 256.752 160.056 235.903 185.454 258.395C189.497 261.933 191.772 266.608 190.761 272.484C187.855 289.542 155.444 301.041 140.913 303.568C131.246 305.274 121.706 303.758 106.986 298.072C93.2758 292.765 91.0014 286.952 75.7752 289.1C61.8126 291.122 57.0741 295.039 41.4688 290.553C27.3799 286.51 15.8813 267.303 25.6741 257.068Z" fill="url(#paint4_radial_540_262)"/>
<path style="mix-blend-mode:multiply" fill-rule="evenodd" clip-rule="evenodd" d="M95.1711 284.046C81.7139 280.76 73.1847 286.636 60.9911 289.732C47.7235 293.08 35.4669 290.048 29.6544 276.78C27.2536 271.284 25.9269 264.839 26.7482 260.543C27.38 257.321 29.0858 254.983 31.8657 253.278C29.4017 254.099 27.3167 255.362 25.6741 257.068C15.8813 267.303 27.3799 286.573 41.4688 290.553C57.0109 295.039 61.8126 291.122 75.7752 289.1C91.0014 286.889 93.2758 292.701 106.986 298.071C121.643 303.758 131.246 305.274 140.913 303.568C155.444 301.041 187.855 289.479 190.761 272.484C191.772 266.608 189.497 261.996 185.454 258.395C181.537 254.92 177.367 252.519 173.008 250.877C177.178 252.772 181.095 255.615 183.18 259.595C185.644 264.271 186.086 268.82 185.201 273.053C183.243 282.087 175.029 289.669 166.058 293.712C148.936 301.483 134.026 306.032 116.778 296.302C109.134 291.943 104.269 286.32 95.108 284.046H95.1711Z" fill="url(#paint5_radial_540_262)"/>
<path style="mix-blend-mode:screen" fill-rule="evenodd" clip-rule="evenodd" d="M36.0942 254.036C34.0725 254.478 31.9874 255.489 30.5975 257.005C23.5846 264.903 32.6825 282.403 44.3706 285.246C60.2286 289.163 68.3154 281.582 80.5721 275.896C84.6788 274 107.866 269.072 93.8398 261.554C86.1319 257.384 46.645 251.698 36.1572 253.973L36.0942 254.036Z" fill="url(#paint6_radial_540_262)"/>
<path style="mix-blend-mode:screen" fill-rule="evenodd" clip-rule="evenodd" d="M112.857 261.175C92.1977 273.242 121.829 280.445 132.695 280.003C151.965 279.308 150.575 272.863 160.494 266.609C164.159 264.271 168.897 264.145 172.498 261.807C181.217 256.184 168.328 250.498 162.074 249.803C145.142 247.908 127.452 252.583 112.794 261.112L112.857 261.175Z" fill="url(#paint7_radial_540_262)"/>
</g>
<g opacity="0.05">
<g style="mix-blend-mode:multiply">
<path fill-rule="evenodd" clip-rule="evenodd" d="M146.681 1121.07C156.79 1110.45 184.399 1118.73 196.909 1120.31C203.669 1121.19 210.492 1122.08 217.252 1121.83C244.04 1120.75 281.063 1099.9 306.461 1122.4C310.504 1125.93 312.4 1131.11 311.01 1136.93C305.766 1159.1 278.409 1169.65 264.131 1173.06C254.591 1175.34 242.966 1176.48 229.572 1168.2C220.285 1162.45 213.019 1152.85 197.793 1155C183.83 1157.02 177.892 1163.46 162.286 1158.98C148.197 1154.93 136.888 1131.37 146.681 1121.13V1121.07Z" fill="#6592B7"/>
</g>
<path fill-rule="evenodd" clip-rule="evenodd" d="M146.674 1121.07C156.783 1110.45 184.392 1118.73 196.902 1120.31C203.662 1121.19 210.485 1122.08 217.245 1121.83C244.033 1120.75 281.056 1099.9 306.454 1122.4C310.497 1125.93 312.772 1130.61 311.761 1136.48C308.855 1153.54 276.444 1165.04 261.913 1167.57C252.246 1169.27 242.706 1167.76 227.986 1162.07C214.276 1156.76 212.001 1150.95 196.775 1153.1C182.813 1155.12 178.074 1159.04 162.469 1154.55C148.38 1150.51 136.881 1131.3 146.674 1121.07Z" fill="url(#paint8_radial_540_262)"/>
<path style="mix-blend-mode:multiply" fill-rule="evenodd" clip-rule="evenodd" d="M216.171 1148.05C202.714 1144.76 194.185 1150.64 181.991 1153.73C168.724 1157.08 156.467 1154.05 150.654 1140.78C148.254 1135.28 146.927 1128.84 147.748 1124.54C148.38 1121.32 150.086 1118.98 152.866 1117.28C150.402 1118.1 148.317 1119.36 146.674 1121.07C136.881 1131.3 148.38 1150.57 162.469 1154.55C178.011 1159.04 182.813 1155.12 196.775 1153.1C212.001 1150.89 214.276 1156.7 227.986 1162.07C242.643 1167.76 252.246 1169.27 261.913 1167.57C276.444 1165.04 308.855 1153.48 311.761 1136.48C312.772 1130.61 310.497 1126 306.454 1122.39C302.537 1118.92 298.367 1116.52 294.008 1114.88C298.178 1116.77 302.095 1119.62 304.18 1123.6C306.644 1128.27 307.086 1132.82 306.201 1137.05C304.243 1146.09 296.029 1153.67 287.058 1157.71C269.936 1165.48 255.026 1170.03 237.778 1160.3C230.134 1155.94 225.269 1150.32 216.108 1148.05H216.171Z" fill="url(#paint9_radial_540_262)"/>
<path style="mix-blend-mode:screen" fill-rule="evenodd" clip-rule="evenodd" d="M157.094 1118.04C155.072 1118.48 152.987 1119.49 151.597 1121.01C144.585 1128.9 153.683 1146.4 165.371 1149.25C181.229 1153.16 189.315 1145.58 201.572 1139.9C205.679 1138 228.866 1133.07 214.84 1125.55C207.132 1121.38 167.645 1115.7 157.157 1117.97L157.094 1118.04Z" fill="url(#paint10_radial_540_262)"/>
<path style="mix-blend-mode:screen" fill-rule="evenodd" clip-rule="evenodd" d="M233.857 1125.18C213.198 1137.24 242.829 1144.44 253.695 1144C272.965 1143.31 271.575 1136.86 281.494 1130.61C285.159 1128.27 289.897 1128.14 293.498 1125.81C302.217 1120.18 289.328 1114.5 283.074 1113.8C266.142 1111.91 248.452 1116.58 233.794 1125.11L233.857 1125.18Z" fill="url(#paint11_radial_540_262)"/>
</g>
<ellipse cx="1159" cy="821.5" rx="35" ry="40.5" fill="#7DBCDF" fill-opacity="0.07"/>
<ellipse cx="184" cy="852.5" rx="35" ry="40.5" fill="#7DBCDF" fill-opacity="0.07"/>
<ellipse cx="1065.5" cy="387.5" rx="14.5" ry="16.5" fill="#7DBCDF" fill-opacity="0.07"/>
<ellipse cx="946.5" cy="484.5" rx="6.5" ry="7.5" fill="#7DBCDF" fill-opacity="0.07"/>
<ellipse cx="159.5" cy="410.5" rx="6.5" ry="7.5" fill="#7DBCDF" fill-opacity="0.07"/>
<ellipse cx="1068.5" cy="733.5" rx="6.5" ry="7.5" fill="#7DBCDF" fill-opacity="0.07"/>
<ellipse cx="83.5" cy="16.5" rx="14.5" ry="16.5" fill="#7DBCDF" fill-opacity="0.07"/>
<ellipse cx="303" cy="304.5" rx="29" ry="22.5" fill="#7DBCDF" fill-opacity="0.07"/>
<ellipse cx="29" cy="542" rx="29" ry="15" fill="#7DBCDF" fill-opacity="0.07"/>
<ellipse cx="1277" cy="597" rx="29" ry="15" fill="#7DBCDF" fill-opacity="0.07"/>
<defs>
<radialGradient id="paint0_radial_540_262" cx="0" cy="0" r="1" gradientUnits="userSpaceOnUse" gradientTransform="translate(1057.6 505.49) rotate(-1.93) scale(141.016)">
<stop stop-color="#E8FBFF"/>
<stop offset="0.93" stop-color="#C9F6FF"/>
</radialGradient>
<radialGradient id="paint1_radial_540_262" cx="0" cy="0" r="1" gradientUnits="userSpaceOnUse" gradientTransform="translate(1076.41 467.243) rotate(-1.93) scale(150.366)">
<stop stop-color="white"/>
<stop offset="1" stop-color="#91D7FF"/>
</radialGradient>
<radialGradient id="paint2_radial_540_262" cx="0" cy="0" r="1" gradientUnits="userSpaceOnUse" gradientTransform="translate(25890.4 1497.42) rotate(-1.93) scale(1060.7 497.029)">
<stop stop-color="white"/>
<stop offset="0.1" stop-color="#F9F9F9"/>
<stop offset="0.22" stop-color="#E9E9E9"/>
<stop offset="0.36" stop-color="#CECECE"/>
<stop offset="0.51" stop-color="#A9A9A9"/>
<stop offset="0.67" stop-color="#7A7A7A"/>
<stop offset="0.84" stop-color="#404040"/>
<stop offset="1"/>
</radialGradient>
<radialGradient id="paint3_radial_540_262" cx="0" cy="0" r="1" gradientUnits="userSpaceOnUse" gradientTransform="translate(26803.9 1370.98) rotate(-1.93) scale(855.465 375.921)">
<stop stop-color="white"/>
<stop offset="0.1" stop-color="#F9F9F9"/>
<stop offset="0.22" stop-color="#E9E9E9"/>
<stop offset="0.36" stop-color="#CECECE"/>
<stop offset="0.51" stop-color="#A9A9A9"/>
<stop offset="0.67" stop-color="#7A7A7A"/>
<stop offset="0.84" stop-color="#404040"/>
<stop offset="1"/>
</radialGradient>
<radialGradient id="paint4_radial_540_262" cx="0" cy="0" r="1" gradientUnits="userSpaceOnUse" gradientTransform="translate(89.5988 239.49) rotate(-1.93) scale(141.016)">
<stop stop-color="#E8FBFF"/>
<stop offset="0.93" stop-color="#C9F6FF"/>
</radialGradient>
<radialGradient id="paint5_radial_540_262" cx="0" cy="0" r="1" gradientUnits="userSpaceOnUse" gradientTransform="translate(108.412 201.243) rotate(-1.93) scale(150.366)">
<stop stop-color="white"/>
<stop offset="1" stop-color="#91D7FF"/>
</radialGradient>
<radialGradient id="paint6_radial_540_262" cx="0" cy="0" r="1" gradientUnits="userSpaceOnUse" gradientTransform="translate(24922.4 1231.42) rotate(-1.93) scale(1060.7 497.029)">
<stop stop-color="white"/>
<stop offset="0.1" stop-color="#F9F9F9"/>
<stop offset="0.22" stop-color="#E9E9E9"/>
<stop offset="0.36" stop-color="#CECECE"/>
<stop offset="0.51" stop-color="#A9A9A9"/>
<stop offset="0.67" stop-color="#7A7A7A"/>
<stop offset="0.84" stop-color="#404040"/>
<stop offset="1"/>
</radialGradient>
<radialGradient id="paint7_radial_540_262" cx="0" cy="0" r="1" gradientUnits="userSpaceOnUse" gradientTransform="translate(25835.9 1104.98) rotate(-1.93) scale(855.465 375.921)">
<stop stop-color="white"/>
<stop offset="0.1" stop-color="#F9F9F9"/>
<stop offset="0.22" stop-color="#E9E9E9"/>
<stop offset="0.36" stop-color="#CECECE"/>
<stop offset="0.51" stop-color="#A9A9A9"/>
<stop offset="0.67" stop-color="#7A7A7A"/>
<stop offset="0.84" stop-color="#404040"/>
<stop offset="1"/>
</radialGradient>
<radialGradient id="paint8_radial_540_262" cx="0" cy="0" r="1" gradientUnits="userSpaceOnUse" gradientTransform="translate(210.599 1103.49) rotate(-1.93) scale(141.016)">
<stop stop-color="#E8FBFF"/>
<stop offset="0.93" stop-color="#C9F6FF"/>
</radialGradient>
<radialGradient id="paint9_radial_540_262" cx="0" cy="0" r="1" gradientUnits="userSpaceOnUse" gradientTransform="translate(229.412 1065.24) rotate(-1.93) scale(150.366)">
<stop stop-color="white"/>
<stop offset="1" stop-color="#91D7FF"/>
</radialGradient>
<radialGradient id="paint10_radial_540_262" cx="0" cy="0" r="1" gradientUnits="userSpaceOnUse" gradientTransform="translate(25043.4 2095.42) rotate(-1.93) scale(1060.7 497.029)">
<stop stop-color="white"/>
<stop offset="0.1" stop-color="#F9F9F9"/>
<stop offset="0.22" stop-color="#E9E9E9"/>
<stop offset="0.36" stop-color="#CECECE"/>
<stop offset="0.51" stop-color="#A9A9A9"/>
<stop offset="0.67" stop-color="#7A7A7A"/>
<stop offset="0.84" stop-color="#404040"/>
<stop offset="1"/>
</radialGradient>
<radialGradient id="paint11_radial_540_262" cx="0" cy="0" r="1" gradientUnits="userSpaceOnUse" gradientTransform="translate(25956.9 1968.98) rotate(-1.93) scale(855.465 375.921)">
<stop stop-color="white"/>
<stop offset="0.1" stop-color="#F9F9F9"/>
<stop offset="0.22" stop-color="#E9E9E9"/>
<stop offset="0.36" stop-color="#CECECE"/>
<stop offset="0.51" stop-color="#A9A9A9"/>
<stop offset="0.67" stop-color="#7A7A7A"/>
<stop offset="0.84" stop-color="#404040"/>
<stop offset="1"/>
</radialGradient>
</defs>
</svg>
