<svg width="142" height="212" viewBox="0 0 142 212" fill="none" xmlns="http://www.w3.org/2000/svg">
<g opacity="0.72" filter="url(#filter0_f_465_588)">
<ellipse cx="74.5" cy="201.5" rx="48.5" ry="5.5" fill="#075B94"/>
</g>
<g filter="url(#filter1_f_465_588)">
<circle cx="66.9187" cy="52.1068" r="7.7081" fill="url(#paint0_radial_465_588)"/>
</g>
<g filter="url(#filter2_f_465_588)">
<circle cx="119.334" cy="23.7408" r="7.7081" fill="url(#paint1_radial_465_588)"/>
</g>
<path d="M0.0185242 76.6369C0.0185242 76.6369 3.97742 99.8845 7.1285 110.115C10.2796 120.345 9.0956 116.805 14.6023 121.134C20.1089 125.463 18.5427 128.213 22.4769 130.187C26.4111 132.16 34.2795 133.726 34.6742 136.483C35.0688 139.239 47.2661 155.371 52.3843 164.417C57.5025 173.463 59.0749 169.535 66.154 170.713C73.2332 171.891 72.45 170.713 76.3842 174.653C80.3185 178.593 85.5847 180.419 88.5877 172.291C95.9875 152.25 95.8704 153.792 101.537 140.417C104.849 132.672 118.261 130.131 124.717 126.382C135.256 120.271 140.547 69.8784 140.547 69.8784L0.0185242 76.6369Z" fill="#89C6F4"/>
<path d="M0.0185242 76.6369C0.0185242 76.6369 3.97742 99.8845 7.1285 110.115C10.2796 120.345 9.0956 116.805 14.6023 121.134C20.1089 125.463 18.5427 128.213 22.4769 130.187C26.4111 132.16 34.2795 133.726 34.6742 136.483C35.0688 139.239 47.2661 155.371 52.3843 164.417C57.5025 173.463 59.0749 169.535 66.154 170.713C73.2332 171.891 72.45 170.713 76.3842 174.653C80.3185 178.593 85.5847 180.419 88.5877 172.291C95.9875 152.25 95.8704 153.792 101.537 140.417C104.849 132.672 118.261 130.131 124.717 126.382C135.256 120.271 140.547 69.8784 140.547 69.8784L0.0185242 76.6369Z" fill="#89C6F4"/>
<path d="M60.9927 162.776C58.2178 157.843 54.9249 153.36 52.7419 148.131C50.892 143.673 49.5292 138.715 45.9218 135.299C42.6782 132.215 38.522 130.322 34.8221 127.899C17.556 116.645 16.8284 94.8034 16.8469 75.8291L0.0185242 76.6369C0.0185242 76.6369 3.97742 99.8845 7.12849 110.115C10.2796 120.345 9.0956 116.805 14.6023 121.134C20.1089 125.463 18.5427 128.213 22.4769 130.187C26.4111 132.16 34.2795 133.726 34.6742 136.483C35.0688 139.239 47.2661 155.371 52.3843 164.417C56.9783 172.55 58.7173 170.201 64.1623 170.497C63.414 167.807 62.35 165.216 60.9927 162.776V162.776Z" fill="#A9DEFF"/>
<path d="M54.1602 82.9451C54.1602 82.9451 51.3483 113.851 64.1623 123.94C75.4901 132.857 78.4253 162.499 78.9618 169.233C78.9928 169.604 79.162 169.95 79.4361 170.203C79.7102 170.455 80.0692 170.595 80.4418 170.595V170.595C80.6645 170.596 80.8846 170.547 81.0856 170.451C81.2867 170.355 81.4636 170.215 81.6033 170.042C81.743 169.868 81.842 169.665 81.8929 169.449C81.9437 169.232 81.9451 169.006 81.8971 168.789C80.3308 161.74 75.3606 135.89 83.5004 123.94C92.9844 110.028 87.3544 82.9451 87.3544 82.9451H54.1602Z" fill="#A9DEFF"/>
<path d="M35.8334 91.3994C39.1016 91.5289 42.376 91.5351 45.6443 91.4549C48.8077 91.3871 51.9773 90.9 55.1345 91.2391C61.5353 91.9236 67.6093 94.4704 73.9238 95.6297C80.0903 96.7643 85.5537 95.1117 91.6277 94.4703C98.4848 93.7489 105.49 93.5269 112.378 93.1569C115.369 92.9966 118.045 92.8856 120.888 91.8558C123.354 90.9678 125.747 89.864 128.121 88.7725C131.898 87.0865 135.5 85.0334 138.875 82.643C140.682 74.7623 140.559 69.8538 140.559 69.8538L0 76.6369C0 76.6369 0.52414 79.7201 1.33812 84.0798C12.1418 88.9267 24.0678 90.9431 35.8334 91.3994Z" fill="#4990D1"/>
<path d="M6.037 72.08C8.75641 71.0811 36.1972 59.3216 71.5805 61.6402C106.964 63.9588 134.22 61.8868 138.863 66.6905C143.506 71.4942 137.919 75.9957 134.546 78.3452C131.173 80.6946 133.874 88.0636 120.468 87.0584C120.468 87.0584 124.125 89.9135 116.768 90.9186C109.412 91.9238 83.9566 90.7398 83.9566 90.7398C83.9566 90.7398 75.5024 88.0759 73.3195 91.19C71.1365 94.304 56.1088 86.7809 52.8159 86.7809C49.523 86.7809 46.7111 88.193 34.5015 87.2557C27.2516 86.705 20.0366 85.7643 12.8879 84.4377C12.8879 84.4377 -10.7605 78.2527 6.037 72.08Z" fill="white"/>
<path d="M35.1181 103.991C35.1181 103.991 35.4942 122.651 41.1797 123.94C46.8652 125.229 60.672 170.565 60.672 170.565C60.672 170.565 43.338 129.373 41.3462 126.074C39.3544 122.775 34.8036 125.71 35.1181 103.991Z" fill="#6DAEE8"/>
<path d="M74.1457 172.557C71.5637 165.035 70.2711 157.132 70.3225 149.18C70.3225 149.18 69.3729 165.077 72.228 171.589L74.1457 172.557Z" fill="#6DAEE8"/>
<path d="M101.568 140.417C101.568 140.417 103.418 123.188 107.001 121.103C110.583 119.019 113.241 100.137 113.241 100.137C113.241 100.137 112.538 120.598 107.408 122.479C107.408 122.479 104.516 124.945 102.536 138.918L101.568 140.417Z" fill="#6DAEE8"/>
<path d="M45.9033 68.5281C45.9033 68.5281 22.0945 70.082 28.8776 73.1036C35.6607 76.1252 57.7183 79.2701 57.7183 79.2701C57.7183 79.2701 80.9968 80.0594 92.1396 81.6195C103.282 83.1796 120.875 80.0162 118.612 75.3112C116.349 70.6062 69.2372 76.4582 63.3853 74.0347C57.5333 71.6113 45.9033 68.5281 45.9033 68.5281Z" fill="#EAF5F5"/>
<path d="M79.4305 61.8436C79.4305 61.8436 61.9177 72.4993 46.6803 26.781H27.6012C27.6012 26.781 43.8498 77.6236 64.7296 75.8724C85.6093 74.1211 79.4305 61.8436 79.4305 61.8436Z" fill="#C6492C"/>
<path d="M58.8467 76.4338C58.8467 76.4338 81.046 66.3084 87.3728 29.9508H80.8487L106.131 0.0249023L122.99 29.9755L116.318 30.3393C116.318 30.3393 109.486 57.0217 94.8404 70.107C92.8835 71.8335 90.53 73.0495 87.9895 73.6465C81.7613 75.1203 67.5784 76.7914 58.8467 76.4338Z" fill="#E56038"/>
<path d="M106.1 0H102.505L76.7727 29.8458L80.8179 29.9568L106.1 0Z" fill="#FF795A"/>
<path d="M27.6012 26.7871H25.3505C25.3505 26.7871 34.3597 62.2505 55.6526 75.3728C56.9063 76.1466 58.3695 76.5118 59.8398 76.4179C61.3101 76.324 62.715 75.7756 63.8601 74.8487C70.2918 69.6442 82.7789 56.4541 87.3914 29.9505H85.079C83.229 37.9669 80.1458 55.8497 64.1129 71.5619C62.8891 72.7608 61.2714 73.4742 59.5608 73.5695C57.8503 73.6648 56.1634 73.1354 54.8139 72.0799C48.4378 67.0542 37.2395 54.8446 27.6012 26.7871Z" fill="#FF795A"/>
<path d="M112.366 51.6072C112.366 51.6072 126.826 35.3647 128.065 36.3513C129.305 37.3379 112.366 51.6072 112.366 51.6072Z" fill="white"/>
<path d="M75.712 46.7236C75.712 46.7236 70.0451 33.1943 70.9577 32.6024C71.8703 32.0104 75.712 46.7236 75.712 46.7236Z" fill="white"/>
<path d="M74.9289 34.6188C74.9289 34.6188 73.3564 25.5232 74.0039 25.2889C74.6514 25.0546 74.9289 34.6188 74.9289 34.6188Z" fill="white"/>
<path d="M116.818 41.3401C116.818 41.3401 122.207 32.2261 122.886 32.5837C123.564 32.9414 116.818 41.3401 116.818 41.3401Z" fill="white"/>
<path d="M64.1622 64.4151C66.6722 64.4151 68.7069 63.965 68.7069 63.4099C68.7069 62.8548 66.6722 62.4048 64.1622 62.4048C61.6522 62.4048 59.6175 62.8548 59.6175 63.4099C59.6175 63.965 61.6522 64.4151 64.1622 64.4151Z" fill="#B23B24"/>
<path d="M71.5435 54.1231L68.67 54.2279C68.6206 54.2305 68.5726 54.2447 68.5297 54.2694C68.4869 54.294 68.4504 54.3284 68.4233 54.3698L66.8817 56.7932C66.8506 56.8414 66.8066 56.88 66.7548 56.9046C66.7029 56.9292 66.6452 56.9389 66.5882 56.9325C66.5312 56.9261 66.477 56.9039 66.4319 56.8684C66.3868 56.8329 66.3525 56.7855 66.3329 56.7315L65.3524 54.0306C65.3353 53.9843 65.3074 53.9428 65.2709 53.9095C65.2344 53.8762 65.1905 53.8522 65.1428 53.8395L62.3493 53.1242C62.2935 53.1097 62.2428 53.0798 62.203 53.038C62.1633 52.9961 62.1361 52.944 62.1245 52.8875C62.113 52.8309 62.1175 52.7723 62.1376 52.7182C62.1578 52.6641 62.1927 52.6167 62.2384 52.5815L64.5014 50.8117C64.5392 50.7805 64.569 50.7407 64.5883 50.6956C64.6076 50.6506 64.6158 50.6016 64.6124 50.5527L64.4398 47.6853C64.4352 47.6281 64.447 47.5709 64.4738 47.5201C64.5006 47.4694 64.5413 47.4274 64.5911 47.3989C64.6409 47.3705 64.6977 47.3568 64.755 47.3595C64.8123 47.3621 64.8676 47.381 64.9146 47.414L67.301 49.0173C67.3411 49.0474 67.3883 49.0667 67.438 49.0732C67.4877 49.0797 67.5382 49.0732 67.5847 49.0543L70.2548 47.9998C70.308 47.9795 70.3658 47.9744 70.4218 47.985C70.4778 47.9956 70.5298 48.0215 70.5719 48.0598C70.6141 48.0981 70.6448 48.1474 70.6606 48.2021C70.6765 48.2568 70.6769 48.3149 70.6617 48.3698L69.8725 51.1324C69.8584 51.1797 69.856 51.2296 69.8657 51.278C69.8754 51.3264 69.8967 51.3717 69.9279 51.4099L71.7779 53.6236C71.816 53.6678 71.8405 53.7221 71.8484 53.7799C71.8564 53.8377 71.8474 53.8965 71.8227 53.9493C71.7979 54.0022 71.7583 54.0467 71.7088 54.0775C71.6593 54.1083 71.6019 54.1242 71.5435 54.1231V54.1231Z" fill="#F2B02C"/>
<path d="M117.231 24.7215L118.366 26.5714C118.389 26.6073 118.421 26.6362 118.46 26.6549C118.498 26.6736 118.541 26.6815 118.583 26.6777C118.626 26.6739 118.667 26.6585 118.701 26.6333C118.736 26.608 118.762 26.5738 118.779 26.5344L119.55 24.518C119.561 24.4821 119.582 24.45 119.61 24.4251C119.639 24.4001 119.673 24.3832 119.71 24.3762H119.809L117.737 20.6763L115.924 19.924C115.884 19.9082 115.841 19.9036 115.798 19.9107C115.756 19.9179 115.717 19.9364 115.684 19.9644C115.652 19.9923 115.628 20.0286 115.615 20.0693C115.601 20.1101 115.599 20.1536 115.609 20.1953L116.17 22.2857C116.182 22.3214 116.184 22.3595 116.177 22.3963C116.169 22.4331 116.152 22.4672 116.127 22.4954L114.727 24.1418C114.7 24.1741 114.682 24.2135 114.675 24.2555C114.669 24.2976 114.674 24.3405 114.691 24.3797C114.708 24.4188 114.735 24.4524 114.77 24.4769C114.804 24.5013 114.845 24.5156 114.888 24.518L117.046 24.629C117.082 24.6282 117.118 24.6363 117.15 24.6524C117.182 24.6685 117.21 24.6922 117.231 24.7215V24.7215Z" fill="#C6492C"/>
<path d="M119.79 26.6884L118.797 25.079C118.781 25.0508 118.757 25.0272 118.729 25.01C118.701 24.9928 118.67 24.9826 118.637 24.9803L116.75 24.8878C116.713 24.8851 116.677 24.8722 116.646 24.8504C116.616 24.8287 116.592 24.799 116.577 24.7646C116.563 24.7302 116.558 24.6924 116.563 24.6554C116.569 24.6184 116.584 24.5836 116.608 24.5548L117.841 23.1119C117.863 23.0881 117.878 23.0592 117.886 23.028C117.894 22.9967 117.893 22.9641 117.885 22.933L117.391 21.0831C117.381 21.0468 117.381 21.0083 117.392 20.9722C117.403 20.936 117.423 20.9037 117.452 20.879C117.48 20.8544 117.516 20.8384 117.553 20.833C117.59 20.8277 117.628 20.8331 117.663 20.8488L119.414 21.5702C119.442 21.5854 119.474 21.5933 119.506 21.5933C119.539 21.5933 119.57 21.5854 119.599 21.5702L121.184 20.5343C121.215 20.5135 121.252 20.502 121.29 20.501C121.328 20.5001 121.366 20.5098 121.398 20.5291C121.431 20.5483 121.458 20.5763 121.475 20.6099C121.493 20.6435 121.501 20.6814 121.498 20.7193L121.35 22.6062C121.348 22.6388 121.353 22.6715 121.366 22.7016C121.379 22.7316 121.399 22.7581 121.424 22.7789L122.898 23.969C122.926 23.9931 122.947 24.0245 122.959 24.0597C122.971 24.095 122.973 24.1328 122.964 24.169C122.956 24.2052 122.938 24.2385 122.912 24.2652C122.886 24.2919 122.854 24.311 122.818 24.3205L120.968 24.7645C120.936 24.7711 120.906 24.7859 120.881 24.8075C120.856 24.8291 120.837 24.8568 120.826 24.8878L120.148 26.6514C120.136 26.6874 120.114 26.7192 120.084 26.7429C120.054 26.7667 120.019 26.7814 119.981 26.7853C119.943 26.7892 119.905 26.7821 119.871 26.7649C119.837 26.7478 119.809 26.7212 119.79 26.6884Z" fill="#F2B02C"/>
<defs>
<filter id="filter0_f_465_588" x="21" y="191" width="107" height="21" filterUnits="userSpaceOnUse" color-interpolation-filters="sRGB">
<feFlood flood-opacity="0" result="BackgroundImageFix"/>
<feBlend mode="normal" in="SourceGraphic" in2="BackgroundImageFix" result="shape"/>
<feGaussianBlur stdDeviation="2.5" result="effect1_foregroundBlur_465_588"/>
</filter>
<filter id="filter1_f_465_588" x="45.2106" y="30.3987" width="43.4162" height="43.4163" filterUnits="userSpaceOnUse" color-interpolation-filters="sRGB">
<feFlood flood-opacity="0" result="BackgroundImageFix"/>
<feBlend mode="normal" in="SourceGraphic" in2="BackgroundImageFix" result="shape"/>
<feGaussianBlur stdDeviation="7" result="effect1_foregroundBlur_465_588"/>
</filter>
<filter id="filter2_f_465_588" x="97.6256" y="2.03271" width="43.4162" height="43.4163" filterUnits="userSpaceOnUse" color-interpolation-filters="sRGB">
<feFlood flood-opacity="0" result="BackgroundImageFix"/>
<feBlend mode="normal" in="SourceGraphic" in2="BackgroundImageFix" result="shape"/>
<feGaussianBlur stdDeviation="7" result="effect1_foregroundBlur_465_588"/>
</filter>
<radialGradient id="paint0_radial_465_588" cx="0" cy="0" r="1" gradientUnits="userSpaceOnUse" gradientTransform="translate(66.7046 51.6786) rotate(86.326) scale(8.15308)">
<stop offset="0.429504" stop-color="#FFD671"/>
<stop offset="0.922949" stop-color="#FFE5A5" stop-opacity="0"/>
</radialGradient>
<radialGradient id="paint1_radial_465_588" cx="0" cy="0" r="1" gradientUnits="userSpaceOnUse" gradientTransform="translate(119.12 23.3126) rotate(86.326) scale(8.15308)">
<stop offset="0.429504" stop-color="#FFD671"/>
<stop offset="0.922949" stop-color="#FFE5A5" stop-opacity="0"/>
</radialGradient>
</defs>
</svg>
