<svg width="685" height="537" viewBox="0 0 685 537" fill="none" xmlns="http://www.w3.org/2000/svg">
<g opacity="0.2">
<path d="M611.876 139.582C642.367 167.008 674.512 206.756 682.785 257.634C691.057 308.114 675.221 370.121 650.876 407.086C626.294 444.052 593.204 455.976 561.295 477.44C529.15 499.302 498.187 530.703 458.478 535.472C418.769 540.242 370.315 518.778 345.734 465.118C321.152 411.459 320.916 326 341.243 266.378C361.57 206.756 402.697 173.368 436.733 146.737C470.532 120.105 497.241 99.8338 524.896 97.8464C552.786 95.859 581.386 111.758 611.876 139.582Z" fill="url(#paint0_linear_130_1896)"/>
<path d="M310.562 64.7058C352.167 91.6359 406.351 116.909 419.574 159.997C432.797 202.671 405.383 263.16 377.646 322.821C350.232 382.482 323.14 441.728 287.663 448.357C252.186 454.986 208.323 408.583 149.624 391.596C90.9253 374.195 17.713 385.382 2.87708 353.065C-11.6364 320.749 32.2265 244.931 57.0606 181.955C81.5722 118.98 87.3775 68.8489 109.631 37.7756C131.885 6.70239 171.233 -5.31259 205.42 2.14499C239.607 10.0169 268.634 37.7756 310.562 64.7058Z" fill="url(#paint1_linear_130_1896)"/>
</g>
<defs>
<linearGradient id="paint0_linear_130_1896" x1="464.447" y1="165.247" x2="728.551" y2="407.415" gradientUnits="userSpaceOnUse">
<stop stop-color="#37FF33"/>
<stop offset="0.958333" stop-color="#FF9B9B"/>
</linearGradient>
<linearGradient id="paint1_linear_130_1896" x1="162.692" y1="69.1952" x2="433.763" y2="355.652" gradientUnits="userSpaceOnUse">
<stop stop-color="#37FF33"/>
<stop offset="0.958333" stop-color="#FF9B9B"/>
</linearGradient>
</defs>
</svg>
