<svg width="1440" height="243" viewBox="0 0 1440 243" fill="none" xmlns="http://www.w3.org/2000/svg">
<path d="M0 96.5242L255 44L552.5 111.32L748 149.048H949L1211 96.5242H1440V243H0V96.5242Z" fill="#015B98"/>
<path d="M39 117C36.6 97 3.66667 117 -12.5 129.5L-15.5 49.5L263 34.5L806.5 129.5L1440 37V96.5C1332.5 96.5 1280 117 1193 129.5C1106 142 1051 163.5 1020 171.5C989 179.5 803.5 174.5 898.5 193.5C993.5 212.5 766 204 648 193.5C530 183 697.5 187 612 163.5C526.5 140 509 159 475 148C441 137 456.5 117 339.5 96.5001C222.5 76.0003 269.5 86.0001 163.5 96.5001C57.5 107 42 142 39 117Z" fill="#004F84"/>
<path d="M390.387 35.1595C246.667 -10.8653 59.579 25.6924 -16 49.7243V109.308C67.5976 76.7803 257.776 43.0841 396.5 91.5002C598.5 162 898 196 1105.91 137.71C1246.33 98.3432 1396.63 85.0336 1456 88.9176V35.159L1454.34 34.9269C1411.23 28.9045 1297.92 13.072 1120.5 70.0007C895.81 142.097 570.036 92.6904 390.387 35.1595Z" fill="url(#paint0_linear_246_3579)"/>
<path d="M208.5 0V17C214.9 42.6 326.5 40 381.5 35.5V17C375 21.8333 360.2 30.9 353 28.5C344 25.5 272 17 244.5 17C222.5 17 211.333 5.66667 208.5 0Z" fill="#9CCDF2"/>
<path d="M708 59L713.486 77.2727V126H900V97.8295L878.556 72.3239L887.034 102.778L732.935 97.8295L719.47 77.2727L708 59Z" fill="#8DC4EC"/>
<path d="M1257 0L1206.5 34L1180 82H1276L1347 41.2L1336 25.2L1347 4L1299 28.8L1230 34L1257 0Z" fill="#9FCEF3"/>
<path d="M1205 115.434V48L1188.5 49.9452L1183 119L1205 115.434Z" fill="url(#paint1_linear_246_3579)"/>
<path d="M792.61 161L788 98H809L792.61 161Z" fill="url(#paint2_linear_246_3579)"/>
<path d="M886.067 120.03L880 166H925L920.449 106L909.831 106.896L895.674 161.224L886.067 120.03Z" fill="url(#paint3_linear_246_3579)"/>
<path d="M209 66V13C204.954 13 177.981 13.9707 165 14.456L200.402 66H209Z" fill="url(#paint4_linear_246_3579)"/>
<defs>
<linearGradient id="paint0_linear_246_3579" x1="720.512" y1="209.077" x2="720.512" y2="24.1041" gradientUnits="userSpaceOnUse">
<stop stop-color="#7CBAE4"/>
<stop offset="1" stop-color="#9FCEF3"/>
</linearGradient>
<linearGradient id="paint1_linear_246_3579" x1="1212.5" y1="-0.95434" x2="1204.68" y2="119.692" gradientUnits="userSpaceOnUse">
<stop stop-color="white"/>
<stop offset="1" stop-color="white" stop-opacity="0"/>
</linearGradient>
<linearGradient id="paint2_linear_246_3579" x1="798.5" y1="98" x2="798.5" y2="161" gradientUnits="userSpaceOnUse">
<stop stop-color="#CAE4F8"/>
<stop offset="1" stop-color="#CAE4F8" stop-opacity="0"/>
</linearGradient>
<linearGradient id="paint3_linear_246_3579" x1="902.5" y1="106" x2="902.5" y2="166" gradientUnits="userSpaceOnUse">
<stop stop-color="#CAE4F8"/>
<stop offset="1" stop-color="#CAE4F8" stop-opacity="0"/>
</linearGradient>
<linearGradient id="paint4_linear_246_3579" x1="187" y1="13" x2="187" y2="66" gradientUnits="userSpaceOnUse">
<stop stop-color="#C9E3F8"/>
<stop offset="1" stop-color="#C9E3F8" stop-opacity="0"/>
</linearGradient>
</defs>
</svg>
