<svg width="1440" height="279" viewBox="0 0 1440 279" fill="none" xmlns="http://www.w3.org/2000/svg">
<g clip-path="url(#clip0_248_3686)">
<path style="mix-blend-mode:screen" d="M411.428 139.199C405.688 130.279 393.858 125.839 382.518 127.489C382.218 125.179 381.398 122.869 379.998 120.689C374.158 111.619 360.598 108.209 349.708 113.079C347.428 114.099 345.468 115.409 343.818 116.909C337.038 111.029 326.168 109.349 317.118 113.389C306.788 118.009 302.598 128.419 307.198 137.229C302.148 136.289 296.688 136.789 291.778 138.989C280.888 143.859 276.808 155.159 282.648 164.229C285.668 168.919 290.758 172.079 296.468 173.379C293.088 179.639 293.098 187.089 297.298 193.609C304.468 204.739 321.118 208.919 334.488 202.949C338.338 201.229 341.488 198.849 343.858 196.069C351.738 205.399 366.918 208.559 379.278 203.039C386.378 199.859 391.098 194.449 392.908 188.409C396.618 188.869 400.518 188.399 404.078 186.809C412.848 182.889 416.138 173.789 411.428 166.479C410.788 165.479 410.028 164.579 409.168 163.759C415.388 156.849 416.648 147.309 411.428 139.199V139.199Z" fill="white"/>
<path style="mix-blend-mode:screen" d="M252.378 136.719C245.888 126.649 232.528 121.619 219.708 123.489C219.368 120.879 218.438 118.269 216.858 115.809C210.258 105.559 194.938 101.709 182.638 107.219C180.068 108.369 177.848 109.849 175.978 111.549C168.318 104.899 156.028 103.009 145.818 107.579C134.148 112.799 129.408 124.569 134.608 134.509C128.898 133.449 122.738 134.009 117.188 136.499C104.888 141.999 100.268 154.769 106.868 165.019C110.278 170.319 116.028 173.889 122.478 175.359C118.658 182.429 118.678 190.849 123.418 198.209C131.528 210.789 150.328 215.509 165.438 208.759C169.788 206.809 173.348 204.129 176.028 200.989C184.928 211.529 202.078 215.109 216.048 208.859C224.068 205.269 229.408 199.149 231.448 192.329C235.638 192.859 240.048 192.319 244.068 190.519C253.968 186.089 257.688 175.809 252.378 167.549C251.658 166.419 250.788 165.399 249.828 164.479C256.858 156.679 258.278 145.889 252.378 136.729V136.719Z" fill="white"/>
<path style="mix-blend-mode:screen" d="M480.108 163.109C484.448 162.299 488.308 159.899 490.308 156.269C493.718 150.109 490.488 142.819 483.098 139.979C479.608 138.639 475.808 138.549 472.418 139.459C471.748 135.939 469.058 132.759 464.878 131.159C458.568 128.739 451.168 130.809 447.818 135.769C446.608 134.439 444.998 133.339 443.048 132.589C437.408 130.419 430.848 131.999 427.388 136.079C425.928 134.659 424.078 133.459 421.908 132.629C413.848 129.539 404.308 132.469 400.588 139.189C397.258 145.219 399.748 152.239 406.118 155.849C405.058 156.699 404.168 157.729 403.508 158.909C400.698 163.989 403.368 170.009 409.458 172.339C413.668 173.959 418.408 173.399 421.858 171.229C422.908 175.399 426.228 179.109 431.228 181.029C435.298 182.589 439.718 182.669 443.638 181.539C444.688 183.299 446.438 184.779 448.748 185.669C453.828 187.619 459.778 185.979 462.528 182.019C462.548 182.019 462.558 182.029 462.578 182.039C469.968 184.879 478.718 182.179 482.118 176.029C484.558 171.609 483.578 166.619 480.098 163.099L480.108 163.109Z" fill="white"/>
<path style="mix-blend-mode:screen" d="M511.058 167.799C519.648 166.209 527.288 161.439 531.248 154.269C537.988 142.069 531.598 127.639 516.968 122.019C510.048 119.359 502.538 119.179 495.828 120.989C494.498 114.029 489.168 107.719 480.908 104.549C468.418 99.7489 453.748 103.849 447.128 113.679C444.728 111.049 441.548 108.859 437.688 107.379C426.518 103.089 413.518 106.209 406.668 114.289C403.778 111.469 400.118 109.109 395.808 107.449C379.848 101.319 360.948 107.139 353.598 120.429C346.998 132.359 351.938 146.269 364.558 153.429C362.458 155.109 360.688 157.149 359.398 159.489C353.838 169.539 359.118 181.459 371.188 186.089C379.518 189.289 388.898 188.189 395.748 183.899C397.828 192.149 404.408 199.499 414.298 203.299C422.348 206.389 431.108 206.539 438.878 204.319C440.968 207.799 444.418 210.739 448.998 212.499C459.058 216.359 470.848 213.119 476.278 205.279C476.308 205.299 476.338 205.309 476.368 205.319C490.988 210.939 508.318 205.609 515.058 193.419C519.898 184.669 517.938 174.779 511.068 167.809L511.058 167.799Z" fill="white"/>
<path style="mix-blend-mode:screen" d="M395.138 142.269C391.758 140.799 388.068 140.349 384.558 140.769C383.378 137.709 380.808 135.019 377.118 133.409C371.488 130.949 364.848 131.719 360.258 134.919C358.868 132.949 356.818 131.269 354.208 130.129C346.748 126.879 337.538 129.279 333.628 135.499C332.878 136.689 332.378 137.939 332.118 139.209C325.968 137.649 319.148 139.899 316.058 144.819C315.048 146.429 314.558 148.139 314.518 149.839C311.368 150.749 308.608 152.619 306.938 155.279C303.458 160.819 306.028 167.669 312.678 170.569C315.428 171.769 318.448 172.089 321.288 171.689C322.118 177.519 326.278 182.929 332.998 185.859C342.438 189.969 353.798 187.859 360.318 181.269C361.778 183.029 363.758 184.539 366.198 185.599C374.198 189.089 384.078 186.509 388.258 179.849C390.318 176.569 390.608 172.899 389.428 169.609C394.828 168.979 399.788 166.279 402.508 161.949C406.988 154.819 403.678 146.019 395.128 142.289L395.138 142.269Z" fill="white"/>
<path style="mix-blend-mode:screen" d="M103.698 119.389C95.5083 115.809 86.5483 114.729 78.0383 115.749C75.1683 108.329 68.9483 101.799 59.9983 97.8988C46.3283 91.9388 30.2483 93.7988 19.1083 101.569C15.7383 96.7988 10.7483 92.7088 4.41829 89.9488C-13.6817 82.0588 -36.0317 87.8888 -45.5017 102.969C-47.3117 105.869 -48.5317 108.899 -49.1617 111.959C-64.0817 108.169 -80.6117 113.629 -88.1117 125.569C-90.5617 129.469 -91.7417 133.629 -91.8517 137.749C-99.4917 139.969 -106.182 144.489 -110.232 150.939C-118.682 164.389 -112.442 180.999 -96.3017 188.039C-89.6317 190.949 -82.3117 191.729 -75.4217 190.749C-73.4017 204.899 -63.3217 218.009 -47.0217 225.119C-24.1217 235.099 3.44829 229.959 19.2483 213.989C22.7883 218.269 27.5883 221.909 33.5083 224.489C52.9083 232.949 76.8783 226.699 87.0283 210.529C92.0283 202.559 92.7283 193.669 89.8583 185.699C102.948 184.169 114.998 177.609 121.598 167.109C132.458 149.809 124.448 128.459 103.688 119.409L103.698 119.389Z" fill="white"/>
<path style="mix-blend-mode:screen" d="M55.0683 156.919C55.0683 151.269 51.0683 146.409 45.2983 144.159C45.3883 143.449 45.4383 142.729 45.4383 142.009C45.4383 130.669 34.4083 121.479 20.7983 121.479C12.8383 121.479 5.75832 124.629 1.24832 129.519C-2.05168 127.389 -6.18168 126.119 -10.6817 126.119C-21.4517 126.119 -30.1917 133.399 -30.1917 142.379C-30.1917 143.549 -30.0417 144.689 -29.7617 145.779C-29.9017 145.779 -30.0417 145.779 -30.1917 145.779C-38.0817 145.779 -44.4717 151.109 -44.4717 157.679C-44.4717 163.009 -40.2717 167.519 -34.4817 169.029C-35.3917 170.839 -35.9017 172.829 -35.9017 174.909C-35.9017 183.309 -27.7317 190.119 -17.6417 190.119C-17.1717 190.119 -16.7017 190.099 -16.2417 190.069C-13.2817 193.169 -8.72168 195.169 -3.60168 195.169C1.92832 195.169 6.80832 192.849 9.71832 189.309C11.5483 189.819 13.5083 190.119 15.5583 190.119C21.6283 190.119 26.9783 187.639 30.3083 183.849C32.0583 184.399 33.9483 184.709 35.9383 184.709C44.8483 184.709 52.0783 178.689 52.0783 171.259C52.0783 169.459 51.6483 167.749 50.8783 166.179C53.4783 163.699 55.0583 160.469 55.0583 156.919H55.0683Z" fill="white"/>
<path style="mix-blend-mode:screen" d="M489.958 154.579C489.958 139.549 479.308 126.619 463.988 120.649C464.228 118.769 464.358 116.859 464.358 114.919C464.358 84.7588 435.018 60.3088 398.828 60.3088C377.648 60.3088 358.828 68.6988 346.848 81.6988C338.078 76.0388 327.078 72.6488 315.128 72.6488C286.478 72.6488 263.248 91.9988 263.248 115.889C263.248 118.999 263.648 122.019 264.398 124.939C264.018 124.919 263.638 124.919 263.248 124.919C242.278 124.919 225.278 139.089 225.278 156.559C225.278 170.729 236.448 182.719 251.848 186.749C249.428 191.559 248.088 196.849 248.088 202.389C248.088 224.729 269.828 242.849 296.648 242.849C297.898 242.849 299.148 242.809 300.378 242.729C308.248 250.989 320.368 256.299 333.988 256.299C348.708 256.299 361.678 250.129 369.418 240.709C374.288 242.079 379.508 242.849 384.948 242.849C401.078 242.849 415.328 236.259 424.168 226.169C428.828 227.619 433.858 228.449 439.138 228.449C462.838 228.449 482.058 212.429 482.058 192.679C482.058 187.889 480.898 183.339 478.858 179.159C485.758 172.569 489.968 163.979 489.968 154.549L489.958 154.579Z" fill="white"/>
<path style="mix-blend-mode:screen" d="M480.928 160.739C479.828 159.749 478.508 158.919 477.038 158.299C479.778 156.319 481.718 153.599 482.398 150.509C482.578 149.699 482.668 148.879 482.668 148.029C482.668 140.529 475.378 134.449 466.378 134.449C462.768 134.449 459.438 135.429 456.738 137.079C454.218 132.299 448.488 128.959 441.818 128.959C433.818 128.959 427.188 133.759 425.798 140.089C422.878 138.199 419.218 137.059 415.238 137.059C405.708 137.059 397.978 143.499 397.978 151.449C397.978 158.399 403.888 164.199 411.758 165.539C410.648 167.319 410.008 169.349 410.008 171.499C410.008 178.639 416.958 184.429 425.528 184.429C429.378 184.429 432.898 183.259 435.608 181.329C438.308 185.119 443.278 187.659 448.948 187.659C455.978 187.659 461.908 183.769 463.818 178.429C465.868 179.449 468.268 180.029 470.828 180.029C478.438 180.029 484.608 174.889 484.608 168.549C484.608 165.539 483.218 162.789 480.928 160.739V160.739Z" fill="white"/>
<path style="mix-blend-mode:screen" d="M81.6683 162.479C79.7783 160.779 77.5083 159.349 74.9983 158.289C79.6983 154.889 83.0283 150.219 84.1983 144.909C84.5083 143.529 84.6583 142.109 84.6583 140.659C84.6583 127.779 72.1383 117.349 56.6883 117.349C50.4883 117.349 44.7683 119.029 40.1283 121.869C35.8083 113.659 25.9683 107.929 14.5083 107.929C0.778286 107.929 -10.6117 116.169 -12.9917 127.039C-18.0117 123.799 -24.2817 121.849 -31.1217 121.849C-47.4917 121.849 -60.7617 132.909 -60.7617 146.549C-60.7617 158.479 -50.6117 168.439 -37.1117 170.739C-39.0217 173.799 -40.1117 177.269 -40.1117 180.969C-40.1117 193.229 -28.1817 203.169 -13.4717 203.169C-6.86172 203.169 -0.81172 201.169 3.83828 197.849C8.47828 204.349 16.9983 208.709 26.7483 208.709C38.8083 208.709 48.9983 202.029 52.2783 192.859C55.7983 194.609 59.9183 195.609 64.3183 195.609C77.3783 195.609 87.9683 186.779 87.9683 175.889C87.9683 170.709 85.5783 166.009 81.6583 162.479H81.6683Z" fill="white"/>
<path style="mix-blend-mode:screen" d="M316.048 140.609C317.208 123.869 301.858 109.519 281.758 108.539C273.488 108.139 265.708 110.109 259.338 113.689C253.958 102.359 241.108 94.0489 225.558 93.2989C214.888 92.7889 204.988 95.9088 197.588 101.389C193.048 94.4688 184.468 89.5789 174.328 89.0989C165.218 88.6589 156.878 91.8789 151.318 97.2089C145.868 93.7689 139.178 91.5889 131.838 91.2389C112.098 90.2889 95.1783 102.859 94.0383 119.309C93.8283 122.329 94.1683 125.259 94.9883 128.059C94.1783 129.179 93.4883 130.349 92.8683 131.559C73.5483 131.059 57.1483 143.459 56.0283 159.639C54.8883 176.089 69.9683 190.199 89.7083 191.139C91.8483 191.239 93.9483 191.159 96.0083 190.959C99.6783 199.289 108.988 205.439 120.298 205.989C125.268 206.229 130.018 205.349 134.178 203.619C137.878 216.659 151.508 226.709 168.388 227.519C184.078 228.269 198.068 220.839 204.378 209.679C210.218 213.569 217.518 216.049 225.538 216.439C241.128 217.189 255.018 209.859 261.388 198.809C263.228 199.239 265.148 199.529 267.138 199.629C281.948 200.339 294.648 190.919 295.498 178.569C295.778 174.489 294.708 170.609 292.648 167.209C305.638 163.069 315.198 152.919 316.058 140.599L316.048 140.609Z" fill="white"/>
<path style="mix-blend-mode:screen" d="M195.728 144.189C196.648 130.829 184.398 119.379 168.368 118.599C161.768 118.279 155.568 119.849 150.478 122.709C146.188 113.669 135.928 107.039 123.518 106.439C114.998 106.029 107.098 108.529 101.198 112.899C97.5783 107.379 90.7283 103.479 82.6383 103.089C75.3683 102.739 68.7183 105.309 64.2783 109.559C59.9283 106.819 54.5883 105.079 48.7283 104.799C32.9783 104.039 19.4683 114.069 18.5683 127.199C18.3983 129.609 18.6783 131.949 19.3283 134.189C18.6783 135.079 18.1283 136.019 17.6383 136.979C2.21835 136.579 -10.8717 146.469 -11.7617 159.389C-12.6717 172.509 -0.641653 183.769 15.1183 184.529C16.8283 184.609 18.5083 184.549 20.1483 184.379C23.0783 191.029 30.5083 195.939 39.5283 196.369C43.4983 196.559 47.2883 195.859 50.6083 194.479C53.5583 204.889 64.4383 212.899 77.9083 213.549C90.4283 214.149 101.598 208.219 106.628 199.309C111.288 202.419 117.108 204.389 123.508 204.699C135.948 205.299 147.038 199.449 152.118 190.629C153.588 190.979 155.118 191.199 156.708 191.279C168.528 191.849 178.658 184.329 179.338 174.479C179.568 171.219 178.708 168.129 177.068 165.419C187.428 162.119 195.068 154.019 195.748 144.189H195.728Z" fill="white"/>
<path style="mix-blend-mode:screen" d="M290.218 156.779C289.148 156.249 288.028 155.869 286.878 155.629C288.668 150.609 286.258 145.039 280.628 142.219C277.068 140.439 272.958 140.129 269.278 141.059C268.788 136.799 265.968 132.789 261.238 130.419C253.308 126.449 243.028 128.589 238.258 135.199C238.038 135.499 237.848 135.799 237.658 136.109C237.378 135.949 237.108 135.789 236.818 135.639C229.338 131.899 219.648 133.909 215.158 140.139C213.428 142.539 212.738 145.209 212.948 147.809C208.628 147.679 204.358 149.449 201.968 152.749C198.478 157.589 200.358 163.859 206.168 166.769C208.198 167.779 210.438 168.249 212.638 168.229C211.418 171.319 212.868 174.809 216.358 176.559C217.138 176.949 217.958 177.219 218.798 177.379C219.718 180.519 222.078 183.369 225.678 185.169C225.698 185.179 225.728 185.189 225.748 185.199C226.458 185.869 227.298 186.469 228.268 186.949C233.258 189.449 239.678 188.189 242.858 184.189C243.268 183.919 243.658 183.619 244.038 183.309C244.488 183.669 244.978 183.999 245.528 184.279C249.088 186.059 253.588 185.409 256.248 182.909C257.368 184.139 258.778 185.219 260.458 186.059C267.588 189.629 276.848 187.709 281.138 181.759C282.528 179.839 283.208 177.729 283.278 175.639C287.638 175.829 291.988 174.069 294.398 170.729C297.868 165.919 295.998 159.669 290.218 156.779V156.779Z" fill="white"/>
<path style="mix-blend-mode:screen" d="M239.458 155.939C237.808 155.109 236.068 154.519 234.288 154.159C237.058 146.389 233.328 137.749 224.608 133.379C219.098 130.619 212.728 130.139 207.028 131.579C206.268 124.989 201.898 118.769 194.568 115.099C182.288 108.949 166.358 112.269 158.988 122.499C158.648 122.959 158.348 123.439 158.058 123.909C157.628 123.659 157.208 123.409 156.758 123.179C145.178 117.379 130.168 120.509 123.208 130.149C120.528 133.859 119.458 137.999 119.788 142.019C113.098 141.809 106.478 144.549 102.788 149.679C97.3883 157.169 100.298 166.889 109.288 171.389C112.428 172.959 115.898 173.689 119.308 173.649C117.408 178.429 119.668 183.839 125.058 186.539C126.258 187.139 127.538 187.559 128.838 187.819C130.258 192.689 133.918 197.099 139.488 199.889C139.518 199.909 139.558 199.919 139.598 199.939C140.708 200.979 142.008 201.899 143.508 202.649C151.238 206.519 161.178 204.579 166.098 198.379C166.728 197.959 167.338 197.499 167.918 197.019C168.618 197.579 169.368 198.099 170.228 198.529C175.748 201.289 182.708 200.279 186.828 196.409C188.568 198.309 190.748 199.989 193.358 201.289C204.408 206.819 218.748 203.839 225.388 194.639C227.538 191.659 228.598 188.399 228.698 185.159C235.458 185.459 242.188 182.719 245.918 177.549C251.288 170.089 248.398 160.419 239.448 155.949L239.458 155.939Z" fill="white"/>
<path style="mix-blend-mode:screen" d="M168.838 158.009C171.008 152.579 167.488 146.709 160.978 144.899C159.868 144.589 158.738 144.429 157.618 144.379C158.568 137.339 153.538 130.469 145.158 128.139C137.288 125.949 128.898 128.449 124.338 133.809C118.208 132.699 111.928 135.589 109.898 140.669C109.868 140.739 109.838 140.809 109.818 140.879C109.048 140.519 108.228 140.209 107.368 139.969C100.068 137.939 92.1783 141.219 89.7383 147.309C89.3883 148.179 89.1783 149.059 89.0783 149.929C83.5583 150.649 78.7083 153.849 76.8183 158.559C74.1283 165.289 78.4883 172.569 86.5683 174.819C89.4283 175.609 92.3583 175.659 95.0883 175.099C95.6283 181.069 100.368 186.479 107.608 188.499C115.128 190.589 123.128 188.409 127.808 183.519C129.548 185.409 131.948 186.899 134.868 187.709C141.488 189.549 148.568 187.279 152.118 182.549C158.068 182.129 163.428 178.829 165.428 173.809C166.898 170.149 166.258 166.339 164.098 163.249C166.248 162.019 167.968 160.219 168.858 157.989L168.838 158.009Z" fill="white"/>
<path style="mix-blend-mode:screen" d="M389.608 157.489C395.438 142.909 385.998 127.159 368.508 122.299C365.518 121.469 362.488 121.029 359.498 120.919C362.048 102.039 348.558 83.5988 326.068 77.3488C304.948 71.4688 282.428 78.1688 270.198 92.5688C253.748 89.5888 236.898 97.3588 231.448 110.969C231.378 111.159 231.298 111.349 231.228 111.539C229.178 110.569 226.968 109.749 224.638 109.109C205.048 103.659 183.868 112.479 177.328 128.799C176.398 131.129 175.818 133.479 175.558 135.819C160.758 137.739 147.728 146.329 142.658 158.979C135.428 177.039 147.138 196.569 168.808 202.599C176.478 204.729 184.348 204.849 191.658 203.359C193.098 219.379 205.818 233.889 225.258 239.299C245.448 244.909 266.908 239.049 279.458 225.949C284.118 231.019 290.578 235.029 298.398 237.199C316.168 242.149 335.158 236.039 344.668 223.359C360.618 222.229 375.008 213.379 380.388 199.919C384.328 190.099 382.628 179.869 376.808 171.599C382.588 168.289 387.198 163.469 389.588 157.499L389.608 157.489Z" fill="white"/>
<path style="mix-blend-mode:screen" d="M137.238 153.159C137.238 144.369 128.688 137.249 118.148 137.249C117.308 137.249 116.488 137.299 115.678 137.389C114.068 132.519 109.448 128.489 103.138 127.169C95.1983 125.509 87.1583 128.689 83.5183 134.479C82.1683 133.809 80.6883 133.289 79.0883 132.949C70.2483 131.099 61.2783 135.579 59.0583 142.939L59.0383 143.019C58.5183 142.849 57.9783 142.709 57.4283 142.599C49.7983 141.009 42.0683 144.869 40.1583 151.219C38.2483 157.569 42.8783 164.019 50.4983 165.609C50.5783 165.629 50.6683 165.639 50.7483 165.659C50.3083 166.409 49.9783 167.229 49.7683 168.089C48.4683 173.559 52.7283 178.869 59.2983 179.959C61.4483 180.319 63.5783 180.169 65.5183 179.619C67.2383 184.319 71.7883 188.179 77.9283 189.459C84.9283 190.919 91.9983 188.629 96.0683 184.109C97.1783 184.579 98.3583 184.949 99.6083 185.209C108.748 187.119 118.018 182.489 120.308 174.879C120.918 172.869 120.968 170.849 120.548 168.929C129.958 167.939 137.228 161.259 137.228 153.149L137.238 153.159Z" fill="white"/>
<path style="mix-blend-mode:screen" d="M448.538 139.959C448.538 108.719 418.158 83.3988 380.668 83.3988C377.688 83.3988 374.768 83.5688 371.898 83.8788C366.168 66.5588 349.738 52.2388 327.328 47.5588C299.088 41.6588 270.528 52.9788 257.558 73.5388C252.768 71.1588 247.488 69.3088 241.798 68.1088C210.368 61.5388 178.488 77.4488 170.598 103.639L170.518 103.929C168.668 103.339 166.758 102.839 164.778 102.419C137.668 96.7488 110.168 110.479 103.368 133.079C96.5783 155.669 113.038 178.579 140.148 184.249C140.438 184.319 140.738 184.369 141.028 184.429C139.468 187.109 138.288 190.009 137.558 193.069C132.918 212.519 148.088 231.399 171.428 235.269C179.078 236.539 186.658 236.009 193.548 234.069C199.668 250.779 215.838 264.489 237.658 269.049C262.528 274.249 287.658 266.089 302.158 250.019C306.098 251.669 310.298 253.009 314.748 253.939C347.248 260.729 380.188 244.289 388.348 217.209C390.498 210.049 390.678 202.869 389.218 196.049C422.658 192.539 448.528 168.769 448.528 139.949L448.538 139.959Z" fill="white"/>
<g style="mix-blend-mode:screen">
<path d="M920.428 129.199C914.688 120.279 902.858 115.839 891.518 117.489C891.218 115.179 890.398 112.869 888.998 110.689C883.158 101.619 869.598 98.2088 858.708 103.079C856.428 104.099 854.468 105.409 852.818 106.909C846.038 101.029 835.168 99.3488 826.118 103.389C815.788 108.009 811.598 118.419 816.198 127.229C811.148 126.289 805.688 126.789 800.778 128.989C789.888 133.859 785.808 145.159 791.648 154.229C794.668 158.919 799.758 162.079 805.468 163.379C802.088 169.639 802.098 177.089 806.298 183.609C813.468 194.739 830.118 198.919 843.488 192.949C847.338 191.229 850.488 188.849 852.858 186.069C860.738 195.399 875.918 198.559 888.278 193.039C895.378 189.859 900.098 184.449 901.908 178.409C905.618 178.869 909.518 178.399 913.078 176.809C921.848 172.889 925.138 163.789 920.428 156.479C919.788 155.479 919.028 154.579 918.168 153.759C924.388 146.849 925.648 137.309 920.428 129.199V129.199Z" fill="white"/>
</g>
<g style="mix-blend-mode:screen">
<path d="M761.378 126.719C754.888 116.649 741.528 111.619 728.708 113.489C728.368 110.879 727.438 108.269 725.858 105.809C719.258 95.5588 703.938 91.7088 691.638 97.2188C689.068 98.3688 686.848 99.8488 684.978 101.549C677.318 94.8988 665.028 93.0088 654.818 97.5788C643.148 102.799 638.408 114.569 643.608 124.509C637.898 123.449 631.738 124.009 626.188 126.499C613.888 131.999 609.268 144.769 615.868 155.019C619.278 160.319 625.028 163.889 631.478 165.359C627.658 172.429 627.678 180.849 632.418 188.209C640.528 200.789 659.328 205.509 674.438 198.759C678.788 196.809 682.348 194.129 685.028 190.989C693.928 201.529 711.078 205.109 725.048 198.859C733.068 195.269 738.408 189.149 740.448 182.329C744.638 182.859 749.048 182.319 753.068 180.519C762.968 176.089 766.688 165.809 761.378 157.549C760.658 156.419 759.788 155.399 758.828 154.479C765.858 146.679 767.278 135.889 761.378 126.729V126.719Z" fill="white"/>
</g>
<g style="mix-blend-mode:screen">
<path d="M989.108 153.109C993.448 152.299 997.308 149.899 999.308 146.269C1002.72 140.109 999.488 132.819 992.098 129.979C988.608 128.639 984.808 128.549 981.418 129.459C980.748 125.939 978.058 122.759 973.878 121.159C967.568 118.739 960.168 120.809 956.818 125.769C955.608 124.439 953.998 123.339 952.048 122.589C946.408 120.419 939.848 121.999 936.388 126.079C934.928 124.659 933.078 123.459 930.908 122.629C922.848 119.539 913.308 122.469 909.588 129.189C906.258 135.219 908.748 142.239 915.118 145.849C914.058 146.699 913.168 147.729 912.508 148.909C909.698 153.989 912.368 160.009 918.458 162.339C922.668 163.959 927.408 163.399 930.858 161.229C931.908 165.399 935.228 169.109 940.228 171.029C944.298 172.589 948.718 172.669 952.638 171.539C953.688 173.299 955.438 174.779 957.748 175.669C962.828 177.619 968.778 175.979 971.528 172.019C971.548 172.019 971.558 172.029 971.578 172.039C978.968 174.879 987.718 172.179 991.118 166.029C993.558 161.609 992.578 156.619 989.098 153.099L989.108 153.109Z" fill="white"/>
</g>
<g style="mix-blend-mode:screen">
<path d="M1020.06 157.799C1028.65 156.209 1036.29 151.439 1040.25 144.269C1046.99 132.069 1040.6 117.639 1025.97 112.019C1019.05 109.359 1011.54 109.179 1004.83 110.989C1003.5 104.029 998.168 97.7189 989.908 94.5489C977.418 89.7489 962.748 93.8489 956.128 103.679C953.728 101.049 950.548 98.8589 946.688 97.3789C935.518 93.0889 922.518 96.2089 915.668 104.289C912.778 101.469 909.118 99.1089 904.808 97.4489C888.848 91.3189 869.948 97.1389 862.598 110.429C855.998 122.359 860.938 136.269 873.558 143.429C871.458 145.109 869.688 147.149 868.398 149.489C862.838 159.539 868.118 171.459 880.188 176.089C888.518 179.289 897.898 178.189 904.748 173.899C906.828 182.149 913.408 189.499 923.298 193.299C931.348 196.389 940.108 196.539 947.878 194.319C949.968 197.799 953.418 200.739 957.998 202.499C968.058 206.359 979.848 203.119 985.278 195.279C985.308 195.299 985.338 195.309 985.368 195.319C999.988 200.939 1017.32 195.609 1024.06 183.419C1028.9 174.669 1026.94 164.779 1020.07 157.809L1020.06 157.799Z" fill="white"/>
</g>
<g style="mix-blend-mode:screen">
<path d="M904.138 132.269C900.758 130.799 897.068 130.349 893.558 130.769C892.378 127.709 889.808 125.019 886.118 123.409C880.488 120.949 873.848 121.719 869.258 124.919C867.868 122.949 865.818 121.269 863.208 120.129C855.748 116.879 846.538 119.279 842.628 125.499C841.878 126.689 841.378 127.939 841.118 129.209C834.968 127.649 828.148 129.899 825.058 134.819C824.048 136.429 823.558 138.139 823.518 139.839C820.368 140.749 817.608 142.619 815.938 145.279C812.458 150.819 815.028 157.669 821.678 160.569C824.428 161.769 827.448 162.089 830.288 161.689C831.118 167.519 835.278 172.929 841.998 175.859C851.438 179.969 862.798 177.859 869.318 171.269C870.778 173.029 872.758 174.539 875.198 175.599C883.198 179.089 893.078 176.509 897.258 169.849C899.318 166.569 899.608 162.899 898.428 159.609C903.828 158.979 908.788 156.279 911.508 151.949C915.988 144.819 912.678 136.019 904.128 132.289L904.138 132.269Z" fill="white"/>
</g>
<g style="mix-blend-mode:screen">
<path d="M612.698 109.389C604.508 105.809 595.548 104.729 587.038 105.749C584.168 98.3288 577.948 91.7988 568.998 87.8988C555.328 81.9388 539.248 83.7988 528.108 91.5688C524.738 86.7988 519.748 82.7088 513.418 79.9488C495.318 72.0588 472.968 77.8888 463.498 92.9688C461.688 95.8688 460.468 98.8988 459.838 101.959C444.918 98.1688 428.388 103.629 420.888 115.569C418.438 119.469 417.258 123.629 417.148 127.749C409.508 129.969 402.818 134.489 398.768 140.939C390.318 154.389 396.558 170.999 412.698 178.039C419.368 180.949 426.688 181.729 433.578 180.749C435.598 194.899 445.678 208.009 461.978 215.119C484.878 225.099 512.448 219.959 528.248 203.989C531.788 208.269 536.588 211.909 542.508 214.489C561.908 222.949 585.878 216.699 596.028 200.529C601.028 192.559 601.728 183.669 598.858 175.699C611.948 174.169 623.998 167.609 630.598 157.109C641.458 139.809 633.448 118.459 612.688 109.409L612.698 109.389Z" fill="white"/>
</g>
<g style="mix-blend-mode:screen">
<path d="M564.068 146.919C564.068 141.269 560.068 136.409 554.298 134.159C554.388 133.449 554.438 132.729 554.438 132.009C554.438 120.669 543.408 111.479 529.798 111.479C521.838 111.479 514.758 114.629 510.248 119.519C506.948 117.389 502.818 116.119 498.318 116.119C487.548 116.119 478.808 123.399 478.808 132.379C478.808 133.549 478.958 134.689 479.238 135.779C479.098 135.779 478.958 135.779 478.808 135.779C470.918 135.779 464.528 141.109 464.528 147.679C464.528 153.009 468.728 157.519 474.518 159.029C473.608 160.839 473.098 162.829 473.098 164.909C473.098 173.309 481.268 180.119 491.358 180.119C491.828 180.119 492.298 180.099 492.758 180.069C495.718 183.169 500.278 185.169 505.398 185.169C510.928 185.169 515.808 182.849 518.718 179.309C520.548 179.819 522.508 180.119 524.558 180.119C530.628 180.119 535.978 177.639 539.308 173.849C541.058 174.399 542.948 174.709 544.938 174.709C553.848 174.709 561.078 168.689 561.078 161.259C561.078 159.459 560.648 157.749 559.878 156.179C562.478 153.699 564.058 150.469 564.058 146.919H564.068Z" fill="white"/>
</g>
<g style="mix-blend-mode:screen">
<path d="M998.958 144.579C998.958 129.549 988.308 116.619 972.988 110.649C973.228 108.769 973.358 106.859 973.358 104.919C973.358 74.7588 944.018 50.3088 907.828 50.3088C886.648 50.3088 867.828 58.6988 855.848 71.6988C847.078 66.0388 836.078 62.6488 824.128 62.6488C795.478 62.6488 772.248 81.9988 772.248 105.889C772.248 108.999 772.648 112.019 773.398 114.939C773.018 114.919 772.638 114.919 772.248 114.919C751.278 114.919 734.278 129.089 734.278 146.559C734.278 160.729 745.448 172.719 760.848 176.749C758.428 181.559 757.088 186.849 757.088 192.389C757.088 214.729 778.828 232.849 805.648 232.849C806.898 232.849 808.148 232.809 809.378 232.729C817.248 240.989 829.368 246.299 842.988 246.299C857.708 246.299 870.678 240.129 878.418 230.709C883.288 232.079 888.508 232.849 893.948 232.849C910.078 232.849 924.328 226.259 933.168 216.169C937.828 217.619 942.858 218.449 948.138 218.449C971.838 218.449 991.058 202.429 991.058 182.679C991.058 177.889 989.898 173.339 987.858 169.159C994.758 162.569 998.968 153.979 998.968 144.549L998.958 144.579Z" fill="white"/>
</g>
<g style="mix-blend-mode:screen">
<path d="M989.928 150.739C988.828 149.749 987.508 148.919 986.038 148.299C988.778 146.319 990.718 143.599 991.398 140.509C991.578 139.699 991.668 138.879 991.668 138.029C991.668 130.529 984.378 124.449 975.378 124.449C971.768 124.449 968.438 125.429 965.738 127.079C963.218 122.299 957.488 118.959 950.818 118.959C942.818 118.959 936.188 123.759 934.798 130.089C931.878 128.199 928.218 127.059 924.238 127.059C914.708 127.059 906.978 133.499 906.978 141.449C906.978 148.399 912.888 154.199 920.758 155.539C919.648 157.319 919.008 159.349 919.008 161.499C919.008 168.639 925.958 174.429 934.528 174.429C938.378 174.429 941.898 173.259 944.608 171.329C947.308 175.119 952.278 177.659 957.948 177.659C964.978 177.659 970.908 173.769 972.818 168.429C974.868 169.449 977.268 170.029 979.828 170.029C987.438 170.029 993.608 164.889 993.608 158.549C993.608 155.539 992.218 152.789 989.928 150.739V150.739Z" fill="white"/>
</g>
<g style="mix-blend-mode:screen">
<path d="M1079.93 120.739C1078.83 119.749 1077.51 118.919 1076.04 118.299C1078.78 116.319 1080.72 113.599 1081.4 110.509C1081.58 109.699 1081.67 108.879 1081.67 108.029C1081.67 100.529 1074.38 94.4489 1065.38 94.4489C1061.77 94.4489 1058.44 95.4289 1055.74 97.0789C1053.22 92.2989 1047.49 88.9589 1040.82 88.9589C1032.82 88.9589 1026.19 93.7589 1024.8 100.089C1021.88 98.1989 1018.22 97.0589 1014.24 97.0589C1004.71 97.0589 996.978 103.499 996.978 111.449C996.978 118.399 1002.89 124.199 1010.76 125.539C1009.65 127.319 1009.01 129.349 1009.01 131.499C1009.01 138.639 1015.96 144.429 1024.53 144.429C1028.38 144.429 1031.9 143.259 1034.61 141.329C1037.31 145.119 1042.28 147.659 1047.95 147.659C1054.98 147.659 1060.91 143.769 1062.82 138.429C1064.87 139.449 1067.27 140.029 1069.83 140.029C1077.44 140.029 1083.61 134.889 1083.61 128.549C1083.61 125.539 1082.22 122.789 1079.93 120.739V120.739Z" fill="white"/>
</g>
<g style="mix-blend-mode:screen">
<path d="M1149.93 120.739C1148.83 119.749 1147.51 118.919 1146.04 118.299C1148.78 116.319 1150.72 113.599 1151.4 110.509C1151.58 109.699 1151.67 108.879 1151.67 108.029C1151.67 100.529 1144.38 94.4489 1135.38 94.4489C1131.77 94.4489 1128.44 95.4289 1125.74 97.0789C1123.22 92.2989 1117.49 88.9589 1110.82 88.9589C1102.82 88.9589 1096.19 93.7589 1094.8 100.089C1091.88 98.1989 1088.22 97.0589 1084.24 97.0589C1074.71 97.0589 1066.98 103.499 1066.98 111.449C1066.98 118.399 1072.89 124.199 1080.76 125.539C1079.65 127.319 1079.01 129.349 1079.01 131.499C1079.01 138.639 1085.96 144.429 1094.53 144.429C1098.38 144.429 1101.9 143.259 1104.61 141.329C1107.31 145.119 1112.28 147.659 1117.95 147.659C1124.98 147.659 1130.91 143.769 1132.82 138.429C1134.87 139.449 1137.27 140.029 1139.83 140.029C1147.44 140.029 1153.61 134.889 1153.61 128.549C1153.61 125.539 1152.22 122.789 1149.93 120.739V120.739Z" fill="white"/>
</g>
<g style="mix-blend-mode:screen">
<path d="M590.668 152.479C588.778 150.779 586.508 149.349 583.998 148.289C588.698 144.889 592.028 140.219 593.198 134.909C593.508 133.529 593.658 132.109 593.658 130.659C593.658 117.779 581.138 107.349 565.688 107.349C559.488 107.349 553.768 109.029 549.128 111.869C544.808 103.659 534.968 97.9288 523.508 97.9288C509.778 97.9288 498.388 106.169 496.008 117.039C490.988 113.799 484.718 111.849 477.878 111.849C461.508 111.849 448.238 122.909 448.238 136.549C448.238 148.479 458.388 158.439 471.888 160.739C469.978 163.799 468.888 167.269 468.888 170.969C468.888 183.229 480.818 193.169 495.528 193.169C502.138 193.169 508.188 191.169 512.838 187.849C517.478 194.349 525.998 198.709 535.748 198.709C547.808 198.709 557.998 192.029 561.278 182.859C564.798 184.609 568.918 185.609 573.318 185.609C586.378 185.609 596.968 176.779 596.968 165.889C596.968 160.709 594.578 156.009 590.658 152.479H590.668Z" fill="white"/>
</g>
<g style="mix-blend-mode:screen">
<path d="M825.048 130.609C826.208 113.869 810.858 99.5189 790.758 98.5389C782.488 98.1389 774.708 100.109 768.338 103.689C762.958 92.3589 750.108 84.0489 734.558 83.2989C723.888 82.7889 713.988 85.9088 706.588 91.3888C702.048 84.4688 693.468 79.5789 683.328 79.0989C674.218 78.6589 665.878 81.8789 660.318 87.2089C654.868 83.7689 648.178 81.5889 640.838 81.2389C621.098 80.2889 604.178 92.8589 603.038 109.309C602.828 112.329 603.168 115.259 603.988 118.059C603.178 119.179 602.488 120.349 601.868 121.559C582.548 121.059 566.148 133.459 565.028 149.639C563.888 166.089 578.968 180.199 598.708 181.139C600.848 181.239 602.948 181.159 605.008 180.959C608.678 189.289 617.988 195.439 629.298 195.989C634.268 196.229 639.018 195.349 643.178 193.619C646.878 206.659 660.508 216.709 677.388 217.519C693.078 218.269 707.068 210.839 713.378 199.679C719.218 203.569 726.518 206.049 734.538 206.439C750.128 207.189 764.018 199.859 770.388 188.809C772.228 189.239 774.148 189.529 776.138 189.629C790.948 190.339 803.648 180.919 804.498 168.569C804.778 164.489 803.708 160.609 801.648 157.209C814.638 153.069 824.198 142.919 825.058 130.599L825.048 130.609Z" fill="white"/>
</g>
<g style="mix-blend-mode:screen">
<path d="M704.728 134.189C705.648 120.829 693.398 109.379 677.368 108.599C670.768 108.279 664.568 109.849 659.478 112.709C655.188 103.669 644.928 97.0389 632.518 96.4389C623.998 96.0289 616.098 98.5289 610.198 102.899C606.578 97.3789 599.728 93.4789 591.638 93.0889C584.368 92.7389 577.718 95.3089 573.278 99.5589C568.928 96.8189 563.588 95.0789 557.728 94.7989C541.978 94.0389 528.468 104.069 527.568 117.199C527.398 119.609 527.678 121.949 528.328 124.189C527.678 125.079 527.128 126.019 526.638 126.979C511.218 126.579 498.128 136.469 497.238 149.389C496.328 162.509 508.358 173.769 524.118 174.529C525.828 174.609 527.508 174.549 529.148 174.379C532.078 181.029 539.508 185.939 548.528 186.369C552.498 186.559 556.288 185.859 559.608 184.479C562.558 194.889 573.438 202.899 586.908 203.549C599.428 204.149 610.598 198.219 615.628 189.309C620.288 192.419 626.108 194.389 632.508 194.699C644.948 195.299 656.038 189.449 661.118 180.629C662.588 180.979 664.118 181.199 665.708 181.279C677.528 181.849 687.658 174.329 688.338 164.479C688.568 161.219 687.708 158.129 686.068 155.419C696.428 152.119 704.068 144.019 704.748 134.189H704.728Z" fill="white"/>
</g>
<g style="mix-blend-mode:screen">
<path d="M799.218 146.779C798.148 146.249 797.028 145.869 795.878 145.629C797.668 140.609 795.258 135.039 789.628 132.219C786.068 130.439 781.958 130.129 778.278 131.059C777.788 126.799 774.968 122.789 770.238 120.419C762.308 116.449 752.028 118.589 747.258 125.199C747.038 125.499 746.848 125.799 746.658 126.109C746.378 125.949 746.108 125.789 745.818 125.639C738.338 121.899 728.648 123.909 724.158 130.139C722.428 132.539 721.738 135.209 721.948 137.809C717.628 137.679 713.358 139.449 710.968 142.749C707.478 147.589 709.358 153.859 715.168 156.769C717.198 157.779 719.438 158.249 721.638 158.229C720.418 161.319 721.868 164.809 725.358 166.559C726.138 166.949 726.958 167.219 727.798 167.379C728.718 170.519 731.078 173.369 734.678 175.169C734.698 175.179 734.728 175.189 734.748 175.199C735.458 175.869 736.298 176.469 737.268 176.949C742.258 179.449 748.678 178.189 751.858 174.189C752.268 173.919 752.658 173.619 753.038 173.309C753.488 173.669 753.978 173.999 754.528 174.279C758.088 176.059 762.588 175.409 765.248 172.909C766.368 174.139 767.778 175.219 769.458 176.059C776.588 179.629 785.848 177.709 790.138 171.759C791.528 169.839 792.208 167.729 792.278 165.639C796.638 165.829 800.988 164.069 803.398 160.729C806.868 155.919 804.998 149.669 799.218 146.779V146.779Z" fill="white"/>
</g>
<g style="mix-blend-mode:screen">
<path d="M748.458 145.939C746.808 145.109 745.068 144.519 743.288 144.159C746.058 136.389 742.328 127.749 733.608 123.379C728.098 120.619 721.728 120.139 716.028 121.579C715.268 114.989 710.898 108.769 703.568 105.099C691.288 98.9488 675.358 102.269 667.988 112.499C667.648 112.959 667.348 113.439 667.058 113.909C666.628 113.659 666.208 113.409 665.758 113.179C654.178 107.379 639.168 110.509 632.208 120.149C629.528 123.859 628.458 127.999 628.788 132.019C622.098 131.809 615.478 134.549 611.788 139.679C606.388 147.169 609.298 156.889 618.288 161.389C621.428 162.959 624.898 163.689 628.308 163.649C626.408 168.429 628.668 173.839 634.058 176.539C635.258 177.139 636.538 177.559 637.838 177.819C639.258 182.689 642.918 187.099 648.488 189.889C648.518 189.909 648.558 189.919 648.598 189.939C649.708 190.979 651.008 191.899 652.508 192.649C660.238 196.519 670.178 194.579 675.098 188.379C675.728 187.959 676.338 187.499 676.918 187.019C677.618 187.579 678.368 188.099 679.228 188.529C684.748 191.289 691.708 190.279 695.828 186.409C697.568 188.309 699.748 189.989 702.358 191.289C713.408 196.819 727.748 193.839 734.388 184.639C736.538 181.659 737.598 178.399 737.698 175.159C744.458 175.459 751.188 172.719 754.918 167.549C760.288 160.089 757.398 150.419 748.448 145.949L748.458 145.939Z" fill="white"/>
</g>
<g style="mix-blend-mode:screen">
<path d="M677.838 148.009C680.008 142.579 676.488 136.709 669.978 134.899C668.868 134.589 667.738 134.429 666.618 134.379C667.568 127.339 662.538 120.469 654.158 118.139C646.288 115.949 637.898 118.449 633.338 123.809C627.208 122.699 620.928 125.589 618.898 130.669C618.868 130.739 618.838 130.809 618.818 130.879C618.048 130.519 617.228 130.209 616.368 129.969C609.068 127.939 601.178 131.219 598.738 137.309C598.388 138.179 598.178 139.059 598.078 139.929C592.558 140.649 587.708 143.849 585.818 148.559C583.128 155.289 587.488 162.569 595.568 164.819C598.428 165.609 601.358 165.659 604.088 165.099C604.628 171.069 609.368 176.479 616.608 178.499C624.128 180.589 632.128 178.409 636.808 173.519C638.548 175.409 640.948 176.899 643.868 177.709C650.488 179.549 657.568 177.279 661.118 172.549C667.068 172.129 672.428 168.829 674.428 163.809C675.898 160.149 675.258 156.339 673.098 153.249C675.248 152.019 676.968 150.219 677.858 147.989L677.838 148.009Z" fill="white"/>
</g>
<g style="mix-blend-mode:screen">
<path d="M898.608 147.489C904.438 132.909 894.998 117.159 877.508 112.299C874.518 111.469 871.488 111.029 868.498 110.919C871.048 92.0388 857.558 73.5988 835.068 67.3488C813.948 61.4688 791.428 68.1688 779.198 82.5688C762.748 79.5888 745.898 87.3588 740.448 100.969C740.378 101.159 740.298 101.349 740.228 101.539C738.178 100.569 735.968 99.7488 733.638 99.1088C714.048 93.6588 692.868 102.479 686.328 118.799C685.398 121.129 684.818 123.479 684.558 125.819C669.758 127.739 656.728 136.329 651.658 148.979C644.428 167.039 656.138 186.569 677.808 192.599C685.478 194.729 693.348 194.849 700.658 193.359C702.098 209.379 714.818 223.889 734.258 229.299C754.448 234.909 775.908 229.049 788.458 215.949C793.118 221.019 799.578 225.029 807.398 227.199C825.168 232.149 844.158 226.039 853.668 213.359C869.618 212.229 884.008 203.379 889.388 189.919C893.328 180.099 891.628 169.869 885.808 161.599C891.588 158.289 896.198 153.469 898.588 147.499L898.608 147.489Z" fill="white"/>
</g>
<g style="mix-blend-mode:screen">
<path d="M646.238 143.159C646.238 134.369 637.688 127.249 627.148 127.249C626.308 127.249 625.488 127.299 624.678 127.389C623.068 122.519 618.448 118.489 612.138 117.169C604.198 115.509 596.158 118.689 592.518 124.479C591.168 123.809 589.688 123.289 588.088 122.949C579.248 121.099 570.278 125.579 568.058 132.939L568.038 133.019C567.518 132.849 566.978 132.709 566.428 132.599C558.798 131.009 551.068 134.869 549.158 141.219C547.248 147.569 551.878 154.019 559.498 155.609C559.578 155.629 559.668 155.639 559.748 155.659C559.308 156.409 558.978 157.229 558.768 158.089C557.468 163.559 561.728 168.869 568.298 169.959C570.448 170.319 572.578 170.169 574.518 169.619C576.238 174.319 580.788 178.179 586.928 179.459C593.928 180.919 600.998 178.629 605.068 174.109C606.178 174.579 607.358 174.949 608.608 175.209C617.748 177.119 627.018 172.489 629.308 164.879C629.918 162.869 629.968 160.849 629.548 158.929C638.958 157.939 646.228 151.259 646.228 143.149L646.238 143.159Z" fill="white"/>
</g>
<g style="mix-blend-mode:screen">
<path d="M957.538 129.959C957.538 98.7188 927.158 73.3988 889.668 73.3988C886.688 73.3988 883.768 73.5688 880.898 73.8788C875.168 56.5588 858.738 42.2388 836.328 37.5588C808.088 31.6588 779.528 42.9788 766.558 63.5388C761.768 61.1588 756.488 59.3088 750.798 58.1088C719.368 51.5388 687.488 67.4488 679.598 93.6388L679.518 93.9288C677.668 93.3388 675.758 92.8388 673.778 92.4188C646.668 86.7488 619.168 100.479 612.368 123.079C605.578 145.669 622.038 168.579 649.148 174.249C649.438 174.319 649.738 174.369 650.028 174.429C648.468 177.109 647.288 180.009 646.558 183.069C641.918 202.519 657.088 221.399 680.428 225.269C688.078 226.539 695.658 226.009 702.548 224.069C708.668 240.779 724.838 254.489 746.658 259.049C771.528 264.249 796.658 256.089 811.158 240.019C815.098 241.669 819.298 243.009 823.748 243.939C856.248 250.729 889.188 234.289 897.348 207.209C899.498 200.049 899.678 192.869 898.218 186.049C931.658 182.539 957.528 158.769 957.528 129.949L957.538 129.959Z" fill="white"/>
</g>
<path style="mix-blend-mode:screen" d="M1480.43 169.199C1474.69 160.279 1462.86 155.839 1451.52 157.489C1451.22 155.179 1450.4 152.869 1449 150.689C1443.16 141.619 1429.6 138.209 1418.71 143.079C1416.43 144.099 1414.47 145.409 1412.82 146.909C1406.04 141.029 1395.17 139.349 1386.12 143.389C1375.79 148.009 1371.6 158.419 1376.2 167.229C1371.15 166.289 1365.69 166.789 1360.78 168.989C1349.89 173.859 1345.81 185.159 1351.65 194.229C1354.67 198.919 1359.76 202.079 1365.47 203.379C1362.09 209.639 1362.1 217.089 1366.3 223.609C1373.47 234.739 1390.12 238.919 1403.49 232.949C1407.34 231.229 1410.49 228.849 1412.86 226.069C1420.74 235.399 1435.92 238.559 1448.28 233.039C1455.38 229.859 1460.1 224.449 1461.91 218.409C1465.62 218.869 1469.52 218.399 1473.08 216.809C1481.85 212.889 1485.14 203.789 1480.43 196.479C1479.79 195.479 1479.03 194.579 1478.17 193.759C1484.39 186.849 1485.65 177.309 1480.43 169.199V169.199Z" fill="white"/>
<path style="mix-blend-mode:screen" d="M1321.38 166.719C1314.89 156.649 1301.53 151.619 1288.71 153.489C1288.37 150.879 1287.44 148.269 1285.86 145.809C1279.26 135.559 1263.94 131.709 1251.64 137.219C1249.07 138.369 1246.85 139.849 1244.98 141.549C1237.32 134.899 1225.03 133.009 1214.82 137.579C1203.15 142.799 1198.41 154.569 1203.61 164.509C1197.9 163.449 1191.74 164.009 1186.19 166.499C1173.89 171.999 1169.27 184.769 1175.87 195.019C1179.28 200.319 1185.03 203.889 1191.48 205.359C1187.66 212.429 1187.68 220.849 1192.42 228.209C1200.53 240.789 1219.33 245.509 1234.44 238.759C1238.79 236.809 1242.35 234.129 1245.03 230.989C1253.93 241.529 1271.08 245.109 1285.05 238.859C1293.07 235.269 1298.41 229.149 1300.45 222.329C1304.64 222.859 1309.05 222.319 1313.07 220.519C1322.97 216.089 1326.69 205.809 1321.38 197.549C1320.66 196.419 1319.79 195.399 1318.83 194.479C1325.86 186.679 1327.28 175.889 1321.38 166.729V166.719Z" fill="white"/>
<path style="mix-blend-mode:screen" d="M1580.06 197.799C1588.65 196.209 1596.29 191.439 1600.25 184.269C1606.99 172.069 1600.6 157.639 1585.97 152.019C1579.05 149.359 1571.54 149.179 1564.83 150.989C1563.5 144.029 1558.17 137.719 1549.91 134.549C1537.42 129.749 1522.75 133.849 1516.13 143.679C1513.73 141.049 1510.55 138.859 1506.69 137.379C1495.52 133.089 1482.52 136.209 1475.67 144.289C1472.78 141.469 1469.12 139.109 1464.81 137.449C1448.85 131.319 1429.95 137.139 1422.6 150.429C1416 162.359 1420.94 176.269 1433.56 183.429C1431.46 185.109 1429.69 187.149 1428.4 189.489C1422.84 199.539 1428.12 211.459 1440.19 216.089C1448.52 219.289 1457.9 218.189 1464.75 213.899C1466.83 222.149 1473.41 229.499 1483.3 233.299C1491.35 236.389 1500.11 236.539 1507.88 234.319C1509.97 237.799 1513.42 240.739 1518 242.499C1528.06 246.359 1539.85 243.119 1545.28 235.279C1545.31 235.299 1545.34 235.309 1545.37 235.319C1559.99 240.939 1577.32 235.609 1584.06 223.419C1588.9 214.669 1586.94 204.779 1580.07 197.809L1580.06 197.799Z" fill="white"/>
<path style="mix-blend-mode:screen" d="M1464.14 172.269C1460.76 170.799 1457.07 170.349 1453.56 170.769C1452.38 167.709 1449.81 165.019 1446.12 163.409C1440.49 160.949 1433.85 161.719 1429.26 164.919C1427.87 162.949 1425.82 161.269 1423.21 160.129C1415.75 156.879 1406.54 159.279 1402.63 165.499C1401.88 166.689 1401.38 167.939 1401.12 169.209C1394.97 167.649 1388.15 169.899 1385.06 174.819C1384.05 176.429 1383.56 178.139 1383.52 179.839C1380.37 180.749 1377.61 182.619 1375.94 185.279C1372.46 190.819 1375.03 197.669 1381.68 200.569C1384.43 201.769 1387.45 202.089 1390.29 201.689C1391.12 207.519 1395.28 212.929 1402 215.859C1411.44 219.969 1422.8 217.859 1429.32 211.269C1430.78 213.029 1432.76 214.539 1435.2 215.599C1443.2 219.089 1453.08 216.509 1457.26 209.849C1459.32 206.569 1459.61 202.899 1458.43 199.609C1463.83 198.979 1468.79 196.279 1471.51 191.949C1475.99 184.819 1472.68 176.019 1464.13 172.289L1464.14 172.269Z" fill="white"/>
<path style="mix-blend-mode:screen" d="M1172.7 149.389C1164.51 145.809 1155.55 144.729 1147.04 145.749C1144.17 138.329 1137.95 131.799 1129 127.899C1115.33 121.939 1099.25 123.799 1088.11 131.569C1084.74 126.799 1079.75 122.709 1073.42 119.949C1055.32 112.059 1032.97 117.889 1023.5 132.969C1021.69 135.869 1020.47 138.899 1019.84 141.959C1004.92 138.169 988.388 143.629 980.888 155.569C978.438 159.469 977.258 163.629 977.148 167.749C969.508 169.969 962.818 174.489 958.768 180.939C950.318 194.389 956.558 210.999 972.698 218.039C979.368 220.949 986.688 221.729 993.578 220.749C995.598 234.899 1005.68 248.009 1021.98 255.119C1044.88 265.099 1072.45 259.959 1088.25 243.989C1091.79 248.269 1096.59 251.909 1102.51 254.489C1121.91 262.949 1145.88 256.699 1156.03 240.529C1161.03 232.559 1161.73 223.669 1158.86 215.699C1171.95 214.169 1184 207.609 1190.6 197.109C1201.46 179.809 1193.45 158.459 1172.69 149.409L1172.7 149.389Z" fill="white"/>
<path style="mix-blend-mode:screen" d="M1124.07 186.919C1124.07 181.269 1120.07 176.409 1114.3 174.159C1114.39 173.449 1114.44 172.729 1114.44 172.009C1114.44 160.669 1103.41 151.479 1089.8 151.479C1081.84 151.479 1074.76 154.629 1070.25 159.519C1066.95 157.389 1062.82 156.119 1058.32 156.119C1047.55 156.119 1038.81 163.399 1038.81 172.379C1038.81 173.549 1038.96 174.689 1039.24 175.779C1039.1 175.779 1038.96 175.779 1038.81 175.779C1030.92 175.779 1024.53 181.109 1024.53 187.679C1024.53 193.009 1028.73 197.519 1034.52 199.029C1033.61 200.839 1033.1 202.829 1033.1 204.909C1033.1 213.309 1041.27 220.119 1051.36 220.119C1051.83 220.119 1052.3 220.099 1052.76 220.069C1055.72 223.169 1060.28 225.169 1065.4 225.169C1070.93 225.169 1075.81 222.849 1078.72 219.309C1080.55 219.819 1082.51 220.119 1084.56 220.119C1090.63 220.119 1095.98 217.639 1099.31 213.849C1101.06 214.399 1102.95 214.709 1104.94 214.709C1113.85 214.709 1121.08 208.689 1121.08 201.259C1121.08 199.459 1120.65 197.749 1119.88 196.179C1122.48 193.699 1124.06 190.469 1124.06 186.919H1124.07Z" fill="white"/>
<path style="mix-blend-mode:screen" d="M1558.96 184.579C1558.96 169.549 1548.31 156.619 1532.99 150.649C1533.23 148.769 1533.36 146.859 1533.36 144.919C1533.36 114.759 1504.02 90.3088 1467.83 90.3088C1446.65 90.3088 1427.83 98.6988 1415.85 111.699C1407.08 106.039 1396.08 102.649 1384.13 102.649C1355.48 102.649 1332.25 121.999 1332.25 145.889C1332.25 148.999 1332.65 152.019 1333.4 154.939C1333.02 154.919 1332.64 154.919 1332.25 154.919C1311.28 154.919 1294.28 169.089 1294.28 186.559C1294.28 200.729 1305.45 212.719 1320.85 216.749C1318.43 221.559 1317.09 226.849 1317.09 232.389C1317.09 254.729 1338.83 272.849 1365.65 272.849C1366.9 272.849 1368.15 272.809 1369.38 272.729C1377.25 280.989 1389.37 286.299 1402.99 286.299C1417.71 286.299 1430.68 280.129 1438.42 270.709C1443.29 272.079 1448.51 272.849 1453.95 272.849C1470.08 272.849 1484.33 266.259 1493.17 256.169C1497.83 257.619 1502.86 258.449 1508.14 258.449C1531.84 258.449 1551.06 242.429 1551.06 222.679C1551.06 217.889 1549.9 213.339 1547.86 209.159C1554.76 202.569 1558.97 193.979 1558.97 184.549L1558.96 184.579Z" fill="white"/>
<path style="mix-blend-mode:screen" d="M1150.67 192.479C1148.78 190.779 1146.51 189.349 1144 188.289C1148.7 184.889 1152.03 180.219 1153.2 174.909C1153.51 173.529 1153.66 172.109 1153.66 170.659C1153.66 157.779 1141.14 147.349 1125.69 147.349C1119.49 147.349 1113.77 149.029 1109.13 151.869C1104.81 143.659 1094.97 137.929 1083.51 137.929C1069.78 137.929 1058.39 146.169 1056.01 157.039C1050.99 153.799 1044.72 151.849 1037.88 151.849C1021.51 151.849 1008.24 162.909 1008.24 176.549C1008.24 188.479 1018.39 198.439 1031.89 200.739C1029.98 203.799 1028.89 207.269 1028.89 210.969C1028.89 223.229 1040.82 233.169 1055.53 233.169C1062.14 233.169 1068.19 231.169 1072.84 227.849C1077.48 234.349 1086 238.709 1095.75 238.709C1107.81 238.709 1118 232.029 1121.28 222.859C1124.8 224.609 1128.92 225.609 1133.32 225.609C1146.38 225.609 1156.97 216.779 1156.97 205.889C1156.97 200.709 1154.58 196.009 1150.66 192.479H1150.67Z" fill="white"/>
<path style="mix-blend-mode:screen" d="M1385.05 170.609C1386.21 153.869 1370.86 139.519 1350.76 138.539C1342.49 138.139 1334.71 140.109 1328.34 143.689C1322.96 132.359 1310.11 124.049 1294.56 123.299C1283.89 122.789 1273.99 125.909 1266.59 131.389C1262.05 124.469 1253.47 119.579 1243.33 119.099C1234.22 118.659 1225.88 121.879 1220.32 127.209C1214.87 123.769 1208.18 121.589 1200.84 121.239C1181.1 120.289 1164.18 132.859 1163.04 149.309C1162.83 152.329 1163.17 155.259 1163.99 158.059C1163.18 159.179 1162.49 160.349 1161.87 161.559C1142.55 161.059 1126.15 173.459 1125.03 189.639C1123.89 206.089 1138.97 220.199 1158.71 221.139C1160.85 221.239 1162.95 221.159 1165.01 220.959C1168.68 229.289 1177.99 235.439 1189.3 235.989C1194.27 236.229 1199.02 235.349 1203.18 233.619C1206.88 246.659 1220.51 256.709 1237.39 257.519C1253.08 258.269 1267.07 250.839 1273.38 239.679C1279.22 243.569 1286.52 246.049 1294.54 246.439C1310.13 247.189 1324.02 239.859 1330.39 228.809C1332.23 229.239 1334.15 229.529 1336.14 229.629C1350.95 230.339 1363.65 220.919 1364.5 208.569C1364.78 204.489 1363.71 200.609 1361.65 197.209C1374.64 193.069 1384.2 182.919 1385.06 170.599L1385.05 170.609Z" fill="white"/>
<path style="mix-blend-mode:screen" d="M1264.73 174.189C1265.65 160.829 1253.4 149.379 1237.37 148.599C1230.77 148.279 1224.57 149.849 1219.48 152.709C1215.19 143.669 1204.93 137.039 1192.52 136.439C1184 136.029 1176.1 138.529 1170.2 142.899C1166.58 137.379 1159.73 133.479 1151.64 133.089C1144.37 132.739 1137.72 135.309 1133.28 139.559C1128.93 136.819 1123.59 135.079 1117.73 134.799C1101.98 134.039 1088.47 144.069 1087.57 157.199C1087.4 159.609 1087.68 161.949 1088.33 164.189C1087.68 165.079 1087.13 166.019 1086.64 166.979C1071.22 166.579 1058.13 176.469 1057.24 189.389C1056.33 202.509 1068.36 213.769 1084.12 214.529C1085.83 214.609 1087.51 214.549 1089.15 214.379C1092.08 221.029 1099.51 225.939 1108.53 226.369C1112.5 226.559 1116.29 225.859 1119.61 224.479C1122.56 234.889 1133.44 242.899 1146.91 243.549C1159.43 244.149 1170.6 238.219 1175.63 229.309C1180.29 232.419 1186.11 234.389 1192.51 234.699C1204.95 235.299 1216.04 229.449 1221.12 220.629C1222.59 220.979 1224.12 221.199 1225.71 221.279C1237.53 221.849 1247.66 214.329 1248.34 204.479C1248.57 201.219 1247.71 198.129 1246.07 195.419C1256.43 192.119 1264.07 184.019 1264.75 174.189H1264.73Z" fill="white"/>
<path style="mix-blend-mode:screen" d="M1359.22 186.779C1358.15 186.249 1357.03 185.869 1355.88 185.629C1357.67 180.609 1355.26 175.039 1349.63 172.219C1346.07 170.439 1341.96 170.129 1338.28 171.059C1337.79 166.799 1334.97 162.789 1330.24 160.419C1322.31 156.449 1312.03 158.589 1307.26 165.199C1307.04 165.499 1306.85 165.799 1306.66 166.109C1306.38 165.949 1306.11 165.789 1305.82 165.639C1298.34 161.899 1288.65 163.909 1284.16 170.139C1282.43 172.539 1281.74 175.209 1281.95 177.809C1277.63 177.679 1273.36 179.449 1270.97 182.749C1267.48 187.589 1269.36 193.859 1275.17 196.769C1277.2 197.779 1279.44 198.249 1281.64 198.229C1280.42 201.319 1281.87 204.809 1285.36 206.559C1286.14 206.949 1286.96 207.219 1287.8 207.379C1288.72 210.519 1291.08 213.369 1294.68 215.169C1294.7 215.179 1294.73 215.189 1294.75 215.199C1295.46 215.869 1296.3 216.469 1297.27 216.949C1302.26 219.449 1308.68 218.189 1311.86 214.189C1312.27 213.919 1312.66 213.619 1313.04 213.309C1313.49 213.669 1313.98 213.999 1314.53 214.279C1318.09 216.059 1322.59 215.409 1325.25 212.909C1326.37 214.139 1327.78 215.219 1329.46 216.059C1336.59 219.629 1345.85 217.709 1350.14 211.759C1351.53 209.839 1352.21 207.729 1352.28 205.639C1356.64 205.829 1360.99 204.069 1363.4 200.729C1366.87 195.919 1365 189.669 1359.22 186.779V186.779Z" fill="white"/>
<path style="mix-blend-mode:screen" d="M1308.46 185.939C1306.81 185.109 1305.07 184.519 1303.29 184.159C1306.06 176.389 1302.33 167.749 1293.61 163.379C1288.1 160.619 1281.73 160.139 1276.03 161.579C1275.27 154.989 1270.9 148.769 1263.57 145.099C1251.29 138.949 1235.36 142.269 1227.99 152.499C1227.65 152.959 1227.35 153.439 1227.06 153.909C1226.63 153.659 1226.21 153.409 1225.76 153.179C1214.18 147.379 1199.17 150.509 1192.21 160.149C1189.53 163.859 1188.46 167.999 1188.79 172.019C1182.1 171.809 1175.48 174.549 1171.79 179.679C1166.39 187.169 1169.3 196.889 1178.29 201.389C1181.43 202.959 1184.9 203.689 1188.31 203.649C1186.41 208.429 1188.67 213.839 1194.06 216.539C1195.26 217.139 1196.54 217.559 1197.84 217.819C1199.26 222.689 1202.92 227.099 1208.49 229.889C1208.52 229.909 1208.56 229.919 1208.6 229.939C1209.71 230.979 1211.01 231.899 1212.51 232.649C1220.24 236.519 1230.18 234.579 1235.1 228.379C1235.73 227.959 1236.34 227.499 1236.92 227.019C1237.62 227.579 1238.37 228.099 1239.23 228.529C1244.75 231.289 1251.71 230.279 1255.83 226.409C1257.57 228.309 1259.75 229.989 1262.36 231.289C1273.41 236.819 1287.75 233.839 1294.39 224.639C1296.54 221.659 1297.6 218.399 1297.7 215.159C1304.46 215.459 1311.19 212.719 1314.92 207.549C1320.29 200.089 1317.4 190.419 1308.45 185.949L1308.46 185.939Z" fill="white"/>
<path style="mix-blend-mode:screen" d="M1237.84 188.009C1240.01 182.579 1236.49 176.709 1229.98 174.899C1228.87 174.589 1227.74 174.429 1226.62 174.379C1227.57 167.339 1222.54 160.469 1214.16 158.139C1206.29 155.949 1197.9 158.449 1193.34 163.809C1187.21 162.699 1180.93 165.589 1178.9 170.669C1178.87 170.739 1178.84 170.809 1178.82 170.879C1178.05 170.519 1177.23 170.209 1176.37 169.969C1169.07 167.939 1161.18 171.219 1158.74 177.309C1158.39 178.179 1158.18 179.059 1158.08 179.929C1152.56 180.649 1147.71 183.849 1145.82 188.559C1143.13 195.289 1147.49 202.569 1155.57 204.819C1158.43 205.609 1161.36 205.659 1164.09 205.099C1164.63 211.069 1169.37 216.479 1176.61 218.499C1184.13 220.589 1192.13 218.409 1196.81 213.519C1198.55 215.409 1200.95 216.899 1203.87 217.709C1210.49 219.549 1217.57 217.279 1221.12 212.549C1227.07 212.129 1232.43 208.829 1234.43 203.809C1235.9 200.149 1235.26 196.339 1233.1 193.249C1235.25 192.019 1236.97 190.219 1237.86 187.989L1237.84 188.009Z" fill="white"/>
<path style="mix-blend-mode:screen" d="M1458.61 187.489C1464.44 172.909 1455 157.159 1437.51 152.299C1434.52 151.469 1431.49 151.029 1428.5 150.919C1431.05 132.039 1417.56 113.599 1395.07 107.349C1373.95 101.469 1351.43 108.169 1339.2 122.569C1322.75 119.589 1305.9 127.359 1300.45 140.969C1300.38 141.159 1300.3 141.349 1300.23 141.539C1298.18 140.569 1295.97 139.749 1293.64 139.109C1274.05 133.659 1252.87 142.479 1246.33 158.799C1245.4 161.129 1244.82 163.479 1244.56 165.819C1229.76 167.739 1216.73 176.329 1211.66 188.979C1204.43 207.039 1216.14 226.569 1237.81 232.599C1245.48 234.729 1253.35 234.849 1260.66 233.359C1262.1 249.379 1274.82 263.889 1294.26 269.299C1314.45 274.909 1335.91 269.049 1348.46 255.949C1353.12 261.019 1359.58 265.029 1367.4 267.199C1385.17 272.149 1404.16 266.039 1413.67 253.359C1429.62 252.229 1444.01 243.379 1449.39 229.919C1453.33 220.099 1451.63 209.869 1445.81 201.599C1451.59 198.289 1456.2 193.469 1458.59 187.499L1458.61 187.489Z" fill="white"/>
<path style="mix-blend-mode:screen" d="M1206.24 183.159C1206.24 174.369 1197.69 167.249 1187.15 167.249C1186.31 167.249 1185.49 167.299 1184.68 167.389C1183.07 162.519 1178.45 158.489 1172.14 157.169C1164.2 155.509 1156.16 158.689 1152.52 164.479C1151.17 163.809 1149.69 163.289 1148.09 162.949C1139.25 161.099 1130.28 165.579 1128.06 172.939L1128.04 173.019C1127.52 172.849 1126.98 172.709 1126.43 172.599C1118.8 171.009 1111.07 174.869 1109.16 181.219C1107.25 187.569 1111.88 194.019 1119.5 195.609C1119.58 195.629 1119.67 195.639 1119.75 195.659C1119.31 196.409 1118.98 197.229 1118.77 198.089C1117.47 203.559 1121.73 208.869 1128.3 209.959C1130.45 210.319 1132.58 210.169 1134.52 209.619C1136.24 214.319 1140.79 218.179 1146.93 219.459C1153.93 220.919 1161 218.629 1165.07 214.109C1166.18 214.579 1167.36 214.949 1168.61 215.209C1177.75 217.119 1187.02 212.489 1189.31 204.879C1189.92 202.869 1189.97 200.849 1189.55 198.929C1198.96 197.939 1206.23 191.259 1206.23 183.149L1206.24 183.159Z" fill="white"/>
<path style="mix-blend-mode:screen" d="M1517.54 169.959C1517.54 138.719 1487.16 113.399 1449.67 113.399C1446.69 113.399 1443.77 113.569 1440.9 113.879C1435.17 96.5588 1418.74 82.2388 1396.33 77.5588C1368.09 71.6588 1339.53 82.9788 1326.56 103.539C1321.77 101.159 1316.49 99.3088 1310.8 98.1088C1279.37 91.5388 1247.49 107.449 1239.6 133.639L1239.52 133.929C1237.67 133.339 1235.76 132.839 1233.78 132.419C1206.67 126.749 1179.17 140.479 1172.37 163.079C1165.58 185.669 1182.04 208.579 1209.15 214.249C1209.44 214.319 1209.74 214.369 1210.03 214.429C1208.47 217.109 1207.29 220.009 1206.56 223.069C1201.92 242.519 1217.09 261.399 1240.43 265.269C1248.08 266.539 1255.66 266.009 1262.55 264.069C1268.67 280.779 1284.84 294.489 1306.66 299.049C1331.53 304.249 1356.66 296.089 1371.16 280.019C1375.1 281.669 1379.3 283.009 1383.75 283.939C1416.25 290.729 1449.19 274.289 1457.35 247.209C1459.5 240.049 1459.68 232.869 1458.22 226.049C1491.66 222.539 1517.53 198.769 1517.53 169.949L1517.54 169.959Z" fill="white"/>
<rect y="176" width="1440" height="103" fill="white"/>
</g>
<defs>
<clipPath id="clip0_248_3686">
<rect width="1440" height="279" fill="white"/>
</clipPath>
</defs>
</svg>
