<svg width="86" height="90" viewBox="0 0 86 90" fill="none" xmlns="http://www.w3.org/2000/svg">
<g clip-path="url(#clip0_502_249)">
<path d="M48.4327 4.52392C48.4327 4.52392 10.31 4.98711 1.034 40.947C-8.24202 76.9068 47.337 93.9526 69.0377 89.228C90.7383 84.5033 68.0035 58.9346 79.3477 40.947C90.6919 22.9593 91.7105 -2.54762 48.4327 4.52392Z" fill="#084F89"/>
<path d="M48.4327 1.21979C48.4327 1.21979 10.31 1.66754 1.034 37.6428C-8.24202 73.6181 47.337 90.633 69.0377 85.9084C90.7383 81.1837 68.0035 55.615 79.3477 37.6428C90.6919 19.6706 91.7105 -5.86719 48.4327 1.21979Z" fill="#75ADCF"/>
<path d="M71.1213 12.3366C77.2951 20.7514 76.3226 31.2197 77.5882 41.0859C78.0626 39.8842 78.6519 38.7312 79.3478 37.6428C90.5685 19.825 91.6952 -5.37316 49.5904 1.0499C57.9249 2.08438 66.0743 5.38855 71.1213 12.3366Z" fill="#57A2CF"/>
<path d="M31.3317 40.4712C30.8791 45.363 30.9526 48.8691 31.647 53.2545C31.9335 55.0639 32.0768 55.9686 32.6505 56.7663C33.2242 57.564 34.0966 58.0192 35.8413 58.9294L45.2149 63.8197C48.3297 65.4448 49.8871 66.2573 51.4352 65.8493C52.9832 65.4414 53.9044 64.0186 55.7467 61.1732C57.9049 57.8398 59.7556 54.5708 61.3669 50.7055L61.3669 50.7054C61.6137 50.1133 61.7371 49.8172 61.8146 49.4476C62.2029 47.5959 61.0293 45.4986 59.248 44.8608C58.8925 44.7336 58.5069 44.6731 57.7358 44.5522C56.9345 41.8676 55.2011 40.8008 52.5901 41.8676C51.7343 39.0674 50.0009 38.2606 47.4444 39.1831L50.8001 32.751C51.5414 31.3301 50.9905 29.5772 49.5695 28.8359C48.1486 28.0946 46.3958 28.6455 45.6544 30.0664L38.6261 43.5382C38.4195 43.9343 37.8247 43.8218 37.7769 43.3777L37.4657 40.4835C37.2689 38.6537 35.5288 37.3986 33.7304 37.7892C32.4332 38.071 31.454 39.1494 31.3317 40.4712Z" fill="white"/>
<rect x="32.2158" y="25.778" width="10.9655" height="2.98894" rx="1.49447" transform="rotate(54.6496 32.2158 25.778)" fill="white"/>
<rect x="44.0132" y="20.2455" width="11.4531" height="2.86327" rx="1.43164" transform="rotate(94.9188 44.0132 20.2455)" fill="white"/>
</g>
<defs>
<clipPath id="clip0_502_249">
<rect width="86" height="90" fill="white"/>
</clipPath>
</defs>
</svg>
