<svg width="87" height="90" viewBox="0 0 87 90" fill="none" xmlns="http://www.w3.org/2000/svg">
<path d="M48.4332 4.51629C48.4332 4.51629 10.3105 4.97948 1.03447 40.9393C-8.24156 76.8992 47.3375 93.945 69.0381 89.2204C90.7388 84.4957 68.0039 58.927 79.3482 40.9393C90.6924 22.9517 91.711 -2.55525 48.4332 4.51629Z" fill="#084F89"/>
<path d="M48.4332 1.2121C48.4332 1.2121 10.3105 1.65985 1.03447 37.6351C-8.24156 73.6104 47.3375 90.6254 69.0381 85.9007C90.7388 81.1761 68.0039 55.6074 79.3482 37.6351C90.6924 19.6629 91.711 -5.87488 48.4332 1.2121Z" fill="#75ADCF"/>
<path d="M71.1218 12.3289C77.2955 20.7438 76.3231 31.2121 77.5887 41.0783C78.0631 39.8766 78.6523 38.7235 79.3482 37.6352C90.569 19.8174 91.6956 -5.38079 49.5908 1.04227C57.9253 2.07675 66.0748 5.38092 71.1218 12.3289Z" fill="#57A2CF"/>
<circle cx="51.8394" cy="37.8237" r="4.52031" fill="white"/>
<circle cx="39.7455" cy="33.3034" r="6.31108" fill="white"/>
<path d="M53.3506 50.8086C53.8795 52.0856 54.225 53.4281 54.379 54.7962C54.4863 55.7488 53.7888 56.5776 52.8455 56.7478C43.3639 58.4585 37.1013 58.459 26.6788 56.7278C25.7209 56.5687 25.005 55.7332 25.1155 54.7685C25.271 53.41 25.6154 52.077 26.1408 50.8087C26.8808 49.022 27.9655 47.3987 29.3329 46.0312C30.7003 44.6638 32.3237 43.5791 34.1103 42.8391C35.897 42.099 37.8118 41.7181 39.7457 41.7181C41.6795 41.7181 43.5944 42.099 45.381 42.8391C47.1676 43.5791 48.791 44.6638 50.1584 46.0312C51.5258 47.3987 52.6105 49.022 53.3506 50.8086Z" fill="white"/>
<path d="M51.2468 50.7013C51.7758 51.9783 52.1213 53.3208 52.2753 54.6889C52.3826 55.6414 51.6851 56.4702 50.7418 56.6404C41.2601 58.3512 34.9976 58.3517 24.5751 56.6204C23.6172 56.4613 22.9012 55.6258 23.0117 54.6611C23.1673 53.3026 23.5117 51.9696 24.037 50.7013C24.7771 48.9147 25.8618 47.2913 27.2292 45.9239C28.5966 44.5565 30.22 43.4718 32.0066 42.7317C33.7932 41.9917 35.7081 41.6108 37.6419 41.6108C39.5758 41.6108 41.4906 41.9917 43.2773 42.7317C45.0639 43.4718 46.6873 44.5565 48.0547 45.9239C49.4221 47.2913 50.5068 48.9147 51.2468 50.7013Z" fill="white"/>
<path fill-rule="evenodd" clip-rule="evenodd" d="M58.2966 54.0811C57.2481 54.2021 56.3267 53.4441 56.0464 52.4265C55.8852 51.8409 55.6875 51.2648 55.4541 50.7013C54.7141 48.9147 53.6294 47.2913 52.262 45.9239V45.9239C51.5404 45.2023 51.7634 43.937 52.7804 43.8537C53.0392 43.8325 53.2991 43.8218 53.5596 43.8218C54.8126 43.8218 56.0532 44.0686 57.2108 44.5481C58.3684 45.0276 59.4202 45.7304 60.3062 46.6164C61.1922 47.5024 61.895 48.5542 62.3745 49.7118C62.7149 50.5335 62.938 51.3972 63.0388 52.2774C63.1104 52.9024 62.6465 53.4438 62.0259 53.5469C60.6896 53.7689 59.4589 53.9469 58.2966 54.0811Z" fill="white"/>
</svg>
