<svg width="87" height="90" viewBox="0 0 87 90" fill="none" xmlns="http://www.w3.org/2000/svg">
<path d="M48.4327 4.5241C48.4327 4.5241 10.31 4.9873 1.03398 40.9472C-8.24204 76.907 47.337 93.9528 69.0377 89.2282C90.7383 84.5035 68.0035 58.9348 79.3477 40.9472C90.6919 22.9595 91.7105 -2.54743 48.4327 4.5241Z" fill="#084F89"/>
<path d="M48.4327 1.21991C48.4327 1.21991 10.31 1.66767 1.03398 37.643C-8.24204 73.6183 47.337 90.6332 69.0377 85.9085C90.7383 81.1839 68.0035 55.6152 79.3477 37.643C90.6919 19.6708 91.7105 -5.86707 48.4327 1.21991Z" fill="#75ADCF"/>
<path d="M71.1213 12.3367C77.295 20.7516 76.3226 31.2199 77.5882 41.0861C78.0626 39.8844 78.6518 38.7314 79.3477 37.643C90.5685 19.8252 91.6951 -5.37298 49.5903 1.05008C57.9249 2.08456 66.0743 5.38873 71.1213 12.3367Z" fill="#57A2CF"/>
<path d="M51.1526 40.1031C51.6055 40.1191 51.9776 40.0971 52.3316 40.1487C53.6611 40.3637 54.5889 41.327 54.8664 42.6582C55.0238 43.4066 55.1683 44.1819 55.3201 44.977C55.1475 44.9944 54.9947 45.0046 54.8617 45.0077C52.2136 45.0433 49.5655 45.0788 46.9174 45.1143C46.6513 45.1206 46.4533 45.1918 46.2584 45.396C44.4681 47.3815 42.6579 49.374 40.8407 51.3468C40.5357 51.6801 40.1896 51.961 39.8577 52.2816C39.7404 52.3909 39.5892 52.4676 39.445 52.5642C39.4862 52.6165 39.5075 52.6759 39.5486 52.7282C39.6817 52.7251 39.8147 52.7219 39.9477 52.7188C44.6452 52.6618 49.3356 52.585 54.0402 52.5478C55.3777 52.5364 56.6129 52.9866 57.6001 53.9285C58.6213 54.9029 59.0556 56.1106 59.0757 57.5344C58.9229 57.5447 58.7899 57.5478 58.6568 57.5509C49.2888 57.6776 39.8938 57.7916 30.5257 57.9183C29.794 57.9355 29.6507 57.7857 29.6335 57.054C29.6322 56.4284 29.6309 55.8028 29.6097 55.1844C29.5932 54.7654 29.7255 54.4495 29.998 54.1503C32.411 51.4714 34.7971 48.7798 37.203 46.0811C37.4106 45.8499 37.611 45.5989 37.8384 45.3606C37.8242 45.321 37.817 45.3012 37.8028 45.2616C37.5565 45.2608 37.3102 45.2599 37.0711 45.2788C35.2188 45.4754 33.8088 44.1042 33.6256 42.5378C33.5491 41.8274 33.3665 41.1328 33.2289 40.3773C33.4087 40.3798 33.5416 40.3767 33.6945 40.3664C36.4289 40.3222 39.1633 40.278 41.885 40.2607C42.2643 40.2585 42.5075 40.1263 42.7475 39.8611C44.6606 37.7197 46.5737 35.5783 48.5067 33.4298C48.8893 33.0015 49.3132 32.6255 49.7299 32.2297C49.7156 32.1901 49.6816 32.1576 49.6673 32.118C49.5541 32.114 49.4139 32.0974 49.3006 32.0934C44.3569 32.1495 39.4005 32.2325 34.4567 32.2886C33.6117 32.3018 32.7582 32.2287 31.9157 32.0621C30.2845 31.7543 29.3551 30.7245 29.1165 29.0662C29.0518 28.5752 29.0535 28.0827 29.0157 27.6044C29.0039 27.385 29.0815 27.29 29.2882 27.3051C29.3816 27.3163 29.4877 27.3004 29.574 27.2918C39.2082 27.1588 48.8225 27.0331 58.4637 26.92C58.5967 26.9168 58.7299 26.9137 58.8629 26.9105C59.2961 26.9337 59.5683 27.1935 59.5919 27.6322C59.628 28.6031 59.6372 29.5613 59.6337 30.5464C59.6368 30.6794 59.5608 30.8409 59.4705 30.9628C56.8103 33.8872 54.1304 36.8186 51.4504 39.75C51.353 39.8522 51.2754 39.9472 51.1526 40.1031Z" fill="white"/>
</svg>
