<svg width="86" height="90" viewBox="0 0 86 90" fill="none" xmlns="http://www.w3.org/2000/svg">
<g clip-path="url(#clip0_502_297)">
<path d="M48.4327 4.52392C48.4327 4.52392 10.31 4.98711 1.034 40.947C-8.24202 76.9068 47.337 93.9526 69.0377 89.228C90.7383 84.5033 68.0035 58.9346 79.3477 40.947C90.6919 22.9593 91.7105 -2.54762 48.4327 4.52392Z" fill="#084F89"/>
<path d="M48.4327 1.21979C48.4327 1.21979 10.31 1.66754 1.034 37.6428C-8.24202 73.6181 47.337 90.633 69.0377 85.9084C90.7383 81.1837 68.0035 55.615 79.3477 37.6428C90.6919 19.6706 91.7105 -5.86719 48.4327 1.21979Z" fill="#75ADCF"/>
<path d="M71.1213 12.3366C77.2951 20.7514 76.3226 31.2197 77.5882 41.0859C78.0626 39.8842 78.6519 38.7312 79.3478 37.6428C90.5685 19.825 91.6952 -5.37316 49.5904 1.0499C57.9249 2.08438 66.0743 5.38855 71.1213 12.3366Z" fill="#57A2CF"/>
<path fill-rule="evenodd" clip-rule="evenodd" d="M22.5966 31.3793C22.3716 32.5244 22.2591 33.0969 22.6191 33.5345C22.979 33.972 23.6231 33.972 24.9113 33.972H57.377C58.6811 33.972 59.3331 33.972 59.6932 33.5291C60.0533 33.0861 59.9324 32.5069 59.6908 31.3483C59.5262 30.5595 59.2833 30.009 58.8316 29.5699C57.9911 28.7531 56.7587 28.6682 54.294 28.4984C44.6625 27.8349 37.6472 27.8341 28.0268 28.4946C25.5347 28.6657 24.2887 28.7512 23.4447 29.5822C22.9922 30.0277 22.7529 30.5841 22.5966 31.3793ZM60.3771 39.6253C60.354 38.5708 60.3425 38.0435 59.9928 37.7013C59.643 37.3592 59.1019 37.3592 58.0196 37.3592H24.3687C23.2767 37.3592 22.7307 37.3592 22.3804 37.7045C22.0301 38.0499 22.0224 38.5833 22.0072 39.6503C21.9708 42.194 22.073 44.682 22.307 47.4555C22.512 49.8839 22.6144 51.098 23.4498 51.9271C24.2852 52.7561 25.5219 52.851 27.9952 53.0407C32.3526 53.3751 36.1744 53.5579 39.9439 53.5896C40.4055 53.5934 40.7693 53.203 40.7693 52.7414V52.7414C40.7693 45.6736 46.4988 39.9441 53.5666 39.9441C55.2592 39.9441 56.8751 40.2727 58.354 40.8697C58.882 41.0828 59.146 41.1894 59.2861 41.2039C59.815 41.259 60.2209 40.9787 60.3566 40.4645C60.3925 40.3283 60.3874 40.0939 60.3771 39.6253V39.6253ZM26.1671 45.827C26.1671 44.8916 26.9253 44.1334 27.8606 44.1334H31.1238C32.0591 44.1334 32.8173 44.8916 32.8173 45.827C32.8173 46.7623 32.0591 47.5205 31.1238 47.5205H27.8606C26.9253 47.5205 26.1671 46.7623 26.1671 45.827Z" fill="white"/>
<path d="M63 52.5951C63 57.7781 58.7983 61.9798 53.6153 61.9798C48.4323 61.9798 44.2307 57.7781 44.2307 52.5951C44.2307 47.4121 48.4323 43.2104 53.6153 43.2104C58.7983 43.2104 63 47.4121 63 52.5951Z" fill="white"/>
<path d="M58.1975 51.0159C58.1138 50.8904 57.97 50.8158 57.8162 50.8158H56.6311C55.6882 50.8158 55.2168 50.8158 54.9239 50.5229C54.6311 50.23 54.6311 49.7586 54.6311 48.8158V45.9895C54.6311 45.7824 54.4809 45.6034 54.2707 45.5604C54.0568 45.5165 53.8475 45.6227 53.7601 45.8114C52.1772 48.7544 51.4153 50.5016 50.12 53.709C50.0572 53.8441 50.0709 54.0021 50.1546 54.1258C50.2383 54.2504 50.3821 54.3259 50.5359 54.3259H51.721C52.6638 54.3259 53.1352 54.3259 53.4281 54.6188C53.721 54.9117 53.721 55.3831 53.721 56.3259V59.1522C53.721 59.3593 53.8712 59.5383 54.0814 59.5813C54.1132 59.5875 54.1451 59.591 54.176 59.591C54.3526 59.591 54.5173 59.4918 54.5919 59.3303C56.2763 56.4324 56.9199 54.6228 58.2321 51.4327C58.294 51.2967 58.2821 51.1405 58.1975 51.0159Z" fill="#75ADCF"/>
</g>
<defs>
<clipPath id="clip0_502_297">
<rect width="86" height="90" fill="white"/>
</clipPath>
</defs>
</svg>
