<svg width="1440" height="228" viewBox="0 0 1440 228" fill="none" xmlns="http://www.w3.org/2000/svg">
<g clip-path="url(#clip0_389_29380)">
<path d="M-237 -752C-178.457 -716.814 -227.136 -15.0223 -190.664 -5.62768C-195.607 56.9089 -190.664 39.1101 -190.664 70.4424C-190.664 101.775 -234.765 90.9531 -206.11 100.346C-177.453 109.741 -227.251 109.24 -206.11 113.053C-184.967 116.864 -233.983 110.511 -218.479 113.053C-202.974 115.593 -169.884 137.512 -163.409 138.972C-156.934 140.432 -152.077 141.161 -146.411 146.269C-140.745 151.377 -125.367 152.836 -112.416 156.484C-99.4654 160.133 -74.374 169.62 -63.8514 169.62C-53.3289 169.62 -37.1415 168.89 -31.4745 169.62C-25.8097 170.349 -20.9532 168.161 -18.5242 162.323C-16.0965 156.484 -3.1461 158.675 1.71056 152.107C6.56722 145.539 8.18563 139.701 10.6145 134.593C13.0423 129.485 21.1361 144.809 30.8494 149.187C40.5627 153.566 54.3222 158.675 58.3696 160.133C62.4171 161.593 68.8921 157.215 70.5106 163.781C70.5106 163.781 84.8796 162.851 90.342 158.338C95.8033 153.824 108.093 151.362 123.569 150.54C139.044 149.72 146.327 149.72 156.341 149.72C166.355 149.72 175.003 148.9 186.837 149.72C198.671 150.54 216.422 153.414 219.609 153.414C222.796 153.414 228.258 150.131 237.816 151.772C247.375 153.414 254.202 152.592 260.119 147.259C266.037 141.923 281.967 138.231 290.616 138.231C299.264 138.231 313.374 138.231 322.022 138.231C330.67 138.231 332.946 142.333 341.595 142.333C350.243 142.333 354.339 143.975 357.525 145.616C360.712 147.259 369.811 149.72 380.289 148.079C390.756 146.438 405.315 146.848 415.325 148.899C425.347 150.951 430.352 156.285 438.094 156.285C445.824 156.285 460.395 155.055 467.225 155.055C474.043 155.055 475.411 156.285 484.521 156.285C493.619 156.285 505.91 154.644 511.827 154.644C517.744 154.644 520.481 157.927 527.299 157.927C534.128 157.927 537.777 155.055 541.414 155.055C545.051 155.055 555.973 154.234 558.71 155.055C561.446 155.875 563.282 158.748 568.732 158.748C574.181 158.748 593.758 157.927 600.131 160.389C606.504 162.851 621.52 160.389 628.805 157.107C636.091 153.824 652.019 144.796 657.936 144.796C663.853 144.796 669.771 143.564 679.325 142.744C688.891 141.924 686.154 133.716 689.347 129.203C692.528 124.69 708.912 121.816 711.193 116.892C713.461 111.968 727.576 109.505 742.147 111.558C756.707 113.609 760.344 112.379 769.91 115.661C779.464 118.944 774.459 118.944 784.925 118.944C795.392 118.944 802.677 114.02 804.958 111.968C807.227 109.916 820.429 109.916 830.439 109.916C840.461 109.916 898.208 97.6414 912.311 101.171C926.403 104.701 935.805 111.056 943.64 115.292C951.464 119.528 956.948 120.234 966.351 119.528C975.753 118.823 984.36 125.177 994.545 125.177C1004.73 125.177 1006.29 124.471 1014.91 124.471C1023.52 124.471 1037.62 132.944 1052.5 135.768C1067.38 138.593 1084.62 142.123 1086.18 134.357C1087.75 126.589 1103.41 132.238 1104.98 125.177C1106.54 118.117 1118.87 111.173 1129.66 110.633C1140.47 110.093 1156.66 108.47 1156.66 108.47C1156.66 108.47 1177.06 118.744 1187.26 120.907C1197.45 123.072 1218.43 138.359 1225.25 138.917C1232.07 139.476 1254.38 146.181 1262.44 146.181C1270.5 146.181 1277.93 150.093 1286.61 146.74C1295.29 143.388 1320.7 135.566 1328.14 135.566C1335.58 135.566 1343.01 127.185 1343.01 127.185C1343.01 127.185 1359.75 133.89 1369.67 134.448C1379.58 135.005 1388.88 128.861 1395.7 129.419C1402.5 129.978 1437.21 131.095 1443.41 131.654C1449.61 132.212 1448.37 137.241 1459.52 137.241C1470.68 137.241 1498.3 133.89 1512.21 142.829C1593.56 157.107 1599.12 241.493 1685 101.171L1617.66 -752H-237Z" fill="#014878"/>
<path d="M-241 -760C-182.457 -724.814 -231.136 -23.0223 -194.664 -13.6277C-199.607 48.9089 -194.664 31.1101 -194.664 62.4424C-194.664 93.7747 -238.765 82.9531 -210.11 92.3462C-181.453 101.741 -231.251 101.24 -210.11 105.053C-188.967 108.864 -237.983 102.511 -222.479 105.053C-206.974 107.593 -173.884 129.512 -167.409 130.972C-160.934 132.432 -156.077 133.161 -150.411 138.269C-144.745 143.377 -129.367 144.836 -116.416 148.484C-103.465 152.133 -78.374 161.62 -67.8514 161.62C-57.3289 161.62 -41.1415 160.89 -35.4745 161.62C-29.8097 162.349 -24.9532 160.161 -22.5242 154.323C-20.0965 148.484 -7.1461 150.675 -2.28944 144.107C2.56722 137.539 4.18563 131.701 6.61454 126.593C9.04229 121.485 17.1361 136.809 26.8494 141.187C36.5627 145.566 50.3222 150.675 54.3696 152.133C58.4171 153.593 64.8921 149.215 66.5106 155.781C66.5106 155.781 80.8796 154.851 86.342 150.338C91.8033 145.824 104.093 143.362 119.569 142.54C135.044 141.72 142.327 141.72 152.341 141.72C162.355 141.72 171.003 140.9 182.837 141.72C194.671 142.54 212.422 145.414 215.609 145.414C218.796 145.414 224.258 142.131 233.816 143.772C243.375 145.414 250.202 144.592 256.119 139.259C262.037 133.923 277.967 130.231 286.616 130.231C295.264 130.231 309.374 130.231 318.022 130.231C326.67 130.231 328.946 134.333 337.595 134.333C346.243 134.333 350.339 135.975 353.525 137.616C356.712 139.259 365.811 141.72 376.289 140.079C386.756 138.438 401.315 138.848 411.325 140.899C421.347 142.951 426.352 148.285 434.094 148.285C441.824 148.285 456.395 147.055 463.225 147.055C470.043 147.055 471.411 148.285 480.521 148.285C489.619 148.285 501.91 146.644 507.827 146.644C513.744 146.644 516.481 149.927 523.299 149.927C530.128 149.927 533.777 147.055 537.414 147.055C541.051 147.055 551.973 146.234 554.71 147.055C557.446 147.875 559.282 150.748 564.732 150.748C570.181 150.748 589.758 149.927 596.131 152.389C602.504 154.851 617.52 152.389 624.805 149.107C632.091 145.824 648.019 136.796 653.936 136.796C659.853 136.796 665.771 135.564 675.325 134.744C684.891 133.924 682.154 125.716 685.347 121.203C688.528 116.69 704.912 113.816 707.193 108.892C709.461 103.968 723.576 101.505 738.147 103.558C752.707 105.609 756.344 104.379 765.91 107.661C775.464 110.944 770.459 110.944 780.925 110.944C791.392 110.944 798.677 106.02 800.958 103.968C803.227 101.916 816.429 101.916 826.439 101.916C836.461 101.916 894.208 89.6414 908.311 93.1713C922.403 96.7011 931.805 103.056 939.64 107.292C947.464 111.528 952.948 112.234 962.351 111.528C971.753 110.823 980.36 117.177 990.545 117.177C1000.73 117.177 1002.29 116.471 1010.91 116.471C1019.52 116.471 1033.62 124.944 1048.5 127.768C1063.38 130.593 1080.62 134.123 1082.18 126.357C1083.75 118.589 1099.41 124.238 1100.98 117.177C1102.54 110.117 1114.87 103.173 1125.66 102.633C1136.47 102.093 1152.66 100.47 1152.66 100.47C1152.66 100.47 1173.06 110.744 1183.26 112.907C1193.45 115.072 1214.43 130.359 1221.25 130.917C1228.07 131.476 1250.38 138.181 1258.44 138.181C1266.5 138.181 1273.93 142.093 1282.61 138.74C1291.29 135.388 1316.7 127.566 1324.14 127.566C1331.58 127.566 1339.01 119.185 1339.01 119.185C1339.01 119.185 1355.75 125.89 1365.67 126.448C1375.58 127.005 1384.88 120.861 1391.7 121.419C1398.5 121.978 1433.21 123.095 1439.41 123.654C1445.61 124.212 1444.37 129.241 1455.52 129.241C1466.68 129.241 1494.3 125.89 1508.21 134.829C1589.56 149.107 1595.12 233.493 1681 93.1713L1613.66 -760H-241Z" fill="white"/>
</g>
<defs>
<clipPath id="clip0_389_29380">
<rect width="1440" height="228" fill="white"/>
</clipPath>
</defs>
</svg>
