<svg width="1439" height="1031" viewBox="0 0 1439 1031" fill="none" xmlns="http://www.w3.org/2000/svg">
<g clip-path="url(#clip0_159_170)">
<path d="M1438.72 0H0V1030.66H1438.72V0Z" fill="url(#paint0_linear_159_170)"/>
<path d="M1404.05 225.37L1402.84 225.6C1401.02 225.914 1399.23 226.396 1397.5 227.04C1396.55 227.409 1395.67 227.937 1394.9 228.6C1394.09 229.357 1393.44 230.273 1393 231.29C1392.44 232.602 1392.01 233.965 1391.72 235.36C1391.51 236.27 1391.33 237.19 1391.16 238.12C1391.17 238.173 1391.17 238.227 1391.16 238.28C1391.09 238.178 1391.04 238.056 1391.04 237.93C1390.74 236.122 1390.3 234.338 1389.75 232.59C1389.38 231.409 1388.8 230.304 1388.04 229.33C1387.22 228.384 1386.19 227.641 1385.04 227.16C1383.77 226.638 1382.45 226.233 1381.1 225.95C1380.18 225.75 1379.26 225.56 1378.34 225.4C1378.34 225.4 1378.24 225.4 1378.22 225.34C1378.2 225.28 1378.41 225.26 1378.51 225.24C1379.69 225.03 1380.86 224.79 1382.02 224.49C1383.35 224.18 1384.64 223.717 1385.86 223.11C1387.48 222.24 1388.73 220.822 1389.39 219.11C1389.97 217.651 1390.4 216.141 1390.69 214.6C1390.83 213.94 1390.96 213.28 1391.09 212.6C1391.09 212.53 1391.09 212.47 1391.15 212.37C1391.21 212.448 1391.24 212.542 1391.25 212.64C1391.53 214.248 1391.89 215.841 1392.34 217.41C1392.63 218.458 1393.05 219.466 1393.59 220.41C1394.48 221.881 1395.85 223.009 1397.46 223.61C1398.88 224.15 1400.35 224.559 1401.84 224.83L1403.84 225.22C1403.88 225.227 1403.93 225.244 1403.96 225.27C1404 225.297 1404.03 225.331 1404.05 225.37Z" fill="#FFF8EE"/>
<path d="M1299.96 483.08L1298.76 483.31C1296.94 483.627 1295.14 484.112 1293.41 484.76C1292.46 485.122 1291.58 485.65 1290.82 486.32C1290 487.071 1289.35 487.988 1288.91 489.01C1288.35 490.318 1287.93 491.678 1287.64 493.07C1287.43 493.99 1287.25 494.91 1287.08 495.83C1287.07 495.888 1287.05 495.945 1287.02 496C1286.95 495.898 1286.9 495.776 1286.9 495.65C1286.6 493.841 1286.18 492.056 1285.62 490.31C1285.25 489.127 1284.67 488.022 1283.9 487.05C1283.09 486.099 1282.06 485.356 1280.9 484.88C1279.61 484.349 1278.27 483.944 1276.9 483.67C1275.98 483.46 1275.06 483.28 1274.14 483.11C1274.12 483.114 1274.09 483.111 1274.07 483.1C1274.05 483.089 1274.03 483.072 1274.02 483.05C1274.1 482.988 1274.21 482.953 1274.31 482.95C1275.49 482.74 1276.66 482.5 1277.82 482.21C1279.15 481.904 1280.44 481.438 1281.66 480.82C1283.28 479.953 1284.54 478.534 1285.2 476.82C1285.77 475.361 1286.21 473.851 1286.5 472.31L1286.89 470.31L1286.96 470.09C1287.01 470.166 1287.05 470.256 1287.05 470.35C1287.33 471.961 1287.69 473.557 1288.14 475.13C1288.43 476.177 1288.85 477.184 1289.39 478.13C1290.29 479.594 1291.65 480.719 1293.26 481.33C1294.71 481.896 1296.2 482.324 1297.73 482.61L1299.73 483.01C1299.77 483.004 1299.81 483.008 1299.85 483.02C1299.89 483.032 1299.93 483.052 1299.96 483.08Z" fill="#FFF8EE"/>
<path d="M140.92 163.83L139.72 164.06C137.899 164.377 136.111 164.863 134.38 165.51C133.428 165.872 132.548 166.401 131.78 167.07C130.967 167.821 130.32 168.734 129.88 169.75C129.32 171.061 128.891 172.425 128.6 173.82C128.39 174.74 128.21 175.66 128.04 176.58C128.04 176.58 128.04 176.68 128.04 176.75C127.961 176.647 127.918 176.52 127.92 176.39C127.616 174.585 127.184 172.804 126.63 171.06C126.243 169.88 125.636 168.784 124.84 167.83C124.031 166.874 123.001 166.13 121.84 165.66C120.549 165.129 119.209 164.724 117.84 164.45C116.93 164.24 116.01 164.06 115.08 163.89C115.08 163.89 114.99 163.89 114.96 163.83C115.049 163.769 115.153 163.734 115.26 163.73C116.44 163.52 117.61 163.28 118.77 162.99C120.098 162.683 121.384 162.216 122.6 161.6C124.221 160.733 125.477 159.314 126.14 157.6C126.714 156.141 127.149 154.631 127.44 153.09C127.58 152.43 127.7 151.77 127.84 151.09C127.854 151.015 127.874 150.942 127.9 150.87C127.959 150.944 127.991 151.036 127.99 151.13C128.271 152.742 128.639 154.337 129.09 155.91C129.38 156.958 129.8 157.966 130.34 158.91C131.235 160.376 132.593 161.502 134.2 162.11C135.647 162.676 137.143 163.104 138.67 163.39C139.32 163.53 139.98 163.65 140.67 163.78C140.757 163.765 140.846 163.783 140.92 163.83Z" fill="#FFF8EE"/>
<path d="M442.35 345.08L441.52 345.24C440.262 345.458 439.026 345.793 437.83 346.24C437.175 346.494 436.57 346.859 436.04 347.32C435.476 347.836 435.029 348.467 434.73 349.17C434.342 350.075 434.048 351.016 433.85 351.98C433.7 352.61 433.58 353.24 433.46 353.88C433.46 353.88 433.46 353.95 433.46 354C433.407 353.928 433.379 353.84 433.38 353.75C433.173 352.504 432.876 351.274 432.49 350.07C432.239 349.254 431.839 348.491 431.31 347.82C430.746 347.164 430.033 346.653 429.23 346.33C428.351 345.966 427.441 345.685 426.51 345.49C425.88 345.35 425.24 345.22 424.6 345.11C424.6 345.11 424.54 345.11 424.52 345.11C424.58 345.063 424.654 345.039 424.73 345.04C425.54 344.89 426.35 344.73 427.15 344.52C428.064 344.309 428.951 343.99 429.79 343.57C430.91 342.966 431.776 341.979 432.23 340.79C432.63 339.785 432.931 338.743 433.13 337.68L433.4 336.31C433.402 336.26 433.402 336.21 433.4 336.16C433.445 336.209 433.47 336.274 433.47 336.34C433.68 337.45 433.9 338.55 434.22 339.64C434.428 340.34 434.72 341.011 435.09 341.64C435.705 342.654 436.641 343.432 437.75 343.85C438.747 344.241 439.778 344.538 440.83 344.74L442.18 345.01C442.212 345.008 442.244 345.013 442.273 345.026C442.303 345.038 442.329 345.056 442.35 345.08Z" fill="#FFF8EE"/>
<path d="M1027.6 198.7L1026.77 198.86C1025.52 199.078 1024.28 199.412 1023.09 199.86C1022.44 200.117 1021.83 200.482 1021.3 200.94C1020.74 201.458 1020.29 202.088 1019.98 202.79C1019.6 203.696 1019.31 204.637 1019.11 205.6C1018.96 206.23 1018.83 206.86 1018.72 207.5V207.62C1018.67 207.547 1018.64 207.46 1018.64 207.37C1018.43 206.123 1018.14 204.893 1017.75 203.69C1017.49 202.875 1017.1 202.113 1016.57 201.44C1016.01 200.783 1015.29 200.272 1014.49 199.95C1013.61 199.587 1012.7 199.306 1011.77 199.11C1011.13 198.97 1010.5 198.84 1009.86 198.73C1009.86 198.73 1009.8 198.73 1009.78 198.73C1009.84 198.684 1009.91 198.659 1009.98 198.66C1010.8 198.51 1011.6 198.35 1012.4 198.14C1013.32 197.93 1014.21 197.611 1015.05 197.19C1016.17 196.582 1017.03 195.597 1017.49 194.41C1017.89 193.404 1018.18 192.363 1018.38 191.3C1018.48 190.84 1018.57 190.39 1018.66 189.93C1018.66 189.93 1018.66 189.84 1018.66 189.78C1018.71 189.829 1018.73 189.893 1018.73 189.96C1018.92 191.072 1019.17 192.174 1019.48 193.26C1019.68 193.959 1019.97 194.631 1020.34 195.26C1020.96 196.274 1021.9 197.052 1023.01 197.47C1024.01 197.861 1025.04 198.159 1026.09 198.36L1027.44 198.63C1027.47 198.629 1027.5 198.635 1027.53 198.647C1027.56 198.659 1027.58 198.677 1027.6 198.7Z" fill="#FFF8EE"/>
</g>
<defs>
<linearGradient id="paint0_linear_159_170" x1="719.36" y1="551.35" x2="719.36" y2="158.5" gradientUnits="userSpaceOnUse">
<stop stop-color="#DAEDEE"/>
<stop offset="1" stop-color="#9FE0F6"/>
</linearGradient>
<clipPath id="clip0_159_170">
<rect width="1438.72" height="1030.66" fill="white"/>
</clipPath>
</defs>
</svg>
