<svg width="1439" height="1031" viewBox="0 0 1439 1031" fill="none" xmlns="http://www.w3.org/2000/svg">
<path opacity="0.2" d="M1404.05 225.37L1402.84 225.6C1401.02 225.914 1399.23 226.396 1397.5 227.04C1396.55 227.409 1395.67 227.937 1394.9 228.6C1394.09 229.357 1393.44 230.273 1393 231.29C1392.44 232.602 1392.01 233.965 1391.72 235.36C1391.51 236.27 1391.33 237.19 1391.16 238.12C1391.17 238.173 1391.17 238.227 1391.16 238.28C1391.09 238.178 1391.04 238.056 1391.04 237.93C1390.74 236.122 1390.3 234.338 1389.75 232.59C1389.38 231.409 1388.8 230.304 1388.04 229.33C1387.22 228.384 1386.19 227.641 1385.04 227.16C1383.77 226.638 1382.45 226.233 1381.1 225.95C1380.18 225.75 1379.26 225.56 1378.34 225.4C1378.34 225.4 1378.24 225.4 1378.22 225.34C1378.2 225.28 1378.41 225.26 1378.51 225.24C1379.69 225.03 1380.86 224.79 1382.02 224.49C1383.35 224.18 1384.64 223.717 1385.86 223.11C1387.48 222.24 1388.73 220.822 1389.39 219.11C1389.97 217.651 1390.4 216.141 1390.69 214.6C1390.83 213.94 1390.96 213.28 1391.09 212.6C1391.09 212.53 1391.09 212.47 1391.15 212.37C1391.21 212.448 1391.24 212.542 1391.25 212.64C1391.53 214.248 1391.89 215.841 1392.34 217.41C1392.63 218.458 1393.05 219.466 1393.59 220.41C1394.48 221.881 1395.85 223.009 1397.46 223.61C1398.88 224.15 1400.35 224.559 1401.84 224.83L1403.84 225.22C1403.88 225.227 1403.93 225.244 1403.96 225.27C1404 225.297 1404.03 225.331 1404.05 225.37V225.37Z" fill="#FFF8EE"/>
<path opacity="0.8" d="M1293 486.526L1292.12 486.694C1290.78 486.927 1289.47 487.283 1288.2 487.758C1287.51 488.023 1286.86 488.411 1286.31 488.902C1285.7 489.453 1285.23 490.125 1284.91 490.874C1284.5 491.833 1284.19 492.831 1283.98 493.851C1283.82 494.526 1283.69 495.201 1283.57 495.875C1283.56 495.918 1283.54 495.96 1283.52 496C1283.47 495.925 1283.44 495.836 1283.43 495.743C1283.22 494.417 1282.9 493.108 1282.5 491.827C1282.23 490.96 1281.8 490.15 1281.24 489.437C1280.64 488.74 1279.89 488.195 1279.04 487.846C1278.09 487.456 1277.11 487.159 1276.11 486.958C1275.44 486.804 1274.76 486.672 1274.09 486.548C1274.07 486.551 1274.05 486.549 1274.04 486.541C1274.02 486.533 1274.01 486.52 1274 486.504C1274.06 486.458 1274.14 486.432 1274.21 486.43C1275.08 486.276 1275.93 486.1 1276.78 485.888C1277.76 485.664 1278.7 485.321 1279.6 484.868C1280.78 484.233 1281.7 483.192 1282.19 481.935C1282.61 480.865 1282.93 479.758 1283.14 478.628L1283.43 477.161L1283.48 477C1283.52 477.056 1283.54 477.122 1283.54 477.191C1283.75 478.372 1284.01 479.543 1284.34 480.696C1284.56 481.464 1284.86 482.203 1285.26 482.896C1285.92 483.969 1286.92 484.794 1288.09 485.242C1289.15 485.657 1290.25 485.971 1291.37 486.181L1292.83 486.474C1292.86 486.47 1292.89 486.473 1292.92 486.482C1292.95 486.491 1292.98 486.506 1293 486.526V486.526Z" fill="#FFF8EE"/>
<path d="M130 169.512L129.307 169.645C128.254 169.829 127.222 170.11 126.221 170.485C125.671 170.695 125.162 171.001 124.719 171.389C124.249 171.825 123.875 172.354 123.621 172.943C123.297 173.703 123.05 174.493 122.881 175.302C122.76 175.835 122.656 176.368 122.558 176.901C122.558 176.901 122.558 176.959 122.558 177C122.512 176.94 122.488 176.867 122.488 176.791C122.313 175.745 122.063 174.713 121.743 173.702C121.519 173.018 121.168 172.383 120.709 171.83C120.241 171.276 119.646 170.844 118.975 170.572C118.229 170.265 117.455 170.03 116.664 169.871C116.138 169.749 115.607 169.645 115.069 169.546C115.069 169.546 115.017 169.546 115 169.512C115.051 169.476 115.111 169.456 115.173 169.454C115.855 169.332 116.531 169.193 117.201 169.025C117.969 168.847 118.712 168.576 119.414 168.219C120.351 167.717 121.077 166.894 121.46 165.901C121.791 165.055 122.043 164.18 122.211 163.287C122.292 162.904 122.361 162.522 122.442 162.128C122.451 162.084 122.462 162.042 122.477 162C122.511 162.043 122.529 162.096 122.529 162.151C122.691 163.085 122.904 164.01 123.164 164.921C123.332 165.529 123.575 166.113 123.887 166.66C124.404 167.51 125.189 168.162 126.117 168.515C126.953 168.843 127.818 169.091 128.7 169.257C129.076 169.338 129.457 169.407 129.856 169.483C129.906 169.474 129.957 169.484 130 169.512V169.512Z" fill="#FFF8EE"/>
<path opacity="0.6" d="M938 811.019L936.891 811.232C935.207 811.526 933.554 811.976 931.954 812.577C931.074 812.912 930.26 813.402 929.55 814.023C928.798 814.72 928.2 815.566 927.794 816.509C927.276 817.724 926.879 818.989 926.61 820.283C926.416 821.136 926.25 821.989 926.092 822.842C926.092 822.842 926.092 822.935 926.092 823C926.019 822.904 925.98 822.787 925.982 822.666C925.7 820.993 925.302 819.341 924.789 817.723C924.431 816.629 923.87 815.612 923.134 814.728C922.386 813.842 921.434 813.151 920.361 812.716C919.167 812.223 917.928 811.847 916.663 811.594C915.821 811.399 914.971 811.232 914.111 811.074C914.111 811.074 914.028 811.074 914 811.019C914.082 810.962 914.178 810.93 914.277 810.926C915.368 810.731 916.45 810.509 917.522 810.24C918.75 809.955 919.939 809.522 921.063 808.951C922.561 808.147 923.723 806.831 924.336 805.241C924.866 803.888 925.269 802.488 925.538 801.059C925.667 800.447 925.778 799.835 925.908 799.204C925.921 799.135 925.939 799.066 925.963 799C926.018 799.068 926.047 799.154 926.046 799.241C926.306 800.736 926.646 802.215 927.063 803.674C927.332 804.646 927.72 805.58 928.219 806.456C929.047 807.815 930.302 808.86 931.787 809.423C933.125 809.948 934.508 810.346 935.92 810.611C936.521 810.74 937.131 810.852 937.769 810.972C937.849 810.958 937.932 810.974 938 811.019V811.019Z" fill="#FFF8EE"/>
<path opacity="0.8" d="M1240 872.521L1238.75 872.761C1236.86 873.092 1235 873.598 1233.2 874.274C1232.21 874.652 1231.29 875.203 1230.49 875.901C1229.65 876.685 1228.97 877.637 1228.52 878.697C1227.94 880.065 1227.49 881.487 1227.19 882.943C1226.97 883.903 1226.78 884.863 1226.6 885.823C1226.6 885.823 1226.6 885.927 1226.6 886C1226.52 885.892 1226.48 885.76 1226.48 885.624C1226.16 883.742 1225.71 881.883 1225.14 880.064C1224.73 878.833 1224.1 877.689 1223.28 876.694C1222.43 875.697 1221.36 874.92 1220.16 874.43C1218.81 873.876 1217.42 873.453 1216 873.168C1215.05 872.949 1214.09 872.761 1213.12 872.583C1213.12 872.583 1213.03 872.583 1213 872.521C1213.09 872.457 1213.2 872.421 1213.31 872.417C1214.54 872.197 1215.76 871.947 1216.96 871.645C1218.34 871.324 1219.68 870.837 1220.95 870.194C1222.63 869.29 1223.94 867.809 1224.63 866.021C1225.22 864.499 1225.68 862.924 1225.98 861.316C1226.13 860.628 1226.25 859.939 1226.4 859.23C1226.41 859.152 1226.43 859.075 1226.46 859C1226.52 859.077 1226.55 859.173 1226.55 859.271C1226.84 860.953 1227.23 862.617 1227.7 864.258C1228 865.352 1228.43 866.403 1229 867.388C1229.93 868.917 1231.34 870.092 1233.01 870.726C1234.52 871.317 1236.07 871.764 1237.66 872.062C1238.34 872.208 1239.02 872.333 1239.74 872.469C1239.83 872.453 1239.92 872.471 1240 872.521V872.521Z" fill="#FFF8EE"/>
<path opacity="0.2" d="M427.83 370.92L427 371.08C425.742 371.298 424.506 371.633 423.31 372.08C422.655 372.334 422.05 372.699 421.52 373.16C420.956 373.676 420.509 374.307 420.21 375.01C419.822 375.914 419.528 376.856 419.33 377.82C419.18 378.45 419.06 379.08 418.94 379.72C418.94 379.72 418.94 379.79 418.94 379.84C418.887 379.768 418.859 379.68 418.86 379.59C418.653 378.343 418.356 377.113 417.97 375.91C417.719 375.094 417.319 374.331 416.79 373.66C416.226 373.004 415.513 372.493 414.71 372.17C413.831 371.806 412.921 371.525 411.99 371.33C411.36 371.19 410.72 371.06 410.08 370.95C410.08 370.95 410.02 370.95 410 370.95C410.06 370.903 410.134 370.878 410.21 370.88C411.02 370.73 411.83 370.57 412.63 370.36C413.544 370.149 414.431 369.83 415.27 369.41C416.39 368.806 417.256 367.819 417.71 366.63C418.11 365.625 418.411 364.583 418.61 363.52L418.88 362.15C418.882 362.1 418.882 362.05 418.88 362C418.925 362.049 418.95 362.113 418.95 362.18C419.16 363.29 419.38 364.39 419.7 365.48C419.908 366.179 420.2 366.851 420.57 367.48C421.185 368.493 422.121 369.271 423.23 369.69C424.227 370.08 425.258 370.378 426.31 370.58L427.66 370.85C427.692 370.848 427.724 370.853 427.753 370.865C427.783 370.878 427.809 370.896 427.83 370.92V370.92Z" fill="#FFF8EE"/>
<path opacity="0.2" d="M1332.83 30.92L1332 31.08C1330.74 31.2977 1329.51 31.6325 1328.31 32.08C1327.66 32.3338 1327.05 32.6992 1326.52 33.16C1325.96 33.6758 1325.51 34.3067 1325.21 35.01C1324.82 35.9145 1324.53 36.856 1324.33 37.82C1324.18 38.45 1324.06 39.08 1323.94 39.72C1323.94 39.72 1323.94 39.79 1323.94 39.84C1323.89 39.7677 1323.86 39.6799 1323.86 39.59C1323.65 38.3434 1323.36 37.1134 1322.97 35.91C1322.72 35.0937 1322.32 34.3309 1321.79 33.66C1321.23 33.0036 1320.51 32.4925 1319.71 32.17C1318.83 31.806 1317.92 31.5248 1316.99 31.33C1316.36 31.19 1315.72 31.06 1315.08 30.95C1315.08 30.95 1315.02 30.95 1315 30.95C1315.06 30.9032 1315.13 30.8785 1315.21 30.88C1316.02 30.73 1316.83 30.57 1317.63 30.36C1318.54 30.1486 1319.43 29.8297 1320.27 29.41C1321.39 28.8057 1322.26 27.8192 1322.71 26.63C1323.11 25.6248 1323.41 24.5833 1323.61 23.52L1323.88 22.15C1323.88 22.1001 1323.88 22.05 1323.88 22C1323.92 22.0493 1323.95 22.1134 1323.95 22.18C1324.16 23.29 1324.38 24.39 1324.7 25.48C1324.91 26.1795 1325.2 26.8511 1325.57 27.48C1326.18 28.4934 1327.12 29.2715 1328.23 29.69C1329.23 30.0804 1330.26 30.3783 1331.31 30.58L1332.66 30.85C1332.69 30.848 1332.72 30.8533 1332.75 30.8654C1332.78 30.8775 1332.81 30.8962 1332.83 30.92V30.92Z" fill="#FFF8EE"/>
<path opacity="0.4" d="M686.83 176.92L686 177.08C684.742 177.298 683.506 177.633 682.31 178.08C681.655 178.334 681.05 178.699 680.52 179.16C679.956 179.676 679.509 180.307 679.21 181.01C678.822 181.914 678.528 182.856 678.33 183.82C678.18 184.45 678.06 185.08 677.94 185.72C677.94 185.72 677.94 185.79 677.94 185.84C677.887 185.768 677.859 185.68 677.86 185.59C677.653 184.343 677.356 183.113 676.97 181.91C676.719 181.094 676.319 180.331 675.79 179.66C675.226 179.004 674.513 178.493 673.71 178.17C672.831 177.806 671.921 177.525 670.99 177.33C670.36 177.19 669.72 177.06 669.08 176.95C669.08 176.95 669.02 176.95 669 176.95C669.06 176.903 669.134 176.878 669.21 176.88C670.02 176.73 670.83 176.57 671.63 176.36C672.544 176.149 673.431 175.83 674.27 175.41C675.39 174.806 676.256 173.819 676.71 172.63C677.11 171.625 677.411 170.583 677.61 169.52L677.88 168.15C677.882 168.1 677.882 168.05 677.88 168C677.925 168.049 677.95 168.113 677.95 168.18C678.16 169.29 678.38 170.39 678.7 171.48C678.908 172.179 679.2 172.851 679.57 173.48C680.185 174.493 681.121 175.271 682.23 175.69C683.227 176.08 684.258 176.378 685.31 176.58L686.66 176.85C686.692 176.848 686.724 176.853 686.753 176.865C686.783 176.878 686.809 176.896 686.83 176.92V176.92Z" fill="#FFF8EE"/>
<path d="M159 739.5L158.395 739.617C157.477 739.775 156.577 740.019 155.704 740.345C155.227 740.53 154.786 740.796 154.399 741.132C153.988 741.508 153.662 741.968 153.444 742.48C153.162 743.139 152.947 743.826 152.803 744.528C152.693 744.987 152.606 745.446 152.518 745.913C152.518 745.913 152.518 745.964 152.518 746C152.479 745.947 152.459 745.883 152.46 745.818C152.309 744.909 152.092 744.013 151.811 743.136C151.628 742.541 151.336 741.985 150.951 741.497C150.54 741.018 150.019 740.646 149.434 740.411C148.794 740.146 148.13 739.941 147.451 739.799C146.992 739.697 146.525 739.602 146.058 739.522C146.058 739.522 146.015 739.522 146 739.522C146.044 739.488 146.098 739.47 146.153 739.471C146.744 739.362 147.334 739.245 147.918 739.092C148.584 738.938 149.23 738.705 149.842 738.4C150.659 737.959 151.291 737.24 151.621 736.374C151.913 735.641 152.133 734.882 152.278 734.108L152.474 733.109C152.476 733.073 152.476 733.036 152.474 733C152.507 733.036 152.525 733.083 152.526 733.131C152.679 733.94 152.839 734.742 153.072 735.536C153.224 736.046 153.437 736.535 153.707 736.993C154.155 737.732 154.838 738.299 155.646 738.604C156.373 738.888 157.125 739.105 157.892 739.252L158.876 739.449C158.899 739.448 158.922 739.451 158.944 739.46C158.965 739.469 158.985 739.483 159 739.5V739.5Z" fill="#FFF8EE"/>
<path d="M1023 205.5L1022.39 205.617C1021.48 205.775 1020.58 206.019 1019.71 206.345C1019.23 206.533 1018.79 206.799 1018.4 207.132C1017.99 207.51 1017.66 207.969 1017.44 208.48C1017.16 209.141 1016.95 209.827 1016.81 210.528C1016.7 210.987 1016.6 211.446 1016.52 211.913V212C1016.48 211.947 1016.46 211.883 1016.46 211.818C1016.31 210.909 1016.1 210.013 1015.81 209.136C1015.63 208.543 1015.34 207.987 1014.95 207.497C1014.54 207.018 1014.02 206.646 1013.44 206.411C1012.79 206.147 1012.13 205.942 1011.45 205.799C1010.98 205.697 1010.53 205.602 1010.06 205.522C1010.06 205.522 1010.01 205.522 1010 205.522C1010.04 205.488 1010.09 205.47 1010.15 205.471C1010.74 205.362 1011.33 205.245 1011.91 205.092C1012.58 204.939 1013.23 204.707 1013.84 204.4C1014.66 203.957 1015.29 203.239 1015.62 202.374C1015.91 201.641 1016.13 200.882 1016.27 200.108C1016.35 199.772 1016.41 199.445 1016.48 199.109C1016.48 199.109 1016.48 199.044 1016.48 199C1016.51 199.036 1016.53 199.083 1016.53 199.131C1016.67 199.942 1016.85 200.745 1017.08 201.536C1017.23 202.045 1017.44 202.535 1017.7 202.993C1018.15 203.733 1018.84 204.3 1019.65 204.604C1020.38 204.889 1021.13 205.106 1021.9 205.252L1022.88 205.449C1022.91 205.449 1022.93 205.453 1022.95 205.462C1022.97 205.471 1022.99 205.484 1023 205.5V205.5Z" fill="#FFF8EE"/>
<path d="M786 559.5L785.301 559.635C784.245 559.818 783.208 560.099 782.204 560.475C781.654 560.692 781.145 560.999 780.697 561.383C780.222 561.819 779.844 562.349 779.586 562.939C779.266 563.701 779.021 564.492 778.854 565.302C778.727 565.831 778.618 566.361 778.525 566.899V567C778.48 566.939 778.457 566.865 778.458 566.79C778.284 565.742 778.033 564.707 777.709 563.696C777.494 563.011 777.157 562.37 776.715 561.804C776.241 561.252 775.64 560.822 774.965 560.551C774.225 560.246 773.458 560.01 772.675 559.845C772.136 559.727 771.606 559.618 771.067 559.525C771.067 559.525 771.017 559.525 771 559.525C771.047 559.486 771.107 559.466 771.168 559.466C771.859 559.34 772.532 559.206 773.205 559.029C773.978 558.853 774.727 558.585 775.436 558.23C776.377 557.719 777.105 556.891 777.49 555.893C777.824 555.047 778.074 554.172 778.239 553.278C778.323 552.891 778.399 552.513 778.475 552.126C778.475 552.126 778.475 552.05 778.475 552C778.512 552.041 778.533 552.095 778.534 552.151C778.694 553.087 778.905 554.013 779.165 554.926C779.337 555.514 779.58 556.079 779.889 556.608C780.409 557.461 781.2 558.115 782.136 558.466C782.975 558.795 783.843 559.046 784.729 559.214L785.865 559.441C785.891 559.441 785.916 559.446 785.939 559.456C785.962 559.466 785.983 559.481 786 559.5V559.5Z" fill="#FFF8EE"/>
</svg>
