<svg width="1439" height="1031" viewBox="0 0 1439 1031" fill="none" xmlns="http://www.w3.org/2000/svg">
<path opacity="0.2" d="M1404.05 225.37L1402.84 225.6C1401.02 225.914 1399.23 226.396 1397.5 227.04C1396.55 227.409 1395.67 227.937 1394.9 228.6C1394.09 229.357 1393.44 230.273 1393 231.29C1392.44 232.602 1392.01 233.965 1391.72 235.36C1391.51 236.27 1391.33 237.19 1391.16 238.12C1391.17 238.173 1391.17 238.227 1391.16 238.28C1391.09 238.178 1391.04 238.056 1391.04 237.93C1390.74 236.122 1390.3 234.338 1389.75 232.59C1389.38 231.409 1388.8 230.304 1388.04 229.33C1387.22 228.384 1386.19 227.641 1385.04 227.16C1383.77 226.638 1382.45 226.233 1381.1 225.95C1380.18 225.75 1379.26 225.56 1378.34 225.4C1378.34 225.4 1378.24 225.4 1378.22 225.34C1378.2 225.28 1378.41 225.26 1378.51 225.24C1379.69 225.03 1380.86 224.79 1382.02 224.49C1383.35 224.18 1384.64 223.717 1385.86 223.11C1387.48 222.24 1388.73 220.822 1389.39 219.11C1389.97 217.651 1390.4 216.141 1390.69 214.6C1390.83 213.94 1390.96 213.28 1391.09 212.6C1391.09 212.53 1391.09 212.47 1391.15 212.37C1391.21 212.448 1391.24 212.542 1391.25 212.64C1391.53 214.248 1391.89 215.841 1392.34 217.41C1392.63 218.458 1393.05 219.466 1393.59 220.41C1394.48 221.881 1395.85 223.009 1397.46 223.61C1398.88 224.15 1400.35 224.559 1401.84 224.83L1403.84 225.22C1403.88 225.227 1403.93 225.244 1403.96 225.27C1404 225.297 1404.03 225.331 1404.05 225.37Z" fill="#FFF8EE"/>
<path d="M1299.96 483.08L1298.76 483.31C1296.94 483.627 1295.14 484.112 1293.41 484.76C1292.46 485.122 1291.58 485.65 1290.82 486.32C1290 487.071 1289.35 487.988 1288.91 489.01C1288.35 490.318 1287.93 491.678 1287.64 493.07C1287.43 493.99 1287.25 494.91 1287.08 495.83C1287.07 495.888 1287.05 495.945 1287.02 496C1286.95 495.898 1286.9 495.776 1286.9 495.65C1286.6 493.841 1286.18 492.056 1285.62 490.31C1285.25 489.127 1284.67 488.022 1283.9 487.05C1283.09 486.099 1282.06 485.356 1280.9 484.88C1279.61 484.349 1278.27 483.944 1276.9 483.67C1275.98 483.46 1275.06 483.28 1274.14 483.11C1274.12 483.114 1274.09 483.111 1274.07 483.1C1274.05 483.089 1274.03 483.072 1274.02 483.05C1274.1 482.988 1274.21 482.953 1274.31 482.95C1275.49 482.74 1276.66 482.5 1277.82 482.21C1279.15 481.904 1280.44 481.438 1281.66 480.82C1283.28 479.953 1284.54 478.534 1285.2 476.82C1285.77 475.361 1286.21 473.851 1286.5 472.31L1286.89 470.31L1286.96 470.09C1287.01 470.166 1287.05 470.256 1287.05 470.35C1287.33 471.961 1287.69 473.557 1288.14 475.13C1288.43 476.177 1288.85 477.184 1289.39 478.13C1290.29 479.594 1291.65 480.719 1293.26 481.33C1294.71 481.896 1296.2 482.324 1297.73 482.61L1299.73 483.01C1299.77 483.004 1299.81 483.008 1299.85 483.02C1299.89 483.032 1299.93 483.052 1299.96 483.08Z" fill="#FFF8EE"/>
<path d="M140.92 163.83L139.72 164.06C137.899 164.377 136.111 164.863 134.38 165.51C133.428 165.872 132.548 166.401 131.78 167.07C130.967 167.821 130.32 168.734 129.88 169.75C129.32 171.061 128.891 172.425 128.6 173.82C128.39 174.74 128.21 175.66 128.04 176.58C128.04 176.58 128.04 176.68 128.04 176.75C127.961 176.647 127.918 176.52 127.92 176.39C127.616 174.585 127.184 172.804 126.63 171.06C126.243 169.88 125.636 168.784 124.84 167.83C124.031 166.874 123.001 166.13 121.84 165.66C120.549 165.129 119.209 164.724 117.84 164.45C116.93 164.24 116.01 164.06 115.08 163.89C115.08 163.89 114.99 163.89 114.96 163.83C115.049 163.769 115.153 163.734 115.26 163.73C116.44 163.52 117.61 163.28 118.77 162.99C120.098 162.683 121.384 162.216 122.6 161.6C124.221 160.733 125.477 159.314 126.14 157.6C126.714 156.141 127.149 154.631 127.44 153.09C127.58 152.43 127.7 151.77 127.84 151.09C127.854 151.015 127.874 150.942 127.9 150.87C127.959 150.944 127.991 151.036 127.99 151.13C128.271 152.742 128.639 154.337 129.09 155.91C129.38 156.958 129.8 157.966 130.34 158.91C131.235 160.376 132.593 161.502 134.2 162.11C135.647 162.676 137.143 163.104 138.67 163.39C139.32 163.53 139.98 163.65 140.67 163.78C140.757 163.765 140.846 163.783 140.92 163.83Z" fill="#FFF8EE"/>
<path opacity="0.6" d="M952 878.029L950.243 878.367C947.578 878.833 944.961 879.546 942.427 880.496C941.033 881.028 939.745 881.804 938.621 882.787C937.431 883.89 936.483 885.23 935.84 886.722C935.02 888.647 934.393 890.649 933.966 892.698C933.659 894.049 933.395 895.4 933.146 896.75C933.146 896.75 933.146 896.897 933.146 897C933.03 896.849 932.969 896.662 932.971 896.471C932.525 893.821 931.894 891.206 931.082 888.645C930.516 886.912 929.627 885.303 928.462 883.903C927.277 882.499 925.77 881.406 924.071 880.716C922.181 879.937 920.22 879.342 918.216 878.94C916.884 878.631 915.537 878.367 914.176 878.117C914.176 878.117 914.044 878.117 914 878.029C914.13 877.94 914.282 877.889 914.439 877.883C916.166 877.574 917.879 877.222 919.577 876.796C921.521 876.345 923.404 875.66 925.183 874.755C927.556 873.482 929.394 871.398 930.365 868.882C931.205 866.739 931.842 864.522 932.268 862.26C932.473 861.291 932.649 860.321 932.854 859.323C932.875 859.213 932.904 859.105 932.941 859C933.028 859.108 933.074 859.243 933.073 859.382C933.485 861.748 934.023 864.091 934.683 866.4C935.108 867.939 935.723 869.419 936.513 870.805C937.824 872.958 939.812 874.611 942.163 875.504C944.281 876.335 946.472 876.964 948.706 877.383C949.658 877.589 950.624 877.765 951.634 877.956C951.761 877.933 951.892 877.96 952 878.029V878.029Z" fill="#FFF8EE"/>
<path opacity="0.8" d="M1251 878.029L1249.24 878.367C1246.58 878.833 1243.96 879.546 1241.43 880.496C1240.03 881.028 1238.74 881.804 1237.62 882.787C1236.43 883.89 1235.48 885.23 1234.84 886.722C1234.02 888.647 1233.39 890.649 1232.97 892.698C1232.66 894.049 1232.4 895.4 1232.15 896.75C1232.15 896.75 1232.15 896.897 1232.15 897C1232.03 896.849 1231.97 896.662 1231.97 896.471C1231.53 893.821 1230.89 891.206 1230.08 888.645C1229.52 886.912 1228.63 885.303 1227.46 883.903C1226.28 882.499 1224.77 881.406 1223.07 880.716C1221.18 879.937 1219.22 879.342 1217.22 878.94C1215.88 878.631 1214.54 878.367 1213.18 878.117C1213.18 878.117 1213.04 878.117 1213 878.029C1213.13 877.94 1213.28 877.889 1213.44 877.883C1215.17 877.574 1216.88 877.222 1218.58 876.796C1220.52 876.345 1222.4 875.66 1224.18 874.755C1226.56 873.482 1228.39 871.398 1229.37 868.882C1230.21 866.739 1230.84 864.522 1231.27 862.26C1231.47 861.291 1231.65 860.321 1231.85 859.323C1231.87 859.213 1231.9 859.105 1231.94 859C1232.03 859.108 1232.07 859.243 1232.07 859.382C1232.49 861.748 1233.02 864.091 1233.68 866.4C1234.11 867.939 1234.72 869.419 1235.51 870.805C1236.82 872.958 1238.81 874.611 1241.16 875.504C1243.28 876.335 1245.47 876.964 1247.71 877.383C1248.66 877.589 1249.62 877.765 1250.63 877.956C1250.76 877.933 1250.89 877.96 1251 878.029Z" fill="#FFF8EE"/>
<path opacity="0.2" d="M427.83 370.92L427 371.08C425.742 371.298 424.506 371.633 423.31 372.08C422.655 372.334 422.05 372.699 421.52 373.16C420.956 373.676 420.509 374.307 420.21 375.01C419.822 375.914 419.528 376.856 419.33 377.82C419.18 378.45 419.06 379.08 418.94 379.72C418.94 379.72 418.94 379.79 418.94 379.84C418.887 379.768 418.859 379.68 418.86 379.59C418.653 378.343 418.356 377.113 417.97 375.91C417.719 375.094 417.319 374.331 416.79 373.66C416.226 373.004 415.513 372.493 414.71 372.17C413.831 371.806 412.921 371.525 411.99 371.33C411.36 371.19 410.72 371.06 410.08 370.95C410.08 370.95 410.02 370.95 410 370.95C410.06 370.903 410.134 370.878 410.21 370.88C411.02 370.73 411.83 370.57 412.63 370.36C413.544 370.149 414.431 369.83 415.27 369.41C416.39 368.806 417.256 367.819 417.71 366.63C418.11 365.625 418.411 364.583 418.61 363.52L418.88 362.15C418.882 362.1 418.882 362.05 418.88 362C418.925 362.049 418.95 362.113 418.95 362.18C419.16 363.29 419.38 364.39 419.7 365.48C419.908 366.179 420.2 366.851 420.57 367.48C421.185 368.493 422.121 369.271 423.23 369.69C424.227 370.08 425.258 370.378 426.31 370.58L427.66 370.85C427.692 370.848 427.724 370.853 427.753 370.865C427.783 370.878 427.809 370.896 427.83 370.92Z" fill="#FFF8EE"/>
<path opacity="0.4" d="M686.83 176.92L686 177.08C684.742 177.298 683.506 177.633 682.31 178.08C681.655 178.334 681.05 178.699 680.52 179.16C679.956 179.676 679.509 180.307 679.21 181.01C678.822 181.914 678.528 182.856 678.33 183.82C678.18 184.45 678.06 185.08 677.94 185.72C677.94 185.72 677.94 185.79 677.94 185.84C677.887 185.768 677.859 185.68 677.86 185.59C677.653 184.343 677.356 183.113 676.97 181.91C676.719 181.094 676.319 180.331 675.79 179.66C675.226 179.004 674.513 178.493 673.71 178.17C672.831 177.806 671.921 177.525 670.99 177.33C670.36 177.19 669.72 177.06 669.08 176.95C669.08 176.95 669.02 176.95 669 176.95C669.06 176.903 669.134 176.878 669.21 176.88C670.02 176.73 670.83 176.57 671.63 176.36C672.544 176.149 673.431 175.83 674.27 175.41C675.39 174.806 676.256 173.819 676.71 172.63C677.11 171.625 677.411 170.583 677.61 169.52L677.88 168.15C677.882 168.1 677.882 168.05 677.88 168C677.925 168.049 677.95 168.113 677.95 168.18C678.16 169.29 678.38 170.39 678.7 171.48C678.908 172.179 679.2 172.851 679.57 173.48C680.185 174.493 681.121 175.271 682.23 175.69C683.227 176.08 684.258 176.378 685.31 176.58L686.66 176.85C686.692 176.848 686.724 176.853 686.753 176.865C686.783 176.878 686.809 176.896 686.83 176.92Z" fill="#FFF8EE"/>
<path d="M158.83 741.92L158 742.08C156.742 742.298 155.506 742.633 154.31 743.08C153.655 743.334 153.05 743.699 152.52 744.16C151.956 744.676 151.509 745.307 151.21 746.01C150.822 746.914 150.528 747.856 150.33 748.82C150.18 749.45 150.06 750.08 149.94 750.72C149.94 750.72 149.94 750.79 149.94 750.84C149.887 750.768 149.859 750.68 149.86 750.59C149.653 749.343 149.356 748.113 148.97 746.91C148.719 746.094 148.319 745.331 147.79 744.66C147.226 744.004 146.513 743.493 145.71 743.17C144.831 742.806 143.921 742.525 142.99 742.33C142.36 742.19 141.72 742.06 141.08 741.95C141.08 741.95 141.02 741.95 141 741.95C141.06 741.903 141.134 741.878 141.21 741.88C142.02 741.73 142.83 741.57 143.63 741.36C144.544 741.149 145.431 740.83 146.27 740.41C147.39 739.806 148.256 738.819 148.71 737.63C149.11 736.625 149.411 735.583 149.61 734.52L149.88 733.15C149.882 733.1 149.882 733.05 149.88 733C149.925 733.049 149.95 733.113 149.95 733.18C150.16 734.29 150.38 735.39 150.7 736.48C150.908 737.179 151.2 737.851 151.57 738.48C152.185 739.493 153.121 740.271 154.23 740.69C155.227 741.08 156.258 741.378 157.31 741.58L158.66 741.85C158.692 741.848 158.724 741.853 158.753 741.865C158.783 741.878 158.809 741.896 158.83 741.92Z" fill="#FFF8EE"/>
<path d="M1027.82 202.92L1026.99 203.08C1025.73 203.298 1024.5 203.633 1023.31 204.08C1022.66 204.338 1022.05 204.703 1021.52 205.16C1020.96 205.678 1020.51 206.308 1020.2 207.01C1019.82 207.916 1019.53 208.857 1019.33 209.82C1019.18 210.45 1019.05 211.08 1018.94 211.72V211.84C1018.89 211.768 1018.86 211.68 1018.86 211.59C1018.65 210.343 1018.36 209.113 1017.97 207.91C1017.71 207.095 1017.31 206.333 1016.79 205.66C1016.23 205.004 1015.51 204.493 1014.71 204.17C1013.83 203.807 1012.92 203.526 1011.99 203.33C1011.35 203.19 1010.72 203.06 1010.08 202.95C1010.08 202.95 1010.02 202.95 1010 202.95C1010.06 202.904 1010.13 202.879 1010.2 202.88C1011.02 202.73 1011.82 202.57 1012.62 202.36C1013.54 202.15 1014.43 201.831 1015.27 201.41C1016.39 200.802 1017.25 199.817 1017.71 198.63C1018.11 197.624 1018.4 196.583 1018.6 195.52C1018.7 195.06 1018.79 194.61 1018.88 194.15C1018.88 194.15 1018.88 194.06 1018.88 194C1018.92 194.049 1018.95 194.113 1018.95 194.18C1019.14 195.293 1019.39 196.394 1019.7 197.48C1019.9 198.179 1020.19 198.851 1020.56 199.48C1021.18 200.495 1022.12 201.273 1023.23 201.69C1024.23 202.082 1025.26 202.38 1026.31 202.58L1027.66 202.85C1027.69 202.85 1027.72 202.856 1027.75 202.868C1027.78 202.88 1027.8 202.898 1027.82 202.92Z" fill="#FFF8EE"/>
<path d="M788.82 560.92L787.99 561.08C786.735 561.298 785.503 561.633 784.31 562.08C783.657 562.338 783.052 562.703 782.52 563.16C781.956 563.678 781.506 564.308 781.2 565.01C780.82 565.916 780.529 566.857 780.33 567.82C780.18 568.45 780.05 569.08 779.94 569.72V569.84C779.887 569.768 779.859 569.68 779.86 569.59C779.653 568.343 779.356 567.113 778.97 565.91C778.715 565.095 778.315 564.333 777.79 563.66C777.226 563.004 776.513 562.493 775.71 562.17C774.831 561.807 773.92 561.526 772.99 561.33C772.35 561.19 771.72 561.06 771.08 560.95C771.08 560.95 771.02 560.95 771 560.95C771.056 560.904 771.127 560.879 771.2 560.88C772.02 560.73 772.82 560.57 773.62 560.36C774.538 560.15 775.428 559.831 776.27 559.41C777.387 558.802 778.252 557.817 778.71 556.63C779.106 555.624 779.404 554.583 779.6 553.52C779.7 553.06 779.79 552.61 779.88 552.15C779.88 552.15 779.88 552.06 779.88 552C779.925 552.049 779.95 552.113 779.95 552.18C780.141 553.293 780.391 554.394 780.7 555.48C780.904 556.179 781.193 556.851 781.56 557.48C782.178 558.495 783.118 559.273 784.23 559.69C785.227 560.082 786.258 560.38 787.31 560.58L788.66 560.85C788.69 560.85 788.72 560.856 788.748 560.868C788.775 560.88 788.8 560.898 788.82 560.92Z" fill="#FFF8EE"/>
</svg>
