<svg width="73" height="75" viewBox="0 0 73 75" fill="none" xmlns="http://www.w3.org/2000/svg">
<g clip-path="url(#clip0_504_348)">
<path d="M6.78752 24.15C6.78752 24.15 -4.45756 50.4466 17.3921 67.7137C39.2418 84.9808 67.7901 52.0157 71.1316 35.6943C74.4731 19.3729 50.0411 27.2192 41.145 13.9821C32.2489 0.74509 15.0638 -7.68728 6.78752 24.15Z" fill="#084F89"/>
<path d="M4.5213 23.1481C4.5213 23.1481 -6.73437 49.4401 15.1259 66.7119C36.9862 83.9836 65.5133 51.0092 68.8548 34.6878C72.1962 18.3664 47.7643 26.2127 38.8788 12.9803C29.9932 -0.252047 12.787 -8.69378 4.5213 23.1481Z" fill="#6DAEE8"/>
<path d="M19.0273 10.9518C26.6711 9.26728 33.5559 13.1084 40.7065 15.2314C40.0262 14.5416 39.4141 13.7877 38.8787 12.9802C30.0616 -0.120602 13.1212 -8.53347 4.75587 22.3023C7.99327 16.8976 12.7312 12.308 19.0273 10.9518Z" fill="#4990D1"/>
<path fill-rule="evenodd" clip-rule="evenodd" d="M40.9703 29.4447C41.7134 28.8973 42.7596 29.0559 43.3071 29.799C45.5087 32.7877 48.3461 40.6095 43.4094 49.1726C42.9484 49.9722 41.9264 50.2467 41.1268 49.7857C40.3272 49.3247 40.0527 48.3028 40.5137 47.5032C44.6571 40.3162 42.1978 33.9287 40.616 31.7814C40.0686 31.0383 40.2272 29.9921 40.9703 29.4447Z" fill="#1B68AF"/>
<path fill-rule="evenodd" clip-rule="evenodd" d="M35.9091 32.8235C36.6322 32.2498 37.6834 32.371 38.2571 33.094C39.855 35.1083 41.8458 40.2748 38.3676 45.8771C37.8808 46.6612 36.8504 46.9022 36.0663 46.4154C35.2822 45.9285 35.0411 44.8982 35.528 44.114C38.1032 39.9662 36.5629 36.3365 35.6386 35.1714C35.0649 34.4483 35.1861 33.3971 35.9091 32.8235Z" fill="#1B68AF"/>
<path fill-rule="evenodd" clip-rule="evenodd" d="M22.3805 36.5742C25.6302 33.4089 27.9329 31.58 31.2868 29.5947C32.3197 28.9833 33.6052 29.7456 33.6052 30.946V48.4074C33.6052 49.553 32.424 50.32 31.3957 49.815C27.9656 48.1306 25.6409 46.5033 22.4173 43.5685C22.2653 43.4301 22.0783 43.3242 21.8728 43.3242H18.11C17.194 43.3242 16.3767 42.7048 16.2221 41.8019C16.0043 40.5306 16.0007 39.4655 16.223 38.1624C16.3771 37.2593 17.194 36.6394 18.1101 36.6394H22.2266C22.2844 36.6394 22.3391 36.6146 22.3805 36.5742Z" fill="#1B68AF"/>
</g>
<defs>
<clipPath id="clip0_504_348">
<rect width="73" height="75" fill="white"/>
</clipPath>
</defs>
</svg>
