<svg width="1440" height="891" viewBox="0 0 1440 891" fill="none" xmlns="http://www.w3.org/2000/svg">
<g clip-path="url(#clip0_332_2667)">
<path d="M1406.09 225.5L1404.88 225.73C1403.06 226.044 1401.27 226.526 1399.54 227.17C1398.59 227.539 1397.71 228.067 1396.94 228.73C1396.13 229.487 1395.48 230.402 1395.04 231.42C1394.48 232.732 1394.05 234.095 1393.76 235.49C1393.55 236.4 1393.37 237.32 1393.2 238.25C1393.21 238.303 1393.21 238.357 1393.2 238.41C1393.13 238.308 1393.08 238.186 1393.08 238.06C1392.78 236.252 1392.34 234.468 1391.79 232.72C1391.42 231.539 1390.84 230.434 1390.08 229.46C1389.26 228.514 1388.23 227.771 1387.08 227.29C1385.81 226.768 1384.49 226.363 1383.14 226.08C1382.22 225.88 1381.3 225.69 1380.38 225.53C1380.38 225.53 1380.28 225.53 1380.26 225.47C1380.24 225.41 1380.45 225.39 1380.55 225.37C1381.73 225.16 1382.9 224.92 1384.06 224.62C1385.39 224.31 1386.68 223.847 1387.9 223.24C1389.52 222.37 1390.77 220.951 1391.43 219.24C1392.01 217.781 1392.44 216.271 1392.73 214.73C1392.87 214.07 1393 213.41 1393.13 212.73C1393.13 212.66 1393.13 212.6 1393.19 212.5C1393.25 212.578 1393.28 212.672 1393.29 212.77C1393.57 214.378 1393.93 215.971 1394.38 217.54C1394.67 218.588 1395.09 219.595 1395.63 220.54C1396.52 222.011 1397.89 223.138 1399.5 223.74C1400.92 224.28 1402.39 224.689 1403.88 224.96L1405.88 225.35C1405.92 225.357 1405.97 225.374 1406 225.4C1406.04 225.426 1406.07 225.46 1406.09 225.5V225.5Z" fill="#FFF8EE"/>
<path d="M1440.87 35.5L1439.66 35.73C1437.84 36.0438 1436.05 36.5259 1434.32 37.17C1433.37 37.5392 1432.49 38.0667 1431.72 38.73C1430.91 39.4867 1430.26 40.4024 1429.82 41.42C1429.26 42.7322 1428.84 44.0952 1428.54 45.49C1428.33 46.4 1428.15 47.32 1427.98 48.25C1427.99 48.3032 1427.99 48.3568 1427.98 48.41C1427.91 48.3083 1427.86 48.1862 1427.86 48.06C1427.56 46.252 1427.13 44.4676 1426.57 42.72C1426.2 41.5385 1425.62 40.4338 1424.86 39.46C1424.04 38.5137 1423.02 37.7707 1421.86 37.29C1420.59 36.768 1419.27 36.363 1417.92 36.08C1417 35.88 1416.08 35.69 1415.16 35.53C1415.16 35.53 1415.06 35.53 1415.04 35.47C1415.02 35.41 1415.23 35.39 1415.33 35.37C1416.51 35.16 1417.68 34.92 1418.84 34.62C1420.17 34.3104 1421.46 33.8472 1422.68 33.24C1424.3 32.3699 1425.55 30.9514 1426.21 29.24C1426.79 27.7814 1427.22 26.2712 1427.51 24.73C1427.65 24.07 1427.78 23.41 1427.91 22.73C1427.91 22.66 1427.91 22.6 1427.97 22.5C1428.03 22.5782 1428.07 22.6721 1428.07 22.77C1428.35 24.3783 1428.71 25.9706 1429.16 27.54C1429.45 28.5878 1429.87 29.5955 1430.41 30.54C1431.31 32.0112 1432.67 33.1385 1434.28 33.74C1435.7 34.2803 1437.17 34.6887 1438.66 34.96L1440.66 35.35C1440.71 35.3571 1440.75 35.3743 1440.78 35.4004C1440.82 35.4264 1440.85 35.4605 1440.87 35.5V35.5Z" fill="#FFF8EE"/>
<path d="M490.917 158.949L490.366 159.055C489.53 159.2 488.709 159.423 487.915 159.72C487.478 159.887 487.073 160.129 486.721 160.436C486.348 160.781 486.051 161.2 485.849 161.667C485.592 162.269 485.395 162.894 485.261 163.535C485.165 163.957 485.082 164.38 485.004 164.802C485.004 164.802 485.004 164.848 485.004 164.88C484.968 164.833 484.948 164.774 484.949 164.715C484.809 163.886 484.612 163.069 484.357 162.268C484.179 161.726 483.901 161.223 483.535 160.785C483.164 160.347 482.691 160.005 482.158 159.789C481.565 159.545 480.951 159.359 480.322 159.234C479.904 159.137 479.482 159.055 479.055 158.977C479.055 158.977 479.014 158.977 479 158.949C479.041 158.921 479.088 158.905 479.138 158.903C479.679 158.807 480.216 158.697 480.749 158.564C481.359 158.423 481.949 158.208 482.507 157.926C483.251 157.528 483.828 156.876 484.132 156.089C484.395 155.42 484.595 154.726 484.729 154.019C484.793 153.716 484.848 153.413 484.912 153.101C484.919 153.067 484.928 153.033 484.94 153C484.967 153.034 484.982 153.076 484.981 153.119C485.11 153.859 485.279 154.592 485.486 155.314C485.62 155.795 485.812 156.257 486.06 156.691C486.471 157.364 487.095 157.88 487.832 158.16C488.496 158.419 489.183 158.616 489.884 158.747C490.182 158.811 490.485 158.867 490.802 158.926C490.842 158.919 490.883 158.927 490.917 158.949V158.949Z" fill="#FFF8EE"/>
<path d="M660.917 58.9492L660.366 59.0548C659.53 59.2004 658.709 59.4232 657.915 59.7204C657.478 59.8867 657.073 60.1291 656.721 60.4365C656.348 60.7813 656.051 61.2003 655.849 61.6667C655.592 62.2686 655.395 62.8944 655.261 63.535C655.165 63.9573 655.082 64.3796 655.004 64.802C655.004 64.802 655.004 64.8479 655.004 64.88C654.968 64.8327 654.948 64.7744 654.949 64.7147C654.809 63.8863 654.612 63.0687 654.357 62.2681C654.179 61.7263 653.901 61.2232 653.535 60.7853C653.164 60.3467 652.691 60.0048 652.158 59.7892C651.565 59.5455 650.951 59.3595 650.322 59.2338C649.904 59.1374 649.482 59.0548 649.055 58.9767C649.055 58.9767 649.014 58.9767 649 58.9492C649.041 58.9212 649.088 58.9053 649.138 58.9033C649.679 58.8069 650.216 58.6967 650.749 58.5636C651.359 58.4227 651.949 58.2084 652.507 57.9255C653.251 57.5276 653.828 56.8761 654.132 56.0894C654.395 55.4195 654.595 54.7264 654.729 54.0191C654.793 53.7161 654.848 53.4131 654.912 53.101C654.919 53.0667 654.928 53.0329 654.94 53C654.967 53.0338 654.982 53.076 654.981 53.1194C655.11 53.8592 655.279 54.5917 655.486 55.3136C655.62 55.7947 655.812 56.2573 656.06 56.6907C656.471 57.3636 657.095 57.8805 657.832 58.1596C658.496 58.4193 659.183 58.616 659.884 58.7472C660.182 58.8115 660.485 58.8666 660.802 58.9262C660.842 58.9192 660.883 58.9274 660.917 58.9492V58.9492Z" fill="#FFF8EE"/>
<path opacity="0.3" d="M578.96 294.96L577.76 295.19C575.939 295.507 574.151 295.993 572.42 296.64C571.468 297.002 570.588 297.53 569.82 298.2C569.007 298.951 568.36 299.864 567.92 300.88C567.36 302.191 566.931 303.554 566.64 304.95C566.43 305.87 566.25 306.79 566.08 307.71C566.08 307.71 566.08 307.81 566.08 307.88C566.001 307.777 565.959 307.65 565.96 307.52C565.656 305.715 565.225 303.934 564.67 302.19C564.283 301.01 563.676 299.914 562.88 298.96C562.071 298.004 561.041 297.26 559.88 296.79C558.589 296.259 557.249 295.854 555.88 295.58C554.97 295.37 554.05 295.19 553.12 295.02C553.12 295.02 553.03 295.02 553 294.96C553.089 294.899 553.193 294.864 553.3 294.86C554.48 294.65 555.65 294.41 556.81 294.12C558.138 293.813 559.424 293.346 560.64 292.73C562.261 291.863 563.517 290.444 564.18 288.73C564.754 287.271 565.189 285.761 565.48 284.22C565.62 283.56 565.74 282.9 565.88 282.22C565.894 282.145 565.914 282.072 565.94 282C565.999 282.074 566.031 282.166 566.03 282.26C566.311 283.872 566.679 285.467 567.13 287.04C567.42 288.088 567.84 289.096 568.38 290.04C569.275 291.506 570.634 292.632 572.24 293.24C573.687 293.806 575.183 294.234 576.71 294.52C577.36 294.66 578.02 294.78 578.71 294.91C578.797 294.895 578.886 294.913 578.96 294.96V294.96Z" fill="#FFF8EE"/>
<path d="M540.96 7.96001L539.76 8.19C537.939 8.50724 536.151 8.99265 534.42 9.64C533.468 10.0023 532.588 10.5305 531.82 11.2C531.007 11.9511 530.36 12.864 529.92 13.88C529.36 15.1911 528.931 16.5544 528.64 17.95C528.43 18.87 528.25 19.79 528.08 20.71C528.08 20.71 528.08 20.81 528.08 20.88C528.001 20.7769 527.959 20.6501 527.96 20.52C527.656 18.7153 527.225 16.9342 526.67 15.19C526.283 14.0098 525.676 12.9138 524.88 11.96C524.071 11.0043 523.041 10.2596 521.88 9.79001C520.589 9.25905 519.249 8.85383 517.88 8.58C516.97 8.37 516.05 8.19 515.12 8.02C515.12 8.02 515.03 8.02001 515 7.96001C515.089 7.89905 515.193 7.86437 515.3 7.86C516.48 7.65 517.65 7.41001 518.81 7.12001C520.138 6.81302 521.424 6.34629 522.64 5.73001C524.261 4.8632 525.517 3.44396 526.18 1.73001C526.754 0.270772 527.189 -1.23922 527.48 -2.78C527.62 -3.44 527.74 -4.1 527.88 -4.78C527.894 -4.85475 527.914 -4.9283 527.94 -5C527.999 -4.92629 528.031 -4.83444 528.03 -4.73999C528.311 -3.12823 528.679 -1.53263 529.13 0.0400085C529.42 1.08805 529.84 2.09582 530.38 3.04001C531.275 4.50593 532.634 5.63185 534.24 6.24001C535.687 6.80572 537.183 7.23426 538.71 7.52C539.36 7.66 540.02 7.78 540.71 7.91C540.797 7.89465 540.886 7.9125 540.96 7.96001V7.96001Z" fill="#FFF8EE"/>
<path d="M202.96 103.96L201.76 104.19C199.939 104.507 198.151 104.993 196.42 105.64C195.468 106.002 194.588 106.53 193.82 107.2C193.007 107.951 192.36 108.864 191.92 109.88C191.36 111.191 190.931 112.554 190.64 113.95C190.43 114.87 190.25 115.79 190.08 116.71C190.08 116.71 190.08 116.81 190.08 116.88C190.001 116.777 189.959 116.65 189.96 116.52C189.656 114.715 189.225 112.934 188.67 111.19C188.283 110.01 187.676 108.914 186.88 107.96C186.071 107.004 185.041 106.26 183.88 105.79C182.589 105.259 181.249 104.854 179.88 104.58C178.97 104.37 178.05 104.19 177.12 104.02C177.12 104.02 177.03 104.02 177 103.96C177.089 103.899 177.193 103.864 177.3 103.86C178.48 103.65 179.65 103.41 180.81 103.12C182.138 102.813 183.424 102.346 184.64 101.73C186.261 100.863 187.517 99.444 188.18 97.73C188.754 96.2708 189.189 94.7608 189.48 93.22C189.62 92.56 189.74 91.9 189.88 91.22C189.894 91.1453 189.914 91.0717 189.94 91C189.999 91.0737 190.031 91.1656 190.03 91.26C190.311 92.8718 190.679 94.4674 191.13 96.04C191.42 97.0881 191.84 98.0958 192.38 99.04C193.275 100.506 194.634 101.632 196.24 102.24C197.687 102.806 199.183 103.234 200.71 103.52C201.36 103.66 202.02 103.78 202.71 103.91C202.797 103.895 202.886 103.913 202.96 103.96V103.96Z" fill="#FFF8EE"/>
<path d="M25.96 93.96L24.76 94.19C22.939 94.5072 21.1513 94.9926 19.42 95.64C18.468 96.0023 17.5877 96.5305 16.82 97.2C16.0068 97.9511 15.3596 98.864 14.92 99.88C14.3601 101.191 13.9313 102.554 13.64 103.95C13.43 104.87 13.25 105.79 13.08 106.71C13.08 106.71 13.08 106.81 13.08 106.88C13.0008 106.777 12.9585 106.65 12.96 106.52C12.6556 104.715 12.2245 102.934 11.67 101.19C11.283 100.01 10.6756 98.9138 9.88 97.96C9.07055 97.0043 8.04102 96.2596 6.88 95.79C5.58865 95.259 4.24912 94.8538 2.88 94.58C1.97 94.37 1.05 94.19 0.119995 94.02C0.119995 94.02 0.03 94.02 0 93.96C0.0885671 93.899 0.192565 93.8644 0.299995 93.86C1.48 93.65 2.65 93.41 3.81 93.12C5.13811 92.813 6.42414 92.3463 7.64 91.73C9.2606 90.8632 10.5166 89.444 11.18 87.73C11.7538 86.2708 12.1891 84.7608 12.48 83.22C12.62 82.56 12.74 81.9 12.88 81.22C12.8944 81.1453 12.9144 81.0717 12.94 81C12.999 81.0737 13.0308 81.1656 13.03 81.26C13.3114 82.8718 13.6786 84.4674 14.13 86.04C14.4204 87.0881 14.8403 88.0958 15.38 89.04C16.2754 90.5059 17.6335 91.6318 19.24 92.24C20.6866 92.8057 22.1832 93.2343 23.71 93.52C24.36 93.66 25.02 93.78 25.71 93.91C25.7967 93.8946 25.8859 93.9125 25.96 93.96V93.96Z" fill="#FFF8EE"/>
<path opacity="0.4" d="M724.089 8.01237L723.348 8.15456C722.222 8.35069 721.117 8.65078 720.046 9.051C719.458 9.27499 718.913 9.60153 718.439 10.0155C717.936 10.4798 717.536 11.0442 717.264 11.6723C716.918 12.4829 716.653 13.3258 716.473 14.1886C716.343 14.7573 716.232 15.3261 716.127 15.8949C716.127 15.8949 716.127 15.9567 716.127 16C716.078 15.9362 716.051 15.8578 716.052 15.7774C715.864 14.6617 715.598 13.5606 715.255 12.4822C715.016 11.7526 714.64 11.075 714.148 10.4853C713.648 9.89448 713.011 9.43408 712.294 9.14374C711.495 8.81548 710.667 8.56496 709.821 8.39567C709.258 8.26584 708.689 8.15456 708.114 8.04946C708.114 8.04946 708.059 8.04946 708.04 8.01237C708.095 7.97468 708.159 7.95324 708.226 7.95054C708.955 7.82071 709.678 7.67234 710.396 7.49305C711.217 7.30326 712.012 7.01471 712.763 6.6337C713.765 6.0978 714.542 5.22038 714.952 4.16075C715.307 3.25859 715.576 2.32505 715.756 1.37249C715.842 0.964452 715.916 0.556415 716.003 0.136013C716.012 0.0898001 716.024 0.0443305 716.04 0C716.077 0.0455723 716.096 0.102358 716.096 0.160748C716.27 1.1572 716.497 2.14366 716.776 3.11592C716.955 3.76386 717.215 4.3869 717.549 4.97064C718.102 5.87692 718.942 6.57301 719.935 6.949C720.829 7.29874 721.755 7.56369 722.698 7.74034C723.1 7.82689 723.508 7.90108 723.935 7.98145C723.989 7.97196 724.044 7.983 724.089 8.01237V8.01237Z" fill="#FFF8EE"/>
<path d="M444.39 345.21L443.56 345.37C442.302 345.588 441.066 345.923 439.87 346.37C439.215 346.624 438.61 346.989 438.08 347.45C437.516 347.966 437.069 348.597 436.77 349.3C436.382 350.205 436.088 351.146 435.89 352.11C435.74 352.74 435.62 353.37 435.5 354.01C435.5 354.01 435.5 354.08 435.5 354.13C435.447 354.058 435.419 353.97 435.42 353.88C435.213 352.633 434.916 351.403 434.53 350.2C434.279 349.384 433.879 348.621 433.35 347.95C432.786 347.294 432.073 346.783 431.27 346.46C430.392 346.096 429.481 345.815 428.55 345.62C427.92 345.48 427.28 345.35 426.64 345.24C426.64 345.24 426.58 345.24 426.56 345.24C426.62 345.193 426.694 345.169 426.77 345.17C427.58 345.02 428.39 344.86 429.19 344.65C430.104 344.439 430.991 344.12 431.83 343.7C432.95 343.096 433.816 342.109 434.27 340.92C434.67 339.915 434.971 338.873 435.17 337.81L435.44 336.44C435.442 336.39 435.442 336.34 435.44 336.29C435.485 336.339 435.51 336.403 435.51 336.47C435.72 337.58 435.94 338.68 436.26 339.77C436.468 340.47 436.76 341.141 437.13 341.77C437.745 342.783 438.681 343.562 439.79 343.98C440.787 344.37 441.818 344.668 442.87 344.87L444.22 345.14C444.252 345.138 444.284 345.143 444.313 345.155C444.343 345.168 444.369 345.186 444.39 345.21V345.21Z" fill="#FFF8EE"/>
<path d="M1029.64 198.83L1028.81 198.99C1027.55 199.208 1026.32 199.543 1025.13 199.99C1024.48 200.248 1023.87 200.613 1023.34 201.07C1022.78 201.588 1022.33 202.218 1022.02 202.92C1021.64 203.827 1021.35 204.768 1021.15 205.73C1021 206.36 1020.87 206.99 1020.76 207.63V207.75C1020.71 207.678 1020.68 207.59 1020.68 207.5C1020.47 206.253 1020.18 205.024 1019.79 203.82C1019.53 203.006 1019.13 202.243 1018.61 201.57C1018.05 200.914 1017.33 200.403 1016.53 200.08C1015.65 199.718 1014.74 199.436 1013.81 199.24C1013.17 199.1 1012.54 198.97 1011.9 198.86C1011.9 198.86 1011.84 198.86 1011.82 198.86C1011.88 198.814 1011.95 198.789 1012.02 198.79C1012.84 198.64 1013.64 198.48 1014.44 198.27C1015.36 198.06 1016.25 197.741 1017.09 197.32C1018.21 196.712 1019.07 195.727 1019.53 194.54C1019.93 193.535 1020.22 192.493 1020.42 191.43C1020.52 190.97 1020.61 190.52 1020.7 190.06C1020.7 190.06 1020.7 189.97 1020.7 189.91C1020.74 189.959 1020.77 190.024 1020.77 190.09C1020.96 191.203 1021.21 192.304 1021.52 193.39C1021.72 194.089 1022.01 194.761 1022.38 195.39C1023 196.405 1023.94 197.183 1025.05 197.6C1026.05 197.992 1027.08 198.29 1028.13 198.49L1029.48 198.76C1029.51 198.76 1029.54 198.766 1029.57 198.778C1029.6 198.79 1029.62 198.808 1029.64 198.83V198.83Z" fill="#FFF8EE"/>
<path opacity="0.5" d="M855 141.5L853.929 141.706C852.309 141.987 850.718 142.419 849.179 142.996C848.337 143.328 847.556 143.798 846.869 144.388C846.141 145.056 845.56 145.868 845.165 146.773C844.675 147.942 844.299 149.155 844.042 150.396C843.849 151.208 843.681 152.02 843.539 152.845V153C843.47 152.907 843.434 152.794 843.435 152.678C843.168 151.07 842.785 149.485 842.287 147.933C841.957 146.883 841.441 145.901 840.764 145.033C840.036 144.186 839.115 143.527 838.079 143.112C836.945 142.644 835.769 142.282 834.568 142.029C833.742 141.848 832.929 141.68 832.103 141.539C832.103 141.539 832.026 141.539 832 141.539C832.073 141.479 832.164 141.447 832.258 141.448C833.317 141.255 834.349 141.049 835.382 140.778C836.567 140.508 837.715 140.096 838.802 139.553C840.244 138.77 841.36 137.499 841.951 135.969C842.463 134.673 842.847 133.33 843.1 131.96C843.229 131.367 843.345 130.786 843.461 130.193C843.461 130.193 843.461 130.077 843.461 130C843.519 130.064 843.551 130.146 843.552 130.232C843.798 131.667 844.121 133.087 844.52 134.487C844.783 135.388 845.156 136.254 845.63 137.065C846.427 138.373 847.64 139.376 849.076 139.914C850.362 140.419 851.693 140.803 853.051 141.062L854.793 141.41C854.832 141.409 854.871 141.417 854.907 141.432C854.942 141.448 854.974 141.471 855 141.5V141.5Z" fill="#FFF8EE"/>
<path d="M260.27 336.925C259.86 329.245 249.9 326.445 245.69 332.925C239.47 342.445 235.19 353.505 247.28 355.265C258.63 356.875 260.8 346.885 260.27 336.925Z" fill="white"/>
<path d="M1262.13 81.0257C1262.11 79.9506 1261.74 78.9113 1261.08 78.0622C1260.42 77.213 1259.5 76.5992 1258.47 76.3118C1257.43 76.0244 1256.33 76.0787 1255.33 76.4667C1254.32 76.8547 1253.47 77.5557 1252.9 78.4657C1248.97 84.4657 1246.27 91.4657 1253.9 92.5957C1261.09 93.6357 1262.46 87.3257 1262.13 81.0257Z" fill="white"/>
</g>
<defs>
<clipPath id="clip0_332_2667">
<rect width="1440" height="891" fill="white"/>
</clipPath>
</defs>
</svg>
